<svg xmlns="http://www.w3.org/2000/svg" width="1359.25" height="383.883" viewBox="0 0 1359.25 383.883"><g transform="translate(-90 -4714.319)"><g transform="translate(49.376 4727.633)"><g transform="translate(40.623 45)"><g transform="translate(28.61 74.97)"><rect width="171.03" height="100.855" fill="#fff"/><rect width="171.03" height="22.48" fill="#e0e4f0"/><path d="M62.808,161.048H217.634c-.251,0,.39-36.772-.088-40.471-5.628,2.959-9.918,8.622-15.889,11.575-4.8,2.374-10.609,3.823-15.978,2.919-5.037-.848-9.137-4.646-14.309-4.993-6.717-.451-11.264,5.022-16.063,8.777-6.734,5.272-15.277,11.667-23.955,12.99-5.6.853-10.114-1.651-13.593-5.866-4.506-5.457-6.81-10.416-14.452-11.464A23.941,23.941,0,0,0,85.9,138.9c-5.858,4.566-9.352,12.067-16.077,15.216-2.385,1.117-1.923,1.565-4.544,1.351-1.714-.14-.6-2.47-2.123-1.139C62.043,155.3,62.808,159.554,62.808,161.048Z" transform="translate(-56.706 -76.796)" fill="#f9d8cc"/><path d="M124.565,193.568H58.832V92.713h121.2" transform="translate(-58.832 -92.713)" fill="none" stroke="#191c3c" stroke-miterlimit="10" stroke-width="0.5"/></g><g transform="translate(445.656 18.643)"><rect width="116.887" height="36.663" fill="#fff"/><rect width="28.009" height="27.947" transform="translate(5.199 4.358)" fill="#fef7f4"/><rect width="70.654" height="4.925" transform="translate(40.973 4.358)" fill="#f9f9fb"/><rect width="70.654" height="4.925" transform="translate(40.973 13.464)" fill="#f9f9fb"/><rect width="28.257" height="4.925" transform="translate(40.973 22.57)" fill="#f9f9fb"/><path d="M331.752,56.865h105.1V93.528" transform="translate(-319.968 -56.865)" fill="none" stroke="#191c3c" stroke-miterlimit="10" stroke-width="0.5"/></g><g transform="translate(439.382 59.272)"><rect width="140.758" height="101.343" fill="#fff"/><rect width="140.758" height="10.887" fill="#dfe2ec"/><rect width="5.897" height="4.963" transform="translate(7.043 2.962)" fill="#fff"/><path d="M454.924,158.915V82.722h-124" transform="translate(-314.166 -82.722)" fill="none" stroke="#191c3c" stroke-miterlimit="10" stroke-width="0.5"/><line x2="73.964" transform="translate(41.638 101.343)" fill="none" stroke="#191c3c" stroke-miterlimit="10" stroke-width="0.5"/><rect width="27.203" height="27.151" transform="translate(37.318 44.131) rotate(180)" fill="#f2f3f7"/><rect width="27.203" height="27.151" transform="translate(74.465 44.131) rotate(180)" fill="#f2f3f7"/><rect width="45.976" height="27.151" transform="translate(130.386 44.131) rotate(180)" fill="#f2f3f7"/><rect width="54.798" height="4.899" transform="translate(9.919 51.63)" fill="#f2f3f7"/><rect width="121.042" height="2.449" transform="translate(9.344 64.782)" fill="#f2f3f7"/><rect width="121.042" height="2.449" transform="translate(9.344 73.735)" fill="#f2f3f7"/><rect width="121.041" height="2.449" transform="translate(9.858 82.688)" fill="#f2f3f7"/><rect width="60.547" height="2.449" transform="translate(10.372 91.641)" fill="#f2f3f7"/></g><g transform="translate(153.466)"><rect width="299.798" height="164.442" fill="#fff"/><rect width="27.321" height="37.797" transform="translate(54.669 99.509)" fill="#fcefea"/><rect width="27.321" height="68.653" transform="translate(93.046 68.531)" fill="#fcefea"/><rect width="27.321" height="82.189" transform="translate(129.953 54.994)" fill="#fcefea"/><rect width="27.321" height="59.146" transform="translate(166.861 78.038)" fill="#fcefea"/><rect width="27.321" height="87.429" transform="translate(203.769 49.755)" fill="#fcefea"/><line x1="178.998" transform="translate(66.84 164.442)" fill="none" stroke="#191c3c" stroke-miterlimit="10" stroke-width="0.5"/><line y2="120.048" transform="translate(33.32 29.33)" fill="none" stroke="#191c3c" stroke-miterlimit="10" stroke-width="0.5"/><line x2="215.997" transform="translate(21.664 137.306)" fill="none" stroke="#191c3c" stroke-miterlimit="10" stroke-width="0.5"/><path d="M159.667,158.455h13.308l21.174-26.593L212,141.035,261.432,98.14,287.508,128.3,355.289,73" transform="translate(-126.085 -29.005)" fill="none" stroke="#191c3c" stroke-miterlimit="10" stroke-width="0.5"/><rect width="299.798" height="13.356" fill="#dfe2ec"/><path d="M282.659,72.713l2.749.066-.069,2.88" transform="translate(-55.824 -29.169)" fill="none" stroke="#191c3c" stroke-miterlimit="10" stroke-width="0.5"/><path d="M138.294,144.509V45h299.8v74.9" transform="translate(-138.294 -45)" fill="none" stroke="#191c3c" stroke-miterlimit="10" stroke-width="0.5"/></g><g transform="translate(28.61 17.284)"><rect width="118.984" height="51.972" fill="#fff"/><rect width="118.984" height="51.972" fill="none" stroke="#191c3c" stroke-miterlimit="10" stroke-width="0.5"/><rect width="3.807" height="9.661" transform="translate(10.42 35.647)" fill="#f2f3f7"/><rect width="3.807" height="19.322" transform="translate(17.208 25.986)" fill="#f2f3f7"/><rect width="3.807" height="19.322" transform="translate(23.995 25.986)" fill="#f2f3f7"/><rect width="3.807" height="30.554" transform="translate(30.54 14.754)" fill="#f2f3f7"/><rect width="3.808" height="25.129" transform="translate(37.57 20.18)" fill="#f2f3f7"/><rect width="3.808" height="8.756" transform="translate(44.357 36.552)" fill="#f9d8cc"/><rect width="3.807" height="25.129" transform="translate(51.145 20.18)" fill="#f2f3f7"/><rect width="3.807" height="11.612" transform="translate(57.932 33.696)" fill="#f2f3f7"/><rect width="3.807" height="19.322" transform="translate(64.72 25.986)" fill="#f2f3f7"/><rect width="3.807" height="26.652" transform="translate(71.507 18.657)" fill="#f2f3f7"/><rect width="24.749" height="3.807" transform="translate(86.62 8.757)" fill="#f0f1fe"/><rect width="24.749" height="1.904" transform="translate(86.62 19.418)" fill="#f0f1fe"/><rect width="24.749" height="1.904" transform="translate(86.62 24.082)" fill="#f0f1fe"/><rect width="24.749" height="1.904" transform="translate(86.62 28.747)" fill="#f0f1fe"/><rect width="12.374" height="1.904" transform="translate(86.62 33.411)" fill="#f0f1fe"/></g><g transform="translate(0 208.748)" opacity="0.15"><path d="M103.247,219.73c-8.18-12.7-16.44-25.5-27.041-36.266-3.488-3.542-8.526-7.086-13.027-4.976-4.131,1.937-4.984,7.413-4.717,11.968,1.252,21.413,14.619,40.2,29.537,55.615a240.958,240.958,0,0,0,57.053,43.552l3.663.706C133.371,266.508,118.587,243.55,103.247,219.73Z" transform="translate(-30.459 -177.854)" fill="#8184c4"/><g transform="translate(35.376 12.252)"><path d="M138.856,280.583c-32.657-22.94-58.409-57.782-73.7-94.345-.547-1.306-2.478-.207-1.923,1.09A224.105,224.105,0,0,0,94.4,239.489c12.884,16.074,27.975,28.927,44.391,41.2.063.044.124-.061.061-.105Z" transform="translate(-63.138 -185.651)" fill="#575a8f"/></g><g transform="translate(32.895 29.374)"><path d="M61.76,197.615a32.218,32.218,0,0,0,14.841,7.9.683.683,0,0,0,.363-1.315,33.957,33.957,0,0,1-14.306-7.485c-.6-.542-1.5.341-.9.9Z" transform="translate(-61.559 -196.548)" fill="#575a8f"/></g><g transform="translate(44.177 47.493)"><path d="M68.781,208.314c4.048,4.244,9.959,9.435,15.75,10.925a.331.331,0,0,0,.253-.6c-2.379-1.752-5.253-2.868-7.754-4.473a82.537,82.537,0,0,1-8.05-6.048c-.137-.115-.327.064-.2.2Z" transform="translate(-68.739 -208.08)" fill="#575a8f"/></g><g transform="translate(61.148 68.317)"><path d="M79.6,221.695a30.658,30.658,0,0,0,11.439,6.045.471.471,0,0,0,.25-.907,44.592,44.592,0,0,1-11.432-5.47c-.2-.126-.437.171-.256.332Z" transform="translate(-79.54 -221.333)" fill="#575a8f"/></g><g transform="translate(49.888 23.427)"><path d="M72.379,193.479c.946,6.661,1.9,12.514,1.167,19.276-.132,1.213,1.73,1.205,1.881.024.8-6.283.577-13.833-2.01-19.716-.277-.628-1.12-.16-1.039.416Z" transform="translate(-72.373 -192.763)" fill="#575a8f"/></g><g transform="translate(60.517 39.029)"><path d="M79.164,203.078a46.19,46.19,0,0,1,4.244,20.153.753.753,0,0,0,1.505.019,38.521,38.521,0,0,0-5.3-20.426.258.258,0,0,0-.449.255Z" transform="translate(-79.139 -202.693)" fill="#575a8f"/></g><g transform="translate(74.958 56.241)"><path d="M88.376,214.48c3.5,7.768,6.323,14.52,6.915,23.145.1,1.411,2.308,1.447,2.209.028-.559-8.174-2.987-17.373-8.271-23.822-.413-.5-1.084.134-.853.649Z" transform="translate(-88.329 -213.647)" fill="#575a8f"/></g><path d="M144.548,260.759Q115.94,244.921,87.33,229.078c-6.731-3.725-13.557-7.492-21.014-9.382s-15.747-1.724-22.408,2.126a7.387,7.387,0,0,0-2.47,2.063c-1.911,2.776-.121,6.547,1.879,9.259,15.851,21.476,43.522,30.274,69.726,35.364,15.628,3.034,32.348,5.108,47.036-1.037A126.123,126.123,0,0,1,144.548,260.759Z" transform="translate(-40.623 -154.623)" fill="#8184c4"/><g transform="translate(7.525 72.789)"><path d="M45.679,225.3c13.686,9.146,28.914,15.318,44.308,20.959,17.061,6.25,34.177,12.356,51.171,18.783,1.331.5,2.19-1.571.847-2.041-16.47-5.757-32.846-11.791-49.245-17.747-15.984-5.807-31.955-11.671-46.31-20.961-.679-.44-1.457.55-.771,1.007Z" transform="translate(-45.413 -224.179)" fill="#575a8f"/></g><g transform="translate(12.777 84.886)"><path d="M49.011,232.483a168.2,168.2,0,0,0,16.9,2.156c1.34.069,1.662-1.939.289-2.1a169.262,169.262,0,0,0-17.1-.665.306.306,0,0,0-.083.6Z" transform="translate(-48.755 -231.878)" fill="#575a8f"/></g><g transform="translate(34.78 95.166)"><path d="M63.477,241.061l11.027-.343c3.625-.113,7.44.08,10.975-.792a.662.662,0,0,0,.011-1.307c-3.455-.487-7.047.042-10.51.292l-11.66.842c-.856.061-.677,1.334.157,1.307Z" transform="translate(-62.759 -238.42)" fill="#575a8f"/></g><g transform="translate(63.213 103.739)"><path d="M81.408,248.552a58.673,58.673,0,0,1,9.308-2.189c2.632-.291,5.438.357,7.963-.313.693-.182.489-1.084.009-1.35-2.456-1.367-6.527-.735-9.187-.228a20.836,20.836,0,0,0-8.483,3.389c-.388.283-.02.8.39.69Z" transform="translate(-80.854 -243.876)" fill="#575a8f"/></g><g transform="translate(23.24 70.564)"><path d="M55.505,223.645a72.945,72.945,0,0,1,5.088,9.264c1.1,2.464,1.744,5.248,3.315,7.44a.356.356,0,0,0,.632-.256c-.2-3.089-2.044-6.1-3.427-8.831a92.444,92.444,0,0,0-4.745-8.27c-.377-.588-1.233.069-.863.652Z" transform="translate(-55.414 -222.763)" fill="#575a8f"/></g><g transform="translate(42.118 81.16)"><path d="M67.456,229.688c3.18,3.823,6.17,8.431,9.918,11.695.253.22.559-.141.4-.394-2.687-4.161-6.805-7.757-10.127-11.442-.1-.11-.284.025-.187.141Z" transform="translate(-67.429 -229.506)" fill="#575a8f"/></g><g transform="translate(61.311 87.982)"><path d="M79.76,234.748c1.721,2.3,3.556,4.55,5.18,6.918,1.422,2.071,2.544,4.491,4.689,5.891a.451.451,0,0,0,.687-.52c-.765-2.44-2.813-4.17-4.4-6.109-1.823-2.225-3.507-4.577-5.256-6.86a.565.565,0,0,0-.9.68Z" transform="translate(-79.644 -233.848)" fill="#575a8f"/></g><path d="M108.923,184.875c-2.853-2.649-7.55-3.721-10.666-1.387-2.842,2.127-3.4,6.112-3.523,9.66-1.1,32.011,16.137,65.786,31.086,94.112l3.249.872c-2.357-31.41-4.785-63.185-14.647-93.1C113.2,191.336,111.776,187.524,108.923,184.875Z" transform="translate(-9.74 -175.37)" fill="#8184c4"/><g transform="translate(93.536 19.014)"><path d="M121.546,272.831c-8.4-27.018-14.162-54.6-19.925-82.273-.192-.919-1.659-.731-1.447.174,6.448,27.467,11.654,55.582,20.936,82.273.1.289.526.112.437-.174Z" transform="translate(-100.153 -189.955)" fill="#575a8f"/></g><g transform="translate(89.11 28.228)"><path d="M97.485,196.982l4.117,5.554c1.2,1.618,2.259,3.458,3.9,4.652a.522.522,0,0,0,.8-.6c-.7-1.895-2.193-3.432-3.421-5.017q-2.114-2.734-4.231-5.468a.729.729,0,0,0-1.161.88Z" transform="translate(-97.336 -195.819)" fill="#575a8f"/></g><g transform="translate(92.5 44.452)"><path d="M99.556,206.7c2.428,3.938,4.712,8.76,7.927,12.091a.33.33,0,0,0,.567-.321c-1.194-4.486-4.89-8.826-7.932-12.2a.353.353,0,0,0-.563.426Z" transform="translate(-99.493 -206.145)" fill="#575a8f"/></g><g transform="translate(97.675 63.43)"><path d="M102.807,218.9c.649,2.462,2.305,4.8,3.526,7.038a38.963,38.963,0,0,0,3.455,5.955.33.33,0,0,0,.567-.321A45.21,45.21,0,0,0,107,224.461c-1.023-2.039-1.856-4.307-3.34-6.048a.5.5,0,0,0-.853.482Z" transform="translate(-102.787 -218.222)" fill="#575a8f"/></g><g transform="translate(100.875 37.199)"><path d="M109.3,201.675a29.433,29.433,0,0,0-3.474,8.171c-.572,2.2-1.527,5.446-.632,7.628a.5.5,0,0,0,.914.008c1-2.041.748-4.967,1.222-7.228a50.929,50.929,0,0,1,2.574-8.23c.141-.355-.388-.7-.6-.349Z" transform="translate(-104.824 -201.528)" fill="#575a8f"/></g><g transform="translate(108.983 59.105)"><path d="M111.7,215.685c-.492,2.886-.825,5.752-1.111,8.666-.253,2.58-.848,5.336-.492,7.914.071.518.91.716,1.081.149.8-2.64.635-5.622.8-8.362.168-2.8.269-5.554.237-8.362,0-.3-.465-.283-.514,0Z" transform="translate(-109.983 -215.47)" fill="#575a8f"/></g></g><g transform="translate(522.986 169.111)" opacity="0.15"><path d="M373.468,307.47c2.409-20.562,5.6-35.83,20.642-50.582,7.053-6.917,16.373-11.761,21.938-19.842,6.777-9.839,7.316-23.549,16.626-31.223,9.99-8.238,26.015-5.98,36.3-13.873,7.336-5.628,10.029-15.067,15.3-22.544,8.541-12.124,24.738-18.753,39.714-16.258-14.995,3.523-25.572,19.46-22.612,34.067,1.895,9.344,8.486,17.878,7.676,27.365-1.611,18.843-30.12,26.908-32.318,45.7-.6,5.116.957,10.226,1.171,15.37.662,15.983-13.766,31.119-30.335,31.824Z" transform="translate(-373.468 -152.627)" fill="#8184c4"/><g transform="translate(42.474 47.377)"><path d="M470.11,182.839a264.592,264.592,0,0,0-39.366,46.333c-10.848,16.244-18.492,33.487-27.293,50.727-.793,1.554-3.4.465-2.885-1.174,11.547-37,40.151-70.578,69.492-95.937.034-.03.086.019.052.05Z" transform="translate(-400.5 -182.779)" fill="#575a8f"/></g><g transform="translate(87.024 65.421)"><path d="M452.636,195.365a29.628,29.628,0,0,0-12.22.991c-4.147,1.273-6.973,3.887-10.773,5.633-.423.193-1.017-.233-.7-.679,4.664-6.635,16.341-7.83,23.792-6.642a.354.354,0,0,1-.1.7Z" transform="translate(-428.853 -194.263)" fill="#575a8f"/></g><g transform="translate(69.441 85.013)"><path d="M449.827,208.916a36.775,36.775,0,0,0-17.186-.209c-5.193,1.238-9.22,4.044-13.829,6.434a.756.756,0,0,1-.933-1.167c7.691-8.015,21.982-8.664,32.046-5.4a.177.177,0,0,1-.1.341Z" transform="translate(-417.663 -206.732)" fill="#575a8f"/></g><g transform="translate(51.717 111.632)"><path d="M446.1,226.651c-15.8-1.854-26.253,1.2-38.18,11.436-.71.61-1.964-.182-1.384-1.029,7.756-11.323,26.9-16.786,39.769-11.132a.39.39,0,0,1-.2.726Z" transform="translate(-406.382 -223.673)" fill="#575a8f"/></g><g transform="translate(78.708 57.101)"><path d="M426.181,189.1c6.359,6.725,4.027,20.051-2.115,26.16-.228.228-.643-.069-.46-.343,2.739-4.121,4.714-8.084,4.863-13.093.138-4.607-1.719-8.05-3.084-12.276a.478.478,0,0,1,.8-.448Z" transform="translate(-423.56 -188.968)" fill="#575a8f"/></g><g transform="translate(66.27 72.038)"><path d="M418.833,198.772c3.251,8.684,2.9,20.222-2.363,28.152-.259.393-.955.149-.8-.328,3.059-9.676,4.422-17.487,2.318-27.6a.441.441,0,0,1,.85-.226Z" transform="translate(-415.645 -198.474)" fill="#575a8f"/></g><g transform="translate(48.698 88.637)"><path d="M406.878,209.343c5.666,12.19,4.877,25.7-.429,37.867-.484,1.111-2.393.639-1.911-.509,5.129-12.213,4.847-24.359,1.2-36.895-.185-.636.844-1.1,1.141-.464Z" transform="translate(-404.461 -209.038)" fill="#575a8f"/></g></g></g><g transform="translate(427.837 114.136)"><rect width="7.318" height="11.141" transform="translate(14.064 244.239) rotate(180)" fill="#5361f0"/><g transform="translate(0 241.37)"><path d="M302.109,242.615a45.718,45.718,0,0,0,1.683,8.6c.165.506.575.9.575,1.433v4.106H287.058v-2.181a4.677,4.677,0,0,1,.922-2.78c1.472-1.992,5.853-6.114,5.166-9.182Z" transform="translate(-287.058 -242.615)" fill="#e03c00"/><path d="M296.611,242.615h.041l-.022.112C296.625,242.69,296.616,242.651,296.611,242.615Z" transform="translate(-281.601 -242.615)" fill="#191c3c"/><path d="M304.367,249.732v2.96H287.058v-2.181a4.755,4.755,0,0,1,.068-.779Z" transform="translate(-287.058 -238.549)" fill="#191c3c"/><rect width="4.769" height="1.069" rx="0.271" transform="translate(12.091 3.404) rotate(180)" fill="#191c3c"/><rect width="4.769" height="1.069" rx="0.271" transform="translate(11.515 5.789) rotate(180)" fill="#191c3c"/></g><rect width="7.318" height="11.141" transform="translate(61.667 244.239) rotate(180)" fill="#5361f0"/><path d="M326.859,194.279c-2.038,5.039-14.426,39.381-14.426,39.381l-11.165,52.435h-10.9l5.625-59.5,4.112-63.182,23.637,2.813,4.275,21.133Z" transform="translate(-285.17 -46.493)" fill="#2e35a8"/><path d="M339.5,174.286l-.683,52.8-2.6,57.99H325.832l-4.184-46.233L311.6,184.4V165.2l25.913,2.38Z" transform="translate(-273.036 -45.471)" fill="#2e35a8"/><path d="M313.066,130.289h15.579V109.77H311.6C315.553,114.9,313.066,130.289,313.066,130.289Z" transform="translate(-273.036 -77.135)" fill="#5361f0"/><path d="M345.685,197.215c-.506,12.152-39.814-7.434-48.382-2.885l10.386-71.48s9.516-3.785,13.546-.826c5.553,4.074,15.579,0,15.579,0l7,2.776S346.119,186.829,345.685,197.215Z" transform="translate(-281.205 -70.78)" fill="#fff"/><path d="M325.978,114.648s2.825,47.179-20.514,77.047c0,0-7.132,17.633-12.9,18.5,0,0-6.024-15.292,1.332-27.37,4.519-7.42,13.246-23.674,13.764-32.346l1.483-24.886Z" transform="translate(-285.24 -74.348)" fill="#191c3c"/><path d="M324.993,114.648s-6.819,30.911-7,46.7c-.143,12.839,19.795,55.654,19.795,55.654s12.309-12.845,5.817-27.692c-4.279-9.786-9.054-17.524-8.446-23.954L335,121.181Z" transform="translate(-269.385 -74.348)" fill="#191c3c"/><path d="M308.18,114.508a32.688,32.688,0,0,1,3.22-11.519c.819-1.79,1.716-3.542,2.7-5.24a12.086,12.086,0,0,0,.979-1.782,2.209,2.209,0,0,1,1.827-1.274,6.511,6.511,0,0,1,2.313.264,43.566,43.566,0,0,1,9.347,2.918,18.135,18.135,0,0,1,3.254,1.89,9.856,9.856,0,0,1,3.216,4.426c1.073,2.979.646,6.274.024,9.38a8.017,8.017,0,0,1-.679,2.208,8.241,8.241,0,0,1-3.422,2.984q-2.619,1.506-5.323,2.86A19.5,19.5,0,0,1,322.364,123a20.641,20.641,0,0,1-6.269.5,9.954,9.954,0,0,1-4.766-.941,6.311,6.311,0,0,1-2.7-3.543A12.172,12.172,0,0,1,308.18,114.508Z" transform="translate(-275.012 -85.764)" fill="#5361f0"/><path d="M311.274,89c2.973,2.517,6.965,3.441,10.832,3.919s7.823.6,11.513,1.854c2.288.776,5.848,2.212,6.947,4.56,1.54,3.287,1.292,8.161.449,11.582a17.24,17.24,0,0,1-3.6,7.075c-1.908,2.225-4.255,3.309-6.829,4.579q-.328.16-.649.332a3.323,3.323,0,0,1-.677.393c-.435.09-.533-.66-.53-1a3.838,3.838,0,0,1,.6-1.871,11.524,11.524,0,0,1,1.109-1.358c1.068-1.331,1-2.957,1.138-4.565a5.822,5.822,0,0,0-.148-2.333,2.2,2.2,0,0,0-1.629-1.535,2.924,2.924,0,0,0-2.215.922,11.9,11.9,0,0,0-2.932,3.879l-.127-4.107a10.052,10.052,0,0,0-.353-2.8c-.385-1.18-1.218-2.336-.921-3.542a12.689,12.689,0,0,0,.562-1.6,2.139,2.139,0,0,0-1.241-1.969,7.944,7.944,0,0,0-2.379-.63c-1.271-.225-2.469-.644-3.7-.985a7.8,7.8,0,0,1-3.215-1.538,6.211,6.211,0,0,1-1.78-3.248,16.84,16.84,0,0,1-.316-3.741A18.223,18.223,0,0,1,311.274,89Z" transform="translate(-273.278 -89)" fill="#191c3c"/><path d="M349.555,136.05l8.37,21.589a7.626,7.626,0,0,1-.591,6.728l-26.6,33.873-4.722-7.086,17.062-27a8.07,8.07,0,0,0-.181-7.361l-8.265-14.542S344.649,145.979,349.555,136.05Z" transform="translate(-264.807 -62.122)" fill="#5361f0"/><path d="M328.146,171.12l-3.047.542-2.105,1.939a1.9,1.9,0,0,0-.145,2.644l.624.716-.943,1.507a1.743,1.743,0,0,0,.127,2.024L325.6,184.1a1.744,1.744,0,0,0,2.269.38l3.188-1.981a2.978,2.978,0,0,0,1.354-1.963l.456-2.335Z" transform="translate(-266.945 -42.088)" fill="#5361f0"/><g transform="translate(49.333 241.37)"><path d="M331.776,242.615a10.326,10.326,0,0,0,2.55,8.6,2.18,2.18,0,0,1,.573,1.433v4.106H318.455v-2.181a4.668,4.668,0,0,1,.924-2.78c1.472-1.992,4.121-6.114,3.435-9.182Z" transform="translate(-318.455 -242.615)" fill="#e03c00"/><path d="M326.907,242.615h.041l-.02.112C326.921,242.69,326.912,242.651,326.907,242.615Z" transform="translate(-313.627 -242.615)" fill="#191c3c"/><path d="M334.9,249.732v2.96H318.455v-2.181a4.6,4.6,0,0,1,.069-.779Z" transform="translate(-318.455 -238.549)" fill="#191c3c"/><rect width="4.769" height="1.069" rx="0.271" transform="translate(10.361 3.404) rotate(180)" fill="#191c3c"/><rect width="4.769" height="1.069" rx="0.271" transform="translate(9.785 5.789) rotate(180)" fill="#191c3c"/></g><path d="M322.449,114.648l10.853,7.085,4.836,2.3a13.582,13.582,0,0,1,6.822,7.338l8.719,19.837c-9.42,1.827-9.809,10.339-16.522,8.752l-9.635-22.936-5.074-11.433Z" transform="translate(-266.84 -74.348)" fill="#191c3c"/><path d="M325.908,114.648l-10.878,4.668-6.065,1.585a12.871,12.871,0,0,0-8.477,7.151L290.363,148.18c6.491,0,13.238,8.7,14.28,7.019l12.443-21.819Z" transform="translate(-285.17 -74.348)" fill="#191c3c"/><path d="M312.631,116.114a3.054,3.054,0,0,1,1.508-3.04h0a1.632,1.632,0,0,0,.723-.861l.96-2.652a4.464,4.464,0,0,0,.217-2.168l-.306-2.057a1.715,1.715,0,0,0-2.4-1.312l-3.5,1.581-2.159,2.117-.014.031a14.165,14.165,0,0,0,.462,5.529,7.025,7.025,0,0,0,3.015,3.952,6.6,6.6,0,0,0,1.724.655Z" transform="translate(-275.333 -80.506)" fill="#231f20" opacity="0.15"/><path d="M291.492,154.915l23.638-37.99v-6.349a2.956,2.956,0,0,1,.888-2.115l2.663-2.613,3.136-1.416a1.539,1.539,0,0,1,2.154,1.175l.273,1.843a3.986,3.986,0,0,1-.195,1.944l-.859,2.379a1.477,1.477,0,0,1-.649.771h0a2.739,2.739,0,0,0-1.351,2.725l.231,1.79,4.169.823-5.223,4.019-17.022,39.23a6.711,6.711,0,0,1-9,3.4h0A6.711,6.711,0,0,1,291.492,154.915Z" transform="translate(-285.105 -80.263)" fill="#5361f0"/></g><g transform="translate(506.505 180.463)"><g transform="translate(28.262 58.35)"><path d="M371.38,196.923l-.008,0a.492.492,0,0,1-.669-.187l-15.529-27.656a.49.49,0,0,1,.189-.668l.008,0a.49.49,0,0,1,.668.187l15.529,27.656A.49.49,0,0,1,371.38,196.923Z" transform="translate(-355.111 -168.349)" fill="#191c3c"/><path d="M1.042,0H40.793a1.041,1.041,0,0,1,1.041,1.041V2.264a1.042,1.042,0,0,1-1.042,1.042H1.041A1.041,1.041,0,0,1,0,2.264V1.042A1.042,1.042,0,0,1,1.042,0Z" transform="translate(12.829 28.35)" fill="#474963"/><path d="M405.109,187.717a1.509,1.509,0,0,0-.372-.973,1.539,1.539,0,0,1-1.537,1.532l-38.757.02a1.515,1.515,0,0,1-1.166-.564l0,.006v.229a1.539,1.539,0,0,0,1.538,1.538l38.758-.022a1.536,1.536,0,0,0,1.537-1.538Z" transform="translate(-350.447 -157.84)" fill="#191c3c"/><g transform="translate(40.792 29.228)"><rect width="3.041" height="1.166" fill="#75778a"/></g><g transform="translate(44.395 29.226)"><rect width="3.041" height="1.166" fill="#75778a"/></g><g transform="translate(18.812 29.24)"><rect width="3.041" height="1.166" fill="#75778a"/></g></g><g transform="translate(64.293 44.992)"><path d="M415.75,238.016h0a14.73,14.73,0,0,0,14.731-14.731V164" transform="translate(-356.501 -157.475)" fill="none" stroke="#191c3c" stroke-miterlimit="10" stroke-width="0.5"/><path d="M4.794,0H61.1a4.794,4.794,0,0,1,4.794,4.794V8.719a0,0,0,0,1,0,0H0a0,0,0,0,1,0,0V4.794A4.794,4.794,0,0,1,4.794,0Z" transform="translate(0 76.183)" fill="#2e35a8"/><path d="M428.9,159.847v49.7h0a7.534,7.534,0,0,1-7.533-7.533V167.38a7.533,7.533,0,0,1,7.533-7.533Z" transform="translate(-353.294 -159.847)" fill="#2e35a8"/><line x1="1.908" y2="23.684" transform="translate(8.032 84.901)" fill="none" stroke="#191c3c" stroke-miterlimit="10" stroke-width="0.5"/><line x2="5.152" y2="59.114" transform="translate(57.921 84.901)" fill="none" stroke="#191c3c" stroke-miterlimit="10" stroke-width="0.5"/></g><path d="M359.114,239.792l-6.36,4.083L342.3,242.763l-1.149,5.465,23.545,7.759,3.158-13.314Z" transform="translate(-334.824 -69.186)" fill="#5361f0"/><path d="M346.037,242.336l-6.973-1.32-1.056.586a1.717,1.717,0,0,0-.874,1.689l.006.06a4.676,4.676,0,0,0,1.815,3.213l4.547,3.462,23.2,7.646,1.777-5.391a4.21,4.21,0,0,0,.207-1.224l.053-3.111-1.017,1.537-9.226.713a19.971,19.971,0,0,1-7.489-.845l-2.516-.783a5.313,5.313,0,0,1-2.569-1.754h0a3.23,3.23,0,0,1-.4-3.4Z" transform="translate(-337.124 -68.486)" fill="#191c3c"/><g transform="translate(0.001 173.717)"><path d="M339.2,245.373a4.668,4.668,0,0,1-1.813-3.212l-.006-.06a1.646,1.646,0,0,1,.013-.33,1.7,1.7,0,0,0-.262,1.087l.006.06a4.68,4.68,0,0,0,1.813,3.212l4.549,3.463,23.2,7.646.25-.757-23.2-7.644Z" transform="translate(-337.125 -241.772)" fill="#191c3c"/></g><path d="M408,216.235,386.67,222.9l-23.423,45.047-12.371-2.657L371.258,218.8a50.2,50.2,0,0,1,21.387-20.53l6.97-.1Z" transform="translate(-329.268 -92.963)" fill="#e03c00"/><path d="M382.981,241.439l-4.763,5.868-10.276,2.216.619,5.55h24.79l-1.168-13.634Z" transform="translate(-319.52 -68.245)" fill="#5361f0"/><path d="M371.885,247.108l-7.036.93-.819.886a1.722,1.722,0,0,0-.3,1.878l.025.055a4.677,4.677,0,0,0,2.729,2.483l5.4,1.867h24.425v-5.677a4.164,4.164,0,0,0-.185-1.227l-.922-2.971-.486,1.777-8.538,3.565a20.013,20.013,0,0,1-7.379,1.543l-2.633.042a5.316,5.316,0,0,1-2.989-.861h0a3.229,3.229,0,0,1-1.441-3.106Z" transform="translate(-322.014 -66.021)" fill="#191c3c"/><g transform="translate(41.57 183.665)"><path d="M366.479,250.96a4.675,4.675,0,0,1-2.728-2.483l-.025-.055a1.64,1.64,0,0,1-.091-.319,1.7,1.7,0,0,0,.091,1.116l.025.053a4.673,4.673,0,0,0,2.728,2.484l5.4,1.867h24.425v-.8H371.882Z" transform="translate(-363.581 -248.103)" fill="#191c3c"/></g><path d="M390.881,198.17l-6.97.1A50.159,50.159,0,0,0,366.165,213.2L371.6,235.09l6.337-12.188,6.835-2.137a4.129,4.129,0,0,1,4.049-3.174l5.914.058,4.527-1.414Z" transform="translate(-320.535 -92.963)" fill="#231f20" opacity="0.1"/><path d="M425.157,189.731l-6.829,6.969-39.855,4.239A12.693,12.693,0,0,0,367.5,216.62l14.071,56.688h11.687L386.5,227.7a4.14,4.14,0,0,1,4.136-4.747l39.985.394a18.392,18.392,0,0,0,13.109-5.371,17.806,17.806,0,0,0,4.379-17.133l-3.15-12.053Z" transform="translate(-319.99 -98.322)" fill="#e03c00"/><path d="M422.912,161.07c-2.194-6.654-4.895-13.219-8.952-18.934a14.365,14.365,0,0,0-2.6-2.946,11.587,11.587,0,0,0-2.3-1.4,23.334,23.334,0,0,0-11.616-1.981,4.345,4.345,0,0,0-1.68.39,3.466,3.466,0,0,0-.958.786c-2.182,2.439-2.256,7.693.3,9.926a8.366,8.366,0,0,0,1.191.831c1.224.735,1.541,1.045,1.512,2.475a22.935,22.935,0,0,0,.236,4.417,9.324,9.324,0,0,0,2.38,5.028,13.941,13.941,0,0,0,2.866,2.043c.878.52,2.12.951,2.66,1.845,1.178,1.958.685,4.8,1.516,6.967a7.429,7.429,0,0,0,3.424,4.073,9.765,9.765,0,0,0,3.752.83c2.767.189,5.677.506,7.6-1.853a9.014,9.014,0,0,0,1.841-3.886C424.67,166.8,423.828,163.853,422.912,161.07Z" transform="translate(-305.104 -128.634)" fill="#2e35a8"/><rect width="10.382" height="9.869" transform="translate(106.608 27.51)" fill="#5361f0"/><path d="M435.208,226.476s-6.389-22.439-6.492-24.469c-.278-4.143.049-4.821,1.2-8.812l5.1-11.949c1.56-5.422.306-11.382-1.68-16.662l-4.887-12.994-8.331,3.182-10.158,2.179-3.121,9.946-8.945,15.9a2.822,2.822,0,0,0-.031,2.75c.969,1.749,2.908,3.828,3.59,5,1.188,6.6-5.2,27.979-5.2,27.979C407.923,221.566,429.965,236.008,435.208,226.476Z" transform="translate(-303.348 -119.572)" fill="#191c3c"/><path d="M397.1,140.243c-.09.529-.1,1.12-.156,1.81a24.422,24.422,0,0,0,2.8,13.23c.652,1.218,1.408,2.379,2.164,3.535a3.04,3.04,0,0,0,.709.844,2.617,2.617,0,0,0,1.023.4,11.886,11.886,0,0,0,6.943-.806,23.331,23.331,0,0,0,3.933-2.206c.61-.4.57-.159.778-.947.383-1.457.721-2.927,1.081-4.39q.94-3.818,1.881-7.639L415.174,136l-14.035.673a10.139,10.139,0,0,0-2.616,1.345A3.167,3.167,0,0,0,397.1,140.243Z" transform="translate(-302.989 -128.48)" fill="#5361f0"/><path d="M421.345,161.875s-2.116,18.934-2.484,27.623a4.782,4.782,0,0,1-5,4.558l-19.642-.891c-2.244.787-5.606-4.631-7.88-5.328a14.945,14.945,0,0,0-4.443.024,1.442,1.442,0,0,0-.954.526l-.468.46a3.477,3.477,0,0,0-1,1.986l-3.152,7.79,1.1-.072a4.7,4.7,0,0,0,2.479-1.716l.834-2.75,1.637-.589,6.755,4.145s4.577,1.35,5.946,1.551c5.033.74,16.616,3.275,22.523,4.475a9.561,9.561,0,0,0,8.013-1.97c1.791-1.485,3.35-3.451,3.372-5.529l4.937-33.507Z" transform="translate(-314.737 -113.697)" fill="#5361f0"/><path d="M402.25,178.376l1.295-8.34c.445-4.191,2.556-7.041,5.083-10.413h0l11.42,1.21h0a51.161,51.161,0,0,1,.443,14l-.374,3.543S405.155,181.768,402.25,178.376Z" transform="translate(-299.921 -114.983)" fill="#191c3c"/><g transform="translate(100.188 10.015)" opacity="0.1"><path d="M400.893,137.6a.006.006,0,0,0,0-.013.006.006,0,0,0,0,.013Z" transform="translate(-400.887 -137.587)" fill="#191c3c"/></g><path d="M433.407,163.171c.361-2.638,1.5-5.22,1.174-7.861-.459-3.714-3.648-6.486-4.916-10.009a53.909,53.909,0,0,1-1.224-5.641,7.159,7.159,0,0,0-3.018-4.733c-1.694-.96-3.787-.735-5.682-1.183-2.618-.618-4.918-2.544-7.61-2.531-2.34.011-4.411,1.5-6.7,1.981-2.665.566-5.567-.234-8.089.793a3.758,3.758,0,0,0-1.614,1.158c-.93,1.229-.665,2.984-.108,4.422a13.921,13.921,0,0,0,12.9,8.661l-.22-.141a6.342,6.342,0,0,1,2.478,1.593c1.791,1.969,1.76,5.039,3.3,7.207,1.5,2.107,4.269,3.07,5.633,5.267,1.439,2.319.914,5.323,1.617,7.962.756,2.835,2.872,5.07,4.894,7.2a8.1,8.1,0,0,1,1.428,1.823c.709,1.381.58,3.02.716,4.566A12.937,12.937,0,0,0,431,190.379c.815,1.068,2.992,4.337,4.615,2.806a2.973,2.973,0,0,0,.674-1.164C440.047,182.076,432.044,173.115,433.407,163.171Z" transform="translate(-303.997 -131.213)" fill="#2e35a8"/><path d="M383.714,182.469l-4.37,1.865.082.427a1.778,1.778,0,0,0,2.209,1.381l4.681-1.268Z" transform="translate(-313.006 -101.932)" fill="#5361f0"/></g><g transform="translate(206.781 184.814)"><rect width="9.068" height="15.205" transform="translate(125.013 165.061) rotate(-45.627)" fill="#5361f0"/><rect width="9.068" height="15.205" transform="translate(80.045 159.843) rotate(17.062)" fill="#5361f0"/><g transform="translate(23.248 116.608)"><path d="M4.794,0H70.426A4.794,4.794,0,0,1,75.22,4.794V8.759a0,0,0,0,1,0,0H0a0,0,0,0,1,0,0V4.794A4.794,4.794,0,0,1,4.794,0Z" fill="#191c3c"/><line x1="5.176" y2="59.389" transform="translate(1.72 8.759)" fill="none" stroke="#191c3c" stroke-miterlimit="10" stroke-width="0.5"/><line x2="5.176" y2="59.389" transform="translate(66.939 8.759)" fill="none" stroke="#191c3c" stroke-miterlimit="10" stroke-width="0.5"/></g><path d="M163.15,204.963l56.329,25.926,48.316,43.5,9.035-8.986-41.577-46.387L193.389,189.25Z" transform="translate(-136.786 -102.41)" fill="#2e35a8"/><path d="M161,191.167v10.606A16.628,16.628,0,0,0,177.629,218.4h52.507c-9.428,11.392-14.83,48.125-14.83,48.125l11.825,3.229,20.879-53.439a15.069,15.069,0,0,0-14.082-20.436H196.346l.27-4.714Z" transform="translate(-138.014 -101.315)" fill="#383fac"/><path d="M184.8,158.774l9.8,1.848a19.429,19.429,0,0,1,13.833,10.515l8.02,16.294-8.028,18.054-.817,8.116s-38.9,17.241-48.456,9.428l-.443-41.489L173.4,160.064Z" transform="translate(-139.321 -119.819)" fill="#b2b8fa"/><path d="M166.651,151.127s3.108,13.961,2.453,22.079H180.5s-1.177-13.855,1.178-16.137Z" transform="translate(-134.786 -124.188)" fill="#5361f0"/><path d="M187.663,147.325a21.188,21.188,0,0,0-2.242-7.28l-.426.206A10.372,10.372,0,0,0,175.223,138a13.872,13.872,0,0,0-8.01,6.367,16.661,16.661,0,0,0-1.243,14.352,16.276,16.276,0,0,0,10.652,9.66c1.912.528,4.143.632,5.7-.6a7.829,7.829,0,0,0,1.541-1.838,15.339,15.339,0,0,0,2.693-5.512,35.059,35.059,0,0,0,.2-4.882C186.893,152.788,187.82,150.082,187.663,147.325Z" transform="translate(-135.789 -131.904)" fill="#5361f0"/><path d="M184.634,138.77a32.041,32.041,0,0,0-4.214-3.077,15.66,15.66,0,0,0-3.84-1.318c-3.342-.768-5.6-.55-8.15,1.934a10.709,10.709,0,0,0-3.287,7.174,6.8,6.8,0,0,1-.178,1.824,6.55,6.55,0,0,1-1.138,1.827,12.213,12.213,0,0,0-1.416,11.26,8.159,8.159,0,0,0,3.1,4.381c1.243.713,4.469,1.255,5.08,2.754a15.432,15.432,0,0,1-1.065-7.221,3.875,3.875,0,0,1,.522-1.82,1.587,1.587,0,0,1,1.633-.742,3.488,3.488,0,0,1,1.133.743,3.842,3.842,0,0,0,2.281.782,1.584,1.584,0,0,0,.922-.223,1.7,1.7,0,0,0,.6-1.117c.409-2.088-.292-4.469-.968-6.431-.57-1.656-.679-3.823,1.526-3.683,1.981.126,4.008,1.34,6.125,1.455a17.683,17.683,0,0,0,12.072-3.793A25.106,25.106,0,0,1,184.634,138.77Z" transform="translate(-137.643 -133.982)" fill="#e03c00"/><path d="M173.212,169.124l3.308-10.85,1.955.369,2.069,17.421Z" transform="translate(-131.038 -120.105)" fill="#fff"/><path d="M180.29,158.774l-10.421,1.972a15.47,15.47,0,0,0-11.387,9.206l-11.64,27.686a5.95,5.95,0,0,0,5.485,8.255l41.629-2.079,1.922-5.894-4.583,1.557-26.056-2.208a2.747,2.747,0,0,1-1.992-4.349l17.443-24.083S183.819,160.232,180.29,158.774Z" transform="translate(-146.371 -119.819)" fill="#5361f0"/><path d="M178.81,158.774l-10.421,1.972A15.47,15.47,0,0,0,157,169.952l-8.04,17.086c6.285-.654,12.8,5.883,17.284,2.357l12.963-20.557S182.339,160.232,178.81,158.774Z" transform="translate(-144.891 -119.819)" fill="#b2b8fa"/><path d="M168.95,158.343l8.348,10.741-5.892,7.725-5.345-17.79Z" transform="translate(-135.124 -120.066)" fill="#fff"/><g transform="translate(71.04 171.69)"><path d="M194.484,243.251l-2.9,7.344v5.8h35.566v-1.6a3.106,3.106,0,0,0-2.387-3.023l-5.73-1.365-11.984-7.151H204.92l-.966,2.126h-6.184l-.58-2.126Z" transform="translate(-191.583 -243.251)" fill="#b2b8fa"/><path d="M191.583,249.647v3.094h35.566v-1.606a3.1,3.1,0,0,0-.38-1.488Z" transform="translate(-191.583 -239.597)" fill="#191c3c"/></g><g transform="translate(132.894 154.669)"><path d="M230.949,252.324l4.154,6.714,4.649,3.468,21.261-28.512-1.285-.958a3.106,3.106,0,0,0-3.851.107l-4.519,3.777-12.9,5.333-1.271,1.7L238.315,246l-3.7,4.959-2.051-.806Z" transform="translate(-230.949 -232.418)" fill="#b2b8fa"/><path d="M234.974,260.645l2.479,1.849,21.261-28.512-1.285-.958a3.1,3.1,0,0,0-1.42-.585Z" transform="translate(-228.65 -232.406)" fill="#191c3c"/></g></g><g transform="translate(172.633 237.218)"><g transform="translate(0 33.51)"><line x1="17.718" y2="90.73" transform="translate(12.683 8.112)" fill="none" stroke="#191c3c" stroke-miterlimit="10" stroke-width="0.5"/><line x2="17.718" y2="90.73" transform="translate(394.315 8.112)" fill="none" stroke="#191c3c" stroke-miterlimit="10" stroke-width="0.5"/><rect width="420.664" height="8.357" fill="#fff"/><rect width="420.664" height="8.357" fill="none" stroke="#191c3c" stroke-miterlimit="10" stroke-width="0.5"/></g><g transform="translate(52.617)"><rect width="25.467" height="3.34" transform="translate(0 29.921)" fill="#f2f3f7"/><rect width="25.467" height="3.34" transform="translate(0 29.921)" fill="none" stroke="#191c3c" stroke-miterlimit="10" stroke-width="0.5"/><path d="M221.087,200.594H168.665l12.849-33.261h52.422Z" transform="translate(-152.104 -167.333)" fill="#f2f3f7"/><path d="M169.534,198.345l11.98-31.011h52.422l-12.849,33.261H168.665" transform="translate(-152.104 -167.333)" fill="none" stroke="#191c3c" stroke-miterlimit="10" stroke-width="0.5"/><path d="M193.891,179.106a3.268,3.268,0,1,1-3.268-3.268A3.267,3.267,0,0,1,193.891,179.106Z" transform="translate(-141.427 -162.475)" fill="#fff"/></g></g><g transform="translate(104.724 147.857)"><rect width="11.473" height="11.849" transform="translate(16.514 209.46) rotate(-155.55)" fill="#5361f0"/><path d="M135.582,212.9l-10.835,26.62L99.04,280.695l-12.525-5.656L112.323,226.5l2.452-59.168Z" transform="translate(-78.508 -77.972)" fill="#191c3c"/><path d="M101.848,240.71l.875.386,4.09,9.935,2.27,3.477,7.114,1.952-.013,2.915-8.39.161L81.959,248.649l-.54-3.49,3.562-8.065,2.256-.4,1.757.776,2.279,5.884,8.108,3.465Z" transform="translate(-81.419 -38.348)" fill="#191c3c"/><path d="M81.425,245.139l3.553-8.045,2.256-.4,1.757.776,2.279,5.884,8.108,3.465,2.466-6.111.874.386,4.09,9.935,2.27,3.477,7.114,1.952,0,.74H110.02Z" transform="translate(-81.416 -38.348)" fill="#2e35a8"/><rect width="10.699" height="11.05" transform="translate(58.004 214.241) rotate(180)" fill="#5361f0"/><path d="M125.007,242.271h.892l7.231,6.934,11.491,4.359v2.972h-33.59l-1.775-2.774V245.54l1.775-1.189h1.792l4.16,4.161,8.222-.1Z" transform="translate(-65.517 -35.163)" fill="#191c3c"/><path d="M112.822,244.351l4.16,4.161,8.222-.1-.2-6.142h.892l7.232,6.934,11.293,4.284H109.256V245.54l1.775-1.189Z" transform="translate(-65.517 -35.163)" fill="#2e35a8"/><path d="M164.651,152.677c-1.483-2.681-3.249-5.215-4.47-8.024-2.736-6.29-2.538-13.411-2.292-20.265l-.922-2.583c-2.861-.933-5.968-.464-8.94.014a6.862,6.862,0,0,0-6.068,4.1,28.428,28.428,0,0,0-2.654,4.822c-1.716,4.365-.082,8.589-.591,13-.539,4.656-2.208,9.445-3.273,14.013a38.856,38.856,0,0,0-1.128,6.434,19.852,19.852,0,0,0,3.952,12.954,46.242,46.242,0,0,0,4.345,4.415,2.378,2.378,0,0,0,3.941-.987c1.3-3.95,3.713-7.908,6.576-8.633-.423-2.806,1.515-4.918,2.852-7.174,1.725-2.913,1.848-5.787,1.956-9.044,2.962.031,7.236,3.773,9.4,5.638A18.054,18.054,0,0,0,164.651,152.677Z" transform="translate(-51.223 -104.287)" fill="#191c3c"/><path d="M103.844,192.221c.119.338.242.669.358,1.017l8.922,35.636v13.4l1.724-2.759,10.835-26.62-20.808-45.56Z" transform="translate(-68.609 -77.972)" fill="#231f20" opacity="0.1"/><path d="M103.664,161.023l-3.582,9.072c0,10.562,5.286,16.726,8.626,26.748l8.922,35.636v57h12.578l4.763-57.766-.787-57.761Z" transform="translate(-70.758 -81.577)" fill="#191c3c"/><path d="M139.267,136.23l15.524,21.859a8.729,8.729,0,0,0,.833.938l11.651,9.794,5.471-1.955a4.478,4.478,0,0,1,3.46.19l7.244,5.13-2.209.514-2.97,1.054.446.936,2.717-.156a2.274,2.274,0,0,1,2.329,1.692l.116.445-5.718.743c-2.291,1.114-4.907-.49-7.1-.787l-4.129-.3-1.039-.349-14.1-9.118a15.764,15.764,0,0,1-3.971-3.19l-11.92-11.7Z" transform="translate(-50.296 -95.74)" fill="#545671"/><path d="M135.5,131.083,130.882,151.7l15.186,13.907c4.585-.974,5.213-15.276,5.213-15.276Z" transform="translate(-53.163 -98.681)" fill="#2e35a8"/><path d="M149.952,134.6s-8.34,4.073-9.5,7.564l-3.685-13.189,11.638-7.952Z" transform="translate(-49.803 -104.425)" fill="#545671"/><path d="M151.527,125.194l-.064.038a100.913,100.913,0,0,0-31.612,29.158L99.743,183.1c-2.619,20.026,19.887,29.032,36.662,23.278l6.756-22.6a13.747,13.747,0,0,1,5.921-7.742l3.743-2.322a17.194,17.194,0,0,0,6.668-7.431,37.021,37.021,0,0,0,2.817-21.232l-.6-3.65-3.685-19.008Z" transform="translate(-71.071 -103.649)" fill="#2e35a8"/><path d="M132.214,136.1c-4,.182-5.894,3.188-5.894,7.19l-1.254,32.2a5.191,5.191,0,0,0,.1,1l1.29,6.554,2.123-7.1A13.747,13.747,0,0,1,134.5,168.2l.745-.462,4.715-23.022A7.489,7.489,0,0,0,132.214,136.1Z" transform="translate(-56.485 -95.819)" fill="#231f20" opacity="0.1"/><path d="M125.919,141.375v33.473a5.343,5.343,0,0,0,.1,1.05l5.886,29.917a6.8,6.8,0,0,1-.442,4.044l-3.22,7.358-2.384,2.695,13.634.02,1.746-9.5L135,174.491l6.54-31.928a7.856,7.856,0,0,0-8.122-9.035h0A7.855,7.855,0,0,0,125.919,141.375Z" transform="translate(-56.029 -97.289)" fill="#545671"/><path d="M134.15,133.029c-4.2.19-7.555,1.933-7.555,6.133l-2.013,23.944s13.5,6.346,15.975,1.447l3.163-23.489C144.47,136.164,139.1,132.8,134.15,133.029Z" transform="translate(-56.761 -97.575)" fill="#2e35a8"/><path d="M135.618,180.667l5.237,12.311-3.542.021-3.624-6.836Z" transform="translate(-51.559 -70.355)" fill="#545671"/><path d="M144.736,119.754c3.355-2.707,11.909-4.269,15.068-.242,3.49,4.451-2.022,12.611-4.6,16.149a8.789,8.789,0,0,1-4.06,3.513c-2.275.734-4.833-.376-6.425-2.16a15.677,15.677,0,0,1-3.031-6.428,14.944,14.944,0,0,1-.574-2.893A9.586,9.586,0,0,1,144.736,119.754Z" transform="translate(-47.331 -106.689)" fill="#545671"/><path d="M154.005,128.461c-2.15,1.439-2.621,4.437-4.417,6.3-1.827,1.892-4.69,2.3-7.319,2.3-2.423,0-4.982-.3-6.925-1.747a8.377,8.377,0,0,1-3.094-5.779,15.056,15.056,0,0,1,.94-6.618,25.316,25.316,0,0,1,5.366-8.9,11.124,11.124,0,0,1,4.22-3.061,14.233,14.233,0,0,1,6.441-.247c3.752.432,7.585.886,10.994,2.511a15.669,15.669,0,0,1,4.742,3.242L167,118.886c.306.363.614.727.883,1.119a5.477,5.477,0,0,1,1.015,2.874,3.7,3.7,0,0,1-1.075,2.8,4.811,4.811,0,0,1-2.085,1.053,29.882,29.882,0,0,1-5.6.8C158.051,127.655,155.862,127.217,154.005,128.461Z" transform="translate(-52.422 -110.461)" fill="#191c3c"/></g><g transform="translate(42.649 369.571)"><line x2="315.035" transform="translate(8.914 0.077)" fill="none" stroke="#191c3c" stroke-miterlimit="10" stroke-width="0.5"/><line x1="5.772" fill="none" stroke="#191c3c" stroke-miterlimit="10" stroke-width="0.5"/><line x2="9.422" transform="translate(662.687)" fill="none" stroke="#191c3c" stroke-miterlimit="10" stroke-width="0.5"/><line x1="288.717" transform="translate(370.956)" fill="none" stroke="#191c3c" stroke-miterlimit="10" stroke-width="0.5"/><line x2="8.904" transform="translate(356.552)" fill="none" stroke="#191c3c" stroke-miterlimit="10" stroke-width="0.5"/></g></g><g transform="translate(719.092 4694.394)"><g transform="translate(45.043 20.175)"><g transform="translate(406.706 37.043)"><rect width="196.628" height="106.194" fill="#fff"/><rect width="196.628" height="23.67" fill="#e0e4f0"/><path d="M290.871,93.9V42.564H487.5V148.758" transform="translate(-290.871 -42.564)" fill="none" stroke="#e5e8f0" stroke-miterlimit="10" stroke-width="0.5"/><path d="M299.361,113.041H471.481c-.265,0,.41-38.717-.093-42.613-5.926,3.115-10.443,9.08-16.73,12.188-5.054,2.5-11.171,4.025-16.824,3.074-5.3-.892-9.621-4.892-15.067-5.258-7.073-.473-11.861,5.288-16.913,9.242-7.091,5.551-16.086,12.284-25.223,13.677-5.893.9-10.65-1.739-14.312-6.174-4.745-5.746-7.17-10.967-15.218-12.072a25.209,25.209,0,0,0-18.325,4.614c-6.166,4.808-9.847,12.706-16.928,16.022a16.085,16.085,0,0,1-8.093,1.424c-1.8-.147-6.426-2.6-8.026-1.2C298.555,106.991,299.361,111.468,299.361,113.041Z" transform="translate(-285.491 -24.33)" fill="#f9d8cc"/><path d="M304.655,50.654a2.593,2.593,0,1,1-2.593-2.592A2.592,2.592,0,0,1,304.655,50.654Z" transform="translate(-285.243 -38.967)" fill="#fff"/><path d="M311.937,50.654a2.592,2.592,0,1,1-2.592-2.592A2.592,2.592,0,0,1,311.937,50.654Z" transform="translate(-280.478 -38.967)" fill="#fff"/><path d="M319.219,50.654a2.592,2.592,0,1,1-2.592-2.592A2.592,2.592,0,0,1,319.219,50.654Z" transform="translate(-275.712 -38.967)" fill="#fff"/></g><g transform="translate(86.357 83.868)"><rect width="261.763" height="166.845" fill="#fff"/><path d="M97.24,237.713V70.868H359V237.713" transform="translate(-97.24 -70.868)" fill="none" stroke="#e5e8f0" stroke-miterlimit="10" stroke-width="0.5"/><rect width="261.763" height="23.672" fill="#e0e4f0"/><rect width="241.786" height="46.413" transform="translate(10.012 29.121)" fill="#fff"/><rect width="107.294" height="2.729" transform="translate(21.855 39.74)" fill="#f9f9fb"/><rect width="156.124" height="2.729" transform="translate(85.153 101.602)" fill="#f9f9fb"/><rect width="156.124" height="2.73" transform="translate(85.387 115.94)" fill="#f9f9fb"/><rect width="156.124" height="2.729" transform="translate(85.621 130.278)" fill="#f9f9fb"/><rect width="87.031" height="2.73" transform="translate(85.855 144.616)" fill="#f9f9fb"/><rect width="172.559" height="2.729" transform="translate(21.855 50.963)" fill="#f9f9fb"/><rect width="219.422" height="2.729" transform="translate(21.855 62.185)" fill="#f9f9fb"/><path d="M115.591,79.967a3.451,3.451,0,1,1-3.451-3.451A3.451,3.451,0,0,1,115.591,79.967Z" transform="translate(-89.748 -67.171)" fill="#fff"/><path d="M125.285,79.967a3.451,3.451,0,1,1-3.451-3.451A3.451,3.451,0,0,1,125.285,79.967Z" transform="translate(-83.404 -67.171)" fill="#fff"/><path d="M134.979,79.967a3.451,3.451,0,1,1-3.451-3.451A3.451,3.451,0,0,1,134.979,79.967Z" transform="translate(-77.06 -67.171)" fill="#fff"/><circle cx="31.411" cy="31.411" r="31.411" transform="matrix(0.922, -0.387, 0.387, 0.922, 9.84, 105.233)" fill="#f0f1fe"/></g><g transform="translate(304.72 233.321)"><rect width="133.134" height="41.759" fill="#fff"/><rect width="31.903" height="31.832" transform="translate(5.922 4.963)" fill="#f9f9fb"/><rect width="80.474" height="5.61" transform="translate(46.668 4.963)" fill="#f9f9fb"/><rect width="80.474" height="5.61" transform="translate(46.668 15.335)" fill="#f9f9fb"/><rect width="32.184" height="5.61" transform="translate(46.668 25.707)" fill="#f9f9fb"/><path d="M229.227,202.961V161.2H362.361v41.759" transform="translate(-229.227 -161.202)" fill="none" stroke="#e5e8f0" stroke-miterlimit="10" stroke-width="0.5"/></g><g transform="translate(168.78 30.992)"><rect width="139.676" height="43.811" fill="#fff"/><rect width="33.47" height="33.396" transform="translate(6.213 5.207)" fill="#f9f9fb"/><rect width="84.429" height="5.885" transform="translate(48.961 5.207)" fill="#f9f9fb"/><rect width="84.429" height="5.885" transform="translate(48.961 16.089)" fill="#f9f9fb"/><rect width="33.766" height="5.885" transform="translate(48.961 26.971)" fill="#f9f9fb"/><path d="M147.059,82.718V38.907H286.735V82.718" transform="translate(-147.059 -38.907)" fill="none" stroke="#e5e8f0" stroke-miterlimit="10" stroke-width="0.5"/></g><g transform="translate(0 159.778)"><rect width="129.253" height="56.458" fill="#fff"/><rect width="129.253" height="56.458" fill="none" stroke="#e5e8f0" stroke-miterlimit="10" stroke-width="0.5"/><rect width="4.136" height="10.495" transform="translate(11.319 38.724)" fill="#f2f3f7"/><rect width="4.136" height="20.99" transform="translate(18.693 28.229)" fill="#f2f3f7"/><rect width="4.136" height="20.99" transform="translate(26.066 28.229)" fill="#f2f3f7"/><rect width="4.136" height="33.191" transform="translate(33.176 16.027)" fill="#f2f3f7"/><rect width="4.136" height="27.297" transform="translate(40.812 21.921)" fill="#f2f3f7"/><rect width="4.136" height="9.512" transform="translate(48.185 39.706)" fill="#f9d8cc"/><rect width="4.136" height="27.297" transform="translate(55.559 21.921)" fill="#f2f3f7"/><rect width="4.136" height="12.614" transform="translate(62.932 36.604)" fill="#f2f3f7"/><rect width="4.136" height="20.99" transform="translate(70.305 28.229)" fill="#f2f3f7"/><rect width="4.136" height="28.952" transform="translate(77.678 20.267)" fill="#f2f3f7"/><rect width="26.885" height="4.136" transform="translate(94.096 9.513)" fill="#f0f1fe"/><rect width="26.885" height="2.068" transform="translate(94.096 21.094)" fill="#f0f1fe"/><rect width="26.885" height="2.068" transform="translate(94.096 26.161)" fill="#f0f1fe"/><rect width="26.885" height="2.068" transform="translate(94.096 31.227)" fill="#f0f1fe"/><rect width="13.442" height="2.068" transform="translate(94.096 36.294)" fill="#f0f1fe"/></g><g transform="translate(13.992 247.206)" opacity="0.1"><path d="M125.074,218.15c-9.485-14.728-19.061-29.571-31.353-42.051-4.045-4.108-9.885-8.216-15.105-5.769-4.791,2.245-5.779,8.595-5.47,13.876,1.453,24.83,16.951,46.614,34.248,64.487a279.477,279.477,0,0,0,66.151,50.5l4.247.817C160.006,272.389,142.863,245.77,125.074,218.15Z" transform="translate(-40.677 -169.595)" fill="#8184c4"/><g transform="translate(41.02 14.206)"><path d="M166.088,288.255c-37.867-26.6-67.724-67-85.45-109.393-.634-1.514-2.872-.242-2.23,1.264a259.86,259.86,0,0,0,36.136,60.48c14.941,18.639,32.439,33.54,51.474,47.77.071.053.144-.068.069-.121Z" transform="translate(-78.294 -178.181)" fill="#575a8f"/></g><g transform="translate(38.142 34.058)"><path d="M76.787,191.417A37.344,37.344,0,0,0,94,200.581a.791.791,0,0,0,.422-1.524,39.35,39.35,0,0,1-16.589-8.681c-.7-.627-1.744.4-1.042,1.041Z" transform="translate(-76.554 -190.181)" fill="#575a8f"/></g><g transform="translate(51.225 55.068)"><path d="M84.512,203.152c4.692,4.92,11.546,10.941,18.262,12.668a.384.384,0,0,0,.293-.7c-2.758-2.032-6.092-3.324-8.992-5.187a96.1,96.1,0,0,1-9.333-7.013c-.159-.132-.379.076-.23.23Z" transform="translate(-84.462 -202.88)" fill="#575a8f"/></g><g transform="translate(70.902 79.213)"><path d="M96.431,217.894a35.584,35.584,0,0,0,13.264,7.008.546.546,0,0,0,.29-1.052,51.614,51.614,0,0,1-13.255-6.341c-.233-.146-.508.2-.3.385Z" transform="translate(-96.356 -217.474)" fill="#575a8f"/></g><g transform="translate(57.846 27.162)"><path d="M88.471,186.842c1.1,7.725,2.2,14.511,1.353,22.351-.152,1.406,2.007,1.4,2.181.028.928-7.284.668-16.04-2.331-22.861-.319-.73-1.3-.187-1.2.481Z" transform="translate(-88.464 -186.013)" fill="#575a8f"/></g><g transform="translate(70.171 45.254)"><path d="M95.944,197.395a53.542,53.542,0,0,1,4.92,23.367.873.873,0,0,0,1.745.021A44.671,44.671,0,0,0,96.465,197.1a.3.3,0,0,0-.521.3Z" transform="translate(-95.914 -196.948)" fill="#575a8f"/></g><g transform="translate(86.915 65.211)"><path d="M106.09,209.976c4.062,9.008,7.331,16.836,8.017,26.837.113,1.636,2.675,1.679,2.563.033-.65-9.478-3.464-20.144-9.591-27.622-.48-.584-1.259.156-.989.753Z" transform="translate(-106.035 -209.01)" fill="#575a8f"/></g><path d="M174,263.354q-33.175-18.367-66.345-36.735c-7.806-4.321-15.719-8.686-24.367-10.878s-18.258-2-25.983,2.465a8.512,8.512,0,0,0-2.864,2.392c-2.215,3.218-.141,7.591,2.181,10.734,18.379,24.9,50.464,35.1,80.847,41.005,18.121,3.521,37.508,5.923,54.538-1.2A146.143,146.143,0,0,1,174,263.354Z" transform="translate(-53.5 -140.288)" fill="#8184c4"/><g transform="translate(8.725 84.398)"><path d="M59.082,221.905c15.869,10.6,33.527,17.762,51.377,24.3,19.782,7.248,39.627,14.329,59.333,21.781,1.544.582,2.54-1.823.983-2.368-19.1-6.676-38.085-13.671-57.1-20.578-18.535-6.734-37.053-13.533-53.7-24.305-.786-.51-1.689.639-.9,1.17Z" transform="translate(-58.774 -220.608)" fill="#575a8f"/></g><g transform="translate(14.815 98.425)"><path d="M62.751,229.789a195.4,195.4,0,0,0,19.6,2.5c1.554.081,1.927-2.248.336-2.43a197.339,197.339,0,0,0-19.833-.771.355.355,0,0,0-.1.7Z" transform="translate(-62.455 -229.086)" fill="#575a8f"/></g><g transform="translate(40.328 110.345)"><path d="M78.708,239.353l12.787-.4c4.2-.131,8.626.093,12.726-.92a.767.767,0,0,0,.013-1.514c-4.007-.566-8.171.05-12.187.339l-13.522.976c-.991.071-.786,1.545.182,1.515Z" transform="translate(-77.876 -236.291)" fill="#575a8f"/></g><g transform="translate(73.297 120.285)"><path d="M98.446,247.72a68.144,68.144,0,0,1,10.79-2.538c3.052-.336,6.307.415,9.235-.361.8-.213.567-1.257.012-1.567-2.849-1.583-7.569-.852-10.653-.265a24.185,24.185,0,0,0-9.836,3.931c-.452.328-.025.931.452.8Z" transform="translate(-97.803 -242.3)" fill="#575a8f"/></g><g transform="translate(26.948 81.819)"><path d="M69.894,220.071a84.531,84.531,0,0,1,5.9,10.742c1.282,2.857,2.023,6.085,3.847,8.626a.412.412,0,0,0,.731-.3C80.136,235.56,78,232.064,76.4,228.9a107.189,107.189,0,0,0-5.5-9.587c-.437-.68-1.429.079-1,.756Z" transform="translate(-69.788 -219.049)" fill="#575a8f"/></g><g transform="translate(48.836 94.105)"><path d="M83.051,226.687c3.686,4.432,7.155,9.774,11.5,13.56.293.255.65-.164.46-.458-3.115-4.823-7.892-8.994-11.742-13.265-.116-.129-.331.028-.217.164Z" transform="translate(-83.018 -226.475)" fill="#575a8f"/></g><g transform="translate(71.092 102.015)"><path d="M96.605,232.3c2,2.665,4.123,5.278,6.007,8.022,1.648,2.4,2.95,5.207,5.435,6.829a.523.523,0,0,0,.8-.6c-.888-2.831-3.263-4.834-5.1-7.083-2.113-2.581-4.067-5.309-6.093-7.956a.655.655,0,0,0-1.044.789Z" transform="translate(-96.47 -231.256)" fill="#575a8f"/></g><path d="M129.542,177.482c-3.309-3.072-8.754-4.315-12.369-1.61-3.3,2.467-3.943,7.088-4.083,11.2C111.82,224.192,131.8,263.352,149.134,296.2l3.769,1.011c-2.733-36.419-5.547-73.265-16.984-107.95C134.506,184.973,132.85,180.554,129.542,177.482Z" transform="translate(-14.539 -166.461)" fill="#8184c4"/><g transform="translate(108.457 22.046)"><path d="M143.861,279.016c-9.743-31.327-16.422-63.314-23.1-95.395-.222-1.067-1.924-.849-1.678.2,7.476,31.85,13.512,64.449,24.276,95.4.116.334.609.129.506-.2Z" transform="translate(-119.055 -182.92)" fill="#575a8f"/></g><g transform="translate(103.324 32.73)"><path d="M116.127,190.727q2.385,3.221,4.773,6.441c1.391,1.876,2.621,4.009,4.523,5.393a.605.605,0,0,0,.923-.7c-.814-2.2-2.545-3.977-3.967-5.815q-2.452-3.172-4.905-6.341a.845.845,0,0,0-1.347,1.021Z" transform="translate(-115.953 -189.378)" fill="#575a8f"/></g><g transform="translate(107.255 51.542)"><path d="M118.4,201.395c2.814,4.565,5.463,10.158,9.19,14.02a.384.384,0,0,0,.658-.372c-1.385-5.2-5.671-10.233-9.2-14.14a.409.409,0,0,0-.652.493Z" transform="translate(-118.329 -200.748)" fill="#575a8f"/></g><g transform="translate(113.256 73.546)"><path d="M121.979,214.83c.753,2.856,2.674,5.561,4.09,8.16a44.984,44.984,0,0,0,4.005,6.906.383.383,0,0,0,.658-.371c-.844-2.859-2.553-5.572-3.891-8.241-1.186-2.366-2.151-4.995-3.873-7.013a.576.576,0,0,0-.989.559Z" transform="translate(-121.956 -214.049)" fill="#575a8f"/></g><g transform="translate(116.966 43.131)"><path d="M129.384,195.835a34.129,34.129,0,0,0-4.029,9.473c-.663,2.551-1.77,6.317-.731,8.846a.579.579,0,0,0,1.06.008c1.161-2.366.865-5.759,1.416-8.38a59.06,59.06,0,0,1,2.985-9.543c.164-.412-.45-.814-.7-.405Z" transform="translate(-124.199 -195.665)" fill="#575a8f"/></g><g transform="translate(126.366 68.532)"><path d="M131.868,211.268c-.572,3.347-.956,6.671-1.287,10.047-.294,2.991-.986,6.188-.572,9.175.083.6,1.056.832,1.254.174.925-3.061.736-6.518.926-9.7.194-3.248.311-6.439.275-9.695,0-.351-.541-.328-.6,0Z" transform="translate(-129.88 -211.018)" fill="#575a8f"/></g></g><g transform="translate(335.826 286.322)" opacity="0.1"><path d="M299.021,227.831c-6.758-10.492-13.581-21.068-22.338-29.96-2.882-2.925-7.043-5.852-10.76-4.11-3.413,1.6-4.118,6.123-3.9,9.887,1.036,17.689,12.077,33.208,24.4,45.942a199.122,199.122,0,0,0,47.13,35.977l3.024.582C323.907,266.472,311.694,247.507,299.021,227.831Z" transform="translate(-238.892 -193.238)" fill="#8184c4"/><g transform="translate(29.225 10.12)"><path d="M328.241,277.775c-26.979-18.95-48.25-47.73-60.878-77.936-.452-1.079-2.047-.172-1.588.9a185.125,185.125,0,0,0,25.745,43.086c10.643,13.28,23.109,23.9,36.671,34.033.051.038.1-.048.051-.086Z" transform="translate(-265.693 -199.355)" fill="#575a8f"/></g><g transform="translate(27.174 24.264)"><path d="M264.619,208.784a26.6,26.6,0,0,0,12.261,6.53.564.564,0,0,0,.3-1.087,28.014,28.014,0,0,1-11.818-6.184c-.5-.447-1.242.283-.743.741Z" transform="translate(-264.453 -207.904)" fill="#575a8f"/></g><g transform="translate(36.495 39.232)"><path d="M270.122,217.145c3.344,3.506,8.226,7.794,13.01,9.025a.274.274,0,0,0,.208-.5c-1.965-1.446-4.34-2.367-6.406-3.694a68.251,68.251,0,0,1-6.649-5c-.112-.094-.27.055-.164.164Z" transform="translate(-270.087 -216.951)" fill="#575a8f"/></g><g transform="translate(50.513 56.433)"><path d="M278.613,227.647a25.34,25.34,0,0,0,9.45,4.993.389.389,0,0,0,.207-.749,36.762,36.762,0,0,1-9.445-4.518c-.165-.1-.361.142-.212.275Z" transform="translate(-278.56 -227.348)" fill="#575a8f"/></g><g transform="translate(41.212 19.351)"><path d="M272.943,205.526c.781,5.5,1.568,10.339.963,15.924-.109,1,1.429,1,1.554.02.662-5.19.477-11.427-1.659-16.288-.228-.519-.925-.132-.857.344Z" transform="translate(-272.938 -204.934)" fill="#575a8f"/></g><g transform="translate(49.992 32.241)"><path d="M278.266,213.043a38.171,38.171,0,0,1,3.506,16.649.622.622,0,0,0,1.242.015,31.811,31.811,0,0,0-4.376-16.874.214.214,0,0,0-.372.21Z" transform="translate(-278.245 -212.725)" fill="#575a8f"/></g><g transform="translate(61.921 46.459)"><path d="M285.495,222.007c2.9,6.418,5.223,11.993,5.713,19.119.079,1.166,1.906,1.2,1.825.023-.463-6.752-2.468-14.352-6.833-19.678-.341-.417-.9.111-.7.536Z" transform="translate(-285.455 -221.319)" fill="#575a8f"/></g><path d="M333.878,260.035q-23.633-13.083-47.266-26.17c-5.561-3.079-11.2-6.189-17.36-7.751s-13.009-1.424-18.511,1.755a6.107,6.107,0,0,0-2.04,1.706c-1.578,2.293-.1,5.408,1.554,7.647,13.093,17.742,35.953,25.01,57.6,29.214,12.911,2.508,26.722,4.22,38.856-.855A104.185,104.185,0,0,1,333.878,260.035Z" transform="translate(-248.028 -172.359)" fill="#8184c4"/><g transform="translate(6.216 60.128)"><path d="M252,230.506c11.306,7.556,23.887,12.653,36.6,17.312,14.094,5.163,28.231,10.208,42.271,15.517,1.1.415,1.81-1.3.7-1.686-13.606-4.757-27.133-9.74-40.679-14.662-13.206-4.8-26.4-9.64-38.256-17.315-.561-.362-1.2.455-.639.834Z" transform="translate(-251.785 -229.581)" fill="#575a8f"/></g><g transform="translate(10.556 70.12)"><path d="M254.62,236.122a139.15,139.15,0,0,0,13.958,1.78c1.107.058,1.375-1.6.24-1.732a140.754,140.754,0,0,0-14.131-.549.253.253,0,0,0-.068.5Z" transform="translate(-254.408 -235.621)" fill="#575a8f"/></g><g transform="translate(28.731 78.614)"><path d="M265.988,242.936l9.109-.283c2.995-.094,6.146.066,9.066-.655a.546.546,0,0,0,.01-1.079c-2.856-.4-5.822.035-8.682.242l-9.632.695c-.708.051-.561,1.1.129,1.08Z" transform="translate(-265.394 -240.755)" fill="#575a8f"/></g><g transform="translate(52.219 85.695)"><path d="M280.049,248.9a48.547,48.547,0,0,1,7.688-1.81c2.174-.238,4.493.3,6.58-.256.571-.152.4-.9.008-1.115-2.03-1.13-5.393-.607-7.591-.189a17.211,17.211,0,0,0-7.007,2.8c-.323.233-.018.663.321.571Z" transform="translate(-279.591 -245.035)" fill="#575a8f"/></g><g transform="translate(19.199 58.29)"><path d="M259.708,229.2a60.3,60.3,0,0,1,4.2,7.653c.913,2.035,1.441,4.335,2.74,6.145a.294.294,0,0,0,.521-.21c-.167-2.553-1.689-5.043-2.831-7.3a76.5,76.5,0,0,0-3.921-6.831c-.311-.485-1.017.058-.711.539Z" transform="translate(-259.633 -228.47)" fill="#575a8f"/></g><g transform="translate(34.793 67.042)"><path d="M269.081,233.912c2.627,3.158,5.1,6.964,8.193,9.66.208.182.462-.116.328-.326-2.22-3.436-5.623-6.408-8.366-9.452-.081-.091-.235.02-.154.117Z" transform="translate(-269.058 -233.761)" fill="#575a8f"/></g><g transform="translate(50.648 72.678)"><path d="M278.738,237.911c1.421,1.9,2.937,3.759,4.28,5.714,1.173,1.711,2.1,3.711,3.871,4.867a.373.373,0,0,0,.567-.43c-.632-2.017-2.323-3.445-3.635-5.046-1.5-1.838-2.9-3.782-4.341-5.668a.466.466,0,0,0-.743.563Z" transform="translate(-278.642 -237.167)" fill="#575a8f"/></g><path d="M302.2,198.856c-2.358-2.189-6.237-3.074-8.811-1.147-2.348,1.759-2.809,5.049-2.91,7.981-.9,26.443,13.331,54.343,25.68,77.744l2.684.721c-1.946-25.947-3.951-52.2-12.1-76.906C305.739,204.194,304.56,201.045,302.2,198.856Z" transform="translate(-220.271 -191.006)" fill="#8184c4"/><g transform="translate(77.268 15.706)"><path d="M312.405,271.193c-6.94-22.318-11.7-45.107-16.46-67.963-.159-.761-1.372-.6-1.2.144,5.327,22.689,9.627,45.914,17.3,67.963.083.238.433.093.361-.144Z" transform="translate(-294.732 -202.731)" fill="#575a8f"/></g><g transform="translate(73.611 23.318)"><path d="M292.645,208.293q1.7,2.293,3.4,4.588a16.683,16.683,0,0,0,3.223,3.843.431.431,0,0,0,.657-.5,16.771,16.771,0,0,0-2.826-4.143l-3.494-4.518a.6.6,0,0,0-.961.728Z" transform="translate(-292.521 -207.332)" fill="#575a8f"/></g><g transform="translate(76.413 36.72)"><path d="M294.266,215.893c2.005,3.253,3.891,7.237,6.547,9.988a.274.274,0,0,0,.47-.265c-.986-3.706-4.04-7.291-6.552-10.076a.292.292,0,0,0-.465.352Z" transform="translate(-294.215 -215.432)" fill="#575a8f"/></g><g transform="translate(80.688 52.397)"><path d="M296.816,225.464c.536,2.035,1.9,3.962,2.913,5.815a32.114,32.114,0,0,0,2.852,4.919.273.273,0,0,0,.47-.265,37.378,37.378,0,0,0-2.773-5.87,23.905,23.905,0,0,0-2.76-5,.41.41,0,0,0-.7.4Z" transform="translate(-296.799 -224.908)" fill="#575a8f"/></g><g transform="translate(83.331 30.729)"><path d="M302.09,211.933a24.257,24.257,0,0,0-2.869,6.748c-.473,1.817-1.262,4.5-.521,6.3a.412.412,0,0,0,.754.007c.827-1.686.617-4.1,1.009-5.971a42.046,42.046,0,0,1,2.128-6.8c.116-.294-.321-.579-.5-.288Z" transform="translate(-298.396 -211.811)" fill="#575a8f"/></g><g transform="translate(90.028 48.825)"><path d="M303.86,222.928c-.407,2.384-.682,4.752-.917,7.157-.21,2.131-.7,4.409-.409,6.538.06.428.753.592.9.122.658-2.181.523-4.644.658-6.907.139-2.315.222-4.588.2-6.907,0-.25-.384-.233-.424,0Z" transform="translate(-302.444 -222.749)" fill="#575a8f"/></g></g><g transform="translate(498.081 232.475)" opacity="0.1"><path d="M346.1,310.56c2.331-19.9,5.417-34.679,19.977-48.956,6.828-6.7,15.848-11.384,21.235-19.206,6.558-9.521,7.079-22.792,16.089-30.22,9.672-7.973,25.182-5.787,35.139-13.426,7.1-5.448,9.707-14.584,14.806-21.822,8.267-11.733,23.945-18.151,38.439-15.734-14.513,3.41-24.752,18.834-21.887,32.971,1.833,9.045,8.214,17.3,7.43,26.488-1.56,18.237-29.153,26.042-31.28,44.226-.579,4.952.927,9.9,1.132,14.877.642,15.469-13.322,30.119-29.36,30.8Z" transform="translate(-346.101 -160.691)" fill="#8184c4"/><g transform="translate(41.108 45.855)"><path d="M438.323,188.465a256.111,256.111,0,0,0-38.1,44.845c-10.5,15.72-17.9,32.41-26.418,49.1a1.533,1.533,0,0,1-2.793-1.135c11.177-35.814,38.863-68.313,67.261-92.855.035-.03.084.017.05.048Z" transform="translate(-370.948 -188.407)" fill="#575a8f"/></g><g transform="translate(84.228 63.32)"><path d="M420.031,200.028a28.665,28.665,0,0,0-11.828.961c-4.014,1.231-6.748,3.761-10.425,5.451-.41.187-.986-.225-.682-.657,4.513-6.423,15.816-7.579,23.028-6.427a.342.342,0,0,1-.094.672Z" transform="translate(-397.011 -198.963)" fill="#575a8f"/></g><g transform="translate(67.211 82.282)"><path d="M417.856,212.54a35.585,35.585,0,0,0-16.635-.2c-5.024,1.2-8.924,3.916-13.383,6.229a.731.731,0,0,1-.9-1.13c7.443-7.758,21.276-8.386,31.016-5.226a.172.172,0,1,1-.094.331Z" transform="translate(-386.726 -210.425)" fill="#575a8f"/></g><g transform="translate(50.055 108.047)"><path d="M414.8,228.878c-15.289-1.793-25.411,1.166-36.955,11.07-.688.589-1.9-.177-1.34-1,7.508-10.961,26.041-16.247,38.492-10.775a.377.377,0,0,1-.2.7Z" transform="translate(-376.356 -225.998)" fill="#575a8f"/></g><g transform="translate(76.179 55.267)"><path d="M394.684,194.227c6.155,6.509,3.9,19.407-2.047,25.319-.222.222-.624-.066-.447-.331,2.652-3.991,4.563-7.826,4.707-12.673.132-4.46-1.664-7.792-2.986-11.882a.464.464,0,0,1,.773-.433Z" transform="translate(-392.146 -194.096)" fill="#575a8f"/></g><g transform="translate(64.141 69.723)"><path d="M387.957,203.122c3.147,8.406,2.8,19.575-2.286,27.249-.253.381-.927.146-.779-.316,2.96-9.366,4.28-16.927,2.243-26.713a.427.427,0,0,1,.822-.22Z" transform="translate(-384.87 -202.834)" fill="#575a8f"/></g><g transform="translate(47.133 85.79)"><path d="M376.93,212.839c5.483,11.8,4.72,24.874-.415,36.651-.47,1.077-2.316.619-1.85-.491,4.963-11.821,4.692-23.577,1.16-35.709-.179-.617.817-1.065,1.105-.45Z" transform="translate(-374.59 -212.545)" fill="#575a8f"/></g></g><g transform="translate(226.918 289.843)" opacity="0.1"><path d="M182.2,287.869c1.439-12.284,3.344-21.405,12.331-30.218,4.214-4.133,9.781-7.026,13.106-11.854,4.048-5.877,4.369-14.068,9.932-18.652,5.968-4.92,15.542-3.572,21.686-8.285,4.383-3.363,5.992-9,9.139-13.469a24.748,24.748,0,0,1,23.725-9.712c-8.957,2.1-15.277,11.624-13.508,20.35,1.132,5.582,5.071,10.679,4.586,16.349-.963,11.255-17.994,16.073-19.307,27.3-.357,3.057.572,6.11.7,9.182.4,9.548-8.223,18.589-18.121,19.013Z" transform="translate(-182.2 -195.366)" fill="#8184c4"/><g transform="translate(25.373 28.303)"><path d="M239.122,212.509A158.044,158.044,0,0,0,215.6,240.188c-6.48,9.7-11.047,20-16.3,30.3a.946.946,0,0,1-1.724-.7c6.9-22.1,23.986-42.163,41.515-57.311.021-.018.051.01.031.03Z" transform="translate(-197.536 -212.473)" fill="#575a8f"/></g><g transform="translate(51.987 39.081)"><path d="M227.831,219.646a17.7,17.7,0,0,0-7.3.592c-2.477.761-4.166,2.323-6.434,3.365-.253.116-.609-.139-.42-.405,2.786-3.964,9.761-4.677,14.213-3.967a.211.211,0,0,1-.058.415Z" transform="translate(-213.623 -218.988)" fill="#575a8f"/></g><g transform="translate(41.483 50.785)"><path d="M226.489,227.369a21.958,21.958,0,0,0-10.267-.126c-3.1.74-5.508,2.417-8.261,3.845a.452.452,0,0,1-.558-.7c4.594-4.788,13.133-5.177,19.143-3.226a.107.107,0,0,1-.058.205Z" transform="translate(-207.274 -226.063)" fill="#575a8f"/></g><g transform="translate(30.895 66.687)"><path d="M224.6,237.452c-9.437-1.107-15.684.72-22.81,6.833-.424.364-1.173-.109-.826-.615,4.632-6.763,16.073-10.028,23.758-6.651a.233.233,0,0,1-.122.433Z" transform="translate(-200.874 -235.674)" fill="#575a8f"/></g><g transform="translate(47.019 34.111)"><path d="M212.187,216.065c3.8,4.017,2.4,11.978-1.264,15.628-.137.136-.384-.041-.276-.205a14.49,14.49,0,0,0,2.907-7.82c.081-2.753-1.027-4.809-1.843-7.334a.286.286,0,0,1,.476-.268Z" transform="translate(-210.62 -215.984)" fill="#575a8f"/></g><g transform="translate(39.589 43.034)"><path d="M208.035,221.555c1.941,5.188,1.731,12.082-1.411,16.817-.157.235-.572.091-.481-.2,1.827-5.781,2.642-10.446,1.385-16.486a.263.263,0,0,1,.508-.136Z" transform="translate(-206.129 -221.377)" fill="#575a8f"/></g><g transform="translate(29.092 52.95)"><path d="M201.228,227.553c3.383,7.283,2.913,15.353-.256,22.621-.29.665-1.429.382-1.142-.3,3.064-7.3,2.9-14.552.716-22.04-.111-.381.5-.658.682-.278Z" transform="translate(-199.784 -227.371)" fill="#575a8f"/></g></g><g transform="translate(393.25 107.006)"><rect width="148.209" height="106.707" fill="#fff"/><rect width="148.209" height="11.463" fill="#dfe2ec"/><rect width="6.209" height="5.226" transform="translate(7.416 3.118)" fill="#fff"/><path d="M282.737,191.56V84.853H430.946V191.56" transform="translate(-282.737 -84.853)" fill="none" stroke="#e5e8f0" stroke-miterlimit="10" stroke-width="0.5"/><rect width="28.643" height="28.588" transform="translate(39.293 46.467) rotate(180)" fill="#f2f3f7"/><rect width="28.643" height="28.588" transform="translate(78.407 46.467) rotate(180)" fill="#f2f3f7"/><rect width="48.41" height="28.588" transform="translate(137.288 46.467) rotate(180)" fill="#f2f3f7"/><rect width="57.698" height="5.158" transform="translate(10.444 54.362)" fill="#f2f3f7"/><rect width="127.449" height="2.579" transform="translate(9.839 68.211)" fill="#f2f3f7"/><rect width="127.449" height="2.579" transform="translate(9.839 77.638)" fill="#f2f3f7"/><rect width="127.449" height="2.579" transform="translate(10.38 87.065)" fill="#f2f3f7"/><rect width="63.752" height="2.579" transform="translate(10.921 96.492)" fill="#f2f3f7"/></g><g transform="translate(550.691 155.111)"><rect width="134.174" height="42.085" transform="translate(0 0)" fill="#fff"/><rect width="32.152" height="32.081" transform="translate(5.968 5.002)" fill="#f9f9fb"/><rect width="81.103" height="5.654" transform="translate(47.033 5.002)" fill="#f9f9fb"/><rect width="81.103" height="5.654" transform="translate(47.033 15.455)" fill="#f9f9fb"/><rect width="32.436" height="5.654" transform="translate(47.033 25.908)" fill="#f9f9fb"/><rect width="134.174" height="42.085" transform="translate(0 0)" fill="none" stroke="#e5e8f0" stroke-miterlimit="10" stroke-width="0.5"/></g><g transform="translate(316.486)"><rect width="84.541" height="96.681" fill="#fff"/><rect width="73.159" height="32.081" transform="translate(5.968 5.002)" fill="#f0f1fe"/><rect width="72.26" height="2.827" transform="translate(6.868 42.085)" fill="#f9f9fb"/><rect width="72.26" height="2.827" transform="translate(6.868 48.611)" fill="#f9f9fb"/><rect width="72.26" height="2.827" transform="translate(6.868 55.136)" fill="#f9f9fb"/><rect width="72.26" height="2.827" transform="translate(6.868 61.662)" fill="#f9f9fb"/><path d="M236.338,90.385V20.175h84.541V106.1" transform="translate(-236.338 -20.175)" fill="none" stroke="#e5e8f0" stroke-miterlimit="10" stroke-width="0.5"/></g><g transform="translate(458.111 313.673)"><rect width="79.077" height="69.15" fill="#fdfdfe"/><rect width="79.077" height="13.801" fill="#ec8a66"/><rect width="8.075" height="8.075" transform="translate(33.196 19.474)" fill="#dfe2ec"/><rect width="8.075" height="8.075" transform="translate(46.181 19.474)" fill="#dfe2ec"/><rect width="8.076" height="8.075" transform="translate(59.165 19.474)" fill="#dfe2ec"/><rect width="8.075" height="8.076" transform="translate(7.227 31.14)" fill="#dfe2ec"/><rect width="8.075" height="8.076" transform="translate(20.211 31.14)" fill="#dfe2ec"/><rect width="8.075" height="8.076" transform="translate(33.196 31.14)" fill="#dfe2ec"/><rect width="8.075" height="8.076" transform="translate(46.181 31.14)" fill="#dfe2ec"/><rect width="8.076" height="8.076" transform="translate(59.165 31.14)" fill="#dfe2ec"/><rect width="8.075" height="8.076" transform="translate(7.227 42.807)" fill="#dfe2ec"/><rect width="8.075" height="8.076" transform="translate(20.211 42.807)" fill="#dfe2ec"/><rect width="8.075" height="8.076" transform="translate(33.196 42.807)" fill="#dfe2ec"/><rect width="8.075" height="8.076" transform="translate(46.181 42.807)" fill="#dfe2ec"/><rect width="8.076" height="8.076" transform="translate(59.165 42.807)" fill="#dfe2ec"/><rect width="8.075" height="8.075" transform="translate(7.227 54.474)" fill="#dfe2ec"/><rect width="8.075" height="8.075" transform="translate(20.211 54.474)" fill="#dfe2ec"/><rect width="8.075" height="8.075" transform="translate(33.196 54.474)" fill="#dfe2ec"/><path d="M321.941,278.92V209.77h79.077v27.789" transform="translate(-321.941 -209.77)" fill="none" stroke="#191c3c" stroke-miterlimit="10" stroke-width="0.5"/></g><g transform="translate(478.583 204.397)"><g transform="translate(0 0)"><path d="M387.189,143.719V214.08H334.316V143.719Z" transform="translate(-334.316 -143.719)" fill="#fff"/></g><g transform="translate(0 0)"><path d="M387.189,143.719V214.08H334.316V143.719Z" transform="translate(-334.316 -143.719)" fill="none" stroke="#e5e8f0" stroke-miterlimit="10" stroke-width="0.5"/></g><rect width="8.747" height="8.747" transform="translate(4.054 18.805)" fill="#f2f3f7"/><path d="M377.489,157.272H344.323v-2.186h33.166Z" transform="translate(-327.767 -136.281)" fill="#f2f3f7"/><path d="M357.626,160.56h-13.3v-2.187h13.3Z" transform="translate(-327.767 -134.129)" fill="#f2f3f7"/><path d="M377.489,167.677H344.323V165.49h33.166Z" transform="translate(-327.767 -129.472)" fill="#f2f3f7"/><path d="M357.626,170.965h-13.3v-2.187h13.3Z" transform="translate(-327.767 -127.32)" fill="#f2f3f7"/><path d="M377.489,178.081H344.323v-2.186h33.166Z" transform="translate(-327.767 -122.663)" fill="#f2f3f7"/><path d="M357.626,181.37h-13.3v-2.187h13.3v2.187Z" transform="translate(-327.767 -120.511)" fill="#f2f3f7"/><rect width="8.747" height="8.747" transform="translate(4.054 35.458)" fill="#f2f3f7"/><rect width="8.747" height="8.747" transform="translate(4.054 52.111)" fill="#f2f3f7"/><g transform="translate(4.15 15.712)"><path d="M341.328,164.107l-4.5-4.5,1.554-1.555,2.949,2.95,7.783-7.783,1.554,1.554Z" transform="translate(-336.824 -153.216)" fill="#f9d8cc"/></g><g transform="translate(4.15 31.882)"><path d="M341.328,173.882l-4.5-4.5,1.554-1.554,2.949,2.95,7.783-7.783,1.554,1.554Z" transform="translate(-336.824 -162.99)" fill="#f9d8cc"/></g><g transform="translate(4.15 48.053)"><path d="M341.328,183.656l-4.5-4.5,1.554-1.554,2.949,2.95,7.783-7.783,1.554,1.555Z" transform="translate(-336.824 -172.764)" fill="#f9d8cc"/></g></g><g transform="translate(145.193 289.153)"><path d="M197.986,235.684l7.19-.007a2.634,2.634,0,0,0,2.632-2.637l-.007-9.171a2.637,2.637,0,0,0-2.639-2.634l-5.627,0a2.219,2.219,0,0,1-2.061-1.474q-.3-.789-.647-1.554a2.221,2.221,0,0,1,.412-2.5l3.979-3.981a2.637,2.637,0,0,0,0-3.729l-6.487-6.482a2.638,2.638,0,0,0-3.727,0l-4.009,4.012a2.175,2.175,0,0,1-2.4.46c-.572-.245-1.19-.491-1.722-.7a2.165,2.165,0,0,1-1.378-2.025v-5.683a2.635,2.635,0,0,0-2.636-2.636h-9.172a2.636,2.636,0,0,0-2.636,2.636v5.628a2.216,2.216,0,0,1-1.472,2.058c-.551.207-1.1.435-1.63.68a2.209,2.209,0,0,1-2.5-.405l-3.994-3.971a2.636,2.636,0,0,0-3.727.012l-6.466,6.5a2.635,2.635,0,0,0,.01,3.727l4.024,4a2.178,2.178,0,0,1,.465,2.4c-.243.572-.488,1.19-.695,1.724a2.167,2.167,0,0,1-2.022,1.381l-5.686.015a2.635,2.635,0,0,0-2.629,2.642l.023,9.171a2.635,2.635,0,0,0,2.642,2.629l5.628-.013a2.217,2.217,0,0,1,2.063,1.469c.2.526.415,1.042.649,1.554a2.212,2.212,0,0,1-.407,2.5l-3.972,3.99a2.636,2.636,0,0,0,.007,3.727l6.5,6.47a2.636,2.636,0,0,0,3.727-.007l4-4.02a2.178,2.178,0,0,1,2.4-.463c.572.243,1.19.49,1.722.7a2.167,2.167,0,0,1,1.381,2.022l.01,5.686a2.634,2.634,0,0,0,2.64,2.631l9.171-.015a2.634,2.634,0,0,0,2.631-2.639l-.008-5.63a2.214,2.214,0,0,1,1.471-2.061q.789-.3,1.554-.647a2.212,2.212,0,0,1,2.5.409l3.987,3.976a2.635,2.635,0,0,0,3.727,0l6.475-6.494a2.635,2.635,0,0,0,0-3.727l-4.015-4.005a2.175,2.175,0,0,1-.463-2.4C197.354,237.415,197.956,235.78,197.986,235.684Zm-36.5-9.543a13,13,0,1,1,8.094,14.456A13,13,0,0,1,161.487,226.142Z" transform="translate(-127.617 -194.949)" fill="#b2b8fa"/><path d="M207.8,225.24l0-1.37a2.637,2.637,0,0,0-2.639-2.634l-5.627,0a2.219,2.219,0,0,1-2.061-1.474q-.3-.789-.647-1.554a2.221,2.221,0,0,1,.412-2.5l3.979-3.981a2.637,2.637,0,0,0,0-3.729l-6.487-6.482a2.638,2.638,0,0,0-3.727,0l-4.009,4.012a2.175,2.175,0,0,1-2.4.46c-.572-.245-1.19-.491-1.722-.7a2.165,2.165,0,0,1-1.378-2.025v-5.683a2.635,2.635,0,0,0-2.636-2.636h-9.172a2.636,2.636,0,0,0-2.636,2.636v5.628a2.216,2.216,0,0,1-1.472,2.058c-.551.207-1.1.435-1.63.68a2.209,2.209,0,0,1-2.5-.405l-3.994-3.971a2.636,2.636,0,0,0-3.727.012l-6.466,6.5a2.635,2.635,0,0,0,.01,3.727l4.024,4a2.178,2.178,0,0,1,.465,2.4c-.243.572-.488,1.19-.695,1.724a2.167,2.167,0,0,1-2.022,1.381l-5.686.015a2.635,2.635,0,0,0-2.629,2.642l0,1.261m20.758.9a13,13,0,0,1,17.474-9.776,13.152,13.152,0,0,1,8.115,9.96" transform="translate(-127.617 -194.949)" fill="none" stroke="#191c3c" stroke-miterlimit="10" stroke-width="0.5"/><path d="M140.748,221.168a2.635,2.635,0,0,0,2.642,2.629l5.628-.013a2.217,2.217,0,0,1,2.063,1.469c.2.526.415,1.042.649,1.554a2.212,2.212,0,0,1-.407,2.5l-3.972,3.99a2.636,2.636,0,0,0,.007,3.727l6.5,6.471a2.636,2.636,0,0,0,3.727-.007l4-4.02a2.181,2.181,0,0,1,2.4-.465c.572.245,1.19.491,1.722.7a2.167,2.167,0,0,1,1.381,2.022l.01,5.686a2.634,2.634,0,0,0,2.64,2.631l9.171-.015a2.634,2.634,0,0,0,2.631-2.639l-.008-5.63A2.214,2.214,0,0,1,183,239.7q.789-.3,1.554-.647a2.212,2.212,0,0,1,2.5.409l3.987,3.976a2.635,2.635,0,0,0,3.727,0l6.475-6.494a2.635,2.635,0,0,0,0-3.727L197.23,229.2a2.175,2.175,0,0,1-.463-2.4c.586-1.37,1.188-3,1.216-3.1l7.192-.007a2.634,2.634,0,0,0,2.632-2.637l0-7.8H186.787a12.588,12.588,0,0,1,.266,5.582,13,13,0,0,1-25.568-4.68c.058-.309.146-.6.223-.9H140.728Z" transform="translate(-127.616 -182.967)" fill="#414042" opacity="0.3"/><g transform="translate(0 32.452)"><rect width="79.095" height="61.054" transform="translate(11.003)" fill="#f5f7f9"/><rect width="8.105" height="61.054" transform="translate(11.003 61.054) rotate(180)" fill="#f5f7f9"/><rect width="79.095" height="61.054" transform="translate(11.003)" fill="none" stroke="#191c3c" stroke-miterlimit="10" stroke-width="0.5"/><path d="M142.659,275.618V214.564h-8.1v37.892" transform="translate(-131.656 -214.564)" fill="none" stroke="#191c3c" stroke-miterlimit="10" stroke-width="0.5"/><path d="M134.555,224.4h5.206l2.9-9.834-8.1,1.932Z" transform="translate(-131.656 -214.564)" fill="#231f20" opacity="0.2"/><path d="M132.8,220.491h8.1l2.9-5.927h-8.1Z" transform="translate(-132.803 -214.564)" fill="#f7f9fa"/><path d="M132.8,220.491h8.1l2.9-5.927h-8.1Z" transform="translate(-132.803 -214.564)" fill="none" stroke="#191c3c" stroke-miterlimit="10" stroke-width="0.5"/><path d="M218.549,224.4v-7.9l-79.1-1.932L143.8,224.4Z" transform="translate(-128.45 -214.564)" fill="#231f20" opacity="0.2"/><path d="M222.9,220.491H143.8l-4.348-5.927h79.1Z" transform="translate(-128.45 -214.564)" fill="#f7f9fa"/><path d="M222.9,220.491H143.8l-4.348-5.927h79.1Z" transform="translate(-128.45 -214.564)" fill="none" stroke="#191c3c" stroke-miterlimit="10" stroke-width="0.5"/></g></g><path d="M144.6,251.477l2.647,0a.972.972,0,0,0,.971-.971l0-3.377a.97.97,0,0,0-.971-.97l-2.073,0a.815.815,0,0,1-.758-.543c-.073-.194-.152-.384-.238-.572a.816.816,0,0,1,.151-.92l1.466-1.466a.972.972,0,0,0,0-1.373L143.4,238.9a.972.972,0,0,0-1.373,0l-1.476,1.476a.8.8,0,0,1-.883.17c-.21-.091-.438-.182-.634-.258a.8.8,0,0,1-.508-.744v-2.093a.972.972,0,0,0-.971-.971h-3.375a.972.972,0,0,0-.971.971v2.071a.815.815,0,0,1-.543.758c-.2.076-.4.16-.6.251a.818.818,0,0,1-.922-.149l-1.471-1.463a.973.973,0,0,0-1.373,0l-2.379,2.4a.968.968,0,0,0,0,1.372l1.481,1.472a.8.8,0,0,1,.172.883c-.089.212-.18.438-.256.635a.8.8,0,0,1-.744.51l-2.093,0a.969.969,0,0,0-.968.973l.008,3.375a.973.973,0,0,0,.973.969l2.073-.007a.819.819,0,0,1,.759.543c.073.192.152.384.238.571a.813.813,0,0,1-.151.922l-1.463,1.469a.97.97,0,0,0,0,1.372l2.392,2.382a.97.97,0,0,0,1.372,0l1.474-1.481a.8.8,0,0,1,.883-.17c.212.089.438.18.635.256a.8.8,0,0,1,.508.744l0,2.095a.972.972,0,0,0,.973.968l3.377,0a.97.97,0,0,0,.968-.973l0-2.071a.816.816,0,0,1,.543-.759c.194-.074.384-.152.571-.238a.813.813,0,0,1,.921.151l1.467,1.462a.972.972,0,0,0,1.373,0l2.384-2.391a.972.972,0,0,0,0-1.373l-1.479-1.474a.8.8,0,0,1-.169-.883C144.371,252.116,144.593,251.514,144.6,251.477Zm-13.437-3.512a4.785,4.785,0,1,1,2.98,5.322A4.787,4.787,0,0,1,131.165,247.965Z" transform="translate(6.317 121.383)" fill="#b2b8fa"/><path d="M130.671,251.5l3.514,0a1.286,1.286,0,0,0,1.285-1.289l0-4.48a1.286,1.286,0,0,0-1.289-1.286l-2.75,0a1.083,1.083,0,0,1-1.006-.72q-.146-.385-.316-.759a1.083,1.083,0,0,1,.2-1.223l1.944-1.946a1.286,1.286,0,0,0,0-1.82l-3.17-3.168a1.29,1.29,0,0,0-1.822,0l-1.957,1.961a1.068,1.068,0,0,1-1.173.225c-.28-.121-.582-.242-.842-.342a1.059,1.059,0,0,1-.673-.989v-2.776a1.287,1.287,0,0,0-1.287-1.289h-4.48a1.288,1.288,0,0,0-1.289,1.289v2.75a1.08,1.08,0,0,1-.72,1q-.4.154-.8.333a1.082,1.082,0,0,1-1.223-.2l-1.951-1.941a1.288,1.288,0,0,0-1.822,0l-3.158,3.178a1.286,1.286,0,0,0,0,1.82l1.965,1.956a1.063,1.063,0,0,1,.228,1.171c-.119.28-.24.582-.341.842a1.055,1.055,0,0,1-.988.675l-2.778.007a1.289,1.289,0,0,0-1.284,1.292l.01,4.48A1.289,1.289,0,0,0,104,251.547l2.75-.007a1.081,1.081,0,0,1,1.008.718q.146.385.318.759a1.083,1.083,0,0,1-.2,1.223l-1.941,1.949a1.288,1.288,0,0,0,0,1.82l3.175,3.162a1.287,1.287,0,0,0,1.822,0l1.956-1.964a1.065,1.065,0,0,1,1.173-.227c.28.119.581.24.842.341a1.059,1.059,0,0,1,.673.988l0,2.778a1.288,1.288,0,0,0,1.29,1.285l4.48-.007a1.288,1.288,0,0,0,1.285-1.29l0-2.75a1.083,1.083,0,0,1,.72-1.008q.385-.144.759-.316a1.08,1.08,0,0,1,1.221.2l1.947,1.942a1.288,1.288,0,0,0,1.822,0l3.165-3.173a1.286,1.286,0,0,0,0-1.82l-1.96-1.957a1.065,1.065,0,0,1-.227-1.173C130.363,252.346,130.658,251.548,130.671,251.5Zm-17.83-4.662a6.349,6.349,0,1,1,3.952,7.064A6.35,6.35,0,0,1,112.841,246.838Z" transform="translate(-7.311 118.189)" fill="#2e35a8"/><g transform="translate(517.278 343.003)"><path d="M397.525,247.407A19.91,19.91,0,1,1,377.613,227.5,19.911,19.911,0,0,1,397.525,247.407Z" transform="translate(-357.704 -227.498)" fill="#b2b8fa"/><path d="M394.487,246.547a17.734,17.734,0,1,1-17.734-17.734A17.734,17.734,0,0,1,394.487,246.547Z" transform="translate(-356.843 -226.637)" fill="#d1d4fc"/><path d="M391.582,245.723a15.652,15.652,0,1,1-15.653-15.651A15.653,15.653,0,0,1,391.582,245.723Z" transform="translate(-356.019 -225.813)" fill="#b2b8fa"/><g transform="translate(13.73 9.77)"><g transform="translate(0 1.673)"><path d="M374.222,250.867h-5.8a2.425,2.425,0,0,1-2.42-2.42v-1.239h3.445v.215h4.775a1.666,1.666,0,0,0,1.664-1.664,1.084,1.084,0,0,0-1.082-1.085H370.53A4.532,4.532,0,0,1,366,240.144v-.62a5.115,5.115,0,0,1,5.109-5.109h5.8a2.423,2.423,0,0,1,2.42,2.419v1.408h-3.445v-.384h-4.775a1.667,1.667,0,0,0-1.664,1.666v.62a1.085,1.085,0,0,0,1.082,1.085H374.8a4.533,4.533,0,0,1,4.527,4.528A5.116,5.116,0,0,1,374.222,250.867Z" transform="translate(-366.003 -234.415)" fill="#868abc"/></g><g transform="translate(4.942)"><rect width="3.444" height="20.28" fill="#868abc"/></g></g></g><g transform="translate(547.177 352.844)"><path d="M405.756,248.435a14.99,14.99,0,1,1-14.991-14.989A14.991,14.991,0,0,1,405.756,248.435Z" transform="translate(-375.776 -233.446)" fill="#b2b8fa"/><path d="M403.469,247.787a13.351,13.351,0,1,1-13.351-13.351A13.351,13.351,0,0,1,403.469,247.787Z" transform="translate(-375.128 -232.798)" fill="#d1d4fc"/><path d="M401.282,247.168A11.785,11.785,0,1,1,389.5,235.383,11.784,11.784,0,0,1,401.282,247.168Z" transform="translate(-374.508 -232.178)" fill="#b2b8fa"/><g transform="translate(10.337 7.355)"><g transform="translate(0 1.259)"><path d="M388.212,251.04h-4.366a1.825,1.825,0,0,1-1.822-1.822v-.933h2.592v.162h3.6a1.255,1.255,0,0,0,1.254-1.254.816.816,0,0,0-.816-.816h-3.218a3.414,3.414,0,0,1-3.408-3.41V242.5a3.851,3.851,0,0,1,3.847-3.847h4.366a1.825,1.825,0,0,1,1.822,1.822v1.061h-2.592v-.29h-3.6a1.256,1.256,0,0,0-1.254,1.254v.468a.816.816,0,0,0,.816.816h3.218a3.413,3.413,0,0,1,3.408,3.41A3.851,3.851,0,0,1,388.212,251.04Z" transform="translate(-382.024 -238.653)" fill="#868abc"/></g><g transform="translate(3.721)"><rect width="2.593" height="15.268" fill="#868abc"/></g></g></g></g><g transform="translate(331.485 83.719)"><path d="M344.474,121.731A63.147,63.147,0,1,0,246.8,174.6v29.626h69.046V174.6A63.074,63.074,0,0,0,344.474,121.731Z" transform="translate(-218.179 -58.583)" fill="#f8d6ca"/><path d="M315.849,178.157V174.6a63.146,63.146,0,1,0-69.046,0v3.562" transform="translate(-218.179 -58.583)" fill="none" stroke="#191c3c" stroke-miterlimit="10" stroke-width="0.5"/><path d="M310.772,161.681l-22.961,19.2H253.638l-20.863-19.2V131.512h78Z" transform="translate(-208.627 -10.856)" fill="#2e35a8"/><rect width="84.612" height="5.788" rx="0.543" transform="translate(20.754 123.412)" fill="#585db9"/><rect width="84.612" height="5.788" rx="0.543" transform="translate(20.754 133.078)" fill="#585db9"/><path d="M.543,0H84.07a.543.543,0,0,1,.543.543v4.7a.543.543,0,0,1-.543.543H.542A.542.542,0,0,1,0,5.245V.543A.543.543,0,0,1,.543,0Z" transform="translate(20.754 142.744)" fill="#585db9"/><path d="M0,0H35.429a0,0,0,0,1,0,0V9.214A2.126,2.126,0,0,1,33.3,11.34H2.126A2.126,2.126,0,0,1,0,9.214V0A0,0,0,0,1,0,0Z" transform="translate(44.031 169.123)" fill="#191c3c"/><path d="M320.577,114.957a46.024,46.024,0,1,1-46.025-46.023A46.025,46.025,0,0,1,320.577,114.957Z" transform="translate(-211.406 -51.809)" fill="#f9ded5"/></g><g transform="translate(432.897 142.211)"><path d="M321.883,169.446l-19.061-11.124a8.508,8.508,0,0,1-3.739-4.531L284.249,114.86h0a5.346,5.346,0,0,1-2.627-3.984l.251-1.8c.308-1.35.119-2.571,1.175-3.315l.635-.447.544-3.307-1.2-3.418-2.194-1.37a2.4,2.4,0,0,1-1.08-3.286l.768.571,3.919,1.848a3.016,3.016,0,0,1,1.376,1.31l1.324,2.343,4.861,6.7a4.423,4.423,0,0,1,.749,3.322l-.266,10.456,13.269,25.847a11.686,11.686,0,0,0,4.757,4.343l18.162,8.947Z" transform="translate(-279.476 -93.938)" fill="#5361f0"/><path d="M301.2,128.233l18.394,6.346-7.642,14.483-15.092-6.153C298.928,140.021,301.2,128.233,301.2,128.233Z" transform="translate(-268.097 -71.494)" fill="#b2b8fa"/><rect width="8.656" height="12.615" transform="translate(45.751 237.486)" fill="#5361f0"/><rect width="8.655" height="12.615" transform="translate(67.164 237.691) rotate(-10.32)" fill="#5361f0"/><path d="M301.111,170.983l2.018,65.626,7.357,48.53h10.539L317.419,232.9l-.459-37.1Z" transform="translate(-265.317 -43.517)" fill="#2e35a8"/><path d="M331.54,168.672s6.274,9.1,0,24.817l1.448,41.636,8.962,54.6H331.54l-15.378-53.85-13.831-55.543V163.983Z" transform="translate(-264.519 -48.098)" fill="#2e35a8"/><path d="M337.038,147.91s-8.63,29.3.677,50.186c0,0-28.043,12.132-38.729,1.929,0,0,6.618-32.731,6.411-43.457h0a6.489,6.489,0,0,1-4.677-9.8c3.855-6.325,9-14.405,12.018-17.633h20.371S339.824,137.588,337.038,147.91Z" transform="translate(-266.708 -70.904)" fill="#b2b8fa"/><g transform="translate(41.139 17.681)"><path d="M306.178,105.467l.091-.041C306.214,105.405,306.15,105.409,306.178,105.467Z" transform="translate(-303.145 -104.108)" fill="#191c3c"/><path d="M316.59,115.079a9.052,9.052,0,0,0-.836-1.712q-2.569-4.425-5.317-8.742l-2.971,1.317c.028.012.063.017.063.05,0,.1-.112.147-.2.18a4.665,4.665,0,0,0-2.975,4.528,7.913,7.913,0,0,0,2.159,4.361,15.058,15.058,0,0,1,2.827,4.035,10.29,10.29,0,0,0,.839,2.118,3.775,3.775,0,0,0,2.44,1.484,11.2,11.2,0,0,0,2.92.068,1.223,1.223,0,0,0,.634-.157.952.952,0,0,0,.319-.452,4.122,4.122,0,0,0,.207-1.289q.064-1.221.127-2.44A9.207,9.207,0,0,0,316.59,115.079Z" transform="translate(-304.342 -104.625)" fill="#191c3c"/></g><path d="M321,136.338H308.082s1.722-8.317-1.874-15.348c-1.588-3.105,14.8-2.857,14.8-2.857Z" transform="translate(-262.053 -78.107)" fill="#5361f0"/><path d="M318.635,109.509c-2.073-2.649-5.731-4.594-8.787-3.186l-.078.854c-1.324,4.836-6.09,8.2-7.222,13.082a9.857,9.857,0,0,0,6.27,11.176A19.059,19.059,0,0,0,315.5,132a2.992,2.992,0,0,0,1.193-.205,2.782,2.782,0,0,0,.933-.852,19.38,19.38,0,0,0,4.216-10.587A15.975,15.975,0,0,0,318.635,109.509Z" transform="translate(-264.519 -86.142)" fill="#5361f0"/><path d="M310.525,138.822l7.94,26.249a17.109,17.109,0,0,1,.485,7.85l-4.578,26.643-3.028,6.676a3.853,3.853,0,0,0,.779,4.31l1.271,1.277.556,6.31a3.865,3.865,0,0,0,2.7,3.349h0l2.068-2.275,1.921-2.068a4.479,4.479,0,0,0,1.052-1.919l.7-2.7a4.758,4.758,0,0,0,.094-1.951l-1.29-8.115,8.186-33.11a7.783,7.783,0,0,0-.073-4.017L320.829,135.7a5.385,5.385,0,0,0-5.193-3.964h0A5.387,5.387,0,0,0,310.525,138.822Z" transform="translate(-259.34 -69.204)" fill="#5361f0"/><path d="M310.072,138.349l3.239,16.084c5.286-3.722,11.235-.217,13.356-2.9l-5.708-16.491a5.693,5.693,0,0,0-5.489-4.189h0A5.691,5.691,0,0,0,310.072,138.349Z" transform="translate(-259.647 -69.776)" fill="#b2b8fa"/><path d="M337.222,152.212c-.51-2.252-1.515-4.366-2.056-6.611a33.3,33.3,0,0,1-.693-5.688c-.346-5.448-.692-10.939.045-16.349.432-3.165,1.231-6.393.529-9.51-1-4.434-4.927-7.738-9.21-9.255s-8.929-1.549-13.474-1.565c-1.7-.007-4.947-.074-6,1.643-1,1.63,1.1,4.513,2.071,5.709,1.305,1.61,2.844,3.09,3.655,5a9.62,9.62,0,0,1,.485,5.415c-.321,1.807-1.286,3.3-1.762,5.02a12.8,12.8,0,0,0-.146,5.175,15.2,15.2,0,0,0,2.457,5.392,29.022,29.022,0,0,0,2.659,3.627c1.745,1.965,3.944,3.579,5.221,5.877,2.788,5.013.309,11.323,1.38,16.96a13.807,13.807,0,0,0,9.571,10.473,20.517,20.517,0,0,1,1.145-5.8c.708-1.734,1.874-3.236,2.741-4.9A15.688,15.688,0,0,0,337.222,152.212Z" transform="translate(-262.052 -87.856)" fill="#191c3c"/><path d="M328.411,243.169l-10.2,9.106-6.992,2.27a2.54,2.54,0,0,0-1.674,2.958l.376.786,8.61-.108,20.922-2.985a3.036,3.036,0,0,0,2.3-3.618l-.508-2.291a15.562,15.562,0,0,0-3.167-6.507l-1.218-1.486h0a3.448,3.448,0,0,1-2.619,4.111l-1.721.382a3.448,3.448,0,0,1-4.111-2.619Z" transform="translate(-259.839 2.498)" fill="#191c3c"/><path d="M341.6,247.1a3.024,3.024,0,0,1-2.152,1.823L318.527,251.9l-8.61.108-.073-.154a2.525,2.525,0,0,0-.3,1.85l.376.786,8.61-.108,20.922-2.986a3.033,3.033,0,0,0,2.3-3.617Z" transform="translate(-259.839 6.293)" fill="#e03c00"/><path d="M315.786,243.025l-15.265,8.548-4.343.452a2.538,2.538,0,0,0-2.275,2.525v2.607h30.056a3.034,3.034,0,0,0,3.033-3.034v-2.346a15.551,15.551,0,0,0-1.683-7.038l-.869-1.714h0a3.447,3.447,0,0,1-3.446,3.446h-1.762a3.446,3.446,0,0,1-3.446-3.446Z" transform="translate(-270.034 3.63)" fill="#191c3c"/><path d="M323.959,251.247H293.9v2.482h30.056a3.034,3.034,0,0,0,3.033-3.034v-2.346c0-.028,0-.056,0-.084A3.031,3.031,0,0,1,323.959,251.247Z" transform="translate(-270.034 7.058)" fill="#e03c00"/></g><g transform="translate(250.381 158.792)"><g transform="translate(0 0)"><rect width="6.994" height="10.648" transform="translate(76.052 222.783)" fill="#5361f0"/><g transform="translate(72.95 230.689)"><path d="M215.409,243.4a43.73,43.73,0,0,1-1.61,8.223c-.157.485-.549.86-.549,1.37v3.924h16.544v-2.085a4.473,4.473,0,0,0-.882-2.657c-1.408-1.9-5.594-5.843-4.938-8.775Z" transform="translate(-213.25 -243.397)" fill="#e03c00"/><path d="M214.595,243.4h-.04l.02.106C214.58,243.468,214.59,243.43,214.595,243.4Z" transform="translate(-212.396 -243.397)" fill="#191c3c"/><path d="M213.25,249.857v2.829h16.544V250.6a4.447,4.447,0,0,0-.066-.745Z" transform="translate(-213.25 -239.169)" fill="#191c3c"/><rect width="4.558" height="1.022" rx="0.271" transform="translate(4.988 2.231)" fill="#191c3c"/><rect width="4.558" height="1.022" rx="0.271" transform="translate(5.538 4.51)" fill="#191c3c"/></g><rect width="6.994" height="10.648" transform="translate(30.555 222.783)" fill="#5361f0"/><path d="M199.6,201c1.947,4.818,13.786,37.638,13.786,37.638l10.673,50.116h10.421l-5.377-56.871L225.178,171.5l-22.591,2.688-4.086,20.2Z" transform="translate(-149.953 -59.759)" fill="#191c3c"/><path d="M184.856,181.811l.653,50.46,2.482,55.424h9.927l4-44.187,9.6-52.032V173.125L186.749,175.4Z" transform="translate(-158.882 -58.696)" fill="#191c3c"/><path d="M206.015,142.425h-14.89V122.813h16.288C203.637,127.713,206.015,142.425,206.015,142.425Z" transform="translate(-154.779 -91.622)" fill="#5361f0"/><path d="M186.02,205.854c.483,11.616,38.052-7.1,46.243-2.758l-9.928-68.317s-9.093-3.617-12.946-.789c-5.307,3.895-14.89,0-14.89,0l-6.687,2.654S185.607,195.927,186.02,205.854Z" transform="translate(-158.154 -85.014)" fill="#fff"/><path d="M199.757,127.24s-2.7,45.092,19.605,73.639c0,0,6.818,16.852,12.332,17.679,0,0,5.757-14.614-1.274-26.158-4.32-7.091-12.66-22.626-13.154-30.915l-1.42-23.784Z" transform="translate(-149.198 -88.725)" fill="#2e35a8"/><path d="M198.878,127.24s6.517,29.543,6.687,44.638c.137,12.271-18.92,53.192-18.92,53.192s-11.763-12.278-5.559-26.466c4.09-9.354,8.654-16.749,8.072-22.894l.154-42.224Z" transform="translate(-162.532 -88.725)" fill="#2e35a8"/><path d="M214.491,128.067a31.262,31.262,0,0,0-3.077-11.009c-.783-1.711-1.64-3.385-2.581-5.008a11.41,11.41,0,0,1-.936-1.7,2.111,2.111,0,0,0-1.745-1.218,6.216,6.216,0,0,0-2.212.253,41.736,41.736,0,0,0-8.934,2.788,17.483,17.483,0,0,0-3.11,1.807,9.455,9.455,0,0,0-3.074,4.23c-1.024,2.849-.617,6-.022,8.965a7.7,7.7,0,0,0,.649,2.111,7.864,7.864,0,0,0,3.271,2.851q2.5,1.439,5.087,2.733a18.5,18.5,0,0,0,3.129,1.314,19.7,19.7,0,0,0,5.991.481,9.487,9.487,0,0,0,4.556-.9,6.028,6.028,0,0,0,2.584-3.387A11.594,11.594,0,0,0,214.491,128.067Z" transform="translate(-156.697 -100.595)" fill="#5361f0"/><path d="M212.8,103.96c-2.842,2.406-6.659,3.287-10.353,3.746s-7.478.576-11,1.772c-2.187.741-5.589,2.114-6.639,4.358-1.471,3.142-1.234,7.8-.428,11.07a16.49,16.49,0,0,0,3.436,6.762c1.823,2.126,4.067,3.162,6.527,4.376.208.1.415.207.62.318a3.2,3.2,0,0,0,.647.374c.415.086.508-.63.506-.953a3.661,3.661,0,0,0-.572-1.788,10.82,10.82,0,0,0-1.061-1.3c-1.021-1.272-.958-2.827-1.085-4.363a5.524,5.524,0,0,1,.141-2.23,2.1,2.1,0,0,1,1.557-1.467,2.791,2.791,0,0,1,2.116.882,11.325,11.325,0,0,1,2.8,3.708q.062-1.963.122-3.926a9.632,9.632,0,0,1,.337-2.679c.367-1.128,1.163-2.233.88-3.385a12.392,12.392,0,0,1-.538-1.532A2.042,2.042,0,0,1,202,115.822a7.583,7.583,0,0,1,2.272-.6c1.216-.215,2.359-.617,3.54-.941a7.472,7.472,0,0,0,3.072-1.471,5.938,5.938,0,0,0,1.7-3.1,16.064,16.064,0,0,0,.3-3.575A17.544,17.544,0,0,0,212.8,103.96Z" transform="translate(-159.618 -103.96)" fill="#e03c00"/><path d="M221.014,140.865l9.349,20.667a7.29,7.29,0,0,1,.286,5.271l-13.729,39.584-4.513-6.773,6.087-30.971a7.256,7.256,0,0,0-.926-5.375l-6.55-10.53Z" transform="translate(-141.761 -79.808)" fill="#5361f0"/><path d="M177.653,146.667l-8,20.634a7.289,7.289,0,0,0,.563,6.431l25.429,32.374,4.512-6.773-16.308-25.8a7.715,7.715,0,0,1,.174-7.035l7.9-13.9S182.342,156.157,177.653,146.667Z" transform="translate(-169.156 -76.011)" fill="#5361f0"/><path d="M189.679,178.5l2.912.518,2.013,1.853a1.816,1.816,0,0,1,.139,2.528l-.6.685.9,1.441a1.666,1.666,0,0,1-.121,1.934l-2.813,3.453a1.663,1.663,0,0,1-2.167.362l-3.049-1.893a2.854,2.854,0,0,1-1.294-1.876l-.435-2.232Z" transform="translate(-158.679 -55.178)" fill="#5361f0"/><path d="M214.007,176.375l-2.912.518-1.474,1.774a2.592,2.592,0,0,0,.278,3.6h0l-.867.981a1.821,1.821,0,0,0-.046,2.358l2.5,3.069a1.822,1.822,0,0,0,2.376.4l2.928-1.818a2.856,2.856,0,0,0,1.3-1.876l.435-2.232Z" transform="translate(-143.36 -56.569)" fill="#5361f0"/><g transform="translate(26.626 230.689)"><path d="M188.236,243.4a9.872,9.872,0,0,1-2.437,8.223,2.077,2.077,0,0,0-.549,1.37v3.924h15.717v-2.085a4.473,4.473,0,0,0-.882-2.657c-1.408-1.9-3.939-5.843-3.284-8.775Z" transform="translate(-185.25 -243.397)" fill="#e03c00"/><path d="M187.095,243.4h-.04l.02.106C187.08,243.468,187.09,243.43,187.095,243.4Z" transform="translate(-184.069 -243.397)" fill="#191c3c"/><path d="M185.25,249.857v2.829h15.717V250.6a4.45,4.45,0,0,0-.066-.745Z" transform="translate(-185.25 -239.169)" fill="#191c3c"/><rect width="4.558" height="1.022" rx="0.271" transform="translate(5.815 2.231)" fill="#191c3c"/><rect width="4.558" height="1.022" rx="0.271" transform="translate(6.365 4.51)" fill="#191c3c"/></g><path d="M202.932,127.24l-10.372,6.772-4.624,2.2a12.989,12.989,0,0,0-6.52,7.012l-8.333,18.96c9,1.747,9.376,9.88,15.792,8.365l9.209-21.921,4.849-10.926Z" transform="translate(-166.587 -88.725)" fill="#2e35a8"/><path d="M199.716,127.24l10.4,4.464,5.8,1.514a12.3,12.3,0,0,1,8.1,6.834l9.678,19.238c-6.2,0-12.651,8.312-13.649,6.709l-11.892-20.852Z" transform="translate(-149.157 -88.725)" fill="#2e35a8"/></g></g><g transform="translate(72.209 402.998)"><line x2="252.097" transform="translate(34.181)" fill="none" stroke="#191c3c" stroke-miterlimit="10" stroke-width="0.5"/><line x1="30.178" fill="none" stroke="#191c3c" stroke-miterlimit="10" stroke-width="0.5"/><line x2="259.392" transform="translate(356.946)" fill="none" stroke="#191c3c" stroke-miterlimit="10" stroke-width="0.5"/></g></g></g></svg>