<svg xmlns="http://www.w3.org/2000/svg" width="685.365" height="383.323" viewBox="0 0 685.365 383.323"><g transform="translate(-44.793 -19.925)"><g transform="translate(45.043 20.175)"><g transform="translate(406.706 37.043)"><rect width="196.628" height="106.194" fill="#fff"/><rect width="196.628" height="23.67" fill="#e0e4f0"/><path d="M290.871,93.9V42.564H487.5V148.758" transform="translate(-290.871 -42.564)" fill="none" stroke="#e5e8f0" stroke-miterlimit="10" stroke-width="0.5"/><path d="M299.361,113.041H471.481c-.265,0,.41-38.717-.093-42.613-5.926,3.115-10.443,9.08-16.73,12.188-5.054,2.5-11.171,4.025-16.824,3.074-5.3-.892-9.621-4.892-15.067-5.258-7.073-.473-11.861,5.288-16.913,9.242-7.091,5.551-16.086,12.284-25.223,13.677-5.893.9-10.65-1.739-14.312-6.174-4.745-5.746-7.17-10.967-15.218-12.072a25.209,25.209,0,0,0-18.325,4.614c-6.166,4.808-9.847,12.706-16.928,16.022a16.085,16.085,0,0,1-8.093,1.424c-1.8-.147-6.426-2.6-8.026-1.2C298.555,106.991,299.361,111.468,299.361,113.041Z" transform="translate(-285.491 -24.33)" fill="#f9d8cc"/><path d="M304.655,50.654a2.593,2.593,0,1,1-2.593-2.592A2.592,2.592,0,0,1,304.655,50.654Z" transform="translate(-285.243 -38.967)" fill="#fff"/><path d="M311.937,50.654a2.592,2.592,0,1,1-2.592-2.592A2.592,2.592,0,0,1,311.937,50.654Z" transform="translate(-280.478 -38.967)" fill="#fff"/><path d="M319.219,50.654a2.592,2.592,0,1,1-2.592-2.592A2.592,2.592,0,0,1,319.219,50.654Z" transform="translate(-275.712 -38.967)" fill="#fff"/></g><g transform="translate(86.357 83.868)"><rect width="261.763" height="166.845" fill="#fff"/><path d="M97.24,237.713V70.868H359V237.713" transform="translate(-97.24 -70.868)" fill="none" stroke="#e5e8f0" stroke-miterlimit="10" stroke-width="0.5"/><rect width="261.763" height="23.672" fill="#e0e4f0"/><rect width="241.786" height="46.413" transform="translate(10.012 29.121)" fill="#fff"/><rect width="107.294" height="2.729" transform="translate(21.855 39.74)" fill="#f9f9fb"/><rect width="156.124" height="2.729" transform="translate(85.153 101.602)" fill="#f9f9fb"/><rect width="156.124" height="2.73" transform="translate(85.387 115.94)" fill="#f9f9fb"/><rect width="156.124" height="2.729" transform="translate(85.621 130.278)" fill="#f9f9fb"/><rect width="87.031" height="2.73" transform="translate(85.855 144.616)" fill="#f9f9fb"/><rect width="172.559" height="2.729" transform="translate(21.855 50.963)" fill="#f9f9fb"/><rect width="219.422" height="2.729" transform="translate(21.855 62.185)" fill="#f9f9fb"/><path d="M115.591,79.967a3.451,3.451,0,1,1-3.451-3.451A3.451,3.451,0,0,1,115.591,79.967Z" transform="translate(-89.748 -67.171)" fill="#fff"/><path d="M125.285,79.967a3.451,3.451,0,1,1-3.451-3.451A3.451,3.451,0,0,1,125.285,79.967Z" transform="translate(-83.404 -67.171)" fill="#fff"/><path d="M134.979,79.967a3.451,3.451,0,1,1-3.451-3.451A3.451,3.451,0,0,1,134.979,79.967Z" transform="translate(-77.06 -67.171)" fill="#fff"/><circle cx="31.411" cy="31.411" r="31.411" transform="matrix(0.922, -0.387, 0.387, 0.922, 9.84, 105.233)" fill="#f0f1fe"/></g><g transform="translate(304.72 233.321)"><rect width="133.134" height="41.759" fill="#fff"/><rect width="31.903" height="31.832" transform="translate(5.922 4.963)" fill="#f9f9fb"/><rect width="80.474" height="5.61" transform="translate(46.668 4.963)" fill="#f9f9fb"/><rect width="80.474" height="5.61" transform="translate(46.668 15.335)" fill="#f9f9fb"/><rect width="32.184" height="5.61" transform="translate(46.668 25.707)" fill="#f9f9fb"/><path d="M229.227,202.961V161.2H362.361v41.759" transform="translate(-229.227 -161.202)" fill="none" stroke="#e5e8f0" stroke-miterlimit="10" stroke-width="0.5"/></g><g transform="translate(168.78 30.992)"><rect width="139.676" height="43.811" fill="#fff"/><rect width="33.47" height="33.396" transform="translate(6.213 5.207)" fill="#f9f9fb"/><rect width="84.429" height="5.885" transform="translate(48.961 5.207)" fill="#f9f9fb"/><rect width="84.429" height="5.885" transform="translate(48.961 16.089)" fill="#f9f9fb"/><rect width="33.766" height="5.885" transform="translate(48.961 26.971)" fill="#f9f9fb"/><path d="M147.059,82.718V38.907H286.735V82.718" transform="translate(-147.059 -38.907)" fill="none" stroke="#e5e8f0" stroke-miterlimit="10" stroke-width="0.5"/></g><g transform="translate(0 159.778)"><rect width="129.253" height="56.458" fill="#fff"/><rect width="129.253" height="56.458" fill="none" stroke="#e5e8f0" stroke-miterlimit="10" stroke-width="0.5"/><rect width="4.136" height="10.495" transform="translate(11.319 38.724)" fill="#f2f3f7"/><rect width="4.136" height="20.99" transform="translate(18.693 28.229)" fill="#f2f3f7"/><rect width="4.136" height="20.99" transform="translate(26.066 28.229)" fill="#f2f3f7"/><rect width="4.136" height="33.191" transform="translate(33.176 16.027)" fill="#f2f3f7"/><rect width="4.136" height="27.297" transform="translate(40.812 21.921)" fill="#f2f3f7"/><rect width="4.136" height="9.512" transform="translate(48.185 39.706)" fill="#f9d8cc"/><rect width="4.136" height="27.297" transform="translate(55.559 21.921)" fill="#f2f3f7"/><rect width="4.136" height="12.614" transform="translate(62.932 36.604)" fill="#f2f3f7"/><rect width="4.136" height="20.99" transform="translate(70.305 28.229)" fill="#f2f3f7"/><rect width="4.136" height="28.952" transform="translate(77.678 20.267)" fill="#f2f3f7"/><rect width="26.885" height="4.136" transform="translate(94.096 9.513)" fill="#f0f1fe"/><rect width="26.885" height="2.068" transform="translate(94.096 21.094)" fill="#f0f1fe"/><rect width="26.885" height="2.068" transform="translate(94.096 26.161)" fill="#f0f1fe"/><rect width="26.885" height="2.068" transform="translate(94.096 31.227)" fill="#f0f1fe"/><rect width="13.442" height="2.068" transform="translate(94.096 36.294)" fill="#f0f1fe"/></g><g transform="translate(13.992 247.206)" opacity="0.1"><path d="M125.074,218.15c-9.485-14.728-19.061-29.571-31.353-42.051-4.045-4.108-9.885-8.216-15.105-5.769-4.791,2.245-5.779,8.595-5.47,13.876,1.453,24.83,16.951,46.614,34.248,64.487a279.477,279.477,0,0,0,66.151,50.5l4.247.817C160.006,272.389,142.863,245.77,125.074,218.15Z" transform="translate(-40.677 -169.595)" fill="#8184c4"/><g transform="translate(41.02 14.206)"><path d="M166.088,288.255c-37.867-26.6-67.724-67-85.45-109.393-.634-1.514-2.872-.242-2.23,1.264a259.86,259.86,0,0,0,36.136,60.48c14.941,18.639,32.439,33.54,51.474,47.77.071.053.144-.068.069-.121Z" transform="translate(-78.294 -178.181)" fill="#575a8f"/></g><g transform="translate(38.142 34.058)"><path d="M76.787,191.417A37.344,37.344,0,0,0,94,200.581a.791.791,0,0,0,.422-1.524,39.35,39.35,0,0,1-16.589-8.681c-.7-.627-1.744.4-1.042,1.041Z" transform="translate(-76.554 -190.181)" fill="#575a8f"/></g><g transform="translate(51.225 55.068)"><path d="M84.512,203.152c4.692,4.92,11.546,10.941,18.262,12.668a.384.384,0,0,0,.293-.7c-2.758-2.032-6.092-3.324-8.992-5.187a96.1,96.1,0,0,1-9.333-7.013c-.159-.132-.379.076-.23.23Z" transform="translate(-84.462 -202.88)" fill="#575a8f"/></g><g transform="translate(70.902 79.213)"><path d="M96.431,217.894a35.584,35.584,0,0,0,13.264,7.008.546.546,0,0,0,.29-1.052,51.614,51.614,0,0,1-13.255-6.341c-.233-.146-.508.2-.3.385Z" transform="translate(-96.356 -217.474)" fill="#575a8f"/></g><g transform="translate(57.846 27.162)"><path d="M88.471,186.842c1.1,7.725,2.2,14.511,1.353,22.351-.152,1.406,2.007,1.4,2.181.028.928-7.284.668-16.04-2.331-22.861-.319-.73-1.3-.187-1.2.481Z" transform="translate(-88.464 -186.013)" fill="#575a8f"/></g><g transform="translate(70.171 45.254)"><path d="M95.944,197.395a53.542,53.542,0,0,1,4.92,23.367.873.873,0,0,0,1.745.021A44.671,44.671,0,0,0,96.465,197.1a.3.3,0,0,0-.521.3Z" transform="translate(-95.914 -196.948)" fill="#575a8f"/></g><g transform="translate(86.915 65.211)"><path d="M106.09,209.976c4.062,9.008,7.331,16.836,8.017,26.837.113,1.636,2.675,1.679,2.563.033-.65-9.478-3.464-20.144-9.591-27.622-.48-.584-1.259.156-.989.753Z" transform="translate(-106.035 -209.01)" fill="#575a8f"/></g><path d="M174,263.354q-33.175-18.367-66.345-36.735c-7.806-4.321-15.719-8.686-24.367-10.878s-18.258-2-25.983,2.465a8.512,8.512,0,0,0-2.864,2.392c-2.215,3.218-.141,7.591,2.181,10.734,18.379,24.9,50.464,35.1,80.847,41.005,18.121,3.521,37.508,5.923,54.538-1.2A146.143,146.143,0,0,1,174,263.354Z" transform="translate(-53.5 -140.288)" fill="#8184c4"/><g transform="translate(8.725 84.398)"><path d="M59.082,221.905c15.869,10.6,33.527,17.762,51.377,24.3,19.782,7.248,39.627,14.329,59.333,21.781,1.544.582,2.54-1.823.983-2.368-19.1-6.676-38.085-13.671-57.1-20.578-18.535-6.734-37.053-13.533-53.7-24.305-.786-.51-1.689.639-.9,1.17Z" transform="translate(-58.774 -220.608)" fill="#575a8f"/></g><g transform="translate(14.815 98.425)"><path d="M62.751,229.789a195.4,195.4,0,0,0,19.6,2.5c1.554.081,1.927-2.248.336-2.43a197.339,197.339,0,0,0-19.833-.771.355.355,0,0,0-.1.7Z" transform="translate(-62.455 -229.086)" fill="#575a8f"/></g><g transform="translate(40.328 110.345)"><path d="M78.708,239.353l12.787-.4c4.2-.131,8.626.093,12.726-.92a.767.767,0,0,0,.013-1.514c-4.007-.566-8.171.05-12.187.339l-13.522.976c-.991.071-.786,1.545.182,1.515Z" transform="translate(-77.876 -236.291)" fill="#575a8f"/></g><g transform="translate(73.297 120.285)"><path d="M98.446,247.72a68.144,68.144,0,0,1,10.79-2.538c3.052-.336,6.307.415,9.235-.361.8-.213.567-1.257.012-1.567-2.849-1.583-7.569-.852-10.653-.265a24.185,24.185,0,0,0-9.836,3.931c-.452.328-.025.931.452.8Z" transform="translate(-97.803 -242.3)" fill="#575a8f"/></g><g transform="translate(26.948 81.819)"><path d="M69.894,220.071a84.531,84.531,0,0,1,5.9,10.742c1.282,2.857,2.023,6.085,3.847,8.626a.412.412,0,0,0,.731-.3C80.136,235.56,78,232.064,76.4,228.9a107.189,107.189,0,0,0-5.5-9.587c-.437-.68-1.429.079-1,.756Z" transform="translate(-69.788 -219.049)" fill="#575a8f"/></g><g transform="translate(48.836 94.105)"><path d="M83.051,226.687c3.686,4.432,7.155,9.774,11.5,13.56.293.255.65-.164.46-.458-3.115-4.823-7.892-8.994-11.742-13.265-.116-.129-.331.028-.217.164Z" transform="translate(-83.018 -226.475)" fill="#575a8f"/></g><g transform="translate(71.092 102.015)"><path d="M96.605,232.3c2,2.665,4.123,5.278,6.007,8.022,1.648,2.4,2.95,5.207,5.435,6.829a.523.523,0,0,0,.8-.6c-.888-2.831-3.263-4.834-5.1-7.083-2.113-2.581-4.067-5.309-6.093-7.956a.655.655,0,0,0-1.044.789Z" transform="translate(-96.47 -231.256)" fill="#575a8f"/></g><path d="M129.542,177.482c-3.309-3.072-8.754-4.315-12.369-1.61-3.3,2.467-3.943,7.088-4.083,11.2C111.82,224.192,131.8,263.352,149.134,296.2l3.769,1.011c-2.733-36.419-5.547-73.265-16.984-107.95C134.506,184.973,132.85,180.554,129.542,177.482Z" transform="translate(-14.539 -166.461)" fill="#8184c4"/><g transform="translate(108.457 22.046)"><path d="M143.861,279.016c-9.743-31.327-16.422-63.314-23.1-95.395-.222-1.067-1.924-.849-1.678.2,7.476,31.85,13.512,64.449,24.276,95.4.116.334.609.129.506-.2Z" transform="translate(-119.055 -182.92)" fill="#575a8f"/></g><g transform="translate(103.324 32.73)"><path d="M116.127,190.727q2.385,3.221,4.773,6.441c1.391,1.876,2.621,4.009,4.523,5.393a.605.605,0,0,0,.923-.7c-.814-2.2-2.545-3.977-3.967-5.815q-2.452-3.172-4.905-6.341a.845.845,0,0,0-1.347,1.021Z" transform="translate(-115.953 -189.378)" fill="#575a8f"/></g><g transform="translate(107.255 51.542)"><path d="M118.4,201.395c2.814,4.565,5.463,10.158,9.19,14.02a.384.384,0,0,0,.658-.372c-1.385-5.2-5.671-10.233-9.2-14.14a.409.409,0,0,0-.652.493Z" transform="translate(-118.329 -200.748)" fill="#575a8f"/></g><g transform="translate(113.256 73.546)"><path d="M121.979,214.83c.753,2.856,2.674,5.561,4.09,8.16a44.984,44.984,0,0,0,4.005,6.906.383.383,0,0,0,.658-.371c-.844-2.859-2.553-5.572-3.891-8.241-1.186-2.366-2.151-4.995-3.873-7.013a.576.576,0,0,0-.989.559Z" transform="translate(-121.956 -214.049)" fill="#575a8f"/></g><g transform="translate(116.966 43.131)"><path d="M129.384,195.835a34.129,34.129,0,0,0-4.029,9.473c-.663,2.551-1.77,6.317-.731,8.846a.579.579,0,0,0,1.06.008c1.161-2.366.865-5.759,1.416-8.38a59.06,59.06,0,0,1,2.985-9.543c.164-.412-.45-.814-.7-.405Z" transform="translate(-124.199 -195.665)" fill="#575a8f"/></g><g transform="translate(126.366 68.532)"><path d="M131.868,211.268c-.572,3.347-.956,6.671-1.287,10.047-.294,2.991-.986,6.188-.572,9.175.083.6,1.056.832,1.254.174.925-3.061.736-6.518.926-9.7.194-3.248.311-6.439.275-9.695,0-.351-.541-.328-.6,0Z" transform="translate(-129.88 -211.018)" fill="#575a8f"/></g></g><g transform="translate(335.826 286.322)" opacity="0.1"><path d="M299.021,227.831c-6.758-10.492-13.581-21.068-22.338-29.96-2.882-2.925-7.043-5.852-10.76-4.11-3.413,1.6-4.118,6.123-3.9,9.887,1.036,17.689,12.077,33.208,24.4,45.942a199.122,199.122,0,0,0,47.13,35.977l3.024.582C323.907,266.472,311.694,247.507,299.021,227.831Z" transform="translate(-238.892 -193.238)" fill="#8184c4"/><g transform="translate(29.225 10.12)"><path d="M328.241,277.775c-26.979-18.95-48.25-47.73-60.878-77.936-.452-1.079-2.047-.172-1.588.9a185.125,185.125,0,0,0,25.745,43.086c10.643,13.28,23.109,23.9,36.671,34.033.051.038.1-.048.051-.086Z" transform="translate(-265.693 -199.355)" fill="#575a8f"/></g><g transform="translate(27.174 24.264)"><path d="M264.619,208.784a26.6,26.6,0,0,0,12.261,6.53.564.564,0,0,0,.3-1.087,28.014,28.014,0,0,1-11.818-6.184c-.5-.447-1.242.283-.743.741Z" transform="translate(-264.453 -207.904)" fill="#575a8f"/></g><g transform="translate(36.495 39.232)"><path d="M270.122,217.145c3.344,3.506,8.226,7.794,13.01,9.025a.274.274,0,0,0,.208-.5c-1.965-1.446-4.34-2.367-6.406-3.694a68.251,68.251,0,0,1-6.649-5c-.112-.094-.27.055-.164.164Z" transform="translate(-270.087 -216.951)" fill="#575a8f"/></g><g transform="translate(50.513 56.433)"><path d="M278.613,227.647a25.34,25.34,0,0,0,9.45,4.993.389.389,0,0,0,.207-.749,36.762,36.762,0,0,1-9.445-4.518c-.165-.1-.361.142-.212.275Z" transform="translate(-278.56 -227.348)" fill="#575a8f"/></g><g transform="translate(41.212 19.351)"><path d="M272.943,205.526c.781,5.5,1.568,10.339.963,15.924-.109,1,1.429,1,1.554.02.662-5.19.477-11.427-1.659-16.288-.228-.519-.925-.132-.857.344Z" transform="translate(-272.938 -204.934)" fill="#575a8f"/></g><g transform="translate(49.992 32.241)"><path d="M278.266,213.043a38.171,38.171,0,0,1,3.506,16.649.622.622,0,0,0,1.242.015,31.811,31.811,0,0,0-4.376-16.874.214.214,0,0,0-.372.21Z" transform="translate(-278.245 -212.725)" fill="#575a8f"/></g><g transform="translate(61.921 46.459)"><path d="M285.495,222.007c2.9,6.418,5.223,11.993,5.713,19.119.079,1.166,1.906,1.2,1.825.023-.463-6.752-2.468-14.352-6.833-19.678-.341-.417-.9.111-.7.536Z" transform="translate(-285.455 -221.319)" fill="#575a8f"/></g><path d="M333.878,260.035q-23.633-13.083-47.266-26.17c-5.561-3.079-11.2-6.189-17.36-7.751s-13.009-1.424-18.511,1.755a6.107,6.107,0,0,0-2.04,1.706c-1.578,2.293-.1,5.408,1.554,7.647,13.093,17.742,35.953,25.01,57.6,29.214,12.911,2.508,26.722,4.22,38.856-.855A104.185,104.185,0,0,1,333.878,260.035Z" transform="translate(-248.028 -172.359)" fill="#8184c4"/><g transform="translate(6.216 60.128)"><path d="M252,230.506c11.306,7.556,23.887,12.653,36.6,17.312,14.094,5.163,28.231,10.208,42.271,15.517,1.1.415,1.81-1.3.7-1.686-13.606-4.757-27.133-9.74-40.679-14.662-13.206-4.8-26.4-9.64-38.256-17.315-.561-.362-1.2.455-.639.834Z" transform="translate(-251.785 -229.581)" fill="#575a8f"/></g><g transform="translate(10.556 70.12)"><path d="M254.62,236.122a139.15,139.15,0,0,0,13.958,1.78c1.107.058,1.375-1.6.24-1.732a140.754,140.754,0,0,0-14.131-.549.253.253,0,0,0-.068.5Z" transform="translate(-254.408 -235.621)" fill="#575a8f"/></g><g transform="translate(28.731 78.614)"><path d="M265.988,242.936l9.109-.283c2.995-.094,6.146.066,9.066-.655a.546.546,0,0,0,.01-1.079c-2.856-.4-5.822.035-8.682.242l-9.632.695c-.708.051-.561,1.1.129,1.08Z" transform="translate(-265.394 -240.755)" fill="#575a8f"/></g><g transform="translate(52.219 85.695)"><path d="M280.049,248.9a48.547,48.547,0,0,1,7.688-1.81c2.174-.238,4.493.3,6.58-.256.571-.152.4-.9.008-1.115-2.03-1.13-5.393-.607-7.591-.189a17.211,17.211,0,0,0-7.007,2.8c-.323.233-.018.663.321.571Z" transform="translate(-279.591 -245.035)" fill="#575a8f"/></g><g transform="translate(19.199 58.29)"><path d="M259.708,229.2a60.3,60.3,0,0,1,4.2,7.653c.913,2.035,1.441,4.335,2.74,6.145a.294.294,0,0,0,.521-.21c-.167-2.553-1.689-5.043-2.831-7.3a76.5,76.5,0,0,0-3.921-6.831c-.311-.485-1.017.058-.711.539Z" transform="translate(-259.633 -228.47)" fill="#575a8f"/></g><g transform="translate(34.793 67.042)"><path d="M269.081,233.912c2.627,3.158,5.1,6.964,8.193,9.66.208.182.462-.116.328-.326-2.22-3.436-5.623-6.408-8.366-9.452-.081-.091-.235.02-.154.117Z" transform="translate(-269.058 -233.761)" fill="#575a8f"/></g><g transform="translate(50.648 72.678)"><path d="M278.738,237.911c1.421,1.9,2.937,3.759,4.28,5.714,1.173,1.711,2.1,3.711,3.871,4.867a.373.373,0,0,0,.567-.43c-.632-2.017-2.323-3.445-3.635-5.046-1.5-1.838-2.9-3.782-4.341-5.668a.466.466,0,0,0-.743.563Z" transform="translate(-278.642 -237.167)" fill="#575a8f"/></g><path d="M302.2,198.856c-2.358-2.189-6.237-3.074-8.811-1.147-2.348,1.759-2.809,5.049-2.91,7.981-.9,26.443,13.331,54.343,25.68,77.744l2.684.721c-1.946-25.947-3.951-52.2-12.1-76.906C305.739,204.194,304.56,201.045,302.2,198.856Z" transform="translate(-220.271 -191.006)" fill="#8184c4"/><g transform="translate(77.268 15.706)"><path d="M312.405,271.193c-6.94-22.318-11.7-45.107-16.46-67.963-.159-.761-1.372-.6-1.2.144,5.327,22.689,9.627,45.914,17.3,67.963.083.238.433.093.361-.144Z" transform="translate(-294.732 -202.731)" fill="#575a8f"/></g><g transform="translate(73.611 23.318)"><path d="M292.645,208.293q1.7,2.293,3.4,4.588a16.683,16.683,0,0,0,3.223,3.843.431.431,0,0,0,.657-.5,16.771,16.771,0,0,0-2.826-4.143l-3.494-4.518a.6.6,0,0,0-.961.728Z" transform="translate(-292.521 -207.332)" fill="#575a8f"/></g><g transform="translate(76.413 36.72)"><path d="M294.266,215.893c2.005,3.253,3.891,7.237,6.547,9.988a.274.274,0,0,0,.47-.265c-.986-3.706-4.04-7.291-6.552-10.076a.292.292,0,0,0-.465.352Z" transform="translate(-294.215 -215.432)" fill="#575a8f"/></g><g transform="translate(80.688 52.397)"><path d="M296.816,225.464c.536,2.035,1.9,3.962,2.913,5.815a32.114,32.114,0,0,0,2.852,4.919.273.273,0,0,0,.47-.265,37.378,37.378,0,0,0-2.773-5.87,23.905,23.905,0,0,0-2.76-5,.41.41,0,0,0-.7.4Z" transform="translate(-296.799 -224.908)" fill="#575a8f"/></g><g transform="translate(83.331 30.729)"><path d="M302.09,211.933a24.257,24.257,0,0,0-2.869,6.748c-.473,1.817-1.262,4.5-.521,6.3a.412.412,0,0,0,.754.007c.827-1.686.617-4.1,1.009-5.971a42.046,42.046,0,0,1,2.128-6.8c.116-.294-.321-.579-.5-.288Z" transform="translate(-298.396 -211.811)" fill="#575a8f"/></g><g transform="translate(90.028 48.825)"><path d="M303.86,222.928c-.407,2.384-.682,4.752-.917,7.157-.21,2.131-.7,4.409-.409,6.538.06.428.753.592.9.122.658-2.181.523-4.644.658-6.907.139-2.315.222-4.588.2-6.907,0-.25-.384-.233-.424,0Z" transform="translate(-302.444 -222.749)" fill="#575a8f"/></g></g><g transform="translate(498.081 232.475)" opacity="0.1"><path d="M346.1,310.56c2.331-19.9,5.417-34.679,19.977-48.956,6.828-6.7,15.848-11.384,21.235-19.206,6.558-9.521,7.079-22.792,16.089-30.22,9.672-7.973,25.182-5.787,35.139-13.426,7.1-5.448,9.707-14.584,14.806-21.822,8.267-11.733,23.945-18.151,38.439-15.734-14.513,3.41-24.752,18.834-21.887,32.971,1.833,9.045,8.214,17.3,7.43,26.488-1.56,18.237-29.153,26.042-31.28,44.226-.579,4.952.927,9.9,1.132,14.877.642,15.469-13.322,30.119-29.36,30.8Z" transform="translate(-346.101 -160.691)" fill="#8184c4"/><g transform="translate(41.108 45.855)"><path d="M438.323,188.465a256.111,256.111,0,0,0-38.1,44.845c-10.5,15.72-17.9,32.41-26.418,49.1a1.533,1.533,0,0,1-2.793-1.135c11.177-35.814,38.863-68.313,67.261-92.855.035-.03.084.017.05.048Z" transform="translate(-370.948 -188.407)" fill="#575a8f"/></g><g transform="translate(84.228 63.32)"><path d="M420.031,200.028a28.665,28.665,0,0,0-11.828.961c-4.014,1.231-6.748,3.761-10.425,5.451-.41.187-.986-.225-.682-.657,4.513-6.423,15.816-7.579,23.028-6.427a.342.342,0,0,1-.094.672Z" transform="translate(-397.011 -198.963)" fill="#575a8f"/></g><g transform="translate(67.211 82.282)"><path d="M417.856,212.54a35.585,35.585,0,0,0-16.635-.2c-5.024,1.2-8.924,3.916-13.383,6.229a.731.731,0,0,1-.9-1.13c7.443-7.758,21.276-8.386,31.016-5.226a.172.172,0,1,1-.094.331Z" transform="translate(-386.726 -210.425)" fill="#575a8f"/></g><g transform="translate(50.055 108.047)"><path d="M414.8,228.878c-15.289-1.793-25.411,1.166-36.955,11.07-.688.589-1.9-.177-1.34-1,7.508-10.961,26.041-16.247,38.492-10.775a.377.377,0,0,1-.2.7Z" transform="translate(-376.356 -225.998)" fill="#575a8f"/></g><g transform="translate(76.179 55.267)"><path d="M394.684,194.227c6.155,6.509,3.9,19.407-2.047,25.319-.222.222-.624-.066-.447-.331,2.652-3.991,4.563-7.826,4.707-12.673.132-4.46-1.664-7.792-2.986-11.882a.464.464,0,0,1,.773-.433Z" transform="translate(-392.146 -194.096)" fill="#575a8f"/></g><g transform="translate(64.141 69.723)"><path d="M387.957,203.122c3.147,8.406,2.8,19.575-2.286,27.249-.253.381-.927.146-.779-.316,2.96-9.366,4.28-16.927,2.243-26.713a.427.427,0,0,1,.822-.22Z" transform="translate(-384.87 -202.834)" fill="#575a8f"/></g><g transform="translate(47.133 85.79)"><path d="M376.93,212.839c5.483,11.8,4.72,24.874-.415,36.651-.47,1.077-2.316.619-1.85-.491,4.963-11.821,4.692-23.577,1.16-35.709-.179-.617.817-1.065,1.105-.45Z" transform="translate(-374.59 -212.545)" fill="#575a8f"/></g></g><g transform="translate(226.918 289.843)" opacity="0.1"><path d="M182.2,287.869c1.439-12.284,3.344-21.405,12.331-30.218,4.214-4.133,9.781-7.026,13.106-11.854,4.048-5.877,4.369-14.068,9.932-18.652,5.968-4.92,15.542-3.572,21.686-8.285,4.383-3.363,5.992-9,9.139-13.469a24.748,24.748,0,0,1,23.725-9.712c-8.957,2.1-15.277,11.624-13.508,20.35,1.132,5.582,5.071,10.679,4.586,16.349-.963,11.255-17.994,16.073-19.307,27.3-.357,3.057.572,6.11.7,9.182.4,9.548-8.223,18.589-18.121,19.013Z" transform="translate(-182.2 -195.366)" fill="#8184c4"/><g transform="translate(25.373 28.303)"><path d="M239.122,212.509A158.044,158.044,0,0,0,215.6,240.188c-6.48,9.7-11.047,20-16.3,30.3a.946.946,0,0,1-1.724-.7c6.9-22.1,23.986-42.163,41.515-57.311.021-.018.051.01.031.03Z" transform="translate(-197.536 -212.473)" fill="#575a8f"/></g><g transform="translate(51.987 39.081)"><path d="M227.831,219.646a17.7,17.7,0,0,0-7.3.592c-2.477.761-4.166,2.323-6.434,3.365-.253.116-.609-.139-.42-.405,2.786-3.964,9.761-4.677,14.213-3.967a.211.211,0,0,1-.058.415Z" transform="translate(-213.623 -218.988)" fill="#575a8f"/></g><g transform="translate(41.483 50.785)"><path d="M226.489,227.369a21.958,21.958,0,0,0-10.267-.126c-3.1.74-5.508,2.417-8.261,3.845a.452.452,0,0,1-.558-.7c4.594-4.788,13.133-5.177,19.143-3.226a.107.107,0,0,1-.058.205Z" transform="translate(-207.274 -226.063)" fill="#575a8f"/></g><g transform="translate(30.895 66.687)"><path d="M224.6,237.452c-9.437-1.107-15.684.72-22.81,6.833-.424.364-1.173-.109-.826-.615,4.632-6.763,16.073-10.028,23.758-6.651a.233.233,0,0,1-.122.433Z" transform="translate(-200.874 -235.674)" fill="#575a8f"/></g><g transform="translate(47.019 34.111)"><path d="M212.187,216.065c3.8,4.017,2.4,11.978-1.264,15.628-.137.136-.384-.041-.276-.205a14.49,14.49,0,0,0,2.907-7.82c.081-2.753-1.027-4.809-1.843-7.334a.286.286,0,0,1,.476-.268Z" transform="translate(-210.62 -215.984)" fill="#575a8f"/></g><g transform="translate(39.589 43.034)"><path d="M208.035,221.555c1.941,5.188,1.731,12.082-1.411,16.817-.157.235-.572.091-.481-.2,1.827-5.781,2.642-10.446,1.385-16.486a.263.263,0,0,1,.508-.136Z" transform="translate(-206.129 -221.377)" fill="#575a8f"/></g><g transform="translate(29.092 52.95)"><path d="M201.228,227.553c3.383,7.283,2.913,15.353-.256,22.621-.29.665-1.429.382-1.142-.3,3.064-7.3,2.9-14.552.716-22.04-.111-.381.5-.658.682-.278Z" transform="translate(-199.784 -227.371)" fill="#575a8f"/></g></g><g transform="translate(393.25 107.006)"><rect width="148.209" height="106.707" fill="#fff"/><rect width="148.209" height="11.463" fill="#dfe2ec"/><rect width="6.209" height="5.226" transform="translate(7.416 3.118)" fill="#fff"/><path d="M282.737,191.56V84.853H430.946V191.56" transform="translate(-282.737 -84.853)" fill="none" stroke="#e5e8f0" stroke-miterlimit="10" stroke-width="0.5"/><rect width="28.643" height="28.588" transform="translate(39.293 46.467) rotate(180)" fill="#f2f3f7"/><rect width="28.643" height="28.588" transform="translate(78.407 46.467) rotate(180)" fill="#f2f3f7"/><rect width="48.41" height="28.588" transform="translate(137.288 46.467) rotate(180)" fill="#f2f3f7"/><rect width="57.698" height="5.158" transform="translate(10.444 54.362)" fill="#f2f3f7"/><rect width="127.449" height="2.579" transform="translate(9.839 68.211)" fill="#f2f3f7"/><rect width="127.449" height="2.579" transform="translate(9.839 77.638)" fill="#f2f3f7"/><rect width="127.449" height="2.579" transform="translate(10.38 87.065)" fill="#f2f3f7"/><rect width="63.752" height="2.579" transform="translate(10.921 96.492)" fill="#f2f3f7"/></g><g transform="translate(550.691 155.111)"><rect width="134.174" height="42.085" transform="translate(0 0)" fill="#fff"/><rect width="32.152" height="32.081" transform="translate(5.968 5.002)" fill="#f9f9fb"/><rect width="81.103" height="5.654" transform="translate(47.033 5.002)" fill="#f9f9fb"/><rect width="81.103" height="5.654" transform="translate(47.033 15.455)" fill="#f9f9fb"/><rect width="32.436" height="5.654" transform="translate(47.033 25.908)" fill="#f9f9fb"/><rect width="134.174" height="42.085" transform="translate(0 0)" fill="none" stroke="#e5e8f0" stroke-miterlimit="10" stroke-width="0.5"/></g><g transform="translate(316.486)"><rect width="84.541" height="96.681" fill="#fff"/><rect width="73.159" height="32.081" transform="translate(5.968 5.002)" fill="#f0f1fe"/><rect width="72.26" height="2.827" transform="translate(6.868 42.085)" fill="#f9f9fb"/><rect width="72.26" height="2.827" transform="translate(6.868 48.611)" fill="#f9f9fb"/><rect width="72.26" height="2.827" transform="translate(6.868 55.136)" fill="#f9f9fb"/><rect width="72.26" height="2.827" transform="translate(6.868 61.662)" fill="#f9f9fb"/><path d="M236.338,90.385V20.175h84.541V106.1" transform="translate(-236.338 -20.175)" fill="none" stroke="#e5e8f0" stroke-miterlimit="10" stroke-width="0.5"/></g><g transform="translate(458.111 313.673)"><rect width="79.077" height="69.15" fill="#fdfdfe"/><rect width="79.077" height="13.801" fill="#ec8a66"/><rect width="8.075" height="8.075" transform="translate(33.196 19.474)" fill="#dfe2ec"/><rect width="8.075" height="8.075" transform="translate(46.181 19.474)" fill="#dfe2ec"/><rect width="8.076" height="8.075" transform="translate(59.165 19.474)" fill="#dfe2ec"/><rect width="8.075" height="8.076" transform="translate(7.227 31.14)" fill="#dfe2ec"/><rect width="8.075" height="8.076" transform="translate(20.211 31.14)" fill="#dfe2ec"/><rect width="8.075" height="8.076" transform="translate(33.196 31.14)" fill="#dfe2ec"/><rect width="8.075" height="8.076" transform="translate(46.181 31.14)" fill="#dfe2ec"/><rect width="8.076" height="8.076" transform="translate(59.165 31.14)" fill="#dfe2ec"/><rect width="8.075" height="8.076" transform="translate(7.227 42.807)" fill="#dfe2ec"/><rect width="8.075" height="8.076" transform="translate(20.211 42.807)" fill="#dfe2ec"/><rect width="8.075" height="8.076" transform="translate(33.196 42.807)" fill="#dfe2ec"/><rect width="8.075" height="8.076" transform="translate(46.181 42.807)" fill="#dfe2ec"/><rect width="8.076" height="8.076" transform="translate(59.165 42.807)" fill="#dfe2ec"/><rect width="8.075" height="8.075" transform="translate(7.227 54.474)" fill="#dfe2ec"/><rect width="8.075" height="8.075" transform="translate(20.211 54.474)" fill="#dfe2ec"/><rect width="8.075" height="8.075" transform="translate(33.196 54.474)" fill="#dfe2ec"/><path d="M321.941,278.92V209.77h79.077v27.789" transform="translate(-321.941 -209.77)" fill="none" stroke="#191c3c" stroke-miterlimit="10" stroke-width="0.5"/></g><g transform="translate(478.583 204.397)"><g transform="translate(0 0)"><path d="M387.189,143.719V214.08H334.316V143.719Z" transform="translate(-334.316 -143.719)" fill="#fff"/></g><g transform="translate(0 0)"><path d="M387.189,143.719V214.08H334.316V143.719Z" transform="translate(-334.316 -143.719)" fill="none" stroke="#e5e8f0" stroke-miterlimit="10" stroke-width="0.5"/></g><rect width="8.747" height="8.747" transform="translate(4.054 18.805)" fill="#f2f3f7"/><path d="M377.489,157.272H344.323v-2.186h33.166Z" transform="translate(-327.767 -136.281)" fill="#f2f3f7"/><path d="M357.626,160.56h-13.3v-2.187h13.3Z" transform="translate(-327.767 -134.129)" fill="#f2f3f7"/><path d="M377.489,167.677H344.323V165.49h33.166Z" transform="translate(-327.767 -129.472)" fill="#f2f3f7"/><path d="M357.626,170.965h-13.3v-2.187h13.3Z" transform="translate(-327.767 -127.32)" fill="#f2f3f7"/><path d="M377.489,178.081H344.323v-2.186h33.166Z" transform="translate(-327.767 -122.663)" fill="#f2f3f7"/><path d="M357.626,181.37h-13.3v-2.187h13.3v2.187Z" transform="translate(-327.767 -120.511)" fill="#f2f3f7"/><rect width="8.747" height="8.747" transform="translate(4.054 35.458)" fill="#f2f3f7"/><rect width="8.747" height="8.747" transform="translate(4.054 52.111)" fill="#f2f3f7"/><g transform="translate(4.15 15.712)"><path d="M341.328,164.107l-4.5-4.5,1.554-1.555,2.949,2.95,7.783-7.783,1.554,1.554Z" transform="translate(-336.824 -153.216)" fill="#f9d8cc"/></g><g transform="translate(4.15 31.882)"><path d="M341.328,173.882l-4.5-4.5,1.554-1.554,2.949,2.95,7.783-7.783,1.554,1.554Z" transform="translate(-336.824 -162.99)" fill="#f9d8cc"/></g><g transform="translate(4.15 48.053)"><path d="M341.328,183.656l-4.5-4.5,1.554-1.554,2.949,2.95,7.783-7.783,1.554,1.555Z" transform="translate(-336.824 -172.764)" fill="#f9d8cc"/></g></g><g transform="translate(145.193 289.153)"><path d="M197.986,235.684l7.19-.007a2.634,2.634,0,0,0,2.632-2.637l-.007-9.171a2.637,2.637,0,0,0-2.639-2.634l-5.627,0a2.219,2.219,0,0,1-2.061-1.474q-.3-.789-.647-1.554a2.221,2.221,0,0,1,.412-2.5l3.979-3.981a2.637,2.637,0,0,0,0-3.729l-6.487-6.482a2.638,2.638,0,0,0-3.727,0l-4.009,4.012a2.175,2.175,0,0,1-2.4.46c-.572-.245-1.19-.491-1.722-.7a2.165,2.165,0,0,1-1.378-2.025v-5.683a2.635,2.635,0,0,0-2.636-2.636h-9.172a2.636,2.636,0,0,0-2.636,2.636v5.628a2.216,2.216,0,0,1-1.472,2.058c-.551.207-1.1.435-1.63.68a2.209,2.209,0,0,1-2.5-.405l-3.994-3.971a2.636,2.636,0,0,0-3.727.012l-6.466,6.5a2.635,2.635,0,0,0,.01,3.727l4.024,4a2.178,2.178,0,0,1,.465,2.4c-.243.572-.488,1.19-.695,1.724a2.167,2.167,0,0,1-2.022,1.381l-5.686.015a2.635,2.635,0,0,0-2.629,2.642l.023,9.171a2.635,2.635,0,0,0,2.642,2.629l5.628-.013a2.217,2.217,0,0,1,2.063,1.469c.2.526.415,1.042.649,1.554a2.212,2.212,0,0,1-.407,2.5l-3.972,3.99a2.636,2.636,0,0,0,.007,3.727l6.5,6.47a2.636,2.636,0,0,0,3.727-.007l4-4.02a2.178,2.178,0,0,1,2.4-.463c.572.243,1.19.49,1.722.7a2.167,2.167,0,0,1,1.381,2.022l.01,5.686a2.634,2.634,0,0,0,2.64,2.631l9.171-.015a2.634,2.634,0,0,0,2.631-2.639l-.008-5.63a2.214,2.214,0,0,1,1.471-2.061q.789-.3,1.554-.647a2.212,2.212,0,0,1,2.5.409l3.987,3.976a2.635,2.635,0,0,0,3.727,0l6.475-6.494a2.635,2.635,0,0,0,0-3.727l-4.015-4.005a2.175,2.175,0,0,1-.463-2.4C197.354,237.415,197.956,235.78,197.986,235.684Zm-36.5-9.543a13,13,0,1,1,8.094,14.456A13,13,0,0,1,161.487,226.142Z" transform="translate(-127.617 -194.949)" fill="#b2b8fa"/><path d="M207.8,225.24l0-1.37a2.637,2.637,0,0,0-2.639-2.634l-5.627,0a2.219,2.219,0,0,1-2.061-1.474q-.3-.789-.647-1.554a2.221,2.221,0,0,1,.412-2.5l3.979-3.981a2.637,2.637,0,0,0,0-3.729l-6.487-6.482a2.638,2.638,0,0,0-3.727,0l-4.009,4.012a2.175,2.175,0,0,1-2.4.46c-.572-.245-1.19-.491-1.722-.7a2.165,2.165,0,0,1-1.378-2.025v-5.683a2.635,2.635,0,0,0-2.636-2.636h-9.172a2.636,2.636,0,0,0-2.636,2.636v5.628a2.216,2.216,0,0,1-1.472,2.058c-.551.207-1.1.435-1.63.68a2.209,2.209,0,0,1-2.5-.405l-3.994-3.971a2.636,2.636,0,0,0-3.727.012l-6.466,6.5a2.635,2.635,0,0,0,.01,3.727l4.024,4a2.178,2.178,0,0,1,.465,2.4c-.243.572-.488,1.19-.695,1.724a2.167,2.167,0,0,1-2.022,1.381l-5.686.015a2.635,2.635,0,0,0-2.629,2.642l0,1.261m20.758.9a13,13,0,0,1,17.474-9.776,13.152,13.152,0,0,1,8.115,9.96" transform="translate(-127.617 -194.949)" fill="none" stroke="#191c3c" stroke-miterlimit="10" stroke-width="0.5"/><path d="M140.748,221.168a2.635,2.635,0,0,0,2.642,2.629l5.628-.013a2.217,2.217,0,0,1,2.063,1.469c.2.526.415,1.042.649,1.554a2.212,2.212,0,0,1-.407,2.5l-3.972,3.99a2.636,2.636,0,0,0,.007,3.727l6.5,6.471a2.636,2.636,0,0,0,3.727-.007l4-4.02a2.181,2.181,0,0,1,2.4-.465c.572.245,1.19.491,1.722.7a2.167,2.167,0,0,1,1.381,2.022l.01,5.686a2.634,2.634,0,0,0,2.64,2.631l9.171-.015a2.634,2.634,0,0,0,2.631-2.639l-.008-5.63A2.214,2.214,0,0,1,183,239.7q.789-.3,1.554-.647a2.212,2.212,0,0,1,2.5.409l3.987,3.976a2.635,2.635,0,0,0,3.727,0l6.475-6.494a2.635,2.635,0,0,0,0-3.727L197.23,229.2a2.175,2.175,0,0,1-.463-2.4c.586-1.37,1.188-3,1.216-3.1l7.192-.007a2.634,2.634,0,0,0,2.632-2.637l0-7.8H186.787a12.588,12.588,0,0,1,.266,5.582,13,13,0,0,1-25.568-4.68c.058-.309.146-.6.223-.9H140.728Z" transform="translate(-127.616 -182.967)" fill="#414042" opacity="0.3"/><g transform="translate(0 32.452)"><rect width="79.095" height="61.054" transform="translate(11.003)" fill="#f5f7f9"/><rect width="8.105" height="61.054" transform="translate(11.003 61.054) rotate(180)" fill="#f5f7f9"/><rect width="79.095" height="61.054" transform="translate(11.003)" fill="none" stroke="#191c3c" stroke-miterlimit="10" stroke-width="0.5"/><path d="M142.659,275.618V214.564h-8.1v37.892" transform="translate(-131.656 -214.564)" fill="none" stroke="#191c3c" stroke-miterlimit="10" stroke-width="0.5"/><path d="M134.555,224.4h5.206l2.9-9.834-8.1,1.932Z" transform="translate(-131.656 -214.564)" fill="#231f20" opacity="0.2"/><path d="M132.8,220.491h8.1l2.9-5.927h-8.1Z" transform="translate(-132.803 -214.564)" fill="#f7f9fa"/><path d="M132.8,220.491h8.1l2.9-5.927h-8.1Z" transform="translate(-132.803 -214.564)" fill="none" stroke="#191c3c" stroke-miterlimit="10" stroke-width="0.5"/><path d="M218.549,224.4v-7.9l-79.1-1.932L143.8,224.4Z" transform="translate(-128.45 -214.564)" fill="#231f20" opacity="0.2"/><path d="M222.9,220.491H143.8l-4.348-5.927h79.1Z" transform="translate(-128.45 -214.564)" fill="#f7f9fa"/><path d="M222.9,220.491H143.8l-4.348-5.927h79.1Z" transform="translate(-128.45 -214.564)" fill="none" stroke="#191c3c" stroke-miterlimit="10" stroke-width="0.5"/></g></g><path d="M144.6,251.477l2.647,0a.972.972,0,0,0,.971-.971l0-3.377a.97.97,0,0,0-.971-.97l-2.073,0a.815.815,0,0,1-.758-.543c-.073-.194-.152-.384-.238-.572a.816.816,0,0,1,.151-.92l1.466-1.466a.972.972,0,0,0,0-1.373L143.4,238.9a.972.972,0,0,0-1.373,0l-1.476,1.476a.8.8,0,0,1-.883.17c-.21-.091-.438-.182-.634-.258a.8.8,0,0,1-.508-.744v-2.093a.972.972,0,0,0-.971-.971h-3.375a.972.972,0,0,0-.971.971v2.071a.815.815,0,0,1-.543.758c-.2.076-.4.16-.6.251a.818.818,0,0,1-.922-.149l-1.471-1.463a.973.973,0,0,0-1.373,0l-2.379,2.4a.968.968,0,0,0,0,1.372l1.481,1.472a.8.8,0,0,1,.172.883c-.089.212-.18.438-.256.635a.8.8,0,0,1-.744.51l-2.093,0a.969.969,0,0,0-.968.973l.008,3.375a.973.973,0,0,0,.973.969l2.073-.007a.819.819,0,0,1,.759.543c.073.192.152.384.238.571a.813.813,0,0,1-.151.922l-1.463,1.469a.97.97,0,0,0,0,1.372l2.392,2.382a.97.97,0,0,0,1.372,0l1.474-1.481a.8.8,0,0,1,.883-.17c.212.089.438.18.635.256a.8.8,0,0,1,.508.744l0,2.095a.972.972,0,0,0,.973.968l3.377,0a.97.97,0,0,0,.968-.973l0-2.071a.816.816,0,0,1,.543-.759c.194-.074.384-.152.571-.238a.813.813,0,0,1,.921.151l1.467,1.462a.972.972,0,0,0,1.373,0l2.384-2.391a.972.972,0,0,0,0-1.373l-1.479-1.474a.8.8,0,0,1-.169-.883C144.371,252.116,144.593,251.514,144.6,251.477Zm-13.437-3.512a4.785,4.785,0,1,1,2.98,5.322A4.787,4.787,0,0,1,131.165,247.965Z" transform="translate(6.317 121.383)" fill="#b2b8fa"/><path d="M130.671,251.5l3.514,0a1.286,1.286,0,0,0,1.285-1.289l0-4.48a1.286,1.286,0,0,0-1.289-1.286l-2.75,0a1.083,1.083,0,0,1-1.006-.72q-.146-.385-.316-.759a1.083,1.083,0,0,1,.2-1.223l1.944-1.946a1.286,1.286,0,0,0,0-1.82l-3.17-3.168a1.29,1.29,0,0,0-1.822,0l-1.957,1.961a1.068,1.068,0,0,1-1.173.225c-.28-.121-.582-.242-.842-.342a1.059,1.059,0,0,1-.673-.989v-2.776a1.287,1.287,0,0,0-1.287-1.289h-4.48a1.288,1.288,0,0,0-1.289,1.289v2.75a1.08,1.08,0,0,1-.72,1q-.4.154-.8.333a1.082,1.082,0,0,1-1.223-.2l-1.951-1.941a1.288,1.288,0,0,0-1.822,0l-3.158,3.178a1.286,1.286,0,0,0,0,1.82l1.965,1.956a1.063,1.063,0,0,1,.228,1.171c-.119.28-.24.582-.341.842a1.055,1.055,0,0,1-.988.675l-2.778.007a1.289,1.289,0,0,0-1.284,1.292l.01,4.48A1.289,1.289,0,0,0,104,251.547l2.75-.007a1.081,1.081,0,0,1,1.008.718q.146.385.318.759a1.083,1.083,0,0,1-.2,1.223l-1.941,1.949a1.288,1.288,0,0,0,0,1.82l3.175,3.162a1.287,1.287,0,0,0,1.822,0l1.956-1.964a1.065,1.065,0,0,1,1.173-.227c.28.119.581.24.842.341a1.059,1.059,0,0,1,.673.988l0,2.778a1.288,1.288,0,0,0,1.29,1.285l4.48-.007a1.288,1.288,0,0,0,1.285-1.29l0-2.75a1.083,1.083,0,0,1,.72-1.008q.385-.144.759-.316a1.08,1.08,0,0,1,1.221.2l1.947,1.942a1.288,1.288,0,0,0,1.822,0l3.165-3.173a1.286,1.286,0,0,0,0-1.82l-1.96-1.957a1.065,1.065,0,0,1-.227-1.173C130.363,252.346,130.658,251.548,130.671,251.5Zm-17.83-4.662a6.349,6.349,0,1,1,3.952,7.064A6.35,6.35,0,0,1,112.841,246.838Z" transform="translate(-7.311 118.189)" fill="#2e35a8"/><g transform="translate(517.278 343.003)"><path d="M397.525,247.407A19.91,19.91,0,1,1,377.613,227.5,19.911,19.911,0,0,1,397.525,247.407Z" transform="translate(-357.704 -227.498)" fill="#b2b8fa"/><path d="M394.487,246.547a17.734,17.734,0,1,1-17.734-17.734A17.734,17.734,0,0,1,394.487,246.547Z" transform="translate(-356.843 -226.637)" fill="#d1d4fc"/><path d="M391.582,245.723a15.652,15.652,0,1,1-15.653-15.651A15.653,15.653,0,0,1,391.582,245.723Z" transform="translate(-356.019 -225.813)" fill="#b2b8fa"/><g transform="translate(13.73 9.77)"><g transform="translate(0 1.673)"><path d="M374.222,250.867h-5.8a2.425,2.425,0,0,1-2.42-2.42v-1.239h3.445v.215h4.775a1.666,1.666,0,0,0,1.664-1.664,1.084,1.084,0,0,0-1.082-1.085H370.53A4.532,4.532,0,0,1,366,240.144v-.62a5.115,5.115,0,0,1,5.109-5.109h5.8a2.423,2.423,0,0,1,2.42,2.419v1.408h-3.445v-.384h-4.775a1.667,1.667,0,0,0-1.664,1.666v.62a1.085,1.085,0,0,0,1.082,1.085H374.8a4.533,4.533,0,0,1,4.527,4.528A5.116,5.116,0,0,1,374.222,250.867Z" transform="translate(-366.003 -234.415)" fill="#868abc"/></g><g transform="translate(4.942)"><rect width="3.444" height="20.28" fill="#868abc"/></g></g></g><g transform="translate(547.177 352.844)"><path d="M405.756,248.435a14.99,14.99,0,1,1-14.991-14.989A14.991,14.991,0,0,1,405.756,248.435Z" transform="translate(-375.776 -233.446)" fill="#b2b8fa"/><path d="M403.469,247.787a13.351,13.351,0,1,1-13.351-13.351A13.351,13.351,0,0,1,403.469,247.787Z" transform="translate(-375.128 -232.798)" fill="#d1d4fc"/><path d="M401.282,247.168A11.785,11.785,0,1,1,389.5,235.383,11.784,11.784,0,0,1,401.282,247.168Z" transform="translate(-374.508 -232.178)" fill="#b2b8fa"/><g transform="translate(10.337 7.355)"><g transform="translate(0 1.259)"><path d="M388.212,251.04h-4.366a1.825,1.825,0,0,1-1.822-1.822v-.933h2.592v.162h3.6a1.255,1.255,0,0,0,1.254-1.254.816.816,0,0,0-.816-.816h-3.218a3.414,3.414,0,0,1-3.408-3.41V242.5a3.851,3.851,0,0,1,3.847-3.847h4.366a1.825,1.825,0,0,1,1.822,1.822v1.061h-2.592v-.29h-3.6a1.256,1.256,0,0,0-1.254,1.254v.468a.816.816,0,0,0,.816.816h3.218a3.413,3.413,0,0,1,3.408,3.41A3.851,3.851,0,0,1,388.212,251.04Z" transform="translate(-382.024 -238.653)" fill="#868abc"/></g><g transform="translate(3.721)"><rect width="2.593" height="15.268" fill="#868abc"/></g></g></g></g><g transform="translate(331.485 83.719)"><path d="M344.474,121.731A63.147,63.147,0,1,0,246.8,174.6v29.626h69.046V174.6A63.074,63.074,0,0,0,344.474,121.731Z" transform="translate(-218.179 -58.583)" fill="#f8d6ca"/><path d="M315.849,178.157V174.6a63.146,63.146,0,1,0-69.046,0v3.562" transform="translate(-218.179 -58.583)" fill="none" stroke="#191c3c" stroke-miterlimit="10" stroke-width="0.5"/><path d="M310.772,161.681l-22.961,19.2H253.638l-20.863-19.2V131.512h78Z" transform="translate(-208.627 -10.856)" fill="#2e35a8"/><rect width="84.612" height="5.788" rx="0.543" transform="translate(20.754 123.412)" fill="#585db9"/><rect width="84.612" height="5.788" rx="0.543" transform="translate(20.754 133.078)" fill="#585db9"/><path d="M.543,0H84.07a.543.543,0,0,1,.543.543v4.7a.543.543,0,0,1-.543.543H.542A.542.542,0,0,1,0,5.245V.543A.543.543,0,0,1,.543,0Z" transform="translate(20.754 142.744)" fill="#585db9"/><path d="M0,0H35.429a0,0,0,0,1,0,0V9.214A2.126,2.126,0,0,1,33.3,11.34H2.126A2.126,2.126,0,0,1,0,9.214V0A0,0,0,0,1,0,0Z" transform="translate(44.031 169.123)" fill="#191c3c"/><path d="M320.577,114.957a46.024,46.024,0,1,1-46.025-46.023A46.025,46.025,0,0,1,320.577,114.957Z" transform="translate(-211.406 -51.809)" fill="#f9ded5"/></g><g transform="translate(432.897 142.211)"><path d="M321.883,169.446l-19.061-11.124a8.508,8.508,0,0,1-3.739-4.531L284.249,114.86h0a5.346,5.346,0,0,1-2.627-3.984l.251-1.8c.308-1.35.119-2.571,1.175-3.315l.635-.447.544-3.307-1.2-3.418-2.194-1.37a2.4,2.4,0,0,1-1.08-3.286l.768.571,3.919,1.848a3.016,3.016,0,0,1,1.376,1.31l1.324,2.343,4.861,6.7a4.423,4.423,0,0,1,.749,3.322l-.266,10.456,13.269,25.847a11.686,11.686,0,0,0,4.757,4.343l18.162,8.947Z" transform="translate(-279.476 -93.938)" fill="#5361f0"/><path d="M301.2,128.233l18.394,6.346-7.642,14.483-15.092-6.153C298.928,140.021,301.2,128.233,301.2,128.233Z" transform="translate(-268.097 -71.494)" fill="#b2b8fa"/><rect width="8.656" height="12.615" transform="translate(45.751 237.486)" fill="#5361f0"/><rect width="8.655" height="12.615" transform="translate(67.164 237.691) rotate(-10.32)" fill="#5361f0"/><path d="M301.111,170.983l2.018,65.626,7.357,48.53h10.539L317.419,232.9l-.459-37.1Z" transform="translate(-265.317 -43.517)" fill="#2e35a8"/><path d="M331.54,168.672s6.274,9.1,0,24.817l1.448,41.636,8.962,54.6H331.54l-15.378-53.85-13.831-55.543V163.983Z" transform="translate(-264.519 -48.098)" fill="#2e35a8"/><path d="M337.038,147.91s-8.63,29.3.677,50.186c0,0-28.043,12.132-38.729,1.929,0,0,6.618-32.731,6.411-43.457h0a6.489,6.489,0,0,1-4.677-9.8c3.855-6.325,9-14.405,12.018-17.633h20.371S339.824,137.588,337.038,147.91Z" transform="translate(-266.708 -70.904)" fill="#b2b8fa"/><g transform="translate(41.139 17.681)"><path d="M306.178,105.467l.091-.041C306.214,105.405,306.15,105.409,306.178,105.467Z" transform="translate(-303.145 -104.108)" fill="#191c3c"/><path d="M316.59,115.079a9.052,9.052,0,0,0-.836-1.712q-2.569-4.425-5.317-8.742l-2.971,1.317c.028.012.063.017.063.05,0,.1-.112.147-.2.18a4.665,4.665,0,0,0-2.975,4.528,7.913,7.913,0,0,0,2.159,4.361,15.058,15.058,0,0,1,2.827,4.035,10.29,10.29,0,0,0,.839,2.118,3.775,3.775,0,0,0,2.44,1.484,11.2,11.2,0,0,0,2.92.068,1.223,1.223,0,0,0,.634-.157.952.952,0,0,0,.319-.452,4.122,4.122,0,0,0,.207-1.289q.064-1.221.127-2.44A9.207,9.207,0,0,0,316.59,115.079Z" transform="translate(-304.342 -104.625)" fill="#191c3c"/></g><path d="M321,136.338H308.082s1.722-8.317-1.874-15.348c-1.588-3.105,14.8-2.857,14.8-2.857Z" transform="translate(-262.053 -78.107)" fill="#5361f0"/><path d="M318.635,109.509c-2.073-2.649-5.731-4.594-8.787-3.186l-.078.854c-1.324,4.836-6.09,8.2-7.222,13.082a9.857,9.857,0,0,0,6.27,11.176A19.059,19.059,0,0,0,315.5,132a2.992,2.992,0,0,0,1.193-.205,2.782,2.782,0,0,0,.933-.852,19.38,19.38,0,0,0,4.216-10.587A15.975,15.975,0,0,0,318.635,109.509Z" transform="translate(-264.519 -86.142)" fill="#5361f0"/><path d="M310.525,138.822l7.94,26.249a17.109,17.109,0,0,1,.485,7.85l-4.578,26.643-3.028,6.676a3.853,3.853,0,0,0,.779,4.31l1.271,1.277.556,6.31a3.865,3.865,0,0,0,2.7,3.349h0l2.068-2.275,1.921-2.068a4.479,4.479,0,0,0,1.052-1.919l.7-2.7a4.758,4.758,0,0,0,.094-1.951l-1.29-8.115,8.186-33.11a7.783,7.783,0,0,0-.073-4.017L320.829,135.7a5.385,5.385,0,0,0-5.193-3.964h0A5.387,5.387,0,0,0,310.525,138.822Z" transform="translate(-259.34 -69.204)" fill="#5361f0"/><path d="M310.072,138.349l3.239,16.084c5.286-3.722,11.235-.217,13.356-2.9l-5.708-16.491a5.693,5.693,0,0,0-5.489-4.189h0A5.691,5.691,0,0,0,310.072,138.349Z" transform="translate(-259.647 -69.776)" fill="#b2b8fa"/><path d="M337.222,152.212c-.51-2.252-1.515-4.366-2.056-6.611a33.3,33.3,0,0,1-.693-5.688c-.346-5.448-.692-10.939.045-16.349.432-3.165,1.231-6.393.529-9.51-1-4.434-4.927-7.738-9.21-9.255s-8.929-1.549-13.474-1.565c-1.7-.007-4.947-.074-6,1.643-1,1.63,1.1,4.513,2.071,5.709,1.305,1.61,2.844,3.09,3.655,5a9.62,9.62,0,0,1,.485,5.415c-.321,1.807-1.286,3.3-1.762,5.02a12.8,12.8,0,0,0-.146,5.175,15.2,15.2,0,0,0,2.457,5.392,29.022,29.022,0,0,0,2.659,3.627c1.745,1.965,3.944,3.579,5.221,5.877,2.788,5.013.309,11.323,1.38,16.96a13.807,13.807,0,0,0,9.571,10.473,20.517,20.517,0,0,1,1.145-5.8c.708-1.734,1.874-3.236,2.741-4.9A15.688,15.688,0,0,0,337.222,152.212Z" transform="translate(-262.052 -87.856)" fill="#191c3c"/><path d="M328.411,243.169l-10.2,9.106-6.992,2.27a2.54,2.54,0,0,0-1.674,2.958l.376.786,8.61-.108,20.922-2.985a3.036,3.036,0,0,0,2.3-3.618l-.508-2.291a15.562,15.562,0,0,0-3.167-6.507l-1.218-1.486h0a3.448,3.448,0,0,1-2.619,4.111l-1.721.382a3.448,3.448,0,0,1-4.111-2.619Z" transform="translate(-259.839 2.498)" fill="#191c3c"/><path d="M341.6,247.1a3.024,3.024,0,0,1-2.152,1.823L318.527,251.9l-8.61.108-.073-.154a2.525,2.525,0,0,0-.3,1.85l.376.786,8.61-.108,20.922-2.986a3.033,3.033,0,0,0,2.3-3.617Z" transform="translate(-259.839 6.293)" fill="#e03c00"/><path d="M315.786,243.025l-15.265,8.548-4.343.452a2.538,2.538,0,0,0-2.275,2.525v2.607h30.056a3.034,3.034,0,0,0,3.033-3.034v-2.346a15.551,15.551,0,0,0-1.683-7.038l-.869-1.714h0a3.447,3.447,0,0,1-3.446,3.446h-1.762a3.446,3.446,0,0,1-3.446-3.446Z" transform="translate(-270.034 3.63)" fill="#191c3c"/><path d="M323.959,251.247H293.9v2.482h30.056a3.034,3.034,0,0,0,3.033-3.034v-2.346c0-.028,0-.056,0-.084A3.031,3.031,0,0,1,323.959,251.247Z" transform="translate(-270.034 7.058)" fill="#e03c00"/></g><g transform="translate(250.381 158.792)"><g transform="translate(0 0)"><rect width="6.994" height="10.648" transform="translate(76.052 222.783)" fill="#5361f0"/><g transform="translate(72.95 230.689)"><path d="M215.409,243.4a43.73,43.73,0,0,1-1.61,8.223c-.157.485-.549.86-.549,1.37v3.924h16.544v-2.085a4.473,4.473,0,0,0-.882-2.657c-1.408-1.9-5.594-5.843-4.938-8.775Z" transform="translate(-213.25 -243.397)" fill="#e03c00"/><path d="M214.595,243.4h-.04l.02.106C214.58,243.468,214.59,243.43,214.595,243.4Z" transform="translate(-212.396 -243.397)" fill="#191c3c"/><path d="M213.25,249.857v2.829h16.544V250.6a4.447,4.447,0,0,0-.066-.745Z" transform="translate(-213.25 -239.169)" fill="#191c3c"/><rect width="4.558" height="1.022" rx="0.271" transform="translate(4.988 2.231)" fill="#191c3c"/><rect width="4.558" height="1.022" rx="0.271" transform="translate(5.538 4.51)" fill="#191c3c"/></g><rect width="6.994" height="10.648" transform="translate(30.555 222.783)" fill="#5361f0"/><path d="M199.6,201c1.947,4.818,13.786,37.638,13.786,37.638l10.673,50.116h10.421l-5.377-56.871L225.178,171.5l-22.591,2.688-4.086,20.2Z" transform="translate(-149.953 -59.759)" fill="#191c3c"/><path d="M184.856,181.811l.653,50.46,2.482,55.424h9.927l4-44.187,9.6-52.032V173.125L186.749,175.4Z" transform="translate(-158.882 -58.696)" fill="#191c3c"/><path d="M206.015,142.425h-14.89V122.813h16.288C203.637,127.713,206.015,142.425,206.015,142.425Z" transform="translate(-154.779 -91.622)" fill="#5361f0"/><path d="M186.02,205.854c.483,11.616,38.052-7.1,46.243-2.758l-9.928-68.317s-9.093-3.617-12.946-.789c-5.307,3.895-14.89,0-14.89,0l-6.687,2.654S185.607,195.927,186.02,205.854Z" transform="translate(-158.154 -85.014)" fill="#fff"/><path d="M199.757,127.24s-2.7,45.092,19.605,73.639c0,0,6.818,16.852,12.332,17.679,0,0,5.757-14.614-1.274-26.158-4.32-7.091-12.66-22.626-13.154-30.915l-1.42-23.784Z" transform="translate(-149.198 -88.725)" fill="#2e35a8"/><path d="M198.878,127.24s6.517,29.543,6.687,44.638c.137,12.271-18.92,53.192-18.92,53.192s-11.763-12.278-5.559-26.466c4.09-9.354,8.654-16.749,8.072-22.894l.154-42.224Z" transform="translate(-162.532 -88.725)" fill="#2e35a8"/><path d="M214.491,128.067a31.262,31.262,0,0,0-3.077-11.009c-.783-1.711-1.64-3.385-2.581-5.008a11.41,11.41,0,0,1-.936-1.7,2.111,2.111,0,0,0-1.745-1.218,6.216,6.216,0,0,0-2.212.253,41.736,41.736,0,0,0-8.934,2.788,17.483,17.483,0,0,0-3.11,1.807,9.455,9.455,0,0,0-3.074,4.23c-1.024,2.849-.617,6-.022,8.965a7.7,7.7,0,0,0,.649,2.111,7.864,7.864,0,0,0,3.271,2.851q2.5,1.439,5.087,2.733a18.5,18.5,0,0,0,3.129,1.314,19.7,19.7,0,0,0,5.991.481,9.487,9.487,0,0,0,4.556-.9,6.028,6.028,0,0,0,2.584-3.387A11.594,11.594,0,0,0,214.491,128.067Z" transform="translate(-156.697 -100.595)" fill="#5361f0"/><path d="M212.8,103.96c-2.842,2.406-6.659,3.287-10.353,3.746s-7.478.576-11,1.772c-2.187.741-5.589,2.114-6.639,4.358-1.471,3.142-1.234,7.8-.428,11.07a16.49,16.49,0,0,0,3.436,6.762c1.823,2.126,4.067,3.162,6.527,4.376.208.1.415.207.62.318a3.2,3.2,0,0,0,.647.374c.415.086.508-.63.506-.953a3.661,3.661,0,0,0-.572-1.788,10.82,10.82,0,0,0-1.061-1.3c-1.021-1.272-.958-2.827-1.085-4.363a5.524,5.524,0,0,1,.141-2.23,2.1,2.1,0,0,1,1.557-1.467,2.791,2.791,0,0,1,2.116.882,11.325,11.325,0,0,1,2.8,3.708q.062-1.963.122-3.926a9.632,9.632,0,0,1,.337-2.679c.367-1.128,1.163-2.233.88-3.385a12.392,12.392,0,0,1-.538-1.532A2.042,2.042,0,0,1,202,115.822a7.583,7.583,0,0,1,2.272-.6c1.216-.215,2.359-.617,3.54-.941a7.472,7.472,0,0,0,3.072-1.471,5.938,5.938,0,0,0,1.7-3.1,16.064,16.064,0,0,0,.3-3.575A17.544,17.544,0,0,0,212.8,103.96Z" transform="translate(-159.618 -103.96)" fill="#e03c00"/><path d="M221.014,140.865l9.349,20.667a7.29,7.29,0,0,1,.286,5.271l-13.729,39.584-4.513-6.773,6.087-30.971a7.256,7.256,0,0,0-.926-5.375l-6.55-10.53Z" transform="translate(-141.761 -79.808)" fill="#5361f0"/><path d="M177.653,146.667l-8,20.634a7.289,7.289,0,0,0,.563,6.431l25.429,32.374,4.512-6.773-16.308-25.8a7.715,7.715,0,0,1,.174-7.035l7.9-13.9S182.342,156.157,177.653,146.667Z" transform="translate(-169.156 -76.011)" fill="#5361f0"/><path d="M189.679,178.5l2.912.518,2.013,1.853a1.816,1.816,0,0,1,.139,2.528l-.6.685.9,1.441a1.666,1.666,0,0,1-.121,1.934l-2.813,3.453a1.663,1.663,0,0,1-2.167.362l-3.049-1.893a2.854,2.854,0,0,1-1.294-1.876l-.435-2.232Z" transform="translate(-158.679 -55.178)" fill="#5361f0"/><path d="M214.007,176.375l-2.912.518-1.474,1.774a2.592,2.592,0,0,0,.278,3.6h0l-.867.981a1.821,1.821,0,0,0-.046,2.358l2.5,3.069a1.822,1.822,0,0,0,2.376.4l2.928-1.818a2.856,2.856,0,0,0,1.3-1.876l.435-2.232Z" transform="translate(-143.36 -56.569)" fill="#5361f0"/><g transform="translate(26.626 230.689)"><path d="M188.236,243.4a9.872,9.872,0,0,1-2.437,8.223,2.077,2.077,0,0,0-.549,1.37v3.924h15.717v-2.085a4.473,4.473,0,0,0-.882-2.657c-1.408-1.9-3.939-5.843-3.284-8.775Z" transform="translate(-185.25 -243.397)" fill="#e03c00"/><path d="M187.095,243.4h-.04l.02.106C187.08,243.468,187.09,243.43,187.095,243.4Z" transform="translate(-184.069 -243.397)" fill="#191c3c"/><path d="M185.25,249.857v2.829h15.717V250.6a4.45,4.45,0,0,0-.066-.745Z" transform="translate(-185.25 -239.169)" fill="#191c3c"/><rect width="4.558" height="1.022" rx="0.271" transform="translate(5.815 2.231)" fill="#191c3c"/><rect width="4.558" height="1.022" rx="0.271" transform="translate(6.365 4.51)" fill="#191c3c"/></g><path d="M202.932,127.24l-10.372,6.772-4.624,2.2a12.989,12.989,0,0,0-6.52,7.012l-8.333,18.96c9,1.747,9.376,9.88,15.792,8.365l9.209-21.921,4.849-10.926Z" transform="translate(-166.587 -88.725)" fill="#2e35a8"/><path d="M199.716,127.24l10.4,4.464,5.8,1.514a12.3,12.3,0,0,1,8.1,6.834l9.678,19.238c-6.2,0-12.651,8.312-13.649,6.709l-11.892-20.852Z" transform="translate(-149.157 -88.725)" fill="#2e35a8"/></g></g><g transform="translate(72.209 402.998)"><line x2="252.097" transform="translate(34.181)" fill="none" stroke="#191c3c" stroke-miterlimit="10" stroke-width="0.5"/><line x1="30.178" fill="none" stroke="#191c3c" stroke-miterlimit="10" stroke-width="0.5"/><line x2="259.392" transform="translate(356.946)" fill="none" stroke="#191c3c" stroke-miterlimit="10" stroke-width="0.5"/></g></g></svg>