<?xml version="1.0" encoding="UTF-8"?>
<svg width="14px" height="12px" viewBox="0 0 16 12" version="1.1" 
  xmlns="http://www.w3.org/2000/svg" 
  xmlns:xlink="http://www.w3.org/1999/xlink">
  <!-- Generator: Sketch 53.2 (72643) - https://sketchapp.com -->
  <title>Path</title>
  <desc>Created with Sketch.</desc>
  <g id="Test-05" stroke="none" stroke-width="1" fill="none" fill-rule="evenodd">
    <g id="Kalkulator-03" transform="translate(-633.000000, -834.000000)" fill="#27ae60">
      <path d="M648.815385,835.809045 L648.815385,835.809045 L638.969231,845.819095 C638.846154,845.939698 638.723077,846 638.538462,846 C638.353846,846 638.169231,845.939698 638.107692,845.819095 L633.307692,840.753769 L633.184615,840.633166 C633.061538,840.512563 633,840.331658 633,840.211055 C633,840.090452 633.061538,839.909548 633.184615,839.788945 L634.046154,838.944724 C634.292308,838.703518 634.661538,838.703518 634.907692,838.944724 L634.969231,839.005025 L638.353846,842.562814 C638.476923,842.683417 638.661538,842.683417 638.784615,842.562814 L647.030769,834.180905 L647.092308,834.180905 C647.338462,833.939698 647.707692,833.939698 647.953846,834.180905 L648.815385,835.025126 C649.061538,835.20603 649.061538,835.567839 648.815385,835.809045 L648.815385,835.809045 Z" id="Path"></path>
    </g>
  </g>
</svg>
