<svg xmlns="http://www.w3.org/2000/svg" width="158" height="114.037" viewBox="0 0 158 114.037"><g transform="translate(0)"><rect width="152.727" height="87.325" transform="translate(0 4.902)" fill="#f1f1f1"/><rect width="152.727" height="87.325" transform="translate(4.273 1)" fill="none" stroke="#3f3d56" stroke-miterlimit="10" stroke-width="2"/><line x2="152.727" transform="translate(4.273 5.661)" fill="none" stroke="#3f3d56" stroke-miterlimit="10" stroke-width="2"/><circle cx="1.301" cy="1.301" r="1.301" transform="translate(6.503 2.115)" fill="#3444b3"/><circle cx="1.301" cy="1.301" r="1.301" transform="translate(10.405 2.115)" fill="#3444b3"/><circle cx="1.301" cy="1.301" r="1.301" transform="translate(14.307 2.115)" fill="#3444b3"/><path d="M628.363,291.784A24.27,24.27,0,0,0,611.2,250.353v24.27Z" transform="translate(-530.62 -230.34)" fill="#3f3d56"/><path d="M504.839,250.353a24.273,24.273,0,0,0-11.61,45.587l11.61-21.317Z" transform="translate(-424.258 -230.34)" fill="#3444b3"/><rect width="4.647" height="4.647" transform="translate(28.427 64.938)" fill="#3444b3"/><rect width="4.647" height="4.647" transform="translate(35.14 64.938)" fill="#3f3d56"/><rect width="4.647" height="4.647" transform="translate(41.853 64.938)" fill="#575a89"/><rect width="19.106" height="0.775" transform="translate(108.724 65.971)" fill="#3f3d56"/><rect width="19.106" height="0.775" transform="translate(108.724 68.295)" fill="#3f3d56"/><rect width="19.106" height="0.775" transform="translate(108.724 70.618)" fill="#3f3d56"/><path d="M630.349,554.046l.307,2.559,1.74.819,1.945-.614,1.33.614.409-2.354-2.354-2.661Z" transform="translate(-513.231 -448.957)" fill="#ffb9b9"/><path d="M779.673,711.422s-1.587-1.85-1.612-.925-3.505,4.1-3.505,4.1-5.425,1.638-1.228,2.661,13.408-1.945,13.715-2.559-2.559-5.322-2.866-4.913A5.308,5.308,0,0,1,779.673,711.422Z" transform="translate(-661.327 -604.389)" fill="#2f2e41"/><path d="M772,555.1s-.614,4.81,0,5.527a2.133,2.133,0,0,1,0,2.354c-.307.2.409,1.023.921,1.433a8.44,8.44,0,0,1,1.228,2.252s2.763,7.267,2.763,7.983,1.228,2.252,1.126,2.763.716,2.149.614,2.456,1.331,3.07.921,3.48-6.039,1.842-5.732.921.512-2.047.307-2.047-1.126-1.126-.921-1.535-6.141-11.156-6.141-11.156Z" transform="translate(-657.541 -478.466)" fill="#2f2e41"/><path d="M779.673,711.422s-1.587-1.85-1.612-.925-3.505,4.1-3.505,4.1-5.425,1.638-1.228,2.661,13.408-1.945,13.715-2.559-2.559-5.322-2.866-4.913A5.308,5.308,0,0,1,779.673,711.422Z" transform="translate(-661.327 -604.389)" opacity="0.1"/><path d="M772,555.1s-.614,4.81,0,5.527a2.133,2.133,0,0,1,0,2.354c-.307.2.409,1.023.921,1.433a8.44,8.44,0,0,1,1.228,2.252s2.763,7.267,2.763,7.983,1.228,2.252,1.126,2.763.716,2.149.614,2.456,1.331,3.07.921,3.48-6.039,1.842-5.732.921.512-2.047.307-2.047-1.126-1.126-.921-1.535-6.141-11.156-6.141-11.156Z" transform="translate(-657.541 -478.466)" opacity="0.1"/><path d="M554.9,554.384l-1.126,2.866.512,3.992,3.275-.2,1.842-1.638v-3.48Z" transform="translate(-450.887 -450.566)" fill="#ffb9b9"/><path d="M693.372,707.684s-1.126-3.685-1.74-2.661a16.2,16.2,0,0,0-1.023,2.047s-5.015,3.275-6.346,3.275-2.559,1.638-.819,2.252,15.046,1.433,15.25,0-.2-6.039-.819-5.527S694.089,708.708,693.372,707.684Z" transform="translate(-588.741 -600.387)" fill="#2f2e41"/><path d="M714.465,476.1s-2.149,3.685-2.354,4.094-1.331,3.071.819,4.094,3.992-7.472,3.992-7.472Z" transform="translate(-612.393 -414.142)" fill="#ffb9b9"/><path d="M726.993,444.148s-3.275,6.346-2.661,6.55,3.071,1.433,3.071,1.433l1.126-6.448Z" transform="translate(-622.669 -388.128)" fill="#575a88"/><path d="M726.993,444.148s-3.275,6.346-2.661,6.55,3.071,1.433,3.071,1.433l1.126-6.448Z" transform="translate(-622.669 -388.128)" opacity="0.1"/><path d="M735.237,472.576s-.716,5.322-.409,6.448-.2,18.014.2,18.935.716,6.858.716,7.574-.819,6.55-1.023,7.062-.819,2.252-.512,3.071,4.5,2.866,5.118,2.149.1-2.968.614-3.071,1.126-4.913,1.126-4.913L744.449,491s6.346-15.762,4.913-17.3S735.237,472.576,735.237,472.576Z" transform="translate(-630.708 -411.233)" fill="#2f2e41"/><circle cx="5.015" cy="5.015" r="5.015" transform="translate(103.301 14.978)" fill="#ffb9b9"/><path d="M750.559,259s1.638,4.3,1.433,5.22,4.81-1.638,4.81-1.638a42.7,42.7,0,0,1,0-6.346C757.109,254.907,750.559,259,750.559,259Z" transform="translate(-644.085 -234.914)" fill="#ffb9b9"/><path d="M751.513,307.009c-.023.859-.037,1.37-.037,1.37s.307,4.708-.2,6.243-.512,2.661-.819,3.685c-.09.3-1.315.457-3.036.528-1.578.064-3.573.055-5.488.011-3.171-.074-6.127-.244-6.624-.335-1.126-.2.2-1.945-.2-2.866s.716-12.691.716-12.691a68.22,68.22,0,0,1,.409-9.212,28.912,28.912,0,0,1,2.866-7.165c.409-.512.1-.819-.819-1.433s0-2.968,0-2.968c1.74-1.433,6.141-1.638,6.141-1.638s6.755,6.96,7.164,8.393c.248.866.159,7.783.05,13.123C751.587,304.065,751.543,305.852,751.513,307.009Z" transform="translate(-631.288 -254.918)" fill="#575a88"/><path d="M769.341,491.523s-3.889,7.983-.819,8.5,4.606-7.267,4.606-7.267Z" transform="translate(-657.75 -426.7)" fill="#ffb9b9"/><path d="M735.107,219.022a2.433,2.433,0,0,1,1.172-2.2,8.567,8.567,0,0,1,5.271-1.8,5.743,5.743,0,0,1,3.742,1.241,5.187,5.187,0,0,1,1.624,4.232,8.414,8.414,0,0,1-1.7,4.314c-.44.609-1.146,1.24-1.849.974a1.719,1.719,0,0,1-.684-.578,10.608,10.608,0,0,1-1.173-1.8,7.179,7.179,0,0,0-.826-1.423,1.678,1.678,0,0,0-1.437-.658c-.45.062-.891.379-1.32.23-.477-.166-.593-.776-.631-1.28a8.682,8.682,0,0,0-.165-1.714C736.967,218.646,735.189,219.435,735.107,219.022Z" transform="translate(-631.48 -201.572)" fill="#2f2e41"/><path d="M778.777,341.406c-1.146,4.134-3.776,11.1-3.926,11.4-.038.077-.1.227-.17.426-1.578.065-3.573.055-5.488.011a11.511,11.511,0,0,0,.643-1.768c0-.512,2.456-13.715,2.456-13.715s-1.945-5.834-3.685-10.747,5.169-3.94,5.169-3.94c3.685-.921,4.35.665,4.35.665s.324,8.628.767,12.714a8.4,8.4,0,0,0,.359,2.025A6.972,6.972,0,0,1,778.777,341.406Z" transform="translate(-658.552 -289.315)" opacity="0.1"/><path d="M774.972,305.886s-4.708,1.945-2.968,6.858,3.685,10.747,3.685,10.747-2.456,13.2-2.456,13.715-1.535,3.275-.921,3.787,4.708,1.535,4.81,1.024a34.64,34.64,0,0,1,1.126-3.48c.2-.409,5.015-13.2,4.4-14.329s-1.126-14.738-1.126-14.738S778.657,304.965,774.972,305.886Z" transform="translate(-661.232 -275.454)" fill="#575a88"/><path d="M607.485,439.952l-18.09-16.975-10.681,22.06a24.159,24.159,0,0,0,11.61,2.953C597.025,447.99,603.093,444.344,607.485,439.952Z" transform="translate(-504.168 -370.89)" fill="#575a89"/><path d="M607.485,439.952l-18.09-16.975-10.681,22.06a24.159,24.159,0,0,0,11.61,2.953C597.025,447.99,603.093,444.344,607.485,439.952Z" transform="translate(-504.168 -370.89)" opacity="0.1"/><path d="M599.485,446.138l-17.161-17.161-11.61,21.317A24.282,24.282,0,0,0,599.485,446.138Z" transform="translate(-497.655 -375.775)" fill="#575a89"/><line x2="73.576" transform="translate(73.762 113.037)" fill="none" stroke="#3f3d56" stroke-miterlimit="10" stroke-width="2"/><line y1="21.57" transform="translate(137.135 91.645)" fill="#3f3d56" stroke="#3f3d56" stroke-miterlimit="10" stroke-width="2"/><circle cx="3.05" cy="3.05" r="3.05" transform="translate(134.084 88.595)" fill="#3f3d56"/><path d="M874.527,670.754s-.436-9.372-9.369-8.283" transform="translate(-737.392 -565.815)" fill="#3f3d56"/></g></svg>