<svg xmlns="http://www.w3.org/2000/svg" xmlns:xlink="http://www.w3.org/1999/xlink" width="189.563" height="134.7" viewBox="0 0 189.563 134.7"><defs><linearGradient id="a" x1="0.5" y1="1" x2="0.5" gradientUnits="objectBoundingBox"><stop offset="0" stop-color="gray" stop-opacity="0.251"/><stop offset="0.54" stop-color="gray" stop-opacity="0.122"/><stop offset="1" stop-color="gray" stop-opacity="0.102"/></linearGradient><linearGradient id="b" y1="1" y2="0" xlink:href="#a"/><linearGradient id="d" y1="1" y2="0" xlink:href="#a"/><linearGradient id="e" y1="1" y2="0" xlink:href="#a"/><linearGradient id="f" y1="1" y2="0" xlink:href="#a"/><linearGradient id="w" x1="-1.293" y1="1" x2="-1.293" y2="0" xlink:href="#a"/><linearGradient id="x" x1="0.419" y1="1" x2="0.419" y2="0" xlink:href="#a"/></defs><g transform="translate(-1160.437 -2309.993)"><path d="M200.653,118.044a51.522,51.522,0,0,1-1.138,10.83q-.383,1.788-.89,3.505-.628,2.141-1.436,4.151-.41,1.024-.868,2.012a30.691,30.691,0,0,1-1.959,10.875,26.665,26.665,0,0,1-11.778,14.02,22.05,22.05,0,0,1-10.727,2.794H47.075a28.613,28.613,0,0,1-17.919-6.41,33.035,33.035,0,0,1-4.115-3.919,35,35,0,0,1-4.524-6.484,38.582,38.582,0,0,1-4.6-18.449,48.821,48.821,0,0,1-4.825-21.546,47.2,47.2,0,0,1,7.469-26.134,35.741,35.741,0,0,1,3.172-4.077,31.035,31.035,0,0,1,3.628-3.431,27.6,27.6,0,0,1,3.219-2.231c.465-.274.932-.531,1.407-.771q.624-.322,1.265-.6.768-.338,1.555-.62t1.553-.494a21.965,21.965,0,0,1,2.293-.51q.966-.167,1.931-.246.768-.063,1.548-.072h.282c.573,0,1.143.027,1.708.071.06-.138.124-.277.183-.415.225-.5.459-.988.694-1.474a.055.055,0,0,0,0-.013c.04-.084.08-.161.122-.249.19-.4.388-.789.591-1.178.093-.18.185-.359.28-.538.021-.042.042-.082.066-.124.1-.185.195-.369.295-.552q.745-1.373,1.55-2.7c.047-.076.09-.151.137-.225.084-.137.161-.274.254-.409.222-.361.451-.719.681-1.075.161-.251.322-.5.5-.75q.628-.942,1.288-1.859t1.371-1.835c.064-.084.129-.161.2-.249l.687-.864h0l.095-.117h0l.249-.3c.369-.449.747-.893,1.127-1.333a64.826,64.826,0,0,1,6.164-6.2c.085-.079.172-.161.258-.229.409-.356.824-.707,1.239-1.051A64.948,64.948,0,0,1,67.29,41.4c.171-.109.344-.216.52-.322a65,65,0,0,1,6.839-3.637q1.931-.888,3.9-1.645c.872-.332,1.748-.644,2.635-.94q2.057-.679,4.165-1.231a65.173,65.173,0,0,1,12.592-1.983q1.931-.116,3.906-.116a65.411,65.411,0,0,1,18.829,2.751.657.657,0,0,0,.584.351h.542c.235.074.468.151.7.229q1.968.653,3.88,1.431l.322.132a65.271,65.271,0,0,1,16.828,10.117q.565.465,1.114.945.666-.494,1.355-.945a24.786,24.786,0,0,1,5.614-2.765,22.318,22.318,0,0,1,12.592-.57A27.176,27.176,0,0,1,178.322,52.4a37.749,37.749,0,0,1,4.231,6.206c.089.161.177.322.262.483a43.705,43.705,0,0,1,2.694,6.2c.027.077.055.161.079.232a48.056,48.056,0,0,1,1.658,6.2c.019.106.042.214.061.322a51.16,51.16,0,0,1,.792,6.2,1.343,1.343,0,0,0,.013.227q.1,1.619.1,3.274,0,1.481-.082,2.932c0,.108-.013.217-.021.322-.014.282-.035.563-.056.843A33.064,33.064,0,0,1,191.5,89.6q.7.89,1.362,1.843a40.216,40.216,0,0,1,3.509,6.2A49.163,49.163,0,0,1,200.653,118.044Z" transform="translate(1149.347 2278.463)" fill="#3444b3" opacity="0.1"/><path d="M286.177,781.257c0,2.39-7.391,4.571-19.535,6.219H152.694c-12.143-1.648-19.534-3.829-19.534-6.219,0-1.82,4.288-3.52,11.7-4.955h0l.209-.04c2.092-.4,4.431-.781,6.987-1.136l.195-.027h0q3.042-.42,6.472-.793l.216-.023q1.323-.145,2.7-.28h0l.354-.034c6.687-.644,14.289-1.165,22.532-1.515h.01q1.732-.072,3.5-.135,1.967-.073,3.982-.129c1.025-.031,2.063-.056,3.1-.08h.024c4.7-.111,9.552-.169,14.516-.169,12.274,0,23.874.353,34.154.979h.029c1.58.1,3.132.2,4.645.307l1.288.1q2.561.193,4.989.409h0C273.81,775.425,286.177,778.165,286.177,781.257Z" transform="translate(1046.923 1657.218)" fill="#3444b3" opacity="0.1"/><path d="M277.975,133.4v4.881a.66.66,0,0,1-.66.661H268.38a64.825,64.825,0,0,1,6.164-6.2h2.773A.66.66,0,0,1,277.975,133.4Z" transform="translate(933.466 2193.542)" fill="none" stroke="#fff" stroke-miterlimit="10" stroke-width="1" opacity="0.03"/><path d="M304.7,126.8v73.329a1.931,1.931,0,0,1-1.931,1.931H171.841a1.931,1.931,0,0,1-1.931-1.931V148.88q.966-.167,1.931-.246.768-.063,1.548-.072h.282c.573,0,1.143.027,1.708.071.06-.138.124-.277.183-.415.225-.5.459-.988.694-1.474a.055.055,0,0,0,0-.013c.04-.084.08-.161.122-.249.19-.4.388-.789.591-1.178.093-.18.185-.359.28-.538.021-.042.042-.082.066-.124.1-.185.195-.369.295-.552q.745-1.373,1.55-2.7c.047-.076.09-.151.137-.225.084-.137.161-.274.254-.409.222-.361.451-.719.681-1.075.161-.251.322-.5.5-.75q.628-.942,1.288-1.859t1.371-1.835c.064-.084.129-.161.2-.249l.687-.864h0l.095-.117h0l.249-.3c.369-.449.747-.893,1.127-1.333a64.823,64.823,0,0,1,6.164-6.2c.085-.079.172-.161.258-.229.409-.356.824-.707,1.239-1.051h83.4q.565.465,1.114.945.666-.494,1.355-.945h23.5A1.931,1.931,0,0,1,304.7,126.8Z" transform="translate(1016.088 2200.137)" fill="#fff"/><path d="M347.3,212.09v1.825H229.88c.222-.361.451-.719.682-1.075.161-.251.322-.5.494-.75Z" transform="translate(965.77 2126.963)" fill="#3f3d56"/><rect width="69.504" height="1.825" transform="translate(1287.882 2330.137) rotate(90)" fill="#3f3d56"/><rect width="69.504" height="1.825" transform="translate(1254.304 2330.137) rotate(90)" fill="#3f3d56"/><rect width="69.504" height="1.825" transform="translate(1220.727 2330.137) rotate(90)" fill="#3f3d56"/><path d="M216.793,247.6v7.188H209.37v-5.1c.04-.084.08-.161.122-.249.192-.4.388-.789.592-1.178.092-.18.183-.359.278-.538.021-.042.043-.082.066-.124Z" transform="translate(982.979 2097.168)" fill="url(#a)"/><path d="M217.337,248.345v6.94H210.17v-5.229c.192-.4.388-.789.592-1.178.092-.18.183-.359.278-.538Z" transform="translate(982.308 2096.547)" fill="#7cfcff"/><rect width="7.424" height="7.188" transform="translate(1222.413 2342.578)" fill="url(#b)"/><rect width="7.168" height="6.94" transform="translate(1222.542 2342.702)" fill="#7cfcff"/><rect width="7.424" height="7.188" transform="translate(1255.946 2356.533)" fill="url(#b)"/><rect width="7.168" height="6.94" transform="translate(1256.075 2356.657)" fill="#7cfcff"/><rect width="7.424" height="7.188" transform="translate(1290.163 2361.294)" fill="url(#d)"/><rect width="7.168" height="6.94" transform="translate(1290.29 2361.418)" fill="#7cfcff"/><rect width="7.424" height="7.188" transform="translate(1299.33 2365.947)" fill="url(#e)"/><rect width="7.168" height="6.94" transform="translate(1299.459 2366.071)" fill="#7cfcff"/><rect width="7.424" height="7.188" transform="translate(1310.828 2353.514)" fill="url(#f)"/><rect width="7.168" height="6.94" transform="translate(1310.955 2353.638)" fill="#7cfcff"/><rect width="7.424" height="7.188" transform="translate(1308.5 2363.599)" fill="url(#d)"/><rect width="7.168" height="6.94" transform="translate(1308.628 2363.723)" fill="#7cfcff"/><rect width="7.424" height="7.188" transform="translate(1232.542 2342.578)" fill="url(#b)"/><rect width="7.168" height="6.94" transform="translate(1232.67 2342.702)" fill="#7cfcff"/><rect width="7.424" height="7.188" transform="translate(1197.852 2360.003)" fill="url(#f)"/><rect width="7.168" height="6.94" transform="translate(1197.979 2360.127)" fill="#ffffa5"/><rect width="7.424" height="7.188" transform="translate(1227.771 2352.939)" fill="url(#e)"/><rect width="7.168" height="6.94" transform="translate(1227.9 2353.063)" fill="#ffffa5"/><rect width="7.424" height="7.188" transform="translate(1266.468 2348.644)" fill="url(#d)"/><rect width="7.168" height="6.94" transform="translate(1266.596 2348.768)" fill="#ffffa5"/><rect width="7.424" height="7.188" transform="translate(1305.641 2343.603)" fill="url(#e)"/><rect width="7.168" height="6.94" transform="translate(1305.769 2343.727)" fill="#ffffa5"/><rect width="7.424" height="7.188" transform="translate(1276.263 2342.578)" fill="url(#f)"/><rect width="7.168" height="6.94" transform="translate(1276.391 2342.702)" fill="#ffffa5"/><rect width="7.424" height="7.188" transform="translate(1275.842 2356.533)" fill="url(#b)"/><rect width="7.168" height="6.94" transform="translate(1275.97 2356.657)" fill="#ffffa5"/><rect width="7.424" height="7.188" transform="translate(1242.51 2346.05)" fill="url(#e)"/><rect width="7.168" height="6.94" transform="translate(1242.639 2346.172)" fill="#ffffa5"/><rect width="7.424" height="7.188" transform="translate(1203.063 2348.362)" fill="url(#e)"/><rect width="7.168" height="6.94" transform="translate(1203.192 2348.486)" fill="#ff69b4"/><rect width="7.424" height="7.188" transform="translate(1206.776 2356.533)" fill="url(#f)"/><rect width="7.168" height="6.94" transform="translate(1206.903 2356.657)" fill="#ff69b4"/><rect width="7.424" height="7.188" transform="translate(1237.571 2357.7)" fill="url(#d)"/><rect width="7.168" height="6.94" transform="translate(1237.698 2357.824)" fill="#ff69b4"/><rect width="7.424" height="7.188" transform="translate(1291.906 2343.603)" fill="url(#e)"/><rect width="7.168" height="6.94" transform="translate(1292.034 2343.727)" fill="#ff69b4"/><rect width="7.424" height="7.188" transform="translate(1298.475 2353.514)" fill="url(#b)"/><rect width="7.168" height="6.94" transform="translate(1298.604 2353.638)" fill="#ff69b4"/><rect width="7.424" height="7.188" transform="translate(1256.594 2342.578)" fill="url(#b)"/><rect width="7.168" height="6.94" transform="translate(1256.723 2342.702)" fill="#ff69b4"/><rect width="7.424" height="7.188" transform="translate(1265.628 2363.599)" fill="url(#d)"/><rect width="7.168" height="6.94" transform="translate(1265.755 2363.723)" fill="#ff69b4"/><path d="M728.259,266.5a1.421,1.421,0,0,0-.566-.953,5.643,5.643,0,0,0-.985-.57.805.805,0,0,1-.286-.2,2.559,2.559,0,0,1-.161-.309c-.193-.336-.612-.443-.94-.644a2.958,2.958,0,0,1-1.1-1.65c-.016-.042-.029-.084-.045-.124a4.384,4.384,0,0,0-.953-1.79,2.044,2.044,0,0,0-2.556-.137.6.6,0,0,1-.361.179.681.681,0,0,1-.346-.187,1.411,1.411,0,0,0-.863-.238,8.226,8.226,0,0,1-.243-1.794v-.016h0a.025.025,0,0,1,0-.011h0v-.447h.1a1.151,1.151,0,0,0,.356-.04.969.969,0,0,0,.14-.051h0a2.1,2.1,0,0,0,.89-1.144c.129-.3.248-.613.349-.93.013-.04.024-.08.039-.122h0c.018-.064.039-.13.055-.2a.3.3,0,0,1,.016-.063c0-.021.011-.04.016-.061l.014-.068.082.058h0l.014.008.177.124a6.664,6.664,0,0,0,2.063,1.117h0a.187.187,0,0,0,.106-.021c.233-.129-.214-.608-.776-1.1-.047-.042-.1-.082-.146-.124-.417-.352-.866-.694-1.127-.89l-.241-.175a2.379,2.379,0,0,0,.592-1.288,9.992,9.992,0,0,0,.151-1.35v-.023a5.449,5.449,0,0,0-.13-1.448,3.35,3.35,0,0,0-1.609-2.231c-.241-.126-.517-.224-.755-.359-.045-.026-.085-.053-.127-.08h0a1.117,1.117,0,0,1-.209-.179.728.728,0,0,1-.106-.145.43.43,0,0,1-.042-.076.976.976,0,0,0-.119-.23c-.161-.179-.431-.126-.665-.1h-.2c-.835.019-1.642-.447-2.487-.447a6.341,6.341,0,0,0-2.525.9c-.161.076-.322.143-.465.212-.122.058-.237.116-.348.179h0q-.065.036-.125.079h0a1.787,1.787,0,0,0-.689.8,1.658,1.658,0,0,0-.34.655,1.623,1.623,0,0,0-.043.336,5.58,5.58,0,0,0-1.669,3.975v.243a5.585,5.585,0,0,0,3.974,5.112h0c.063.019.127.039.193.055.016.055.039.109.055.161.034.1.066.208.09.312h0a1.588,1.588,0,0,1,.039.161,4.355,4.355,0,0,1,.116,1.093v.1h0v.011a4.241,4.241,0,0,0-1.207.483,2.329,2.329,0,0,0-1.016,1.251,1,1,0,0,0-.032.117,3.231,3.231,0,0,0-.919-.161.98.98,0,0,0-.792.237.715.715,0,0,0-.146.3c-.109.1-.129.27-.2.4-.235.412-.847.277-1.307.389a.91.91,0,0,0-.137.045h0c-.436.161-.8.547-1.268.55a3.239,3.239,0,0,0-.555-.031l-.034.008c-.191.048-.344.312-.2.444a.631.631,0,0,0-.594.285c-.145.183-.233.4-.389.575a.6.6,0,0,0-.61-.237,2.211,2.211,0,0,0-.644.254.883.883,0,0,1-.285.1,1.233,1.233,0,0,1-.343-.031,2.768,2.768,0,0,0-1.624.227c-.444.211-.874-.177-1.365-.208a.757.757,0,0,1-.5-.161.216.216,0,0,1-.037-.04.729.729,0,0,1-.071-.124c-.032-.074-.053-.161-.08-.23a1.956,1.956,0,0,0-1.35-1.249l-.08-.019a1.429,1.429,0,0,0,.068-.283h0a1.672,1.672,0,0,0-1.048-1.77,1.77,1.77,0,0,0-.612-1.55,2.717,2.717,0,0,1-.293-.23l-.016-.013a.745.745,0,0,1-.111-.146h0a2.261,2.261,0,0,1-.171-.375c-.143-.383-.29-.766-.433-1.149-.193-.039-.343-.119-.526-.15v-.117a3.814,3.814,0,0,0-.2-1.154,5.328,5.328,0,0,0-.626-1.242h0c-.04-.064-.082-.127-.126-.19h0c-.055-.085-.114-.161-.172-.251a4.981,4.981,0,0,0-1.492-1.5,5.824,5.824,0,0,0-.636-.293l-1.127-.462a.53.53,0,0,0-.2-.055c-.27,0-.343.372-.235.628a.634.634,0,0,0,.047.087c.343.5,1.111.644,1.325,1.212a.775.775,0,0,0-.295.063.853.853,0,0,0-.5.56.462.462,0,0,1-.106.251c-.1.079-.254.034-.365.095-.2.106-.114.4-.135.629a2.843,2.843,0,0,1-.2.567,1,1,0,0,0-.024.457l.01.048h0a.57.57,0,0,0,.014.071,1.46,1.46,0,0,0,.2.444,3.611,3.611,0,0,0,.734.744c.183.151.37.3.566.443.056.039.111.076.161.113a.192.192,0,0,0-.018.031.22.22,0,0,1-.027.069h0a.355.355,0,0,0-.019.2.323.323,0,0,0,.063.132h0a1.205,1.205,0,0,0,.142.145,2.9,2.9,0,0,1,.882,1.593.976.976,0,0,1-.013.361h0a2.963,2.963,0,0,0-.143.731,1.149,1.149,0,0,0,.022.18h0a3.822,3.822,0,0,0,.254.832,5.423,5.423,0,0,0,1.214,2.092,6.777,6.777,0,0,0,1.362,3.352,10.75,10.75,0,0,0,2.293,2.01,4.3,4.3,0,0,0,.847.531,4.866,4.866,0,0,0,.84.227,43.129,43.129,0,0,0,7.025.821l.322.011h.016c0,.124.011.248.016.372q.082,1.856.076,3.715v.333a1.867,1.867,0,0,1-.1.713,2.066,2.066,0,0,1-.335.483c-.031.039-.064.079-.095.119a3.72,3.72,0,0,0-.56,2.329v.014a3.523,3.523,0,0,0,.013.37,25.289,25.289,0,0,0,.4,3.3c.19,1.033.109,2.147.258,3.193a5.153,5.153,0,0,0,.258,1.049l.583,1.566a1.374,1.374,0,0,1,.116.462.778.778,0,0,1-.011.15h0a2.633,2.633,0,0,1-.385.777,2.691,2.691,0,0,0-.34,1.423v.04h0a.232.232,0,0,0,.039.116c.063.087.195.079.3.063a11.929,11.929,0,0,1,1.263-.117h.045c-.014.018-.031.035-.045.055h0c-.048.066-.1.137-.143.214h0l-.022.039a4.837,4.837,0,0,0-.279.57,5.39,5.39,0,0,0-.37,1.022.933.933,0,0,0-.037.161c-.026.106-.048.212-.064.322a10.228,10.228,0,0,0-.116,1.674v.232c-.013.249-.026.5-.04.747a12.132,12.132,0,0,1-.192,1.976,1.626,1.626,0,0,0-.055.547v.008a4.476,4.476,0,0,0,.1.729c.05.254.116.517.182.776v.026a2.809,2.809,0,0,0,.019.286v.013a4.727,4.727,0,0,0,.256,1.244v.211a.218.218,0,0,0,0,.032h0c0,.116.015.233.026.349.035.34.092.678.161,1.016v.056q.483,2.681.982,5.361c.019.108.04.214.061.322q.541,2.868,1.127,5.728c.034.161.064.322.1.483.018.076.034.153.053.229s.045.185.068.277a7.959,7.959,0,0,0,1.466,2.9,13.254,13.254,0,0,1,1.529,2.45.285.285,0,0,1-.018.071h0c-.035.171-.074.34-.114.509l-.01.039a44.6,44.6,0,0,0-1.2,5.472c-.014.134-.026.267-.039.4a5.894,5.894,0,0,1-.354,1.783c-.069.161-.153.314-.225.473a1.721,1.721,0,0,0-.172.584.454.454,0,0,0,0,.08.092.092,0,0,0,0,.021.059.059,0,0,0,0,.008h0a1.162,1.162,0,0,0,.161.57l-.021.016c-.044.034-.085.066-.126.1l-.081.068a5.142,5.142,0,0,1-1.986.71,2.149,2.149,0,0,0-1.634,1.22c-.013.043-.023.087-.032.132a.441.441,0,0,0-.01.064h0a1.168,1.168,0,0,0-.014.2v.014a.2.2,0,0,0,0,.031,1.833,1.833,0,0,0,.8,1.344,4.447,4.447,0,0,0,1.964.6,6.516,6.516,0,0,1,2.012.462,13.355,13.355,0,0,0,1.553.893c.034.011.068.018.1.027l-.031.018c-.077.047-.161.092-.233.134l-.126.069a5.883,5.883,0,0,1-1.875.6c-.663.092-1.448.135-1.791.711h0a.11.11,0,0,0-.013.029h0a.379.379,0,0,0-.037.089v.013a.187.187,0,0,0-.014.039.232.232,0,0,0-.015.043.312.312,0,0,1,0,.037.7.7,0,0,0-.027.127A1.07,1.07,0,0,0,709,341a1.5,1.5,0,0,0,.433.784,3.127,3.127,0,0,0,1.494.66,26.909,26.909,0,0,0,3.718.462l1.212.093c.433.034.867.066,1.3.1.307.019.615.039.922.053s.586.024.879.031h.457q1.127,0,2.239-.095c.719-.064,1.431-.161,2.139-.286a.483.483,0,0,0,.348-.161.322.322,0,0,0,.021-.04.141.141,0,0,0,.01-.027.064.064,0,0,0,0-.014.213.213,0,0,0,0-.031.425.425,0,0,0,0-.047v-.114c0-.153,0-.3-.011-.457v-.187l-.01-.188c-.011-.183-.023-.369-.039-.552l-.019-.219v-.072a1.291,1.291,0,0,0-.016-.161.278.278,0,0,0-.011-.095l-.029-.259c-.023-.19-.048-.378-.076-.567q-.088-.618-.217-1.228v-.021c-.031-.138-.061-.275-.09-.412-.1-.435-.694.161-1.025.533-.043-.208-.089-.414-.143-.615h0v-.024c.089-.04.175-.082.261-.124a.927.927,0,0,0,.483-.4.694.694,0,0,0,.052-.216.943.943,0,0,0,0-.135v-.106a6.47,6.47,0,0,0-.56-2.784,5.924,5.924,0,0,0-1.106-1.349c0-.1-.011-.206-.016-.309-.048-1.024-.117-2.047-.214-3.069a44.74,44.74,0,0,0-.855-5.548c-.114-.494-.23-.988-.373-1.476h0a9.658,9.658,0,0,0-1.249-2.789c-.108-.161-.224-.322-.341-.483q-.052-.9-.161-1.812c-.1-.83-.225-1.658-.362-2.477-.011-.077-.026-.161-.034-.237v-.013a.779.779,0,0,1,.039-.322,1.9,1.9,0,0,1,.322-.433,1.831,1.831,0,0,0,.34-1.127.458.458,0,0,0,0-.047c0-.427-.063-.877-.092-1.3,0-.119-.011-.237-.011-.356h0v-.013h0v-.053c0-.124,0-.246.008-.369a16.2,16.2,0,0,1,.483-2.82c.23-.966.463-1.917.692-2.876h0q.138-.56.269-1.127c.034-.134.066-.266.1-.4a7.056,7.056,0,0,1,.373-1.218,11.682,11.682,0,0,1,.953-1.537,8.619,8.619,0,0,0,1.344-4.576h0a.029.029,0,0,0,0-.011v-.019a.218.218,0,0,0,0-.032v-.322h0a1.551,1.551,0,0,0-.015-.254c.2.071.4.143.6.22a3.419,3.419,0,0,0,.026-.364v-.013c.016-.745-.146-1.537-.161-2.287a.107.107,0,0,1,0-.023v-.021a3.958,3.958,0,0,1,.05-.736,2.962,2.962,0,0,1,.082-.333c.056-.045.113-.09.161-.137h0a4.624,4.624,0,0,0,1.328-1.645c.29-.644.373-1.379.676-2.023a6.506,6.506,0,0,0,.513-1.086,1.747,1.747,0,0,0,.053-.364v-.019a11.967,11.967,0,0,0-.08-1.214h0v-.195c.016-1.117.711-2.163.789-3.253V281.8a2.61,2.61,0,0,0-.026-.547c-.085-.542-.373-1.049-.427-1.59h0a1.29,1.29,0,0,1-.01-.208,3.162,3.162,0,0,1,.253-.977,14.5,14.5,0,0,0,1.159-4.614.041.041,0,0,0,0-.014v-.034a5.807,5.807,0,0,0-.1-1.279c-.074-.41-.195-.816-.227-1.228a2.622,2.622,0,0,1,0-.322c.026-.452.192-.895.235-1.339h0a1.827,1.827,0,0,0,0-.43,1.355,1.355,0,0,0-.145-.425h0a1.345,1.345,0,0,0-.122-.193,7.331,7.331,0,0,0,.655-1.255,2.35,2.35,0,0,0,.161-.515A1.189,1.189,0,0,0,728.259,266.5Zm-11.012,71.012h0l-.016-.01a2.011,2.011,0,0,0-.536-.153c-.045,0-.092-.01-.137-.013h-.01a2.663,2.663,0,0,0,.053-.455v-.452c0-.09-.008-.182-.014-.272s-.018-.2-.024-.295h0a.4.4,0,0,1,0-.045c.021.061.043.122.069.183q.3.776.644,1.527Zm3.726-83.588Z" transform="translate(580.105 2098.528)" fill="url(#w)"/><path d="M831.44,311.127c-.021.816-.3,1.609-.341,2.424,2.414.119,4.778-1.048,7.159-.69a3.3,3.3,0,0,1-1.23-1.972,8.145,8.145,0,0,1-.235-3.029,1.239,1.239,0,0,1,.029-.161,4.216,4.216,0,0,0,.256-1.28c-.08-.415-.473-.333-.826-.309a31.253,31.253,0,0,0-3.209.414c-.277.048-2.973.721-3.013.652a12.785,12.785,0,0,1,1.167,2.4A4.685,4.685,0,0,1,831.44,311.127Z" transform="translate(462.21 2048.094)" fill="#ee8e9e"/><path d="M689.758,295.29a3.486,3.486,0,0,0,.736.74c.182.15.368.3.565.439a2.415,2.415,0,0,0,1.2.483,3.152,3.152,0,0,0,2.145-.789,1.419,1.419,0,0,0,.2-.821,3.8,3.8,0,0,0-.2-1.149,6.389,6.389,0,0,0-.929-1.677,4.935,4.935,0,0,0-1.49-1.492,5.776,5.776,0,0,0-.634-.291l-1.127-.46a.565.565,0,0,0-.2-.053c-.3,0-.356.462-.185.71.341.5,1.109.644,1.325,1.207a.86.86,0,0,0-.8.618.441.441,0,0,1-.108.251c-.1.079-.253.034-.365.093-.2.106-.111.4-.132.628a2.865,2.865,0,0,1-.206.563A1.2,1.2,0,0,0,689.758,295.29Z" transform="translate(580.106 2061.408)" fill="#ee8e9e"/><path d="M871.044,810.7a.854.854,0,0,0-.747-.113,27.744,27.744,0,0,1-4.2.34c-.175-.859.335-1.695.5-2.556a2.251,2.251,0,0,1,.161-.644,1.484,1.484,0,0,1,1.062-.644c.756-.161,1.931-.441,2.361.322A11.272,11.272,0,0,1,871.044,810.7Z" transform="translate(431.975 1627.887)" fill="#65617d"/><path d="M797.25,788.951a4.426,4.426,0,0,0,1.964.6,6.318,6.318,0,0,1,2.012.459,13.325,13.325,0,0,0,1.555.888,3.224,3.224,0,0,0,1.609.026,2.379,2.379,0,0,0,1.661-.9,2.754,2.754,0,0,0,.232-1.685c-.05-.644-.1-1.3-.145-1.955a.953.953,0,0,0-.121-.473c-.462-.671-1.582.282-2.181.28a4.2,4.2,0,0,1-2.656-1.146.805.805,0,0,0-.206-.161c-.272-.122-.542.1-.784.3-.026.023-.053.043-.08.064a5.142,5.142,0,0,1-1.984.708,2.152,2.152,0,0,0-1.634,1.214.968.968,0,0,0-.032.13A1.721,1.721,0,0,0,797.25,788.951Z" transform="translate(490.397 1646.39)" fill="#3f3d56"/><path d="M797.25,788.951a4.426,4.426,0,0,0,1.964.6,6.318,6.318,0,0,1,2.012.459,13.325,13.325,0,0,0,1.555.888,3.224,3.224,0,0,0,1.609.026,2.379,2.379,0,0,0,1.661-.9,2.754,2.754,0,0,0,.232-1.685c-.05-.644-.1-1.3-.145-1.955a.953.953,0,0,0-.121-.473c-.462-.671-1.582.282-2.181.28a4.2,4.2,0,0,1-2.656-1.146.805.805,0,0,0-.206-.161c-.272-.122-.542.1-.784.3-.026.023-.053.043-.08.064a5.142,5.142,0,0,1-1.984.708,2.152,2.152,0,0,0-1.634,1.214.968.968,0,0,0-.032.13A1.721,1.721,0,0,0,797.25,788.951Z" transform="translate(490.397 1646.39)" opacity="0.05"/><path d="M796.937,789.145a4.426,4.426,0,0,0,1.964.6,6.317,6.317,0,0,1,2.012.459,13.107,13.107,0,0,0,1.555.888,3.224,3.224,0,0,0,1.609.026,2.665,2.665,0,0,0,1.661-1.127,2.755,2.755,0,0,0,.232-1.685c-.05-.644-.1-1.3-.145-1.956a.953.953,0,0,0-.121-.473c-.462-.671-1.582.282-2.181.28a4.2,4.2,0,0,1-2.656-1.146.807.807,0,0,0-.206-.161c-.272-.122-.542.1-.784.3a5.628,5.628,0,0,0,.668,1.378,2.882,2.882,0,0,0,2.092,1.31,6.808,6.808,0,0,1,1.271.056c.41.109.793.53.644.929s-.644.483-1.059.5a4.742,4.742,0,0,1-1.727-.121c-.336-.113-.644-.3-.966-.435-1.392-.578-3.151-.254-4.3-1.23a2.434,2.434,0,0,0-.351-.269C795.847,787.9,796.4,788.779,796.937,789.145Z" transform="translate(490.71 1646.415)" fill="#e8eaf2"/><path d="M796.937,789.145a4.426,4.426,0,0,0,1.964.6,6.317,6.317,0,0,1,2.012.459,13.107,13.107,0,0,0,1.555.888,3.224,3.224,0,0,0,1.609.026,2.665,2.665,0,0,0,1.661-1.127,2.755,2.755,0,0,0,.232-1.685c-.05-.644-.1-1.3-.145-1.956a.953.953,0,0,0-.121-.473c-.462-.671-1.582.282-2.181.28a4.2,4.2,0,0,1-2.656-1.146.807.807,0,0,0-.206-.161c-.272-.122-.542.1-.784.3a5.628,5.628,0,0,0,.668,1.378,2.882,2.882,0,0,0,2.092,1.31,6.808,6.808,0,0,1,1.271.056c.41.109.793.53.644.929s-.644.483-1.059.5a4.742,4.742,0,0,1-1.727-.121c-.336-.113-.644-.3-.966-.435-1.392-.578-3.151-.254-4.3-1.23a2.434,2.434,0,0,0-.351-.269C795.847,787.9,796.4,788.779,796.937,789.145Z" transform="translate(490.71 1646.415)" opacity="0.05"/><path d="M812.5,533.773a8.559,8.559,0,0,1-1.175,6.319,12.241,12.241,0,0,0-.953,1.529,7.052,7.052,0,0,0-.373,1.214l-1.056,4.376a11.708,11.708,0,0,0-.483,3.6c.06.845.272,1.795-.248,2.462a1.813,1.813,0,0,0-.322.431,1.1,1.1,0,0,0,0,.57c.534,3.177.932,6.5-.034,9.571-.875,2.786-.927,5.873-1.671,8.691a1.93,1.93,0,0,1-.464.966,1.511,1.511,0,0,1-.692.322,5.121,5.121,0,0,1-3.28-.518c-.719-.333-1.494-.917-1.432-1.708a3.475,3.475,0,0,1,.4-1.053,7.257,7.257,0,0,0,.394-2.173,43.993,43.993,0,0,1,1.2-5.437,13,13,0,0,0,.359-5.516,48.208,48.208,0,0,0-3.541-10.915,1.3,1.3,0,0,0-.322-.483c-.145-.119-.336-.174-.46-.322a1.416,1.416,0,0,1-.209-.571,6.261,6.261,0,0,0-.954-1.508c-.8-1.278-.55-2.916-.52-4.426a30.622,30.622,0,0,1,.058-4.4,4.117,4.117,0,0,1,2.467-3.38,5.318,5.318,0,0,1,2.165-.1A42.8,42.8,0,0,1,812.5,533.773Z" transform="translate(490.264 1859.17)" fill="#303d5c"/><path d="M812.5,533.773a8.559,8.559,0,0,1-1.175,6.319,12.241,12.241,0,0,0-.953,1.529,7.052,7.052,0,0,0-.373,1.214l-1.056,4.376a11.708,11.708,0,0,0-.483,3.6c.06.845.272,1.795-.248,2.462a1.813,1.813,0,0,0-.322.431,1.1,1.1,0,0,0,0,.57c.534,3.177.932,6.5-.034,9.571-.875,2.786-.927,5.873-1.671,8.691a1.93,1.93,0,0,1-.464.966,1.511,1.511,0,0,1-.692.322,5.121,5.121,0,0,1-3.28-.518c-.719-.333-1.494-.917-1.432-1.708a3.475,3.475,0,0,1,.4-1.053,7.257,7.257,0,0,0,.394-2.173,43.993,43.993,0,0,1,1.2-5.437,13,13,0,0,0,.359-5.516,48.208,48.208,0,0,0-3.541-10.915,1.3,1.3,0,0,0-.322-.483c-.145-.119-.336-.174-.46-.322a1.416,1.416,0,0,1-.209-.571,6.261,6.261,0,0,0-.954-1.508c-.8-1.278-.55-2.916-.52-4.426a30.622,30.622,0,0,1,.058-4.4,4.117,4.117,0,0,1,2.467-3.38,5.318,5.318,0,0,1,2.165-.1A42.8,42.8,0,0,1,812.5,533.773Z" transform="translate(490.264 1859.17)" opacity="0.05"/><path d="M795.368,546.693a9.281,9.281,0,0,0,.193,1.7q1.014,5.689,2.161,11.353c.068.322.134.655.222.977a7.936,7.936,0,0,0,1.465,2.881c3.187,3.972,3.462,9.742,5.192,14.533.116.322.233.644.357.966a23.7,23.7,0,0,0,1.067,2.38.676.676,0,0,0,.219.285.658.658,0,0,0,.348.068,10.139,10.139,0,0,0,4.5-1.019.935.935,0,0,0,.483-.4.974.974,0,0,0,.05-.457,6.435,6.435,0,0,0-.558-2.768,5.939,5.939,0,0,0-1.107-1.342,50.955,50.955,0,0,0-1.085-8.879,12.243,12.243,0,0,0-1.609-4.252c-.644-.929-1.551-1.844-1.439-2.966.05-.483.256-1.1-.145-1.394-.175-.127-.435-.143-.552-.322a.61.61,0,0,1-.077-.277,6.865,6.865,0,0,1,.142-2.3,12.384,12.384,0,0,0,.343-1.5,1.889,1.889,0,0,0-.377-1.448c-.021-1.024,0-2.092-.015-3.106a5.8,5.8,0,0,1,.143-1.735c.079-.269.2-.525.256-.8.214-.982-.322-2.16.322-2.939a4.44,4.44,0,0,1,1.02-.718,3.746,3.746,0,0,0,1.4-2.013,11.529,11.529,0,0,0,.4-2.466,2.564,2.564,0,0,0,0-.533.954.954,0,0,0-.071-.266,1.631,1.631,0,0,0-1.2-.731,38.852,38.852,0,0,0-9.174-1.072c-1.143-.779-1.786-.5-2.271.322a8.568,8.568,0,0,0-.644,1.579c-.222.668-.235,4.411-.451,5.083C794.569,543.993,795.379,545.776,795.368,546.693Z" transform="translate(491.768 1855.461)" fill="#303d5c"/><path d="M886.955,386.233a9.1,9.1,0,0,1-.23,1.762,6.632,6.632,0,0,0,.233,1.537c.369,2-.34,4.016-1.062,5.911a3.041,3.041,0,0,0-.251.966,9.848,9.848,0,0,0,.435,1.8c.2,1.288-.742,2.493-.763,3.8a7.162,7.162,0,0,1,.031,1.788,6.256,6.256,0,0,1-.513,1.082c-.3.644-.385,1.366-.676,2.012a6.791,6.791,0,0,1-2.72,2.631,2.812,2.812,0,0,1-1.609-.993,2.447,2.447,0,0,1-.278-.871,22.734,22.734,0,0,1-.216-4.04,25.073,25.073,0,0,1,.19-3.464c.216-1.468.692-2.883,1.033-4.326a40.594,40.594,0,0,1,1.323-5.448,18.443,18.443,0,0,1,2.475-4.231c.369-.5.66-1.223,1.376-1.107A1.5,1.5,0,0,1,886.955,386.233Z" transform="translate(420.843 1981.863)" fill="#3444b3"/><path d="M886.955,386.233a9.1,9.1,0,0,1-.23,1.762,6.632,6.632,0,0,0,.233,1.537c.369,2-.34,4.016-1.062,5.911a3.041,3.041,0,0,0-.251.966,9.848,9.848,0,0,0,.435,1.8c.2,1.288-.742,2.493-.763,3.8a7.162,7.162,0,0,1,.031,1.788,6.256,6.256,0,0,1-.513,1.082c-.3.644-.385,1.366-.676,2.012a6.791,6.791,0,0,1-2.72,2.631,2.812,2.812,0,0,1-1.609-.993,2.447,2.447,0,0,1-.278-.871,22.734,22.734,0,0,1-.216-4.04,25.073,25.073,0,0,1,.19-3.464c.216-1.468.692-2.883,1.033-4.326a40.594,40.594,0,0,1,1.323-5.448,18.443,18.443,0,0,1,2.475-4.231c.369-.5.66-1.223,1.376-1.107A1.5,1.5,0,0,1,886.955,386.233Z" transform="translate(420.843 1981.863)" opacity="0.05"/><path d="M830,307.136a12.781,12.781,0,0,1,1.167,2.4,5.54,5.54,0,0,0,1.325.161,5.1,5.1,0,0,0,3.98-2.232c.089-.4.644-.773.576-1.088-.08-.415-.473-.333-.826-.309a31.242,31.242,0,0,0-3.209.414C832.736,306.533,830.045,307.205,830,307.136Z" transform="translate(462.236 2048.127)" opacity="0.1"/><circle cx="5.554" cy="5.554" r="5.554" transform="translate(1289.178 2346.568)" fill="#ee8e9e"/><path d="M801.9,536.475c.966-.056,1.931-.018,2.9.021a9.743,9.743,0,0,1,1.8.185c.729.161,1.411.5,2.131.7a19.4,19.4,0,0,0,3.562.468,20.362,20.362,0,0,1,2.332.365.961.961,0,0,0-.071-.266,1.631,1.631,0,0,0-1.2-.731,38.851,38.851,0,0,0-9.174-1.072C803.028,535.372,802.385,535.651,801.9,536.475Z" transform="translate(485.813 1855.444)" opacity="0.1"/><path d="M793.646,341.467c.243.28.568.589.927.5a1.3,1.3,0,0,0,.36-.193,5.419,5.419,0,0,1,2.179-.623,32.193,32.193,0,0,0,4.489-1.009,4.567,4.567,0,0,1,1.328-.27,3.226,3.226,0,0,1,2.366,1.365c.6.734,1.007,1.592,1.587,2.334.412.53.9,1,1.288,1.545a6.793,6.793,0,0,1,.93,4.87,20.089,20.089,0,0,1-1.584,4.812,17.113,17.113,0,0,1-1.287,2.606,6.178,6.178,0,0,1-.5,3.863,3.772,3.772,0,0,0-.5,1.151,2.857,2.857,0,0,0,.034.843l.283,2.01c.085.613.172,1.225.283,1.833a5.253,5.253,0,0,1-.034,3.33c-.618,1.206.031,2.752-.132,4.1a20.61,20.61,0,0,0-5.413-1.288,19.462,19.462,0,0,1-3.562-.467c-.719-.209-1.4-.541-2.131-.708a9.873,9.873,0,0,0-1.8-.183,21.288,21.288,0,0,0-3.988.09c-.108.016-.237.024-.3-.063a.288.288,0,0,1-.04-.161,2.649,2.649,0,0,1,.341-1.413,2.008,2.008,0,0,0,.394-.927,1.391,1.391,0,0,0-.116-.46l-.583-1.558c-.494-1.313-.259-2.841-.515-4.22a24.748,24.748,0,0,1-.383-3.266,4.084,4.084,0,0,1,.547-2.7,3.058,3.058,0,0,0,.427-.594,1.786,1.786,0,0,0,.1-.71q.019-2.81-.161-5.619c.494-.885,1.007-1.791,1.5-2.677a11.449,11.449,0,0,0,1.387-3.237c.161-.766.148-1.553.258-2.326a1,1,0,0,1,.2-.544.993.993,0,0,1,.79-.235A3.467,3.467,0,0,1,793.646,341.467Z" transform="translate(497.852 2019.749)" fill="#3444b3"/><path d="M699.07,322.761a2.414,2.414,0,0,0,1.2.483,3.152,3.152,0,0,0,2.145-.789,1.419,1.419,0,0,0,.2-.821.993.993,0,0,0-.238-.047,6.229,6.229,0,0,0-1.864.076,2.108,2.108,0,0,0-1.448,1.086Z" transform="translate(572.093 2035.116)" opacity="0.1"/><path d="M718.087,335.569a3.933,3.933,0,0,1-1.17,1.1,3.76,3.76,0,0,1-1.824.28,43.606,43.606,0,0,1-7.621-.837,4.713,4.713,0,0,1-.839-.225,4.465,4.465,0,0,1-.848-.528,10.865,10.865,0,0,1-2.293-2,6.732,6.732,0,0,1-1.358-3.333,5.442,5.442,0,0,1-1.215-2.092,3.231,3.231,0,0,1-.277-1.016c-.016-.359.222-.736.161-1.09a2.881,2.881,0,0,0-.88-1.585.574.574,0,0,1-.211-.278.451.451,0,0,1,.052-.272,2.1,2.1,0,0,1,1.448-1.086,6.233,6.233,0,0,1,1.864-.074,4.794,4.794,0,0,1,.61.161l.435,1.144a1.486,1.486,0,0,0,.285.521,2.832,2.832,0,0,0,.307.241,1.77,1.77,0,0,1,.612,1.542,1.656,1.656,0,0,1,.98,2.044,1.954,1.954,0,0,1,1.432,1.262.946.946,0,0,0,.187.393.766.766,0,0,0,.5.161c.483.031.919.417,1.365.208a2.767,2.767,0,0,1,1.614-.227,1.2,1.2,0,0,0,.346.031.94.94,0,0,0,.283-.1,2.326,2.326,0,0,1,.644-.254.6.6,0,0,1,.61.237c.161-.171.249-.389.391-.571a.624.624,0,0,1,.592-.283c-.148-.132,0-.394.195-.443a2.442,2.442,0,0,1,.592.023c.513,0,.908-.47,1.407-.592.459-.111,1.07.023,1.305-.388.084-.145.1-.341.241-.43a.462.462,0,0,1,.309-.037,3.046,3.046,0,0,1,.938.285,13.114,13.114,0,0,1-.138,5.742A5.089,5.089,0,0,1,718.087,335.569Z" transform="translate(571.557 2034.322)" fill="#3444b3"/><path d="M811.073,442.284l2.392,4.828c-.259-.446-.8-.62-1.234-.9a3.27,3.27,0,0,1-1.18-1.585,9.737,9.737,0,0,1-.46-1.96,1.763,1.763,0,0,1,0-1.012C810.869,441.706,810.959,442.057,811.073,442.284Z" transform="translate(478.587 1934.349)" opacity="0.1"/><path d="M851.57,466.125a21.1,21.1,0,0,0,1.795,1.4,16.533,16.533,0,0,1,3.341,4.107,6.5,6.5,0,0,1,.682,1.252c-.113.1-.282,0-.393-.1l-1.88-1.651a4.238,4.238,0,0,1-.626-.634c-.322-.438-.47-.987-.766-1.449a5.708,5.708,0,0,0-1.141-1.164c-.414-.359-2.414-2.046-1.931-2.7C851,465.364,851.288,465.847,851.57,466.125Z" transform="translate(444.971 1914.598)" opacity="0.1"/><path d="M825.658,335.311a5.62,5.62,0,0,1,1.988-.655,4.184,4.184,0,0,1,1.265-.09c.391.048.766.2,1.16.221a5.092,5.092,0,0,0,1.609-.338,1.9,1.9,0,0,1,1.6.121.693.693,0,0,0,.348.185.605.605,0,0,0,.359-.177,2.05,2.05,0,0,1,2.554.135c1.019.954.9,2.82,2.092,3.541.33.2.75.306.942.644a2.239,2.239,0,0,0,.161.307.828.828,0,0,0,.286.2,5.62,5.62,0,0,1,.985.565,1.41,1.41,0,0,1,.567.95,1.77,1.77,0,0,1-.175.8,7.487,7.487,0,0,1-7.278,4.654,1.156,1.156,0,0,1-.763-.238,1.437,1.437,0,0,1-.267-.439c-.56-1.177-1.609-2.046-2.284-3.164-.4-.666-.655-1.411-1.07-2.068a9.627,9.627,0,0,0-2.509-2.446,2.912,2.912,0,0,0-1.78-.8c-.591.026-1.022.058-.8-.668A2.319,2.319,0,0,1,825.658,335.311Z" transform="translate(466.779 2024.511)" fill="#3444b3"/><path d="M825.658,335.311a5.62,5.62,0,0,1,1.988-.655,4.184,4.184,0,0,1,1.265-.09c.391.048.766.2,1.16.221a5.092,5.092,0,0,0,1.609-.338,1.9,1.9,0,0,1,1.6.121.693.693,0,0,0,.348.185.605.605,0,0,0,.359-.177,2.05,2.05,0,0,1,2.554.135c1.019.954.9,2.82,2.092,3.541.33.2.75.306.942.644a2.239,2.239,0,0,0,.161.307.828.828,0,0,0,.286.2,5.62,5.62,0,0,1,.985.565,1.41,1.41,0,0,1,.567.95,1.77,1.77,0,0,1-.175.8,7.487,7.487,0,0,1-7.278,4.654,1.156,1.156,0,0,1-.763-.238,1.437,1.437,0,0,1-.267-.439c-.56-1.177-1.609-2.046-2.284-3.164-.4-.666-.655-1.411-1.07-2.068a9.627,9.627,0,0,0-2.509-2.446,2.912,2.912,0,0,0-1.78-.8c-.591.026-1.022.058-.8-.668A2.319,2.319,0,0,1,825.658,335.311Z" transform="translate(466.779 2024.511)" opacity="0.05"/><path d="M810.929,818.205a3.113,3.113,0,0,0,1.492.657,27.161,27.161,0,0,0,3.716.459l1.214.093c1.185.089,2.371.18,3.56.185a24.486,24.486,0,0,0,4.378-.378.37.37,0,0,0,.4-.444,21.153,21.153,0,0,0-.538-4.4c-.138-.592-1.2.736-1.247.792a1.229,1.229,0,0,1-.966.512,6.414,6.414,0,0,1-3.562-1.336,4.448,4.448,0,0,0-.66-.409,1.9,1.9,0,0,0-.533-.161,3.227,3.227,0,0,0-1.819.369c-.729.362-1.37.882-2.092,1.254A5.838,5.838,0,0,1,812.4,816c-.661.092-1.448.135-1.791.708A1.27,1.27,0,0,0,810.929,818.205Z" transform="translate(478.617 1622.123)" fill="#3f3d56"/><path d="M810.491,818.529a3.114,3.114,0,0,0,1.492.657,27.18,27.18,0,0,0,3.716.459l1.214.093c1.185.089,2.371.18,3.56.185a24.491,24.491,0,0,0,4.378-.378.483.483,0,0,0,.348-.161,1.993,1.993,0,0,0,.27-.5,21.483,21.483,0,0,0-.756-4.4c-.138-.592-1.2.736-1.247.792a1.229,1.229,0,0,1-.966.512,6.414,6.414,0,0,1-3.562-1.336,4.45,4.45,0,0,0-.66-.409,1.9,1.9,0,0,0-.533-.161,4.4,4.4,0,0,0,2.068,2.265c1.316.653,2.881.322,4.345.4a.6.6,0,0,1,.307.076c.177.116.187.365.182.576-.013.351-.058.761-.361.94a1.026,1.026,0,0,1-.483.1,68.807,68.807,0,0,1-10.848-.38,6,6,0,0,1-1.77-.393,4.533,4.533,0,0,1-1.025-.66C809.7,817.185,810.091,818.154,810.491,818.529Z" transform="translate(479.055 1622.019)" fill="#e8eaf2"/><path d="M823.151,262.385c.021.575-.37,1.688.7,1.378.644-.187.821-.945,1.634-.776s1,1.17,1.275,1.825a3.491,3.491,0,0,0,2.53,2.046,1.521,1.521,0,0,0,.7,0,1.876,1.876,0,0,0,1.038-1.191,9.5,9.5,0,0,0,.459-1.307,5.556,5.556,0,0,0,.161-.966h0a4.34,4.34,0,0,0,0-.663,5.386,5.386,0,0,0-1.793-3.4,16.047,16.047,0,0,0-3.248-2.192,4.728,4.728,0,0,0-1.2-.534,4.015,4.015,0,0,0-1.265-.051,4.365,4.365,0,0,0-1.609.378,2.278,2.278,0,0,0-.567.4,1.7,1.7,0,0,0-.483.819,2.991,2.991,0,0,0,.769,2.271A4.1,4.1,0,0,1,823.151,262.385Z" transform="translate(469.419 2089.678)" fill="#3f3d56"/><path d="M719.77,355.288c.23-.578,1.2-2.178.916-2.728a7.279,7.279,0,0,0-.734,1.312C719.77,354.319,719.918,354.919,719.77,355.288Z" transform="translate(554.725 2009.101)" opacity="0.1"/><path d="M822.1,264.026a3,3,0,0,1-.771-2.271,1.788,1.788,0,0,1,.624-.935,1.555,1.555,0,0,0-.161.394,2.994,2.994,0,0,0,.771,2.271,4.075,4.075,0,0,1,.9,1.96c.021.573-.372,1.688.7,1.378.644-.185.821-.945,1.634-.774s1,1.168,1.273,1.824a3.5,3.5,0,0,0,2.536,2.046,1.52,1.52,0,0,0,.7,0,1.041,1.041,0,0,0,.322-.161,1.413,1.413,0,0,1-.8.7,1.521,1.521,0,0,1-.7,0,3.5,3.5,0,0,1-2.527-2.046c-.275-.655-.454-1.653-1.273-1.825s-.993.591-1.634.776c-1.075.311-.682-.8-.7-1.378A4.059,4.059,0,0,0,822.1,264.026Z" transform="translate(469.553 2086.076)" opacity="0.1"/><path d="M823.02,259.283a5,5,0,0,0,.322.47,5.761,5.761,0,0,0,.76.787,5.956,5.956,0,0,0,.513.4,8.248,8.248,0,0,0,1.036.62,19.033,19.033,0,0,0,3.319,1.188l2.218.644c.272.206.771.578,1.321.966a5.557,5.557,0,0,0,.161-.966h0a4.341,4.341,0,0,0,0-.663,5.386,5.386,0,0,0-1.793-3.4,16.044,16.044,0,0,0-3.248-2.192,4.727,4.727,0,0,0-1.2-.534,4.015,4.015,0,0,0-1.265-.051,4.365,4.365,0,0,0-1.609.378,2.277,2.277,0,0,0-.566.4,2.114,2.114,0,0,0-.285.6A1.776,1.776,0,0,0,823.02,259.283Z" transform="translate(468.39 2089.678)" opacity="0.1"/><path d="M823.044,252.876a5,5,0,0,0,.322.47,5.763,5.763,0,0,0,.76.787,5.962,5.962,0,0,0,.513.4,8.248,8.248,0,0,0,1.036.62,19.174,19.174,0,0,0,3.319,1.189l2.218.644c.774.586,3.364,2.5,3.8,2.264.513-.282-2.3-2.273-2.3-2.273l-.13.1a2.075,2.075,0,0,0,.721-1.378,6.982,6.982,0,0,0,.021-2.812,3.335,3.335,0,0,0-1.609-2.221,3.752,3.752,0,0,1-1.094-.616.789.789,0,0,1-.106-.143.7.7,0,0,1-.042-.076.988.988,0,0,0-.117-.229c-.161-.179-.435-.126-.668-.1l-.074.008h-.126c-.834.019-1.642-.446-2.485-.446a6.351,6.351,0,0,0-2.525.9c-.161.074-.322.142-.467.211a2.019,2.019,0,0,0-1.273,1.344A1.733,1.733,0,0,0,823.044,252.876Z" transform="translate(468.366 2095.935)" fill="#3444b3"/><path d="M864.672,251.786a.378.378,0,0,0,.087.483.691.691,0,0,0,.351.126,2.55,2.55,0,0,0,.272.021.748.748,0,0,0,.36-.063.323.323,0,0,0,.063-.04.78.78,0,0,1-.106-.143c-.021.016-.042.013-.126,0a1.932,1.932,0,0,1-.449-.077.441.441,0,0,1-.322-.322Z" transform="translate(433.187 2093.669)" opacity="0.1"/><path d="M877.307,298.013a1.03,1.03,0,0,1-.383.143,1.555,1.555,0,0,1-.3.048,1.649,1.649,0,0,1-.726-.2Z" transform="translate(423.723 2054.88)" opacity="0.1"/><path d="M422.568,256.946l-.209-.46-.084.023.219.459,1.577,3.324a2.029,2.029,0,0,0-.483,1.127.758.758,0,0,0,.04.24c.08.235.18.33.27.356v-.04a1,1,0,0,1,0-.161v-.071a.164.164,0,0,1,0-.027V261.7h0a.274.274,0,0,0,.008-.035h0a.035.035,0,0,1,0-.013v-.016l.019-.069.008-.019.01-.035c.008-.023.016-.047.026-.069a.191.191,0,0,1,.013-.032l.019-.045c.019-.045.042-.089.063-.132a1.334,1.334,0,0,1,.066-.117,2.807,2.807,0,0,1,.212-.306Zm1.754,5.569h-.01a.2.2,0,0,1-.1,0H424.2l-.029-.01a.226.226,0,0,1-.066-.04l-.024-.023a.6.6,0,0,1-.116-.184.591.591,0,0,0-.035.188.3.3,0,0,0,.146.282.547.547,0,0,1,.153.151h0a.011.011,0,0,0,0-.01h0a.048.048,0,0,1,0-.014.028.028,0,0,1,0-.011.876.876,0,0,1,.069-.192c.016-.031.031-.06.048-.087a.276.276,0,0,1,.021-.037l.014-.023.024-.039A.287.287,0,0,1,424.323,262.514Zm0,0h-.01a.2.2,0,0,1-.1,0H424.2l-.029-.01a.226.226,0,0,1-.066-.04l-.024-.023a.6.6,0,0,1-.116-.184.591.591,0,0,0-.035.188.3.3,0,0,0,.146.282.547.547,0,0,1,.153.151h0a.011.011,0,0,0,0-.01h0a.048.048,0,0,1,0-.014.028.028,0,0,1,0-.011.876.876,0,0,1,.069-.192c.016-.031.031-.06.048-.087a.276.276,0,0,1,.021-.037l.014-.023.024-.039A.287.287,0,0,1,424.323,262.514Zm-1.754-5.569-.209-.46-.084.023.219.459,1.577,3.324a2.029,2.029,0,0,0-.483,1.127.758.758,0,0,0,.04.24c.08.235.18.33.27.356v-.04a1,1,0,0,1,0-.161.089.089,0,0,1,0-.021v-.023h0a.035.035,0,0,0,0-.013h0v-.008a.04.04,0,0,1,0-.013h0a.1.1,0,0,1,0-.019h0a.255.255,0,0,1,.008-.037.035.035,0,0,1,0-.013v-.016l.019-.069.008-.019.01-.035c.008-.023.016-.047.026-.069a.189.189,0,0,1,.013-.032l.019-.045c.019-.045.042-.089.063-.132a1.338,1.338,0,0,1,.066-.117,2.813,2.813,0,0,1,.212-.306Zm1.754,5.569h-.01a.2.2,0,0,1-.1,0H424.2l-.029-.01a.226.226,0,0,1-.066-.04l-.024-.023a.6.6,0,0,1-.116-.184.591.591,0,0,0-.035.188.3.3,0,0,0,.146.282.547.547,0,0,1,.153.151h0a.011.011,0,0,0,0-.01h0a.048.048,0,0,1,0-.014.028.028,0,0,1,0-.011.876.876,0,0,1,.069-.192l.034-.066.014-.021a.276.276,0,0,1,.021-.037l.014-.023.024-.039A.287.287,0,0,1,424.323,262.514Zm-1.754-5.569-.209-.46-.084.023.219.459,1.577,3.324a2.029,2.029,0,0,0-.483,1.127.758.758,0,0,0,.04.24c.08.235.18.33.27.356v-.04a1,1,0,0,1,0-.161.089.089,0,0,1,0-.021v-.023h0a.035.035,0,0,0,0-.013h0a.04.04,0,0,1,0-.013h0a.1.1,0,0,1,0-.019h0a.255.255,0,0,1,.008-.037.035.035,0,0,1,0-.013v-.016l.019-.069.008-.019.01-.035c.008-.023.016-.047.026-.069a.191.191,0,0,1,.013-.032l.019-.045c.019-.045.042-.089.063-.132a1.339,1.339,0,0,1,.066-.118,2.809,2.809,0,0,1,.212-.306Zm1.754,5.569h-.01a.2.2,0,0,1-.1,0H424.2l-.029-.01a.226.226,0,0,1-.066-.04l-.024-.023a.6.6,0,0,1-.116-.184.591.591,0,0,0-.035.188.3.3,0,0,0,.146.282.547.547,0,0,1,.153.151h0a.011.011,0,0,0,0-.01h0a.039.039,0,0,1,0-.013.04.04,0,0,1,0-.013.877.877,0,0,1,.069-.192l.034-.066.014-.021a.275.275,0,0,1,.021-.037l.014-.023.024-.039A.287.287,0,0,1,424.323,262.514Zm-1.754-5.569-.209-.46-.084.023.219.459,1.577,3.324a2.029,2.029,0,0,0-.483,1.127.758.758,0,0,0,.04.24c.08.235.18.33.27.356v-.04a1,1,0,0,1,0-.161.089.089,0,0,1,0-.021v-.023h0a.035.035,0,0,0,0-.013h0a.04.04,0,0,1,0-.013h0a.1.1,0,0,1,0-.019h0a.255.255,0,0,1,.008-.037.035.035,0,0,1,0-.013v-.016l.019-.069.008-.019.01-.035c.008-.023.016-.047.026-.069a.191.191,0,0,1,.013-.032l.019-.045c.019-.045.042-.089.063-.132a1.339,1.339,0,0,1,.066-.118,2.809,2.809,0,0,1,.212-.306Zm1.754,5.569h-.01a.2.2,0,0,1-.1,0H424.2l-.029-.01a.226.226,0,0,1-.066-.04l-.024-.023a.6.6,0,0,1-.116-.184.591.591,0,0,0-.035.188.3.3,0,0,0,.146.282.547.547,0,0,1,.153.151h0a.011.011,0,0,0,0-.01h0a.039.039,0,0,1,0-.013.04.04,0,0,1,0-.013.877.877,0,0,1,.069-.192l.034-.066.014-.021a.275.275,0,0,1,.021-.037l.014-.023.024-.039A.287.287,0,0,1,424.323,262.514Zm-1.754-5.569-.209-.46-.084.023.219.459,1.577,3.324a2.029,2.029,0,0,0-.483,1.127.758.758,0,0,0,.04.24c.08.235.18.33.27.356v-.04a1,1,0,0,1,0-.161.089.089,0,0,1,0-.021v-.023h0a.035.035,0,0,0,0-.013h0a.04.04,0,0,1,0-.013h0a.1.1,0,0,1,0-.019h0a.255.255,0,0,1,.008-.037.035.035,0,0,1,0-.013v-.016l.019-.069.008-.019.01-.035c.008-.023.016-.047.026-.069a.191.191,0,0,1,.013-.032l.019-.045c.019-.045.042-.089.063-.132a1.339,1.339,0,0,1,.066-.118,2.809,2.809,0,0,1,.212-.306Zm1.754,5.569h-.01a.2.2,0,0,1-.1,0H424.2l-.029-.01a.226.226,0,0,1-.066-.04l-.024-.023a.6.6,0,0,1-.116-.184.591.591,0,0,0-.035.188.3.3,0,0,0,.146.282.547.547,0,0,1,.153.151h0a.011.011,0,0,0,0-.01h0a.039.039,0,0,1,0-.013.04.04,0,0,1,0-.013.877.877,0,0,1,.069-.192l.034-.066.014-.021a.275.275,0,0,1,.021-.037l.014-.023.024-.039A.287.287,0,0,1,424.323,262.514Zm-1.754-5.569-.209-.46-.084.023.219.459,1.577,3.324a2.029,2.029,0,0,0-.483,1.127.758.758,0,0,0,.04.24c.08.235.18.33.27.356v-.04a1,1,0,0,1,0-.161.089.089,0,0,1,0-.021v-.023h0a.035.035,0,0,0,0-.013h0a.04.04,0,0,1,0-.013h0a.1.1,0,0,1,0-.019h0a.255.255,0,0,1,.008-.037.035.035,0,0,1,0-.013v-.016l.019-.069.008-.019.01-.035c.008-.023.016-.047.026-.069a.191.191,0,0,1,.013-.032l.019-.045c.019-.045.042-.089.063-.132a1.339,1.339,0,0,1,.066-.118,2.809,2.809,0,0,1,.212-.306Zm1.754,5.569h-.01a.2.2,0,0,1-.1,0H424.2l-.029-.01a.226.226,0,0,1-.066-.04l-.024-.023a.6.6,0,0,1-.116-.184.591.591,0,0,0-.035.188.3.3,0,0,0,.146.282.547.547,0,0,1,.153.151h0a.011.011,0,0,0,0-.01h0a.039.039,0,0,1,0-.013.04.04,0,0,1,0-.013.877.877,0,0,1,.069-.192l.034-.066.014-.021a.275.275,0,0,1,.021-.037l.014-.023.024-.039A.287.287,0,0,1,424.323,262.514Zm-1.754-5.569-.209-.46-.084.023.219.459,1.577,3.324a2.029,2.029,0,0,0-.483,1.127.758.758,0,0,0,.04.24c.08.235.18.33.27.356v-.04a1,1,0,0,1,0-.161.089.089,0,0,1,0-.021v-.023h0a.035.035,0,0,0,0-.013h0a.04.04,0,0,1,0-.013h0a.1.1,0,0,1,0-.019h0a.255.255,0,0,1,.008-.037.035.035,0,0,1,0-.013v-.016l.019-.069.008-.019.01-.035c.008-.023.016-.047.026-.069a.191.191,0,0,1,.013-.032l.019-.045c.019-.045.042-.089.063-.132a1.339,1.339,0,0,1,.066-.118,2.809,2.809,0,0,1,.212-.306Zm1.754,5.569h-.01a.2.2,0,0,1-.1,0H424.2l-.029-.01a.226.226,0,0,1-.066-.04l-.024-.023a.6.6,0,0,1-.116-.184.591.591,0,0,0-.035.188.3.3,0,0,0,.146.282.547.547,0,0,1,.153.151h0a.011.011,0,0,0,0-.01h0a.039.039,0,0,1,0-.013.04.04,0,0,1,0-.013.877.877,0,0,1,.069-.192l.034-.066.014-.021a.275.275,0,0,1,.021-.037l.014-.023.024-.039A.287.287,0,0,1,424.323,262.514Zm-1.754-5.569-.209-.46-.084.023.219.459,1.577,3.324a2.029,2.029,0,0,0-.483,1.127.758.758,0,0,0,.04.24c.08.235.18.33.27.356v-.04a1,1,0,0,1,0-.161.089.089,0,0,1,0-.021v-.023h0a.035.035,0,0,0,0-.013h0a.04.04,0,0,1,0-.013h0a.1.1,0,0,1,0-.019h0a.255.255,0,0,1,.008-.037.035.035,0,0,1,0-.013v-.016l.019-.069.008-.019.01-.035c.008-.023.016-.047.026-.069a.191.191,0,0,1,.013-.032l.019-.045c.019-.045.042-.089.063-.132a1.339,1.339,0,0,1,.066-.118,2.809,2.809,0,0,1,.212-.306Zm1.754,5.569h-.01a.2.2,0,0,1-.1,0H424.2l-.029-.01a.226.226,0,0,1-.066-.04l-.024-.023a.6.6,0,0,1-.116-.184.591.591,0,0,0-.035.188.3.3,0,0,0,.146.282.547.547,0,0,1,.153.151h0a.011.011,0,0,0,0-.01h0a.039.039,0,0,1,0-.013.04.04,0,0,1,0-.013.877.877,0,0,1,.069-.192l.034-.066.014-.021a.275.275,0,0,1,.021-.037l.014-.023.024-.039A.287.287,0,0,1,424.323,262.514Zm-1.754-5.569-.209-.46-.084.023.219.459,1.577,3.324a2.029,2.029,0,0,0-.483,1.127.758.758,0,0,0,.04.24c.08.235.18.33.27.356v-.04a1,1,0,0,1,0-.161.089.089,0,0,1,0-.021v-.023h0a.035.035,0,0,0,0-.013h0a.04.04,0,0,1,0-.013h0a.1.1,0,0,1,0-.019h0a.255.255,0,0,1,.008-.037.035.035,0,0,1,0-.013v-.016l.019-.069.008-.019.01-.035c.008-.023.016-.047.026-.069a.191.191,0,0,1,.013-.032l.019-.045c.019-.045.042-.089.063-.132a1.339,1.339,0,0,1,.066-.118,2.809,2.809,0,0,1,.212-.306Zm1.754,5.569h-.01a.2.2,0,0,1-.1,0H424.2l-.029-.01a.226.226,0,0,1-.066-.04l-.024-.023a.6.6,0,0,1-.116-.184.591.591,0,0,0-.035.188.3.3,0,0,0,.146.282.547.547,0,0,1,.153.151h0a.011.011,0,0,0,0-.01h0a.039.039,0,0,1,0-.013.04.04,0,0,1,0-.013.877.877,0,0,1,.069-.192l.034-.066.014-.021a.275.275,0,0,1,.021-.037l.014-.023.024-.039A.287.287,0,0,1,424.323,262.514Zm-1.754-5.569-.209-.46-.084.023.219.459,1.577,3.324a2.029,2.029,0,0,0-.483,1.127.758.758,0,0,0,.04.24c.08.235.18.33.27.356v-.04a1,1,0,0,1,0-.161.089.089,0,0,1,0-.021v-.023h0a.035.035,0,0,0,0-.013h0v-.008a.04.04,0,0,1,0-.013h0a.1.1,0,0,1,0-.019h0a.255.255,0,0,1,.008-.037.035.035,0,0,1,0-.013v-.016l.019-.069.008-.019.01-.035c.008-.023.016-.047.026-.069a.189.189,0,0,1,.013-.032l.019-.045c.019-.045.042-.089.063-.132a1.338,1.338,0,0,1,.066-.117,2.813,2.813,0,0,1,.212-.306Zm1.754,5.569h-.01a.2.2,0,0,1-.1,0H424.2a.1.1,0,0,1-.029-.01.225.225,0,0,1-.066-.04l-.024-.023a.6.6,0,0,1-.116-.184.591.591,0,0,0-.035.188.3.3,0,0,0,.146.282.547.547,0,0,1,.153.151h0a.067.067,0,0,1,0-.026.04.04,0,0,1,0-.013.876.876,0,0,1,.069-.191l.034-.066.035-.058.014-.023.024-.039A.287.287,0,0,1,424.323,262.514Zm-.354-1c.008-.023.016-.047.026-.069s.008-.023.013-.032a.223.223,0,0,1,.019-.045c.019-.045.042-.089.063-.132a1.334,1.334,0,0,1,.066-.117,2.813,2.813,0,0,1,.212-.306l-1.791-3.863-.217-.465-.084.023.219.459,1.577,3.324a2.029,2.029,0,0,0-.483,1.127.758.758,0,0,0,.04.24c.08.235.18.33.27.356v-.04a1,1,0,0,1,0-.161.1.1,0,0,1,0-.021s0-.014,0-.023a.354.354,0,0,1,0-.04h0l.01-.048v-.04l.019-.069A.318.318,0,0,0,423.969,261.515Zm24.224-22.559a1.362,1.362,0,0,0-.766-.491,1.149,1.149,0,0,0-.88.2c.072-.079.471-.513.8-.943.4-.5.71-1,.322-.921-.748.161-2.131,1.833-2.131,1.833l-.283.505h0l-.821,1.466-.087.161a4.414,4.414,0,0,0-.822.1l-.093.124a2.3,2.3,0,0,0-.418.793c-.039.322-1.383.916-1.931,1.234a4,4,0,0,0-1.065,1.355,5.773,5.773,0,0,0-2.331.644,2.772,2.772,0,0,1-1.733.309h0l-.127-.008c-.142-.01-.23-.021-.23-.021s-.513-.559-.908-.6a3.947,3.947,0,0,0-.75,0s-.208-.069-.509-.161l-.084-.024c-.071-.019-.146-.04-.227-.06l-.061-.016a.966.966,0,0,0,.082-.1.952.952,0,0,0,.108-.2h0a.8.8,0,0,0,.05-.422,1.215,1.215,0,0,0-.169-.425l-.15-.237a3.712,3.712,0,0,1-.5-1.4h0a3.807,3.807,0,0,1,.364-2.308,5.521,5.521,0,0,1,.322-.536l.182-.256.114-.161.127-.179h0l.122-.172a4.514,4.514,0,0,0,.465-.813c.026-.056.045-.114.068-.172a.209.209,0,0,1,.018-.06c.006-.019.026-.079.035-.117s.013-.047.018-.071a.9.9,0,0,0,.026-.109.4.4,0,0,1,.016-.076c0-.024.013-.072.018-.108a.283.283,0,0,1,.011-.079l.01-.108a.6.6,0,0,0,0-.076h0v-.438a.389.389,0,0,0-.011-.108c-.011-.037,0-.06-.011-.09a.359.359,0,0,1-.013-.092l-.019-.093a.383.383,0,0,0-.018-.085l-.024-.1a.348.348,0,0,0-.021-.08c-.006-.026-.021-.066-.031-.1a.737.737,0,0,0-.027-.077c-.011-.032-.021-.064-.035-.1s-.019-.047-.027-.069a2.954,2.954,0,0,0-.338-.6l-.235-.293h0l-.063-.079a.35.35,0,0,0-.023-.042c-.014-.027-.029-.055-.042-.084-.119-.235-.216-.483-.314-.729-.027-.076-.06-.15-.09-.225,0-.016-.013-.032-.018-.048-.048-.116-.1-.229-.151-.341-.04-.084-.084-.161-.127-.248-.014-.026-.029-.05-.042-.076l-.1-.161-.05-.08-.108-.161-.048-.069c-.051-.072-.1-.143-.161-.214h0c-.056-.074-.117-.146-.175-.219l-.048-.055-.14-.161-.055-.061-.146-.161-.05-.052c-.229-.237-.47-.465-.716-.689l-.127-.114h0l-.447-.4-.161-.134c-.047-.042-.1-.084-.146-.124a4.025,4.025,0,0,0-1.127-.727,3.594,3.594,0,0,0-1.664-.171,5.663,5.663,0,0,0-2.536.887c-.061.039-.119.08-.179.124a4.706,4.706,0,0,0-.9.842c-.045.053-.087.108-.129.161s-.071.1-.106.15a9.382,9.382,0,0,0-.9,1.915,24.185,24.185,0,0,0-1.885,7.159.641.641,0,0,1-.008.124q-.019.463,0,.932h0a.123.123,0,0,0,0,.024,1.15,1.15,0,0,0,.01.182c.058.924.241,1.848.38,2.768l-.095.034a2.067,2.067,0,0,0-1.336,1.288.02.02,0,0,1,0,.008h0a1.373,1.373,0,0,1,.016.214,3,3,0,0,1-.42,1.487l-.071.119h0a2.233,2.233,0,0,0-.412,1.205.674.674,0,0,0,.055.267h0v.014a.2.2,0,0,0,0,.029v.014h0a3.219,3.219,0,0,1-.571,1.014,33.356,33.356,0,0,0-1.461,4.783.839.839,0,0,1,.071.348h0a.681.681,0,0,1-.066.277h0a.5.5,0,0,0,.058.446h0a1.676,1.676,0,0,0,.258.348s.238-.079-.161.359l-.024.029h0a.462.462,0,0,0,.031.578,1.564,1.564,0,0,0,.352.351,71.563,71.563,0,0,0,3.908,6.175,7.99,7.99,0,0,1,1.342,2.152s.068-.108.179-.275c.052-.084.119-.182.188-.288l.206.269h0l.417.546-.161.314h0a7.338,7.338,0,0,0-.43.966.24.24,0,0,0-.011.089.351.351,0,0,0,.106.229,12.355,12.355,0,0,0-2.575,7.606h0v.122a9.7,9.7,0,0,0,.937,3.641,7.781,7.781,0,0,1,.08,1.093h0a.494.494,0,0,1-.042.216,1.154,1.154,0,0,0,.014.444h0c.106.793.462,2.342.462,2.342v.816c.018,1.383.047,4.1-.011,4.683-.034.338-.068.61-.095.8-.039.277-.063.423-.063.423s-.014.1-.037.285c0,.066-.018.142-.027.229-.132,1.088-.436,3.729-.616,6.2,0,.108-.016.216-.023.322-.092,1.32-.142,2.575-.106,3.483v.137c.01.232.027.439.052.618.08.579.151,1.26.209,1.967a2.181,2.181,0,0,0,.021.229c.1,1.288.179,2.639.224,3.615v.19a.178.178,0,0,0,0,.042.058.058,0,0,0,0,.018v.655a2.528,2.528,0,0,0,.01.278,1.712,1.712,0,0,0,.01.2v.023h0a.028.028,0,0,1,0,.011v.019l.135,1.127.7,5.688.212,1.791.454,3.874,1.626-.307.016.177.055.6h0l.454-.043c0,.058-.008.116-.011.174-.077,1.345-.051,2.707-.051,2.707h.018c.5.092.977.161,1.448.2v1.4h.752l-.1-1.206-.013-.146h.015a15.882,15.882,0,0,0,3-.106l.09-.011.121.138,1.149,1.316a18.127,18.127,0,0,0,4.225-.322c1.485-.322,3.037-1.785,3.092-2.335h0c.019-.18-.125-.262-.483-.174a11.249,11.249,0,0,1-3.784-.161c-.2-.464-.781-1.795-1.231-2.855l-.069-.161a3.487,3.487,0,0,0,1.242-1.477c.043-.2-.071-.29-.4-.175a4.64,4.64,0,0,1-1.218.2h-.161a.2.2,0,0,0,.021-.031,2.509,2.509,0,0,0,.341-1.627,5.55,5.55,0,0,0-.077-.618h0v-.034a7.344,7.344,0,0,0-.193-.792.163.163,0,0,0-.014-.05c-.031-.092-.05-.143-.05-.143s.449-3.142.6-5.39a12.435,12.435,0,0,0,.026-1.749h0a.021.021,0,0,0,0-.01.966.966,0,0,0-.106-.422.873.873,0,0,1-.134-.322.027.027,0,0,0,0-.011,7.273,7.273,0,0,1,.483-3.219,4.134,4.134,0,0,0,.195-.483,7.744,7.744,0,0,0,.439-1.955,4.967,4.967,0,0,1,.237-1.275,7.042,7.042,0,0,0,.991-3.525,9.669,9.669,0,0,0,0-1.139,44.1,44.1,0,0,1,.245-5.026c.035-.322.077-.644.124-.975.072-.505.161-1.008.264-1.49a25.622,25.622,0,0,0-.064-6.515c0-.072-.015-.143-.021-.214a.059.059,0,0,1,0-.016c-.245-2.4-.591-4.635-.732-5.524h0c-.043-.256-.068-.4-.068-.4a7.586,7.586,0,0,0,.283-1.729h0a1.574,1.574,0,0,0-.146-.774.711.711,0,0,1-.089-.237h0a.183.183,0,0,1,0-.031,3.863,3.863,0,0,1-.032-.9h0a3.18,3.18,0,0,1,.026-.322v-.032l.019-.193c.015-.113.026-.224.042-.335a1.349,1.349,0,0,0,.137-.068,1.061,1.061,0,0,0,.214-.15c.716-.644.8-2.293.694-3.969a.059.059,0,0,1,0-.016v-.047a31.84,31.84,0,0,0-.644-4.185h0a.286.286,0,0,0,0-.035c-.026-.087-.04-.143-.04-.143s0-1.178-.069-2.311a.079.079,0,0,1,0-.019v-.029a4.582,4.582,0,0,0-.362-1.984,1.237,1.237,0,0,1-.229-.71v-.011a.164.164,0,0,1,0-.027,16.029,16.029,0,0,1,0-2.361,4.668,4.668,0,0,0,.62-2.033h0a3.3,3.3,0,0,0-.011-.388.2.2,0,0,0-.01-.076.987.987,0,0,0-.018-.124,2.238,2.238,0,0,0-.109-.433q.2-.035.43-.092l.127-.032h0a61.735,61.735,0,0,0,6.077-2.319c.909-.322,1.185-1.634,1.185-1.634s.084-.071.222-.2A10.944,10.944,0,0,0,445.3,244.5h0a6.553,6.553,0,0,0,.61-1.271h0a4.723,4.723,0,0,0,.185-.692,2.2,2.2,0,0,0,.032-.23h0v-.029l.153-.137h0a8.017,8.017,0,0,0,2-2.432A.828.828,0,0,0,448.192,238.956Zm-20.963,58.355c-.013.369-.039.71-.061,1h0c-.05.575-.1.953-.1.953a.661.661,0,0,0-.114.124,1.582,1.582,0,0,0-.175.351l-.039-.954S426.983,298.172,427.229,297.311Zm-5.6-40.669c-.011-.037-.024-.072-.035-.109h0l.177-.035h0c.15-.029.294-.066.443-.108l.056.119.219.459,1.577,3.323a2.029,2.029,0,0,0-.483,1.127.758.758,0,0,0,.04.24c.081.235.18.33.27.356h0a.267.267,0,0,0,.232-.055,1.349,1.349,0,0,0-.161.3h0a.591.591,0,0,0-.035.188.3.3,0,0,0,.146.282.547.547,0,0,1,.153.151h0a.7.7,0,0,1,.106.312h0v.011h0a.848.848,0,0,1,0,.089c0,.019,0,.035,0,.052l-.211-.063-.465-.138a.57.57,0,0,1,.251-.18l-1.436-3.155s-.3-1.358-.7-2.7Zm3.219,63.515-.031-.161-.008-.048.063-.011a.469.469,0,0,0,0,.05.725.725,0,0,0-.029.171Zm-2.279-63.211-.209-.46-.084.023.219.459,1.577,3.324a2.029,2.029,0,0,0-.483,1.127.758.758,0,0,0,.04.24c.08.235.18.33.27.356v-.04a1,1,0,0,1,0-.161.089.089,0,0,1,0-.021v-.023h0a.035.035,0,0,0,0-.013h0a.015.015,0,0,1,0-.008.043.043,0,0,1,0-.013h0a.1.1,0,0,1,0-.019h0a.14.14,0,0,0,0-.026v-.023h0v-.016l.019-.069.008-.019.01-.035c.008-.023.016-.047.026-.069s.008-.023.013-.032a.225.225,0,0,1,.019-.045c.019-.045.042-.089.063-.132a1.319,1.319,0,0,1,.066-.117,2.8,2.8,0,0,1,.212-.306Zm1.754,5.569h-.01a.2.2,0,0,1-.1,0H424.2l-.029-.01a.226.226,0,0,1-.066-.04l-.024-.023a.6.6,0,0,1-.116-.184.591.591,0,0,0-.035.188.3.3,0,0,0,.146.282.547.547,0,0,1,.153.151h0a.067.067,0,0,1,0-.026.04.04,0,0,1,0-.013.876.876,0,0,1,.069-.191l.034-.066.014-.021a.279.279,0,0,1,.021-.037l.014-.023.024-.039A.287.287,0,0,1,424.323,262.514Zm-1.754-5.569-.209-.46-.084.023.219.459,1.577,3.324a2.029,2.029,0,0,0-.483,1.127.758.758,0,0,0,.04.24c.08.235.18.33.27.356v-.04a1,1,0,0,1,0-.161.089.089,0,0,1,0-.021v-.023h0a.035.035,0,0,0,0-.013h0a.04.04,0,0,1,0-.013h0a.1.1,0,0,1,0-.019h0a.255.255,0,0,1,.008-.037.035.035,0,0,1,0-.013v-.016l.019-.069.008-.019.01-.035c.008-.023.016-.047.026-.069a.191.191,0,0,1,.013-.032l.019-.045c.019-.045.042-.089.063-.132a1.339,1.339,0,0,1,.066-.118,2.809,2.809,0,0,1,.212-.306Zm1.754,5.569h-.01a.2.2,0,0,1-.1,0H424.2l-.029-.01a.226.226,0,0,1-.066-.04l-.024-.023a.6.6,0,0,1-.116-.184.591.591,0,0,0-.035.188.3.3,0,0,0,.146.282.547.547,0,0,1,.153.151h0a.011.011,0,0,0,0-.01h0a.039.039,0,0,1,0-.013.04.04,0,0,1,0-.013.877.877,0,0,1,.069-.192l.034-.066.014-.021a.275.275,0,0,1,.021-.037l.014-.023.024-.039A.287.287,0,0,1,424.323,262.514Zm-1.754-5.569-.209-.46-.084.023.219.459,1.577,3.324a2.029,2.029,0,0,0-.483,1.127.758.758,0,0,0,.04.24c.08.235.18.33.27.356v-.04a1,1,0,0,1,0-.161.089.089,0,0,1,0-.021v-.023h0a.035.035,0,0,0,0-.013h0a.04.04,0,0,1,0-.013h0a.1.1,0,0,1,0-.019h0a.255.255,0,0,1,.008-.037.035.035,0,0,1,0-.013v-.016l.019-.069.008-.019.01-.035c.008-.023.016-.047.026-.069a.191.191,0,0,1,.013-.032l.019-.045c.019-.045.042-.089.063-.132a1.339,1.339,0,0,1,.066-.118,2.809,2.809,0,0,1,.212-.306Zm1.754,5.569h-.01a.2.2,0,0,1-.1,0H424.2l-.029-.01a.226.226,0,0,1-.066-.04l-.024-.023a.6.6,0,0,1-.116-.184.591.591,0,0,0-.035.188.3.3,0,0,0,.146.282.547.547,0,0,1,.153.151h0a.011.011,0,0,0,0-.01h0a.039.039,0,0,1,0-.013.04.04,0,0,1,0-.013.877.877,0,0,1,.069-.192l.034-.066.014-.021a.275.275,0,0,1,.021-.037l.014-.023.024-.039A.287.287,0,0,1,424.323,262.514Zm-1.754-5.569-.209-.46-.084.023.219.459,1.577,3.324a2.029,2.029,0,0,0-.483,1.127.758.758,0,0,0,.04.24c.08.235.18.33.27.356v-.04a1,1,0,0,1,0-.161.089.089,0,0,1,0-.021v-.023h0a.035.035,0,0,0,0-.013h0a.04.04,0,0,1,0-.013h0a.1.1,0,0,1,0-.019h0a.255.255,0,0,1,.008-.037.035.035,0,0,1,0-.013v-.016l.019-.069.008-.019.01-.035c.008-.023.016-.047.026-.069a.191.191,0,0,1,.013-.032l.019-.045c.019-.045.042-.089.063-.132a1.339,1.339,0,0,1,.066-.118,2.809,2.809,0,0,1,.212-.306Zm1.754,5.569h-.01a.2.2,0,0,1-.1,0H424.2l-.029-.01a.226.226,0,0,1-.066-.04l-.024-.023a.6.6,0,0,1-.116-.184.591.591,0,0,0-.035.188.3.3,0,0,0,.146.282.547.547,0,0,1,.153.151h0a.011.011,0,0,0,0-.01h0a.039.039,0,0,1,0-.013.04.04,0,0,1,0-.013.877.877,0,0,1,.069-.192l.034-.066.014-.021a.275.275,0,0,1,.021-.037l.014-.023.024-.039A.287.287,0,0,1,424.323,262.514Zm-1.754-5.569-.209-.46-.084.023.219.459,1.577,3.324a2.029,2.029,0,0,0-.483,1.127.758.758,0,0,0,.04.24c.08.235.18.33.27.356v-.04a1,1,0,0,1,0-.161.089.089,0,0,1,0-.021v-.023h0a.035.035,0,0,0,0-.013h0a.04.04,0,0,1,0-.013h0a.1.1,0,0,1,0-.019h0a.255.255,0,0,1,.008-.037.035.035,0,0,1,0-.013v-.016l.019-.069.008-.019.01-.035c.008-.023.016-.047.026-.069a.191.191,0,0,1,.013-.032l.019-.045c.019-.045.042-.089.063-.132a1.339,1.339,0,0,1,.066-.118,2.809,2.809,0,0,1,.212-.306Zm1.754,5.569h-.01a.2.2,0,0,1-.1,0H424.2l-.029-.01a.226.226,0,0,1-.066-.04l-.024-.023a.6.6,0,0,1-.116-.184.591.591,0,0,0-.035.188.3.3,0,0,0,.146.282.547.547,0,0,1,.153.151h0a.011.011,0,0,0,0-.01h0a.039.039,0,0,1,0-.013.04.04,0,0,1,0-.013.877.877,0,0,1,.069-.192l.034-.066.014-.021a.275.275,0,0,1,.021-.037l.014-.023.024-.039A.287.287,0,0,1,424.323,262.514Zm-1.754-5.569-.209-.46-.084.023.219.459,1.577,3.324a2.029,2.029,0,0,0-.483,1.127.758.758,0,0,0,.04.24c.08.235.18.33.27.356v-.04a1,1,0,0,1,0-.161.089.089,0,0,1,0-.021v-.023h0a.035.035,0,0,0,0-.013h0a.04.04,0,0,1,0-.013h0a.1.1,0,0,1,0-.019h0a.255.255,0,0,1,.008-.037.035.035,0,0,1,0-.013v-.016l.019-.069.008-.019.01-.035c.008-.023.016-.047.026-.069a.191.191,0,0,1,.013-.032l.019-.045c.019-.045.042-.089.063-.132a1.339,1.339,0,0,1,.066-.118,2.809,2.809,0,0,1,.212-.306Zm1.754,5.569h-.01a.2.2,0,0,1-.1,0H424.2l-.029-.01a.226.226,0,0,1-.066-.04l-.024-.023a.6.6,0,0,1-.116-.184.591.591,0,0,0-.035.188.3.3,0,0,0,.146.282.547.547,0,0,1,.153.151h0a.011.011,0,0,0,0-.01h0a.039.039,0,0,1,0-.013.04.04,0,0,1,0-.013.877.877,0,0,1,.069-.192l.034-.066.014-.021a.275.275,0,0,1,.021-.037l.014-.023.024-.039A.287.287,0,0,1,424.323,262.514Zm-1.754-5.569-.209-.46-.084.023.219.459,1.577,3.324a2.029,2.029,0,0,0-.483,1.127.758.758,0,0,0,.04.24c.08.235.18.33.27.356v-.04a1,1,0,0,1,0-.161.089.089,0,0,1,0-.021v-.023h0a.035.035,0,0,0,0-.013h0a.04.04,0,0,1,0-.013h0a.1.1,0,0,1,0-.019h0a.255.255,0,0,1,.008-.037.035.035,0,0,1,0-.013v-.016l.019-.069.008-.019.01-.035c.008-.023.016-.047.026-.069a.191.191,0,0,1,.013-.032l.019-.045c.019-.045.042-.089.063-.132a1.339,1.339,0,0,1,.066-.118,2.809,2.809,0,0,1,.212-.306Zm1.754,5.569h-.01a.2.2,0,0,1-.1,0H424.2l-.029-.01a.226.226,0,0,1-.066-.04l-.024-.023a.6.6,0,0,1-.116-.184.591.591,0,0,0-.035.188.3.3,0,0,0,.146.282.547.547,0,0,1,.153.151h0a.011.011,0,0,0,0-.01h0a.039.039,0,0,1,0-.013.04.04,0,0,1,0-.013.877.877,0,0,1,.069-.192l.034-.066.014-.021a.275.275,0,0,1,.021-.037l.014-.023.024-.039A.287.287,0,0,1,424.323,262.514Zm-1.754-5.569-.209-.46-.084.023.219.459,1.577,3.324a2.029,2.029,0,0,0-.483,1.127.758.758,0,0,0,.04.24c.08.235.18.33.27.356v-.04a1,1,0,0,1,0-.161.089.089,0,0,1,0-.021v-.023h0a.035.035,0,0,0,0-.013h0a.04.04,0,0,1,0-.013h0a.1.1,0,0,1,0-.019h0a.255.255,0,0,1,.008-.037.035.035,0,0,1,0-.013v-.016l.019-.069.008-.019.01-.035c.008-.023.016-.047.026-.069a.191.191,0,0,1,.013-.032l.019-.045c.019-.045.042-.089.063-.132a1.339,1.339,0,0,1,.066-.118,2.809,2.809,0,0,1,.212-.306Zm1.754,5.569h-.01a.2.2,0,0,1-.1,0H424.2l-.029-.01a.226.226,0,0,1-.066-.04l-.024-.023a.6.6,0,0,1-.116-.184.591.591,0,0,0-.035.188.3.3,0,0,0,.146.282.547.547,0,0,1,.153.151h0a.011.011,0,0,0,0-.01h0a.039.039,0,0,1,0-.013.04.04,0,0,1,0-.013.877.877,0,0,1,.069-.192l.034-.066.014-.021a.275.275,0,0,1,.021-.037l.014-.023.024-.039A.287.287,0,0,1,424.323,262.514Zm-1.754-5.569-.209-.46-.084.023.219.459,1.577,3.324a2.029,2.029,0,0,0-.483,1.127.758.758,0,0,0,.04.24c.08.235.18.33.27.356v-.04a1,1,0,0,1,0-.161.089.089,0,0,1,0-.021v-.023h0a.035.035,0,0,0,0-.013h0a.04.04,0,0,1,0-.013h0a.1.1,0,0,1,0-.019h0a.255.255,0,0,1,.008-.037.035.035,0,0,1,0-.013v-.016l.019-.069.008-.019.01-.035c.008-.023.016-.047.026-.069a.191.191,0,0,1,.013-.032l.019-.045c.019-.045.042-.089.063-.132a1.339,1.339,0,0,1,.066-.118,2.809,2.809,0,0,1,.212-.306Zm1.754,5.569h-.01a.2.2,0,0,1-.1,0H424.2l-.029-.01a.226.226,0,0,1-.066-.04l-.024-.023a.6.6,0,0,1-.116-.184.591.591,0,0,0-.035.188.3.3,0,0,0,.146.282.547.547,0,0,1,.153.151h0a.011.011,0,0,0,0-.01h0a.048.048,0,0,1,0-.014.028.028,0,0,1,0-.011.876.876,0,0,1,.069-.192c.016-.031.031-.06.048-.087a.276.276,0,0,1,.021-.037l.014-.023.024-.039A.287.287,0,0,1,424.323,262.514Zm-1.754-5.569-.209-.46-.084.023.219.459,1.577,3.324a2.029,2.029,0,0,0-.483,1.127.758.758,0,0,0,.04.24c.08.235.18.33.27.356v-.04a1,1,0,0,1,0-.161.089.089,0,0,1,0-.021v-.023h0a.035.035,0,0,0,0-.013h0v-.008a.04.04,0,0,1,0-.013h0a.1.1,0,0,1,0-.019h0a.255.255,0,0,1,.008-.037.035.035,0,0,1,0-.013v-.016l.019-.069.008-.019.01-.035c.008-.023.016-.047.026-.069a.189.189,0,0,1,.013-.032l.019-.045c.019-.045.042-.089.063-.132a1.338,1.338,0,0,1,.066-.117,2.813,2.813,0,0,1,.212-.306Zm1.754,5.569h-.01a.2.2,0,0,1-.1,0H424.2l-.029-.01a.226.226,0,0,1-.066-.04l-.024-.023a.6.6,0,0,1-.116-.184.591.591,0,0,0-.035.188.3.3,0,0,0,.146.282.547.547,0,0,1,.153.151h0a.011.011,0,0,0,0-.01h0a.048.048,0,0,1,0-.014.028.028,0,0,1,0-.011.876.876,0,0,1,.069-.192c.016-.031.031-.06.048-.087a.276.276,0,0,1,.021-.037l.014-.023.024-.039A.287.287,0,0,1,424.323,262.514Z" transform="translate(809.04 2113.368)" fill="url(#x)"/><path d="M470.582,783.044a10.987,10.987,0,0,0,3.578-.106c1.164-.4-.361,1.73-1.943,2.236a15.109,15.109,0,0,1-3.435.583l-1.861-1.749-1.975.151.344,1.931-.613.058-.238-2.533Z" transform="translate(768.961 1648.032)" fill="#444053"/><path d="M470.582,783.044a10.987,10.987,0,0,0,3.578-.106c1.164-.4-.361,1.73-1.943,2.236a15.109,15.109,0,0,1-3.435.583l-1.861-1.749-1.975.151.344,1.931-.613.058-.238-2.533Z" transform="translate(768.961 1648.032)" opacity="0.1"/><path d="M485.009,811.34a13.358,13.358,0,0,0,4.346.277c1.457-.356-.633,2.058-2.612,2.493a18.637,18.637,0,0,1-4.236.322l-2.049-2.342-2.414-.04.2,2.39h-.752v-3.1Z" transform="translate(758.011 1624.159)" fill="#444053"/><path d="M485.009,811.34a13.358,13.358,0,0,0,4.346.277c1.457-.356-.633,2.058-2.612,2.493a18.637,18.637,0,0,1-4.236.322l-2.049-2.342-2.414-.04.2,2.39h-.752v-3.1Z" transform="translate(758.011 1624.159)" opacity="0.1"/><path d="M442.547,469.75s-4.947,5.5-1.98,11.715a4.464,4.464,0,0,1,.04,1.307,17.26,17.26,0,0,0,.475,2.77s.081,4.667,0,5.462-.161,1.226-.161,1.226-1.106,8.622-.75,11.2.515,7.164.515,7.164l1.465,12.349,7.6-1.424-3.444-16.941-.119-3.008s1.426-3.681.792-5.541.161-25.569.161-25.569Z" transform="translate(789.787 1910.772)" fill="#303d5c"/><path d="M442.547,469.75s-4.947,5.5-1.98,11.715a4.464,4.464,0,0,1,.04,1.307,17.26,17.26,0,0,0,.475,2.77s.081,4.667,0,5.462-.161,1.226-.161,1.226-1.106,8.622-.75,11.2.515,7.164.515,7.164l1.465,12.349,7.6-1.424-3.444-16.941-.119-3.008s1.426-3.681.792-5.541.161-25.569.161-25.569Z" transform="translate(789.787 1910.772)" opacity="0.05"/><path d="M455.475,497.437c.871,1.663.322,5.7.322,5.7-1.148.99-.515,9.618-.515,9.618s-.792,8.511-1.305,9.5-.436,5.067-.436,5.067a14.622,14.622,0,0,0,9.618-1.226s-1.861-4.236-1.9-4.432c-.023-.111-.269.19-.343.277.039-.053.14-.192.343-.483.792-1.109,0-3.246,0-3.246s.99-6.887.515-7.521.079-2.968.356-3.521a7.8,7.8,0,0,0,.633-2.414,4.871,4.871,0,0,1,.238-1.265c1.226-1.743.99-4.632.99-4.632a38.43,38.43,0,0,1,.633-7.44c.711-3.285-.888-12.587-.888-12.587s.533-1.82.137-2.493a3.439,3.439,0,0,1-.077-1.706c.1-.845.275-1.658.275-1.658l-10.8-1.917c-.227.378-.435.745-.626,1.1-3.571,6.6-1.164,9.052-1.164,9.052l2.292,7.064S454.6,495.776,455.475,497.437Z" transform="translate(780.5 1909.681)" fill="#303d5c"/><path d="M586.92,290.3l1.543,1.31s.3-.241.708-.6c.966-.872,2.53-2.451,1.944-3.121a1.171,1.171,0,0,0-1.659-.28c.087-.092,1.878-2.012,1.144-1.857s-2.137,1.822-2.137,1.822l-1.109,1.959Z" transform="translate(666.193 2065.171)" fill="#efb7b9"/><path d="M441.228,415.35l1.82.554-1.384,2.414-1.584-2.058Z" transform="translate(791.185 1961.491)" fill="#efb7b9"/><circle cx="5.186" cy="5.186" r="5.186" transform="translate(1231.502 2343.79)" fill="#efb7b9"/><path d="M450.763,277.771s-4.711,7.476-.238,8.12-6.016,5.186-6.016,5.186l-3.919-3.958s4.077-7.046,3.444-9.737S450.763,277.771,450.763,277.771Z" transform="translate(788.972 2073.106)" fill="#efb7b9"/><path d="M462.82,472.218a24.524,24.524,0,0,0,3.192.739s5.833,2.59,7.957,1.738c.1-.845.275-1.658.275-1.658l-10.8-1.917C463.219,471.5,463.01,471.865,462.82,472.218Z" transform="translate(770.32 1909.623)" opacity="0.1"/><path d="M429.221,331.3l1.054,2.181,1.191,2.456.161.351,1.411,3.058,1.794,3.875s-.634.752-.436,1.346c.185.555.475.314.512.28-.034.047-.417.562-.076.789s.237.752.237.752a27.335,27.335,0,0,0-1.741,3.285c-.277.871,4.434,1.624,4.434,1.624s6.689,2.968,8.351,1.5,0-8.351,0-8.351,0-3.958-.436-4.313-.229-3.1-.229-3.1c1.148-2.092.356-3.285.356-3.285l.322-5.382s-.515-.555-.911-.594a3.954,3.954,0,0,0-.752,0s-.209-.071-.51-.161a4.3,4.3,0,0,0-2.063-.241c-.554.277-4.115-.436-4.115-.436a43.57,43.57,0,0,0-4.632-.435,4.583,4.583,0,0,0-1.571.171A2.1,2.1,0,0,0,430.056,328a2.715,2.715,0,0,1-.475,1.82C428.946,330.851,429.221,331.3,429.221,331.3Z" transform="translate(798.561 2030.975)" fill="#3444b3"/><path d="M586.92,310.03l1.543,1.31s.3-.241.708-.6c.122-1.336-1.016-1.513-1.817-1.477Z" transform="translate(666.193 2045.436)" opacity="0.1"/><path d="M525.473,314.7l.673.04s1.582.2,2.092-.278a5.852,5.852,0,0,1,2.335-.633,3.921,3.921,0,0,1,1.069-1.345c.554-.315,1.9-.911,1.931-1.228a2.712,2.712,0,0,1,.515-.909s2.968-.713,2.533,1.622-2.837,4.352-2.837,4.352-.277,1.307-1.188,1.624-6.808,3.087-7.758,2.374S525.473,314.7,525.473,314.7Z" transform="translate(718.537 2044.607)" fill="#3444b3"/><path d="M429.591,329.964a2.738,2.738,0,0,0,.475-1.82,2.1,2.1,0,0,1,1.516-1.333,3.918,3.918,0,0,1,.771-.151,2.1,2.1,0,0,0-1.5,1.326,2.715,2.715,0,0,1-.475,1.82c-.636,1.028-.357,1.465-.357,1.465l1.056,2.181,1.189,2.454.171.352,1.411,3.05,1.795,3.876s-.634.753-.436,1.347c.185.555.475.312.512.28-.034.045-.417.562-.076.789s.237.752.237.752a27.326,27.326,0,0,0-1.741,3.285c-.277.871,4.434,1.622,4.434,1.622s4.645,2.062,7.156,1.9c-2.134.837-7.947-1.741-7.947-1.741s-4.711-.753-4.434-1.624a27.281,27.281,0,0,1,1.741-3.283.755.755,0,0,0-.237-.752c-.356-.237.042-.742.076-.789-.037.034-.322.275-.512-.28-.2-.594.436-1.345.436-1.345l-1.794-3.877-1.411-3.058-.161-.351L430.3,333.6l-1.054-2.181S428.957,330.994,429.591,329.964Z" transform="translate(798.547 2030.833)" opacity="0.1"/><path d="M419.389,352.68l-.711.594a3.267,3.267,0,0,1-.594,1.069,32.8,32.8,0,0,0-1.465,4.75.769.769,0,0,1,0,.634c-.161.322.322.792.322.792s.237-.079-.161.356.357.953.357.953a70.878,70.878,0,0,0,3.917,6.132A7.911,7.911,0,0,1,422.4,370.1s1.41-2.211,1.741-2.253l-1.384-3.126s-.951-4.355-1.663-5.15.356-3.525.356-3.525Z" transform="translate(809.113 2009)" fill="#3444b3"/><path d="M428.492,338.821a2.877,2.877,0,0,0,2.564.761c.135-.016.272-.037.406-.063a5.9,5.9,0,0,0,.6-.14,6.258,6.258,0,0,0,1.967-.966,1.352,1.352,0,0,1,.441-.254.931.931,0,0,1,.938.5c.2.322.3.7.5,1.02a2.349,2.349,0,0,0,1.944.954,6.932,6.932,0,0,0,2.2-.431,6.565,6.565,0,0,1-1.413-2.348,5.561,5.561,0,0,1-.111-1.77c.171-2.8,1.143-5.752,3.427-7.384.4-.282.874-.615,1.006-1.043a4.294,4.294,0,0,0-2.063-.241c-.554.277-4.115-.436-4.115-.436a43.57,43.57,0,0,0-4.632-.435,4.584,4.584,0,0,0-1.571.171,9.879,9.879,0,0,1,.13,3.541,7.928,7.928,0,0,1-.784,2.084c-.2.394-.422.782-.644,1.172A8.745,8.745,0,0,0,428,336.9,2.705,2.705,0,0,0,428.492,338.821Z" transform="translate(799.546 2030.933)" opacity="0.1"/><path d="M471.3,436.667a2.8,2.8,0,0,0-.927-.08,1.706,1.706,0,0,0-.694.4l2.034.011a2.7,2.7,0,0,0,1.712-.338C473.06,436.3,471.824,436.735,471.3,436.667Z" transform="translate(764.564 1938.656)" opacity="0.1"/><path d="M442.6,239.145a3.073,3.073,0,0,1,.352,2.981c-.322.764-.954,1.363-1.339,2.1a3.785,3.785,0,0,0,.129,3.666,1.85,1.85,0,0,1,.322.658c.092.6-.533,1.036-1.03,1.392-2.285,1.629-3.256,4.582-3.426,7.384a5.552,5.552,0,0,0,.109,1.77,6.569,6.569,0,0,0,1.415,2.348,6.931,6.931,0,0,1-2.2.431,2.349,2.349,0,0,1-1.944-.954c-.206-.322-.3-.7-.5-1.02a.93.93,0,0,0-.935-.5,1.307,1.307,0,0,0-.443.253,6.262,6.262,0,0,1-2.974,1.17,2.868,2.868,0,0,1-2.562-.761,2.625,2.625,0,0,1-.483-1.914c.206-2.4,2.235-4.281,2.705-6.641.38-1.912-.309-3.863-.435-5.8-.188-2.876.856-5.675,1.885-8.369a8.885,8.885,0,0,1,.9-1.9,5.323,5.323,0,0,1,3.863-2.17,3.616,3.616,0,0,1,1.669.161,5.067,5.067,0,0,1,1.431.98,9.629,9.629,0,0,1,2.556,2.91c.23.483.381.993.644,1.458Z" transform="translate(800.318 2109.228)" fill="#3f3d56"/><path d="M510.125,249.416c-.258-.465-.407-.98-.644-1.458a5.841,5.841,0,0,0-.821-1.238,6.947,6.947,0,0,1,1.448,1.914c.224.464.373.966.616,1.418l-.312-.264a2.628,2.628,0,0,1,.219.343A3.541,3.541,0,0,1,510.125,249.416Z" transform="translate(731.858 2097.907)"/><path d="M431.044,392.915a6.237,6.237,0,0,0,2.974-1.168,1.34,1.34,0,0,1,.443-.253.93.93,0,0,1,.937.5c.042.068.079.14.114.212a.644.644,0,0,0-.417-.04,1.308,1.308,0,0,0-.443.253,6.261,6.261,0,0,1-2.974,1.17,2.868,2.868,0,0,1-2.562-.761,1.994,1.994,0,0,1-.2-.295A3.3,3.3,0,0,0,431.044,392.915Z" transform="translate(798.764 1976.449)"/><path d="M477.137,290.279a6.938,6.938,0,0,0,2.2-.431,6.565,6.565,0,0,1-1.413-2.348,5.552,5.552,0,0,1-.111-1.77c.171-2.8,1.143-5.755,3.428-7.384.5-.356,1.127-.789,1.03-1.394a1.884,1.884,0,0,0-.322-.657,3.785,3.785,0,0,1-.13-3.666c.386-.737,1.014-1.336,1.341-2.1a3.084,3.084,0,0,0-.135-2.636,3.7,3.7,0,0,0,.348.322,3.551,3.551,0,0,0,.287.351,3.082,3.082,0,0,1,.134,2.638c-.322.764-.954,1.363-1.339,2.1a3.785,3.785,0,0,0,.129,3.666,1.849,1.849,0,0,1,.322.658c.092.6-.533,1.036-1.03,1.392-2.285,1.629-3.256,4.582-3.427,7.384a5.554,5.554,0,0,0,.109,1.77,6.571,6.571,0,0,0,1.415,2.348,6.932,6.932,0,0,1-2.2.431,2.349,2.349,0,0,1-1.944-.954c-.027-.042-.052-.085-.076-.129A2.7,2.7,0,0,0,477.137,290.279Z" transform="translate(759.471 2080.144)"/><path d="M259.865,179.57v3.38H245.19q.671-.93,1.371-1.835c.064-.084.129-.161.2-.249l.687-.864h0l.095-.117h0l.249-.3Z" transform="translate(952.924 2154.249)" fill="#3444b3" opacity="0.2"/><rect width="15.42" height="3.377" transform="translate(1227.732 2333.819)" fill="#3444b3" opacity="0.2"/><rect width="15.42" height="3.377" transform="translate(1263.148 2333.819)" fill="#3444b3" opacity="0.2"/><rect width="15.42" height="3.377" transform="translate(1293.101 2333.819)" fill="#3444b3" opacity="0.2"/></g></svg>