<svg xmlns="http://www.w3.org/2000/svg" width="167.173" height="140.585" viewBox="0 0 167.173 140.585"><g transform="translate(0)"><path d="M222.012,123a47.616,47.616,0,0,0-35.926,16.091,48.037,48.037,0,1,0-35.7,80.348q1.52,0,3.018-.094a522.666,522.666,0,0,1,65.371,0q1.5.094,3.017.094A48.222,48.222,0,0,0,222.012,123Z" transform="translate(-102.499 -107.648)" fill="#f2f2f2"/><path d="M741.967,39.083a3.861,3.861,0,0,0-3.328,2.327c-.832,2.012.239,4.375,1.848,5.842s3.675,2.306,5.552,3.408a14.882,14.882,0,0,1,6.05,6.173A9.133,9.133,0,0,1,752,65.259c-1.377,2.339-3.88,3.739-6.267,5.03" transform="translate(-631.519 -37.83)" fill="none" stroke="#3f3d56" stroke-miterlimit="10" stroke-width="1"/><ellipse cx="2.94" cy="1.428" rx="2.94" ry="1.428" transform="translate(109.629)" fill="#57b894"/><ellipse cx="2.94" cy="1.428" rx="2.94" ry="1.428" transform="translate(111.981 9.409)" fill="#57b894"/><ellipse cx="2.94" cy="1.428" rx="2.94" ry="1.428" transform="translate(106.604 10.921)" fill="#57b894"/><ellipse cx="2.94" cy="1.428" rx="2.94" ry="1.428" transform="translate(115.005 18.817)" fill="#57b894"/><ellipse cx="2.94" cy="1.428" rx="2.94" ry="1.428" transform="translate(120.885 18.817)" fill="#57b894"/><path d="M800.4,316.333a3.861,3.861,0,0,0-4.016.606c-1.64,1.432-1.73,4.025-.941,6.055s2.268,3.7,3.46,5.52a14.883,14.883,0,0,1,2.676,8.219,9.133,9.133,0,0,1-3.822,7.509c-2.273,1.484-5.137,1.625-7.85,1.721" transform="translate(-674.414 -268.24)" fill="none" stroke="#3f3d56" stroke-miterlimit="10" stroke-width="1"/><ellipse cx="1.428" cy="2.94" rx="1.428" ry="2.94" transform="matrix(0.444, -0.896, 0.896, 0.444, 124.539, 49.165)" fill="#57b894"/><ellipse cx="1.428" cy="2.94" rx="1.428" ry="2.94" transform="matrix(0.444, -0.896, 0.896, 0.444, 122.465, 58.639)" fill="#57b894"/><ellipse cx="1.428" cy="2.94" rx="1.428" ry="2.94" transform="matrix(0.444, -0.896, 0.896, 0.444, 116.976, 57.604)" fill="#57b894"/><ellipse cx="1.428" cy="2.94" rx="1.428" ry="2.94" transform="matrix(0.444, -0.896, 0.896, 0.444, 120.993, 68.412)" fill="#57b894"/><ellipse cx="1.428" cy="2.94" rx="1.428" ry="2.94" transform="matrix(0.444, -0.896, 0.896, 0.444, 126.26, 71.025)" fill="#57b894"/><path d="M400.5,392.475a3.861,3.861,0,0,1,3.956-.92c2.053.725,3.094,3.1,3.11,5.279s-.741,4.275-1.176,6.408a14.883,14.883,0,0,0,.549,8.626,9.133,9.133,0,0,0,6.326,5.567c2.66.539,5.374-.387,7.93-1.3" transform="translate(-350.435 -330.913)" fill="none" stroke="#3f3d56" stroke-miterlimit="10" stroke-width="1"/><ellipse cx="2.94" cy="1.428" rx="2.94" ry="1.428" transform="translate(45.754 64.489) rotate(-48.059)" fill="#57b894"/><ellipse cx="2.94" cy="1.428" rx="2.94" ry="1.428" transform="translate(51.181 72.527) rotate(-48.059)" fill="#57b894"/><ellipse cx="2.94" cy="1.428" rx="2.94" ry="1.428" transform="translate(55.899 69.538) rotate(-48.059)" fill="#57b894"/><ellipse cx="2.94" cy="1.428" rx="2.94" ry="1.428" transform="translate(56.158 81.065) rotate(-48.059)" fill="#57b894"/><ellipse cx="2.94" cy="1.428" rx="2.94" ry="1.428" transform="translate(52.228 85.439) rotate(-48.059)" fill="#57b894"/><path d="M530.033,267.227l-.462,3.389-2.856,20.911-4.677,34.244-1.171,8.574a2.731,2.731,0,0,1-2.707,2.362H486.968a2.732,2.732,0,0,1-2.707-2.356l-1.191-8.58-4.756-34.244L475.407,270.6l-.467-3.367a2.731,2.731,0,0,1,2.705-3.108h49.681a2.733,2.733,0,0,1,2.707,3.1Z" transform="translate(-412.344 -225.063)" fill="#3444b3"/><rect width="48.724" height="9.073" rx="4.536" transform="translate(65.861 29.99)" fill="#2f2e41"/><path d="M543.224,235.646V237.7a2.732,2.732,0,0,1-2.732,2.732h-43.26A2.732,2.732,0,0,1,494.5,237.7v-2.048A256.559,256.559,0,0,0,543.224,235.646Z" transform="translate(-428.639 -201.368)" opacity="0.1"/><circle cx="7.393" cy="7.393" r="7.393" transform="translate(69.809 50.236)" fill="#2f2e41"/><circle cx="7.393" cy="7.393" r="7.393" transform="translate(96.02 50.236)" fill="#2f2e41"/><circle cx="2.016" cy="2.016" r="2.016" transform="translate(74.85 55.612)" fill="#fff"/><circle cx="0.84" cy="0.84" r="0.84" transform="translate(79.05 52.924)" fill="#fff"/><circle cx="2.016" cy="2.016" r="2.016" transform="translate(101.396 55.612)" fill="#fff"/><circle cx="0.84" cy="0.84" r="0.84" transform="translate(105.596 52.924)" fill="#fff"/><path d="M529.884,265.89h0l0-.006a2.733,2.733,0,0,0-.276-.535h0c-.033-.049-.068-.1-.1-.145l-.037-.047a2.752,2.752,0,0,0-.348-.363c-.028-.025-.057-.049-.086-.072s-.066-.052-.1-.077-.087-.06-.131-.089-.07-.045-.107-.065q-.084-.049-.172-.091l-.085-.039q-.084-.037-.17-.069l-.07-.026q-.12-.04-.245-.069l-.062-.012q-.1-.021-.207-.035l-.076-.009c-.09-.009-.18-.015-.273-.015H477.651a2.739,2.739,0,0,0-2.705,3.108l.079.568.388,2.8h0l2.906,20.926h0L482.135,319l2.133,15.356a2.732,2.732,0,0,0,2.706,2.356h1.48a2.726,2.726,0,0,1-.154-.592l-1.437-10.344h35.18l4.678-34.244H482.107l-2.86-20.591a288.71,288.71,0,0,0,50.33-.32l.462-3.389a2.711,2.711,0,0,0-.155-1.337Z" transform="translate(-412.349 -225.063)" opacity="0.1"/><path d="M501.982,246.2a289.151,289.151,0,0,1-62.75,0,2.732,2.732,0,0,1-2.732-2.732v-3.609a2.732,2.732,0,0,1,2.732-2.732,257.1,257.1,0,0,0,62.75,0,2.732,2.732,0,0,1,2.732,2.732v3.609A2.732,2.732,0,0,1,501.982,246.2Z" transform="translate(-380.384 -202.599)" fill="#2f2e41"/><path d="M524.737,466.38h-42a1.584,1.584,0,0,1-1.564-1.336l-4.538-28.586a1.584,1.584,0,0,1,1.564-1.832h51.378a1.584,1.584,0,0,1,1.562,1.848l-4.84,28.587A1.584,1.584,0,0,1,524.737,466.38Z" transform="translate(-413.758 -366.916)" fill="#2f2e41"/><path d="M570.985,495.091a1.119,1.119,0,0,1,.614,1.868c-2.665,2.841-9.126,8.763-16.674,8.763s-14.009-5.923-16.674-8.763a1.119,1.119,0,0,1,.614-1.868A88.749,88.749,0,0,1,570.985,495.091Z" transform="translate(-464.786 -416.004)" fill="#3444b3"/><path d="M601.132,509.459a1.119,1.119,0,0,1,.608,1.9c-1.8,1.76-5.163,4.413-9.009,4.413s-7.2-2.653-9.009-4.413a1.119,1.119,0,0,1,.608-1.9,51.269,51.269,0,0,1,16.8,0Z" transform="translate(-502.592 -428.6)" fill="#fff"/><line x2="116.097" transform="translate(21.254 111.729)" fill="none" stroke="#3f3d56" stroke-miterlimit="10" stroke-width="1"/><path d="M286.152,604.07V608.8l2.427,2.81s1.022-.383,1.022-2.938l.383-3.7Z" transform="translate(-255.296 -507.892)" fill="#a0616a"/><path d="M255.842,598.369s-3.96-2.683-4.088-3.577-5.748-4.982-4.854-2.427a7.12,7.12,0,0,0,3.7,3.7s2.172,5.876,4.088,5.748S256.608,599.263,255.842,598.369Z" transform="translate(-222.559 -497.465)" fill="#a0616a"/><path d="M203.56,771.64l.383,2.3-2.044-.511V771.64Z" transform="translate(-167.977 -641.995)" fill="#3f3d56"/><path d="M288.57,806.267s-2.362-1.4-2.458-.764-1.118,3.063-1.629,3.318-1.15,3.066,0,2.938c.89-.1,4.156-1.807,5.584-2.572a.78.78,0,0,0,.335-1.019,1.609,1.609,0,0,1-.171-.5C290.23,807.417,288.57,806.267,288.57,806.267Z" transform="translate(-253.37 -675.344)" fill="#2f2e41"/><path d="M276.8,646.409s-9.325,4.343-8.431,7.664,4.215,17.372,4.215,17.372,3.7.894,3.96,0-2.427-14.818-2.172-15.329,4.982-3.832,4.982-3.832l9.708-4.088-4.088-3.832Z" transform="translate(-240.448 -541.417)" fill="#2f2e41"/><path d="M168.836,776.2l-1.15,2.938,2.044.894,1.277-2.3Z" transform="translate(-139.513 -645.79)" fill="#3f3d56"/><path d="M316.99,513.12s1.15,1.533.255,2.3S316.99,519,316.99,519l1.15,3.193,4.6-.894v-5.237l-.255-2.555s-2.3-2.172-2.555-3.832S316.99,513.12,316.99,513.12Z" transform="translate(-280.769 -429.077)" fill="#a0616a"/><path d="M316.99,513.12s1.15,1.533.255,2.3S316.99,519,316.99,519l1.15,3.193,4.6-.894v-5.237l-.255-2.555s-2.3-2.172-2.555-3.832S316.99,513.12,316.99,513.12Z" transform="translate(-280.769 -429.077)" opacity="0.1"/><path d="M287.163,650.448s-6,6.642-6,6.9-3.193,5.493-3.193,5.493l-6.259,13.923s2.427,3.321,3.449,3.066,8.3-15.073,8.3-15.073a7.093,7.093,0,0,1,4.726-4.088c3.449-.766,6.131-3.449,4.854-6.515S287.163,650.448,287.163,650.448Z" transform="translate(-243.277 -546.478)" fill="#2f2e41"/><circle cx="4.088" cy="4.088" r="4.088" transform="translate(32.133 76.762)" fill="#a0616a"/><path d="M315.049,548.575s.511,2.938,1.022,3.193.894,1.15,2.044-.128a16.113,16.113,0,0,0,2.172-3.832l3.96,4.854.383,13.413s-4.471-1.15-5.876,0-4.471,1.022-4.471,1.022l.639-2.555-.511-4.343.128-3.96.128-2.81Z" transform="translate(-278.7 -461.083)" fill="#f2f2f2"/><path d="M295.89,539.573s-1.727.873-1.855,1.384-2.427,1.533-2.427,1.533-.894.894-.894,1.405,3.066,6.387,3.066,6.387.639,3.96.383,4.726.511,3.7.511,3.7l-1.533,1.788h1.405s1.533-.766,1.533-1.15-.255-3.066-.383-4.215a38.929,38.929,0,0,1,.128-6.642,48.992,48.992,0,0,0,.128-6C295.951,541.6,295.89,539.573,295.89,539.573Z" transform="translate(-259.091 -454.232)" fill="#3f3d56"/><path d="M334.655,528.029s.575.13,2.235.641,4.215,1.277,5.109,2.3a15.832,15.832,0,0,1,1.661,2.427l-.511,9.2a7.182,7.182,0,0,1,.894,2.938c-.128,1.022-1.15,1.15-.383,3.321s2.3,4.088.894,4.343-5.11-.639-6.77-.128-3.577-1.916-3.577-1.916,2.555.256,2.172-.766-4.6-12.518-3.7-15.073S334.655,528.029,334.655,528.029Z" transform="translate(-293.899 -444.627)" fill="#3f3d56"/><path d="M284.572,561.494l-.639.511s-1.788,6.387-1.277,7.026,4.6,2.044,4.854,1.15S284.572,561.494,284.572,561.494Z" transform="translate(-252.311 -472.469)" fill="#3f3d56"/><path d="M388.694,588.1s1.916,5.493,1.916,7.026-.255,10.475-.255,10.475-.128,3.832-2.81,2.3,0-2.555,0-2.555-.128-10.091-1.15-11.5a9.924,9.924,0,0,1-1.405-3.449Z" transform="translate(-337.527 -494.609)" fill="#a0616a"/><path d="M260.1,821.877s-1.916-1.022-2.3-.255-2.427,4.982-2.172,5.493,1.661,2.555,3.321,2.044,1.788-3.193,1.788-3.193l.128-3.066Z" transform="translate(-229.885 -688.655)" fill="#2f2e41"/><path d="M283.046,481.233a1.8,1.8,0,0,1,.793.468,3.947,3.947,0,0,1,.24.646.913.913,0,0,0,1.175.43,1.013,1.013,0,0,1,.413-.628.6.6,0,0,1,.715.039c.263.251.17.689.293,1.031a2.178,2.178,0,0,0,.468.642,6.6,6.6,0,0,0,.839.963.992.992,0,0,0,1.182.111,1.009,1.009,0,0,0,.271-.987c-.068-.352-.238-.677-.333-1.023-.31-1.124.184-2.325.031-3.481a4.2,4.2,0,0,0-2.861-3.16,3.347,3.347,0,0,0-1.847-.2,13.815,13.815,0,0,0-1.808.787,13.745,13.745,0,0,1-2.063.44,2.824,2.824,0,0,0-1.8,1.009,13.013,13.013,0,0,0-.606,1.34,2.4,2.4,0,0,1-1.218,1.091l.728-.042a2.147,2.147,0,0,1-.58.847,1.557,1.557,0,0,0,1.008-.133,1.1,1.1,0,0,1-.376.786,3.17,3.17,0,0,0,1.625-.343c.232-.147.421-.352.639-.518a4.731,4.731,0,0,1,1.605-.685c.3-.085.651-.2.918-.013C282.723,480.813,282.758,481.1,283.046,481.233Z" transform="translate(-247.625 -401.37)" fill="#2f2e41"/><path d="M375.252,550.85l1.916,1.533,2.555,5.876s-3.577,2.81-4.471,2.427-2.427-7.153-2.427-7.153Z" transform="translate(-327.407 -463.614)" fill="#3f3d56"/><path d="M255,585.107l-.032.235-.2,1.449-.324,2.373-.081.594a.189.189,0,0,1-.188.164h-2.161a.189.189,0,0,1-.188-.163l-.083-.595-.33-2.373-.2-1.45-.032-.233a.189.189,0,0,1,.187-.215h3.442a.189.189,0,0,1,.188.215Z" transform="translate(-226.199 -491.937)" fill="#3444b3"/><rect width="3.376" height="0.629" rx="0.314" transform="translate(25.208 92.327)" fill="#2f2e41"/><path d="M253.055,583.651a20.035,20.035,0,0,1-4.348,0,.189.189,0,0,1-.189-.189v-.25a.189.189,0,0,1,.189-.189,17.811,17.811,0,0,0,4.348,0,.189.189,0,0,1,.189.189v.25A.189.189,0,0,1,253.055,583.651Z" transform="translate(-223.985 -490.38)" fill="#2f2e41"/><path d="M254.631,598.906h-2.91a.11.11,0,0,1-.108-.093l-.314-1.981a.11.11,0,0,1,.108-.127h3.56a.11.11,0,0,1,.108.128l-.335,1.981a.11.11,0,0,1-.108.091Z" transform="translate(-226.297 -501.765)" fill="#2f2e41"/></g></svg>