<svg xmlns="http://www.w3.org/2000/svg" xmlns:xlink="http://www.w3.org/1999/xlink" width="160.894" height="122.717" viewBox="0 0 160.894 122.717"><defs><linearGradient id="a" x1="0.5" y1="1" x2="0.5" gradientUnits="objectBoundingBox"><stop offset="0" stop-color="gray" stop-opacity="0.251"/><stop offset="0.54" stop-color="gray" stop-opacity="0.122"/><stop offset="1" stop-color="gray" stop-opacity="0.102"/></linearGradient></defs><g transform="translate(0.25 0.045)"><path d="M223.519,212.123c-1.535-2.149-.742-5.543-.742-5.543s-.454-14.932-2.842-18.438c0,0-3.413-8.145-3.98-8.485s-3.979-2.714-3.639-4.016c0,0-.515.177-1.247.445-.019-.049-.037-.1-.056-.148-.211-.58-.445-1.263-.668-1.959a.268.268,0,0,0,.064-.046.945.945,0,0,0,.058.108,1.441,1.441,0,0,0,1.083.555,1.091,1.091,0,0,0,.613-.08.752.752,0,0,0,.316-.329c-.027.012-.055.019-.083.03a1.356,1.356,0,0,0,.211-.847,2.771,2.771,0,0,0-1.211-2.131,1.08,1.08,0,0,0,.38-.234l.058.04a1.273,1.273,0,0,0,.137-.171,1.232,1.232,0,0,1-.138.074,1.178,1.178,0,0,0,.3-1.039c-.055.186-.276.255-.466.3-.111.024-.209.043-.3.058a8.142,8.142,0,0,0,.57-1.37,6.315,6.315,0,0,0-.105-3.1,6.381,6.381,0,0,0-1.969-3.681,7.975,7.975,0,0,0-1.644-.926,8.767,8.767,0,0,0-1.649-.631c-.579-.135-1.187-.148-1.769-.227-1.146-.148-2.254-.539-3.413-.6a3.3,3.3,0,0,0-3.035,1.242,1.566,1.566,0,0,0-.252.974.647.647,0,0,0,.01.077s0,0,0,.007a1.778,1.778,0,0,0,1.141,1.345,2.685,2.685,0,0,0,.3.1,6.882,6.882,0,0,0,1.459,11.468c.07.148.148.288.215.445a31.509,31.509,0,0,1,2.383,6.122.462.462,0,0,0,.016.091c-.034.085-4.279,7.653-3.678,8.1l-.175.19c-1.129,1.238-2.3,2.671-2.238,3.249,0,0-.367-.148-.935-.407l.039-.414-.281.016v-.016l-.606.034c-1.99-.907-5.01-2.375-5.61-3.2-.7-.954-4.194-3.562-5.788-4.736V179.4H178.39l-1.622,1.03h0l1.624-1.03H158.26l-1.358-.787-.438-.255a1,1,0,0,0,0-.344s-6.908-6.53-7.25-7.8c0,0-.695-.939-1.484-2.125l9.669.683a1.567,1.567,0,0,1-.635-1.328h4.331s9.893-6.392,9.267-8.428-11.086,5.491-11.086,5.491h-2.038c.092-.3.16-.481.16-.481s-5.2-.085-5.451-.445a11.567,11.567,0,0,0-2.82-1l1.319-6.049h0a31.335,31.335,0,0,0,1.794-3.029,4.987,4.987,0,0,0,.183-1.854v-.013c1.592-1.353.932-6.678.929-6.705a13.951,13.951,0,0,1,2.878-2.82c.1-.067.194-.132.3-.2a7.866,7.866,0,0,0,11.068-4.694c.031-.1.061-.206.088-.31.079.03.156.062.233.091a1.112,1.112,0,0,0,.321.067.467.467,0,0,0,.445-.18.95.95,0,0,0,.052-.568h-.007v-.094a.876.876,0,0,1,.186-.479v.01a1.588,1.588,0,0,1,.533-.445c.358-.191.76-.3,1.1-.512a2.294,2.294,0,0,0,1-1.705l-.009.018c.009-.085.015-.169.016-.254a3.265,3.265,0,0,0-.594-1.82c-.5-.742-1.011-.5-1.668-.89-.381-.221-.5-.668-.718-1.026a4.908,4.908,0,0,0-1.5-1.489c-.89-.594-1.909-.977-2.838-1.512a26.136,26.136,0,0,0-3.777-2.271,11.448,11.448,0,0,0-2.21-.508,3.444,3.444,0,0,0-1.285-.043,6.5,6.5,0,0,0-1.557.821c-1.245.671-2.841.582-3.971,1.429-1.172.877-1.484,2.465-1.719,3.9a19.424,19.424,0,0,1-2.158,7.124.487.487,0,0,0-.107.337.475.475,0,0,0,.175.237,5.522,5.522,0,0,0,.546.419h-.168a3.472,3.472,0,0,1-1.03-.972.971.971,0,0,0-1.484-.119c-.016.018-.034.037-.048.055-.257.34-10.4,4.078-12.536,6.233a56.987,56.987,0,0,0-4.433,5.3h0s-.141.148-.393.421a63.724,63.724,0,0,1-7.15,6.6q-.223.167-.445.325h0l-.055.037a26.837,26.837,0,0,1-2.523,1.53c-.061.027-.122.058-.183.083a1.554,1.554,0,0,0-.217.113l-.018.009h0a2.531,2.531,0,0,1-1.3.343c-.938-.212-7.5,7.508-8.1,10.9s-1.279,3.562-1.279,3.562-1.109,3.139-.938,3.733c.126.438-.767,2.078-1.008,3.685-3.6.025-17.309.178-29.214,1.009a27.279,27.279,0,0,0-1.238,3.013c-.033.092-.061.184-.092.278a18.334,18.334,0,0,0-.516,1.96,13.772,13.772,0,0,0-.1,5.24c.522,2.907,2.064,5.519,3.577,8.062.89,1.494,1.781,2.993,2.706,4.475h0c.148.24.3.479.454.72.454.72.913,1.437,1.385,2.143l.184.275.091.132.221.328c1.008,1.472,2.063,2.909,3.194,4.28l.7.837q1.173,1.36,2.461,2.618l.028.028.03.028.036.034a.24.24,0,0,0,.028.027c.03.031.062.061.095.091a41.12,41.12,0,0,0,3.691,3.126c1.15-1.346,2.878-2.936,2.878-2.936l8.357-7.124a11.381,11.381,0,0,1,1.529-1.162h0l.83.019a14.16,14.16,0,0,0,4.859,2.655h0a15.917,15.917,0,0,0,.524,1.769h1.484s.742,4.242.254,5.374.086,6.618,4.066,8.088a2.068,2.068,0,0,0,2.389-1.811,57.452,57.452,0,0,0,.454-6.787l.515-4.3c5.375.868,10.046,1.137,10.046,1.137l.557,5.279h5.26c.061.036.122.07.181.107l.12.073c.141.088.279.177.414.269l.022.015a16.778,16.778,0,0,1,4.66,4.856,42.408,42.408,0,0,1,7.222-2.237,37.763,37.763,0,0,1,9.835-.533l1.521-2.087h0l.338-.463h3.194l.19,3.069c1.679.217,3.353.472,5.018.726l1.624.251V218.28l9.053-.275a5.623,5.623,0,0,0,.2,1.584,21.288,21.288,0,0,1,.181,4.528q1.563.378,3.1.844c2.464.751,4.862,1.686,7.247,2.655a3.206,3.206,0,0,0-.3-1.015c-.34-.445,2.145-.96,2.145-.96s.24-.045.641-.114v3.108q1.06.432,2.121.855l-.025-.6.423.757c.12.049.243.1.365.148h.018q1.15.445,2.311.865l19.305-.189v1.484h.016a16.619,16.619,0,0,0,2.03-.877l-.027-.637h0l1.168-.012h.6v-3.385l.8.018v-1.244l-3.225-3.252h0a8.371,8.371,0,0,0,3.516-7.6h0a.494.494,0,0,0-.01-.123c0-.076-.012-.148-.019-.227C223.3,214.9,224.841,213.973,223.519,212.123Zm-20.54-10.372a2.952,2.952,0,0,1-.211,1.266c-.4.742-.512,2.375.34,2.772s.972,1.978.941,2.205h-.009a4.563,4.563,0,0,0-2.009,1.307h0a15.186,15.186,0,0,1-3.13-.067c-.34-.226-7.373.283-7.866.34-.174.019-.91.068-1.791.122l5.723-7.585a.583.583,0,0,1,.07.148c.227.917,4.434.3,5-.92a2.209,2.209,0,0,1,.625-.717Zm-29.861-19-4.663,2.959,4.662-2.958Zm-50.1-3.351.325-.465h0l.417.135,1.006.329Zm27.695,0h-2.682c-.677-1.929-2.1-4.9-4.538-5.458-3.667-.849-8.014-2.205-8.014-2.205A8.888,8.888,0,0,0,133.334,170a.594.594,0,0,0-.326-.043h0l1.319-2.671h0a12.837,12.837,0,0,1,2-1.4c.27-.148.61-.316.977-.5.217-.11.445-.223.674-.335a4.888,4.888,0,0,0,.226,1.852,9.012,9.012,0,0,0,1.621,1.952C140.35,169.306,147.395,176.166,150.716,179.4Zm1.238-32.482.132-.206q.565-.89,1.26-1.781Zm18.337,43.5h0v18.505l.187-.18h0l-.187.18v6.926h0Zm25.378,34.7.039.125Z" transform="translate(-71.435 -110.428)" fill="url(#a)"/><path d="M235.542,139.691c-1.5,6.382-4.436,12.912-9.774,16.551-.194.135-.395.264-.594.39h0c-.3.181-.594.356-.89.521-.077.043-.148.083-.232.123a16.409,16.409,0,0,1-2.009.873c-5.09,1.836-10.935,1.238-16.193-.332q-1.478-.445-2.928-.968c-.767-.275-1.529-.564-2.288-.861h-.018c-.12-.046-.242-.094-.361-.148l-.395-.148q-1.051-.419-2.1-.852c-.822-.337-1.643-.677-2.464-1.012-2.361-.965-4.734-1.894-7.173-2.64-1.014-.31-2.039-.594-3.069-.84-3.074-.752-6.2-1.275-9.333-1.763l-1.622-.249c-1.647-.254-3.305-.506-4.966-.723-1.727-.226-3.459-.413-5.194-.516a37.567,37.567,0,0,0-9.733.53,41.631,41.631,0,0,0-7.147,2.226c-7.533,2.995-14.756,7.284-22.707,6.56-3.963-.361-7.692-1.969-11.3-3.636a79.275,79.275,0,0,1-14.874-8.407,40.407,40.407,0,0,1-3.645-3.1c-.033-.028-.064-.059-.095-.089l-.027-.027-.036-.034-.058-.056c-.852-.831-1.661-1.7-2.435-2.6l-.7-.831c-1.119-1.365-2.164-2.795-3.16-4.259L87.7,132.9l-.183-.273q-.932-1.407-1.82-2.848c-.911-1.474-1.8-2.968-2.671-4.452-1.5-2.523-3.023-5.129-3.54-8.014a13.784,13.784,0,0,1,.095-5.214,18.846,18.846,0,0,1,.511-1.95c.031-.093.059-.184.092-.276a26.679,26.679,0,0,1,1.226-3c3.225-6.79,8.961-13.295,8.756-20.8-.162-5.788-3.842-10.77-6.632-15.843s-4.7-11.609-1.484-16.424c2.722-4.087,8.087-5.343,12.958-5.968a117.161,117.161,0,0,1,14.954-.988c3.789-.013,7.388.856,11.1.98,4.544.148,9.58-1.963,13.951-3.06l15.179-3.8c8.64-2.164,17.38-4.334,26.286-4.4s18.134,2.226,24.876,8.045a16.818,16.818,0,0,1,5.261,7.352c1.938,6.048-1.12,12.833.742,18.9,1.61,5.228,6.428,8.658,10.491,12.318A59.407,59.407,0,0,1,235.542,139.691Z" transform="translate(-76.352 -36.611)" fill="#3444b3" opacity="0.1"/><path d="M825.657,735.47l-.657.43,1.244,8.934,3.085,1.763,22.862-.226-.414-5.261Z" transform="translate(-702.775 -626.358)" fill="#3a3768"/><path d="M879.577,809.5q-1.051-.419-2.1-.852v-4.32l1.914.874v.03l.156,3.67Z" transform="translate(-756.085 -690.427)" fill="#3a3768"/><path d="M879.577,809.5q-1.051-.419-2.1-.852v-4.32l1.914.874v.03l.156,3.67Z" transform="translate(-756.085 -690.427)" opacity="0.1"/><path d="M1043,830.075a16.4,16.4,0,0,1-2.01.873h-.016V826.62l1.913.874v.031l.082,1.917Z" transform="translate(-895.311 -709.409)" fill="#3a3768"/><path d="M1043,830.075a16.4,16.4,0,0,1-2.01.873h-.016V826.62l1.913.874v.031l.082,1.917Z" transform="translate(-895.311 -709.409)" opacity="0.1"/><path d="M919.738,812.049v3.859h-.594l-22.261.217c-.767-.275-1.529-.564-2.289-.861h-.018l-.377-4.513Z" transform="translate(-770.323 -695.894)" fill="#3a3768"/><path d="M877.123,784.828H877.1c-.12-.046-.242-.094-.361-.148l-.42-.752-1.876-3.379-.2-.353-.562-1.011L875.081,775l1.606,5.184.042.132.1,1.187Z" transform="translate(-752.857 -665.45)" fill="#3a3768"/><path d="M819.41,720.36h20.369l8.44,8.553-26.332-.562Z" transform="translate(-698.015 -613.49)" fill="#3a3768"/><path d="M862.432,774.763V776l-26.23-.619-.1-1.181Z" transform="translate(-712.228 -659.34)" fill="#3a3768"/><path d="M862.432,774.763V776l-26.23-.619-.1-1.181Z" transform="translate(-712.228 -659.34)" opacity="0.1"/><path d="M841.927,703.1a32.179,32.179,0,0,1-4.67,0c-.338-.226-7.3.281-7.784.337s-5.438.341-5.438.341l-.395,7.934,17.668-2.757Z" transform="translate(-710.235 -604.171)" fill="#f3b4b3"/><path d="M841.927,703.1a32.179,32.179,0,0,1-4.67,0c-.338-.226-7.3.281-7.784.337s-5.438.341-5.438.341l-.395,7.934,17.668-2.757Z" transform="translate(-710.235 -604.171)" opacity="0.1"/><path d="M601.445,611.66l19.951,4.67.807,12.259-23.523.092Z" transform="translate(-510.043 -520.922)" fill="#3a3768"/><path d="M637.609,466.87l-14.369,8.354,3.5,10.427.8,13.461,10.38-2.22,5.2-10.672,4.641-6.5-4.267-7.869Z" transform="translate(-530.958 -397.621)" fill="#3a3768"/><path d="M188.09,373.585s-4.877-10.142-2.431-18.593a17.048,17.048,0,0,0-.362-10.78A28.679,28.679,0,0,0,183,339.5" transform="translate(-164.672 -294.582)" fill="none" stroke="#535461" stroke-miterlimit="10" stroke-width="2"/><path d="M165.817,292.017c.214,1.306-1.533,5.479-1.533,5.479s-2.982-3.4-3.2-4.708a2.4,2.4,0,0,1,4.728-.772Z" transform="translate(-145.986 -252.434)" fill="#3444b3"/><path d="M201.047,328.737c-.53,1.212-4.264,3.767-4.264,3.767s-.656-4.476-.125-5.689a2.4,2.4,0,0,1,4.388,1.922Z" transform="translate(-176.127 -282.558)" fill="#3444b3"/><path d="M207.833,406.6c-1.07.778-5.583,1.1-5.583,1.1s1.695-4.2,2.765-4.973a2.4,2.4,0,0,1,2.82,3.875Z" transform="translate(-181.065 -348.035)" fill="#3444b3"/><path d="M204.556,473.408c-.923.948-5.316,2.024-5.316,2.024s.96-4.42,1.883-5.368a2.4,2.4,0,1,1,3.433,3.344Z" transform="translate(-178.502 -405.153)" fill="#3444b3"/><path d="M159.358,355.315c1.086.757,5.6.987,5.6.987s-1.781-4.155-2.861-4.917a2.4,2.4,0,1,0-2.743,3.93Z" transform="translate(-143.625 -304.308)" fill="#3444b3"/><path d="M151.529,430.225c1.261.4,5.64-.735,5.64-.735s-2.939-3.439-4.2-3.836a2.4,2.4,0,0,0-1.44,4.571Z" transform="translate(-136.487 -367.869)" fill="#3444b3"/><path d="M159.066,505.867c1.177.605,5.684.23,5.684.23s-2.317-3.885-3.494-4.491a2.4,2.4,0,1,0-2.191,4.261Z" transform="translate(-143.183 -432.404)" fill="#3444b3"/><path d="M165.817,292.017c.214,1.306-1.533,5.479-1.533,5.479s-2.982-3.4-3.2-4.708a2.4,2.4,0,0,1,4.728-.772Z" transform="translate(-145.986 -252.434)" opacity="0.25"/><path d="M201.047,328.737c-.53,1.212-4.264,3.767-4.264,3.767s-.656-4.476-.125-5.689a2.4,2.4,0,0,1,4.388,1.922Z" transform="translate(-176.127 -282.558)" opacity="0.25"/><path d="M207.833,406.6c-1.07.778-5.583,1.1-5.583,1.1s1.695-4.2,2.765-4.973a2.4,2.4,0,0,1,2.82,3.875Z" transform="translate(-181.065 -348.035)" opacity="0.25"/><path d="M204.556,473.408c-.923.948-5.316,2.024-5.316,2.024s.96-4.42,1.883-5.368a2.4,2.4,0,1,1,3.433,3.344Z" transform="translate(-178.502 -405.153)" opacity="0.25"/><path d="M159.358,355.315c1.086.757,5.6.987,5.6.987s-1.781-4.155-2.861-4.917a2.4,2.4,0,1,0-2.743,3.93Z" transform="translate(-143.625 -304.308)" opacity="0.25"/><path d="M151.529,430.225c1.261.4,5.64-.735,5.64-.735s-2.939-3.439-4.2-3.836a2.4,2.4,0,0,0-1.44,4.571Z" transform="translate(-136.487 -367.869)" opacity="0.25"/><path d="M159.066,505.867c1.177.605,5.684.23,5.684.23s-2.317-3.885-3.494-4.491a2.4,2.4,0,1,0-2.191,4.261Z" transform="translate(-143.183 -432.404)" opacity="0.25"/><path d="M111.47,399.706s-8.569-7.3-9.756-16.013a17.058,17.058,0,0,0-4.706-9.709A28.676,28.676,0,0,0,93,370.61" transform="translate(-88.029 -321.075)" fill="none" stroke="#535461" stroke-miterlimit="10" stroke-width="2"/><path d="M62.257,327.087c.724,1.107.818,5.631.818,5.631s-4.1-1.9-4.828-3.008a2.4,2.4,0,1,1,4.007-2.622Z" transform="translate(-58.07 -283.042)" fill="#3444b3"/><path d="M109.568,346.325c0,1.324-2.375,5.171-2.375,5.171s-2.413-3.826-2.419-5.148a2.4,2.4,0,1,1,4.792-.022Z" transform="translate(-98.055 -298.313)" fill="#3444b3"/><path d="M155.467,410.991c-.663,1.144-4.659,3.265-4.659,3.265s-.148-4.521.512-5.666a2.4,2.4,0,1,1,4.147,2.4Z" transform="translate(-137.246 -352.4)" fill="#3444b3"/><path d="M177.824,474.7c-.46,1.239-4.04,4.007-4.04,4.007s-.908-4.433-.454-5.678a2.4,2.4,0,1,1,4.494,1.667Z" transform="translate(-156.329 -406.959)" fill="#3444b3"/><path d="M82.527,387.939c1.3.252,5.522-1.368,5.522-1.368s-3.31-3.084-4.608-3.336a2.4,2.4,0,1,0-.914,4.705Z" transform="translate(-77.458 -331.788)" fill="#3444b3"/><path d="M105.091,459.565c1.315-.148,4.86-2.956,4.86-2.956s-4.08-1.953-5.395-1.8a2.4,2.4,0,0,0,.534,4.761Z" transform="translate(-96.058 -392.767)" fill="#3444b3"/><path d="M142.943,525.631c1.321.076,5.291-2.094,5.291-2.094s-3.692-2.613-5.013-2.691a2.4,2.4,0,1,0-.278,4.785Z" transform="translate(-128.637 -449.011)" fill="#3444b3"/><path d="M688.8,740.429v6.331l-1.622-.249c-1.647-.254-3.305-.506-4.966-.723l-.188-3.054-.015-.275L681.8,739l6.353,1.293.184.037Z" transform="translate(-589.445 -634.793)" fill="#3a3768"/><path d="M688.8,740.429v6.331l-1.622-.249c-1.647-.254-3.305-.506-4.966-.723l-.188-3.054-.015-.275L681.8,739l6.353,1.293.184.037Z" transform="translate(-589.445 -634.793)" opacity="0.1"/><path d="M504.893,744.62l-1.9,2.625-.2.275-.334.462-1.506,2.078a37.568,37.568,0,0,0-9.733.53,41.632,41.632,0,0,0-7.147,2.226,16.661,16.661,0,0,0-4.611-4.831c-.233-.159-.475-.312-.724-.462-.159-.094-.319-.186-.484-.275A13.685,13.685,0,0,0,475.04,746Z" transform="translate(-413.371 -639.579)" fill="#3a3768"/><path d="M128.7,673.31l3.632-5.175.318-.445.19-.272,1.659-2.366h-.052c-.594-.027-6.048-.248-11.914-.4q.89,1.438,1.82,2.848l.183.273.309.457c1,1.465,2.041,2.894,3.16,4.259Z" transform="translate(-113.177 -571.477)" fill="#3a3768"/><path d="M184.773,503.44l-1.607,1.024-3.614,2.3-5.819,3.71-.43.273h0l.138,4.294-25.567,1.241h-28.19l-7.6-1.9-.159-.04h0l-.159-.04-1.5-.377-6.61-1.649-22.368-2.6a18.85,18.85,0,0,1,.511-1.95c.031-.093.059-.184.092-.276a26.674,26.674,0,0,1,1.226-3c11.782-.827,25.351-.978,28.912-1l.89-.007Z" transform="translate(-78.048 -434.192)" fill="#3a3768"/><path d="M504.911,744.62,475.06,746a13.787,13.787,0,0,1,4.417,1.981h23Z" transform="translate(-413.388 -639.579)" opacity="0.1"/><path d="M134.479,665.014l-1.656,2.366-.19.272-.318.445h-.588l-6.9.083-.315-.448-.183-.273q-.932-1.407-1.82-2.848c5.867.148,11.325.375,11.914.4Z" transform="translate(-113.16 -571.443)" opacity="0.1"/><path d="M175.111,535.452v31.369H136.556L136,561.57s-4.621-.267-9.943-1.131c-.306-.052-.614-.1-.926-.157-1.267-.22-2.562-.473-3.83-.767l-.254-.059q-.712-.166-1.408-.352c-.456-.119-.9-.246-1.343-.377q-.937-.283-1.809-.594a14.1,14.1,0,0,1-4.81-2.64l-.821-.021h0l-9.173-.232H101.3l-5.427-.139-.5-.012h0l-7.609.092-.183-.273q-.932-1.407-1.82-2.848c-.911-1.474-1.8-2.968-2.671-4.452-1.5-2.523-3.023-5.129-3.54-8.014a13.784,13.784,0,0,1,.095-5.214,18.847,18.847,0,0,1,.511-1.95h30.28l.184.055h0l1,.3.159.047h0l.159.047c2.738.816,8.372,2.444,9.82,2.444H124.3l13.14.033,12.156.034c8.8.021,17.435.044,22.055.056Z" transform="translate(-76.403 -458.88)" fill="#3a3768"/><path d="M175.086,533.559v31.369H136.53l-.552-5.251s-4.6-.267-9.911-1.128c-.177-.031-.356-.059-.536-.089-1.315-.224-2.671-.482-3.992-.781l-.183-.042-.12-.028-.322-.077c-.436-.1-.87-.209-1.3-.323q-.7-.184-1.383-.39c-.634-.189-1.247-.392-1.834-.606a14.081,14.081,0,0,1-4.749-2.616l-.371-.01h0l-9.385-.237h-.378L96.04,553.2l-.46-.012h-.23l-7.8.095q-.932-1.407-1.82-2.848c-.911-1.474-1.8-2.968-2.671-4.452-1.5-2.523-3.023-5.129-3.54-8.014a13.784,13.784,0,0,1,.095-5.214,18.843,18.843,0,0,1,.511-1.95c.031-.094.059-.184.092-.276h30.192l.214.067c.212.064.571.174,1.039.312l.157.047h0c.05.015.1.033.157.048,2.762.812,8.326,2.416,9.764,2.416h2.671l13.286.034,12.124.031,22.236.059Z" transform="translate(-76.378 -457.262)" opacity="0.1"/><path d="M175.111,535.452v31.369H136.556L136,561.57s-4.621-.267-9.943-1.131c-.306-.052-.614-.1-.926-.157-1.267-.22-2.562-.473-3.83-.767l-.254-.059q-.712-.166-1.408-.352c-.456-.119-.9-.246-1.343-.377q-.937-.283-1.809-.594a14.1,14.1,0,0,1-4.81-2.64l-.821-.021h0l-9.173-.232H101.3l-5.427-.139-.5-.012h0l-7.609.092-.183-.273q-.932-1.407-1.82-2.848c-.911-1.474-1.8-2.968-2.671-4.452-1.5-2.523-3.023-5.129-3.54-8.014a13.784,13.784,0,0,1,.095-5.214,18.847,18.847,0,0,1,.511-1.95h30.28l.184.055h0l1,.3.159.047h0l.159.047c2.738.816,8.372,2.444,9.82,2.444H124.3l13.14.033,12.156.034c8.8.021,17.435.044,22.055.056Z" transform="translate(-76.403 -458.88)" opacity="0.1"/><path d="M654.741,466.87v4.969l-8.016,5.988-3.455-3.643Z" transform="translate(-548.016 -397.621)" fill="#3a3768"/><path d="M654.741,466.87v4.969l-8.016,5.988-3.455-3.643Z" transform="translate(-548.016 -397.621)" opacity="0.1"/><path d="M678.714,500.859l-4.148-.509-8.016,5.988v3.133Z" transform="translate(-567.841 -426.132)" fill="#3a3768"/><path d="M680.465,466.87v10.4l2.671,2.947L666.55,496.236V480.96l12.164-8.612-4.148-.509V466.87Z" transform="translate(-567.841 -397.621)" fill="#3a3768"/><path d="M680.465,466.87v10.4l2.671,2.947L666.55,496.236V480.96l12.164-8.612-4.148-.509V466.87Z" transform="translate(-567.841 -397.621)" opacity="0.1"/><path d="M698.945,554.054l10.871-.594-.83,8.637-12.622,16.821.37-12.15H687.06Z" transform="translate(-585.307 -471.36)" opacity="0.1"/><path d="M700.813,554.054l10.871-.594-.828,8.637-12.622,16.821.368-12.15H688.93Z" transform="translate(-586.899 -471.36)" fill="#3a3768"/><path d="M744.9,590.99h-5.528l-7,7.738h3.409l-.074,2.48Z" transform="translate(-623.892 -503.32)" opacity="0.1"/><path d="M742.42,590.99h-5.528l-7,7.738H733.3l-.076,2.48Z" transform="translate(-621.78 -503.32)" opacity="0.1"/><path d="M743.66,590.99h-5.528l-7,7.738h3.409l-.076,2.48Z" transform="translate(-622.836 -503.32)" fill="#dce6f2"/><path d="M680.415,654.04l-12.625.384V645.1l3.321-3.207h9.672Z" transform="translate(-568.896 -546.666)" opacity="0.1"/><path d="M679.175,655.28l-12.625.384v-9.328l3.321-3.207h9.672Z" transform="translate(-567.841 -547.722)" fill="#3a3768"/><path d="M679.175,655.28l-12.625.384v-9.328l3.321-3.207h9.672Z" transform="translate(-567.841 -547.722)" opacity="0.1"/><path d="M828.041,703.134a8.731,8.731,0,0,1-2.026,1.144s-14.363.844-16.389.844a39.121,39.121,0,0,0-4.768.551l-.518.08c-.669.108-1.27.211-1.72.3l-.2.036c-.4.068-.635.113-.635.113s-2.459.506-2.122.956a3.264,3.264,0,0,1,.3,1.009c-2.361-.965-4.734-1.894-7.173-2.64-1.014-.31-2.039-.594-3.069-.84a21.283,21.283,0,0,0-.18-4.506,5.547,5.547,0,0,1-.2-1.575.794.794,0,0,1,.013-.18c.083-.788.445-1.086.521-1.677.056-.445,1.113-.776,2.3-1.072l.278-.068.182-.045c.714-.172,1.432-.338,1.972-.521.042-.013.08-.027.117-.042a3.727,3.727,0,0,0,.4-.169c.033-.019.065-.036.095-.055,1.126-.675,12.549-2.475,13.449-2.756a8.563,8.563,0,0,0,2.25-1.52,1.322,1.322,0,0,1,.229-.554,4.513,4.513,0,0,1,1.989-1.3h.009l1.094-.844a33.527,33.527,0,0,1,8.7,0c.328.049.653.105.978.171a14.182,14.182,0,0,1,3.445,1.115,7.406,7.406,0,0,1,3.032,2.553,6.214,6.214,0,0,1,.844,2.008,12.39,12.39,0,0,1,.26,1.581c.012.119.022.234.028.35A8.349,8.349,0,0,1,828.041,703.134Z" transform="translate(-681.028 -590.947)" fill="#f3b4b3"/><path d="M631.948,373.147H626.49l.89-2.927h2.766s10.353-7.483,10.972-5.457S631.948,373.147,631.948,373.147Z" transform="translate(-542.344 -315.8)" fill="#ffcace"/><path d="M628.9,497.906c-.956,1.633-13.222-.562-13.222-.562l-3.207-3.207,2.078-1.126,1.312.764,1.389.81S629.856,496.274,628.9,497.906Z" transform="translate(-530.405 -425.31)" fill="#ffcace"/><path d="M369.573,605.044s-.917.571-2.1,1.3c-1.738,1.071-4.037,2.47-4.776,2.8-1.238.563-2.474,2.532-4.052,4.108a7.417,7.417,0,0,0-1.662,3.356,10.714,10.714,0,0,0-.249,1.315l-2.364.954-3.544-.337v-5.957s.506-2.477,1.463-2.588a.952.952,0,0,0,.257-.073c1.021-.43,2.793-2.533,4.188-3.361,1.248-.742,2.213-2.982,2.516-3.755.065-.169.1-.267.1-.267l4.3-2.226Z" transform="translate(-307.595 -516.694)" fill="#ffcace"/><path d="M417.909,604.976s-.917.571-2.1,1.3a20.219,20.219,0,0,1-3.87-2.968c-1.1-1.345-3.578-.792-4.353-.577.065-.169.1-.267.1-.267l4.3-2.226Z" transform="translate(-355.931 -516.626)" opacity="0.1"/><path d="M418.7,446.816a5.741,5.741,0,0,0-.675,1.689c0,.5-3.117,3.71-3.117,3.71l-6.074,6.923s-2.2,1.684-2.033,3.376-2.155,4.473-2.155,4.473-5.442-3.117-6.76-4.727c-1.293-1.575-4.472-.545-4.586-.508.186-.193,9.13-9.384,10.969-10.97s0-1.6,0-2.195c0-.393-6.049-2.44-10.074-3.759-2.009-.657-3.514-1.135-3.514-1.135l3.29-7.259L399.461,435a18.561,18.561,0,0,0,3.882.76.594.594,0,0,1,.322.043,8.793,8.793,0,0,1,2.125,1.729s4.3,1.351,7.934,2.195S418.7,446.816,418.7,446.816Z" transform="translate(-341.53 -375.909)" fill="#575988"/><path d="M357.027,671.756a10.705,10.705,0,0,0-.249,1.315l-2.364.954-3.544-.337v-5.957s.506-2.477,1.463-2.588a.952.952,0,0,0,.257-.073h0c-2.59,1.125-.061,7.219-.061,7.219C355,670.054,356.38,670.913,357.027,671.756Z" transform="translate(-307.629 -571.835)" opacity="0.1"/><path d="M337.27,673.358l-.561,4.725a58.243,58.243,0,0,1-.445,6.753,2.045,2.045,0,0,1-2.366,1.8c-3.937-1.463-4.5-6.92-4.023-8.047s-.252-5.343-.252-5.343h-1.474a14.476,14.476,0,0,1-.843-4.613,2.411,2.411,0,0,1,1.407-1.837,12.6,12.6,0,0,1,3.546-1.257h0c-2.59,1.124.027,7.483.027,7.483C336.03,669.643,337.27,673.358,337.27,673.358Z" transform="translate(-287.559 -572.235)" fill="#575988"/><path d="M628,406.457H626.49l.89-2.927h1.088A9.052,9.052,0,0,0,628,406.457Z" transform="translate(-542.344 -349.11)" opacity="0.1"/><path d="M548.485,274.319l1.4-2s.66,5.322-.92,6.678L547,283.863l-1.307,6.018a11.617,11.617,0,0,1,2.793,1c.246.355,5.395.438,5.395.438s-1.435,3.882,0,4.727l-11.9-.844-2.869-2.026,2.193-12.49,3.281-4.831Z" transform="translate(-467.932 -237.372)" fill="#575988"/><path d="M548.485,274.319l1.4-2s.66,5.322-.92,6.678L547,283.863l-1.307,6.018a11.617,11.617,0,0,1,2.793,1c.246.355,5.395.438,5.395.438s-1.435,3.882,0,4.727l-11.9-.844-2.869-2.026,2.193-12.49,3.281-4.831Z" transform="translate(-467.932 -237.372)" opacity="0.1"/><path d="M837.773,597.736l-13.759-6.678s-4.84,5.286-5.628,1.974,2.477-5.571,2.477-5.571l23.351,5.458Z" transform="translate(-705.656 -505.743)" fill="#ffcace"/><path d="M837.773,597.736l-13.759-6.678s-4.84,5.286-5.628,1.974,2.477-5.571,2.477-5.571l23.351,5.458Z" transform="translate(-705.656 -505.743)" opacity="0.05"/><path d="M397.2,295.47l-2.061,2.659-.251.324-1.876,2.419s-1.756.841-3.117,1.529c-.362.183-.7.355-.965.5a12.765,12.765,0,0,0-1.981,1.4c-.433.359-.72.629-.72.629l-2.532.508s-17.3-9.538-13.167-11.31a16.036,16.036,0,0,0,3.17-1.965,63.255,63.255,0,0,0,7.076-6.563c.251-.267.389-.418.389-.418h0l2.523-1.434,8.1,7.036Z" transform="translate(-323.824 -247.098)" fill="#ffcace"/><path d="M559.177,211.414a7.193,7.193,0,0,0-2.839,1.251,16.38,16.38,0,0,0-4.105,4.575,27.8,27.8,0,0,0-2.213,4.216S538.753,206.6,545.5,207.868a14.544,14.544,0,0,0,3.065.267,9.2,9.2,0,0,0,3.651-.79,5.6,5.6,0,0,0,2.315-1.8S564.748,210.4,559.177,211.414Z" transform="translate(-471.542 -180.512)" fill="#ffcace"/><path d="M934.441,447.022s-7.934,7.541-7.821,5.009a4.483,4.483,0,0,0-.114-1.082,30.978,30.978,0,0,0-2.358-6.085c-.656-1.356-1.187-2.336-1.187-2.336s9.9-4.388,9.509-2.87a6.252,6.252,0,0,0,.316,2.513c.288,1.094.7,2.3,1.039,3.243S934.441,447.022,934.441,447.022Z" transform="translate(-794.815 -379.604)" fill="#ffcace"/><path d="M618.63,211.414a7.193,7.193,0,0,0-2.839,1.251c-1.882-.942-1.989-2.829-2.614-4.872-.065-.211.114-1.226.068-1.444,1.658-.761.742-.8.742-.8S624.2,210.4,618.63,211.414Z" transform="translate(-530.995 -180.512)" opacity="0.1"/><path d="M619.76,160.994a7.717,7.717,0,1,1-2.26-5.5A7.765,7.765,0,0,1,619.76,160.994Z" transform="translate(-523.388 -135.956)" fill="#ffcace"/><path d="M459.628,295.436l-2.061,2.66-.251.324c-.086.007-.171.013-.255.015a1.985,1.985,0,0,1-2.078-1.484,7.984,7.984,0,0,0-1.168-2.078c-.249-.34-.528-.684-.828-1.039-3.2-3.71-8.9-7.674-9.786-8.281.251-.267.389-.419.389-.419h0l2.523-1.434,8.1,7.036Z" transform="translate(-386.256 -247.064)" opacity="0.1"/><path d="M552.233,230.1a27.8,27.8,0,0,0-2.213,4.216s-11.267-14.854-4.516-13.588a14.544,14.544,0,0,0,3.065.267,20.215,20.215,0,0,1,2.248,4.725,10.961,10.961,0,0,1,.53,2.133A6.991,6.991,0,0,0,552.233,230.1Z" transform="translate(-471.542 -193.374)" opacity="0.1"/><path d="M469.321,230.941a36.378,36.378,0,0,1-2.069,3.461,28.355,28.355,0,0,1-3.265,2.431c-.4.254-.821.5-1.242.72a7,7,0,0,1-2.956.944,1.983,1.983,0,0,1-2.078-1.484,8.015,8.015,0,0,0-1.169-2.085c-.249-.338-.528-.683-.828-1.031-3.479-4.026-9.9-8.361-9.9-8.361h0a56.689,56.689,0,0,1,4.387-5.272c2.11-2.149,12.153-5.868,12.407-6.205a.534.534,0,0,1,.048-.056.956.956,0,0,1,1.465.119,3.448,3.448,0,0,0,1.02.966c.684.413,1.8,3.158,2.443,4.89a10.869,10.869,0,0,1,.53,2.134,7.131,7.131,0,0,0,.917,2.3S469.869,229.76,469.321,230.941Z" transform="translate(-388.479 -187.465)" fill="#575988"/><path d="M615.863,493.774a4.269,4.269,0,0,1-2.064,1.69l-1.328-1.328,2.078-1.126Z" transform="translate(-530.405 -425.31)" opacity="0.1"/><path d="M514.633,285.87s-1.052,4.749-1.8,8.214a7.034,7.034,0,0,1-2.958.942l-2.127,2.743s-1.756.841-3.117,1.529c0-.221-.007-.457-.007-.7a29.514,29.514,0,0,1,1.046-7.662c.045-.163.089-.331.135-.5.233-.856.484-1.8.727-2.76.393-1.535.769-3.093,1.017-4.335a3.614,3.614,0,0,1,4.136-3.207C515.562,279.706,514.633,285.87,514.633,285.87Z" transform="translate(-438.561 -243.994)" opacity="0.1"/><path d="M527.142,288.1s-.853,3.859-1.575,7.158c-.4.254-.821.5-1.242.72a7.016,7.016,0,0,1-2.958.944,1.983,1.983,0,0,1-2.078-1.484,8.014,8.014,0,0,0-1.169-2.085c.018-.07.037-.141.056-.212.622-2.287,1.438-5.411,1.871-7.578a3.614,3.614,0,0,1,4.136-3.207C528.071,281.944,527.142,288.1,527.142,288.1Z" transform="translate(-450.057 -245.894)" opacity="0.1"/><path d="M516.211,280.127a3.61,3.61,0,0,0-4.135,3.207c-.433,2.165-1.251,5.291-1.873,7.578a29.566,29.566,0,0,0-1.054,7.76,5.778,5.778,0,0,0,.226,2.133,8.92,8.92,0,0,0,1.6,1.941c.675.591,12.466,12.153,12.466,12.153s4.329-1.351,3.991-3.038c0,0-6.836-6.5-7.174-7.765,0,0-3.882-5.267-3.629-6.6s2.532-11.629,2.532-11.629S520.094,279.7,516.211,280.127Z" transform="translate(-442.418 -243.992)" fill="#575988"/><path d="M387.1,352.273l-.165.335c-.433.359-.72.629-.72.629l-2.532.508s-17.3-9.538-13.167-11.31a16.038,16.038,0,0,0,3.17-1.965c2.894.229,6.959,3.315,6.959,3.315C384.155,345.96,387.1,352.273,387.1,352.273Z" transform="translate(-323.816 -295.408)" opacity="0.1"/><path d="M403.661,435.828l-3.783.89-5.684,8.14c-2.009-.657-3.514-1.135-3.514-1.135l3.29-7.259,5.491-1.435a18.559,18.559,0,0,0,3.882.76A.594.594,0,0,1,403.661,435.828Z" transform="translate(-341.53 -375.935)" opacity="0.1"/><path d="M160.088,399.072c.775.9,1.584,1.781,2.435,2.6l.058.056.036.034.027.027c.031.03.062.061.095.089a40.4,40.4,0,0,0,3.652,3.109c1.138-1.336,2.848-2.919,2.848-2.919l8.271-7.09a11.309,11.309,0,0,1,1.512-1.158h0c.148-.092.3-.181.445-.264h0a5.572,5.572,0,0,1,.565-.267c1.269-.506,2.452-3.71,2.452-3.71l6.245-8.44.908-1.811,2.832-5.662.137-.275,2.375-4.749,1.512-2.165.324-.463,5.592-8.005,3.97-.925,1.306-2.652s-2.944-6.309-6.454-8.489c0,0-4.32-3.281-7.225-3.329l-.055.037a26.3,26.3,0,0,1-2.523,1.532h0c-.131.068-.261.132-.386.19h0a2.5,2.5,0,0,1-1.285.341c-.928-.212-7.42,7.469-8.014,10.844s-1.266,3.546-1.266,3.546-1.1,3.117-.929,3.71c.125.436-.76,2.061-1,3.666a3.8,3.8,0,0,0,.07,1.652,6.193,6.193,0,0,1,.206,2.416,1.97,1.97,0,0,1-.03.264h0a6.766,6.766,0,0,1-.769,2.375c-.4.687-.763,2.465-1.245,3.771a3.347,3.347,0,0,1-.779,1.377c-.929.76-2.28,4.221-2.28,4.221s-2.953,3.8-3.71,4.05c-.506.169-2.735,2.585-4.164,4.179-.72.8-1.238,1.392-1.238,1.392l-.83.963-.251.286-.4.466-3.741,4.342Z" transform="translate(-144.566 -297.239)" fill="#575988"/><path d="M211.99,356.455c-.015.015-.966.89-2.005,1.817-.742.657-1.529,1.336-2.051,1.736-1.217.931-5.039,7.717-5.2,8.022L201.04,374.6c-.062.3-.463,2.214-.852,3.551a3.847,3.847,0,0,1-.527,1.3,13.365,13.365,0,0,0-.939,3.18c-.019.086-.04.172-.058.258-.148.674-.3,1.348-.408,1.914l-1.106,4.295-2.437,9.464c-.04.092-.879,1.992-2.165,2.422a28.344,28.344,0,0,0-3.906,4l-.237.27c-2.124,2.4-4.743,5.478-7.1,8.3-.033-.028-.064-.059-.095-.089l-.027-.027c2.115-2.516,4.786-5.66,7.014-8.179l.237-.27a28.517,28.517,0,0,1,4.071-4.155c1.214-.405,2.05-2.3,2.058-2.318l2.428-9.449,1.106-4.3c.04-.2.2-1,.41-1.929.018-.085.039-.171.058-.258a12.519,12.519,0,0,1,1-3.265,3.68,3.68,0,0,0,.459-1.171c.3-1.017.632-2.486.861-3.59l1.7-6.607c.162-.3,3.989-7.124,5.255-8.084.519-.4,1.3-1.073,2.044-1.732.853-.754,1.646-1.484,1.91-1.727.055-.052.088-.08.091-.083Z" transform="translate(-163.122 -308.906)" fill="#575988"/><path d="M211.243,356.481c-.016.013-.908.841-1.91,1.732-.769.683-1.6,1.4-2.146,1.821-1.218.931-5.046,7.717-5.206,8.022l-1.684,6.573c-.062.3-.465,2.214-.853,3.551a3.847,3.847,0,0,1-.527,1.3,13.47,13.47,0,0,0-.928,3.133c-.021.086-.039.172-.059.258-.156.69-.3,1.38-.419,1.962l-1.1,4.261-2.45,9.5c-.04.092-.879,1.992-2.165,2.422a28.166,28.166,0,0,0-3.9,3.994l-.24.27c-2.1,2.375-4.69,5.414-7.039,8.206l-.027-.027-.036-.034-.058-.056c2.106-2.5,4.74-5.6,6.941-8.093l.239-.27a29.138,29.138,0,0,1,4.066-4.155c1.215-.405,2.051-2.3,2.058-2.318l2.446-9.491,1.094-4.249c.039-.2.2-1.026.419-1.974.019-.085.039-.171.059-.258a12.3,12.3,0,0,1,.985-3.216,3.68,3.68,0,0,0,.459-1.171c.3-1.017.634-2.486.861-3.59l1.7-6.607c.163-.3,3.989-7.124,5.255-8.084.543-.416,1.376-1.135,2.145-1.818,1-.89,1.885-1.71,1.9-1.724l.079.083Z" transform="translate(-162.543 -308.932)" fill="#dce6f2"/><path d="M427.026,389.51s-1.913,4.388-.445,5.993Z" transform="translate(-371.632 -337.17)" opacity="0.1"/><path d="M448.12,406.19s-1.125,3.094-.506,3.517Z" transform="translate(-389.856 -351.375)" opacity="0.1"/><path d="M460.717,418s-.46,1.561,0,2.1Z" transform="translate(-400.999 -361.432)" opacity="0.1"/><path d="M287.17,634.806s4.052-1.405,3.939-.619S287.17,634.806,287.17,634.806Z" transform="translate(-253.382 -545.332)" opacity="0.1"/><path d="M281.86,662.939s2.2,1.012,2.759,0S281.86,662.939,281.86,662.939Z" transform="translate(-248.86 -569.637)" opacity="0.1"/><path d="M474.845,589.69s-4.5.788-4.558,1.576S474.845,589.69,474.845,589.69Z" transform="translate(-409.323 -507.642)" opacity="0.1"/><path d="M476.6,455.48s-1.828,2.078-1.548,2.869S476.6,455.48,476.6,455.48Z" transform="translate(-413.356 -393.35)" opacity="0.1"/><path d="M619.749,161.028a7.719,7.719,0,0,1-.332,2.25.742.742,0,0,0-.472-.036,1.006,1.006,0,0,1-.381.66l-1.03-1.26a.278.278,0,0,0-.114-.1c-.1-.039-.206.049-.3.11a1.118,1.118,0,0,1-1.169-.111c-.349-.221-.635-.537-1-.742a1.974,1.974,0,0,0-2.194.2,4.9,4.9,0,0,0-.742.9,3.723,3.723,0,0,1-1.12,1.086,1.725,1.725,0,0,1-1.511.148,2.947,2.947,0,0,0-.469-.212c-.508-.125-.963.322-1.29.732s-.742.873-1.266.8c-.962-.148-.876-1.842-1.8-2.149h-.009a7.765,7.765,0,1,1,15.19-2.274Z" transform="translate(-523.377 -135.99)" opacity="0.1"/><path d="M591.794,131.412c-.89-.586-1.889-.971-2.809-1.5a26.447,26.447,0,0,0-3.738-2.26,11.428,11.428,0,0,0-2.186-.5,3.342,3.342,0,0,0-1.272-.042,6.415,6.415,0,0,0-1.542.816c-1.232.666-2.809.579-3.93,1.42-1.159.873-1.468,2.453-1.7,3.885a19.314,19.314,0,0,1-2.136,7.081.49.49,0,0,0-.105.335.476.476,0,0,0,.174.236,2.726,2.726,0,0,0,2.714.84,5.367,5.367,0,0,0,1.015-.749,1.327,1.327,0,0,1,1.171-.324c.925.306.837,2,1.8,2.147.518.077.941-.384,1.266-.794s.781-.856,1.29-.732a3.083,3.083,0,0,1,.47.211,1.7,1.7,0,0,0,1.509-.148,3.693,3.693,0,0,0,1.12-1.088,4.956,4.956,0,0,1,.742-.9,1.974,1.974,0,0,1,2.193-.206c.361.2.646.519,1,.742a1.111,1.111,0,0,0,1.169.11c.094-.061.2-.148.3-.11a.3.3,0,0,1,.114.1l1.028,1.26a1.008,1.008,0,0,0,.383-.66,1.3,1.3,0,0,1,.788.148c.257.089.6.117.751-.113.12-.186.04-.432.05-.653a1.2,1.2,0,0,1,.7-.913c.353-.19.752-.3,1.092-.509a2.313,2.313,0,0,0,1.009-1.929,3.248,3.248,0,0,0-.585-1.811c-.493-.733-1-.5-1.649-.882-.38-.221-.494-.665-.712-1.021A4.88,4.88,0,0,0,591.794,131.412Z" transform="translate(-496.259 -113.666)" fill="#ffdfcf"/><path d="M931.627,441.505c-1.207,1.969-2.217,3.882-4.694,3.882a6.815,6.815,0,0,1-2.786-.594c-.656-1.356-1.187-2.336-1.187-2.336s9.9-4.388,9.509-2.87C932.342,440.088,931.347,440.444,931.627,441.505Z" transform="translate(-794.815 -379.544)" opacity="0.1"/><circle cx="6.864" cy="6.864" r="6.864" transform="translate(125.254 51.777)" fill="#ffcace"/><path d="M967.994,695.577a.488.488,0,0,1-.288-.243c-.395-.787-7.71-1.913-7.71-1.913l-1.581-2.925s-3.826.281-4.5-.445-4.334-.844-4.3-1.069a1.872,1.872,0,0,0-.01-.335h.01l1.094-.844s15.138-2.251,16.993,5.852A12.009,12.009,0,0,1,967.994,695.577Z" transform="translate(-817.501 -590.948)" opacity="0.1"/><path d="M954.786,481.828s-7.934,7.541-7.821,5.009a4.487,4.487,0,0,0-.114-1.082l.022-.085a23.107,23.107,0,0,0,2.516-3.057c.35-.659,3.117-1.781,4.788-2.4C954.515,481.158,954.786,481.828,954.786,481.828Z" transform="translate(-815.159 -414.41)" opacity="0.1"/><path d="M945.165,478.22s-5.571,1.914-6.085,2.87a24.008,24.008,0,0,1-2.5,3.057l-1.817,7.8,1.068,10.748a6.746,6.746,0,0,1-.113,2.756c-.395.73-.506,2.364.338,2.757s.962,1.969.931,2.195,3.627.337,4.3,1.069,4.5.445,4.5.445l1.569,2.925s7.315,1.125,7.71,1.913,2.7-.113,1.187-2.251-.732-5.513-.732-5.513-.445-14.854-2.82-18.343c0,0-3.376-8.1-3.939-8.44S944.827,479.514,945.165,478.22Z" transform="translate(-804.864 -412.715)" fill="#dce6f2"/><path d="M1004.87,650.54s10.015,8.014,9.339,9.48S1004.87,650.54,1004.87,650.54Z" transform="translate(-864.569 -559.461)" opacity="0.1"/><path d="M1008.87,682.94s5.846,2.916,5.033,4.807Z" transform="translate(-867.975 -587.053)" opacity="0.1"/><path d="M961.65,633.9s3.151-.148,3.265.436Z" transform="translate(-827.763 -545.279)" opacity="0.1"/><path d="M957.1,650.54s4.614,1.153,4.614,1.828Z" transform="translate(-823.888 -559.461)" opacity="0.1"/><path d="M777.75,521.828l-5.263,4.814s-3.413,1.269-3.97,2.48-4.727,1.828-4.951.914-6.414-5.95-6.414-5.95-3.376-3.038-4.164-5.285-3.71-4.138-3.71-4.138-8.89-2.389-7.539-5.709,10.457,2.753,10.457,2.753,5.628,4.05,6.53,5.289,7.314,3.963,7.314,3.963c-.059-.576,1.1-2,2.214-3.231,1.02-1.123,2.006-2.078,2.006-2.078l7.431,6.134Z" transform="translate(-640.37 -438.043)" fill="#ffcace"/><path d="M1010.93,735.28s4.727,5.683,4.452,6.808S1010.93,735.28,1010.93,735.28Z" transform="translate(-869.729 -631.625)" opacity="0.1"/><path d="M823.64,772.05a5.684,5.684,0,0,0,2.7,3.207Z" transform="translate(-710.235 -662.938)" opacity="0.1"/><path d="M856.24,782.86s-.113,2.226,1.52,2.784S856.24,782.86,856.24,782.86Z" transform="translate(-737.996 -672.143)" opacity="0.1"/><path d="M924.411,385.154a2.751,2.751,0,0,0-1.2-2.119,1.187,1.187,0,0,0,.733-1.324c-.055.184-.275.254-.462.3-.11.025-.206.043-.3.058a8.042,8.042,0,0,0,.564-1.362,8.028,8.028,0,0,0-2.053-6.742,7.935,7.935,0,0,0-1.633-.92,8.5,8.5,0,0,0-1.633-.628c-.573-.134-1.167-.148-1.751-.226-1.134-.148-2.226-.536-3.373-.594a3.277,3.277,0,0,0-3,1.235,1.581,1.581,0,0,0-.249.971,1.767,1.767,0,0,0,1.129,1.336c.568.243,1.175.248,1.75.432.675.217,1.336.491,2.011.726a2.55,2.55,0,0,1,1,.527,2.928,2.928,0,0,1,.58,1.655,7.106,7.106,0,0,0,.957,2.513,2.317,2.317,0,0,1,.4.858c.053.381-.091.853.217,1.1a.782.782,0,0,0,.861-.065,2.756,2.756,0,0,1,.794-.445,1.193,1.193,0,0,1,1.009.344,1.984,1.984,0,0,1,.647,1.526,2.693,2.693,0,0,0,0,1.057c.117.307.582.491.8.279a.958.958,0,0,0,.058.108,1.42,1.42,0,0,0,1.072.551,1.065,1.065,0,0,0,.605-.079A1.1,1.1,0,0,0,924.411,385.154Z" transform="translate(-783.824 -321.908)" fill="#ffdfcf"/><path d="M329.618,680.44h-1.469a14.477,14.477,0,0,1-.843-4.613,2.411,2.411,0,0,1,1.407-1.837Z" transform="translate(-287.559 -579.431)" opacity="0.1"/><g transform="translate(76.123 17.855)" opacity="0.1"><path d="M584.455,158.177c.055-.337.114-.684.188-1.027a14.465,14.465,0,0,0-.358,1.7c-.162,1-.332,2.009-.565,3A36.714,36.714,0,0,0,584.455,158.177Z" transform="translate(-582.045 -157.15)"/><path d="M717.127,194.09c-.34.214-.742.319-1.092.509a1.206,1.206,0,0,0-.7.913,1.686,1.686,0,0,0,0,.209,1.554,1.554,0,0,1,.528-.445c.353-.19.751-.3,1.091-.509a2.274,2.274,0,0,0,.994-1.7A2.134,2.134,0,0,1,717.127,194.09Z" transform="translate(-694.121 -187.739)"/><path d="M592.848,204.166a1.222,1.222,0,0,0-.788-.148,1.008,1.008,0,0,1-.383.66l-1.029-1.26a.3.3,0,0,0-.114-.1c-.1-.037-.206.049-.3.11a1.114,1.114,0,0,1-1.169-.11c-.35-.221-.635-.537-1-.742a1.974,1.974,0,0,0-2.2.2,4.953,4.953,0,0,0-.742.89,3.7,3.7,0,0,1-1.12,1.088,1.742,1.742,0,0,1-1.509.148,3.08,3.08,0,0,0-.47-.211c-.509-.125-.963.322-1.29.732s-.742.871-1.266.794c-.963-.148-.876-1.842-1.8-2.147a1.327,1.327,0,0,0-1.171.324,5.026,5.026,0,0,1-1.015.742,2.726,2.726,0,0,1-2.714-.84.8.8,0,0,1-.111-.113c-.042.073-.082.148-.125.217a.475.475,0,0,0-.105.335.464.464,0,0,0,.172.236,2.726,2.726,0,0,0,2.714.84,5.369,5.369,0,0,0,1.015-.749,1.327,1.327,0,0,1,1.171-.324c.925.306.837,2,1.8,2.147.518.077.941-.384,1.266-.794s.782-.856,1.29-.732a2.97,2.97,0,0,1,.471.211,1.707,1.707,0,0,0,1.511-.148,3.712,3.712,0,0,0,1.119-1.088,4.96,4.96,0,0,1,.742-.9,1.972,1.972,0,0,1,2.192-.206c.361.2.647.519,1,.742a1.111,1.111,0,0,0,1.17.11c.093-.061.2-.148.3-.11a.3.3,0,0,1,.114.1l1.029,1.26a1.008,1.008,0,0,0,.383-.66,1.307,1.307,0,0,1,.789.148c.257.089.594.117.742-.113a.958.958,0,0,0,.05-.564A.769.769,0,0,1,592.848,204.166Z" transform="translate(-572.431 -195.628)"/></g><path d="M930.647,565.9a3.346,3.346,0,0,1-.279.217s-7.866-4.193-9.158-4.268c1.02-1.123,2.007-2.078,2.007-2.078Z" transform="translate(-793.325 -482.162)" opacity="0.1"/><path d="M933.643,505.92s6.975,4.561,4.5,8.778-4.5,5.56-4.5,5.56-8.22-4.383-9.234-4.268,3.562-8.084,3.562-8.084Z" transform="translate(-795.924 -436.304)" opacity="0.1"/><path d="M931.395,504.78s6.975,4.561,4.5,8.778-4.5,5.559-4.5,5.559-8.22-4.381-9.23-4.268,3.562-8.084,3.562-8.084Z" transform="translate(-794.014 -435.333)" fill="#dce6f2"/><g transform="translate(126.245 50.456)" opacity="0.1"><path d="M923.79,390.5a1.432,1.432,0,0,1-1.072-.552c-.022-.036-.04-.073-.058-.108-.217.212-.681.028-.8-.279a2.615,2.615,0,0,1,0-1.057,1.978,1.978,0,0,0-.647-1.526,1.194,1.194,0,0,0-1.009-.344,2.719,2.719,0,0,0-.794.445.781.781,0,0,1-.861.065c-.306-.245-.163-.717-.217-1.1a2.317,2.317,0,0,0-.4-.858,7.135,7.135,0,0,1-.957-2.513,2.894,2.894,0,0,0-.579-1.655,2.55,2.55,0,0,0-1-.527c-.671-.234-1.336-.509-2.012-.726-.573-.184-1.187-.194-1.748-.432A1.786,1.786,0,0,1,910.5,378a1.572,1.572,0,0,1,.251-.971,1.918,1.918,0,0,1,.148-.211,2.164,2.164,0,0,0-.488.549,1.56,1.56,0,0,0-.249.969,1.767,1.767,0,0,0,1.129,1.336c.568.243,1.175.248,1.75.432.675.217,1.336.491,2.011.726a2.517,2.517,0,0,1,1,.527,2.935,2.935,0,0,1,.58,1.656,7.1,7.1,0,0,0,.957,2.511,2.334,2.334,0,0,1,.4.859c.053.381-.09.853.217,1.1a.779.779,0,0,0,.861-.064,2.721,2.721,0,0,1,.794-.445,1.189,1.189,0,0,1,1.009.346,1.981,1.981,0,0,1,.647,1.526,2.688,2.688,0,0,0,0,1.055c.117.307.58.493.8.279a.761.761,0,0,0,.058.108,1.426,1.426,0,0,0,1.07.552,1.07,1.07,0,0,0,.607-.08.742.742,0,0,0,.315-.328A1.113,1.113,0,0,1,923.79,390.5Z" transform="translate(-910.161 -376.82)"/><path d="M1001.08,446.37l.085.059a1.235,1.235,0,0,0,.134-.169A1.075,1.075,0,0,1,1001.08,446.37Z" transform="translate(-987.587 -435.954)"/></g><path d="M265.711,172.96s5.417-.326,4.779,3.47a.927.927,0,0,1-.481.975s-.01-.28-.557-.186a2.47,2.47,0,0,1-.594.028,1.214,1.214,0,0,1-.718-.3h0a4.3,4.3,0,0,1-2.116-3.117s-.445-.543-.42-.683l.914.39a1.636,1.636,0,0,0-.067,1.208s.03-1.187.2-1.156c.036,0,.475.229.475.229a2.7,2.7,0,0,0-.132,1.984s-.148-1.416.3-1.9l.644.375a2.842,2.842,0,0,0-.2,2.155,4.039,4.039,0,0,1,.337-2.063l.583.454a2.758,2.758,0,0,0-.23,1.972s.047-1.729.356-1.86a3.561,3.561,0,0,1,.594.635s-.405.849-.148,1.3c0,0,.148-1.152.28-1.156a3.838,3.838,0,0,1,.561,1.285,2.783,2.783,0,0,0-.438-1.359,1.529,1.529,0,0,1,.778.4s-.079-.54-.9-.594a3.487,3.487,0,0,0-.533-.613,3.361,3.361,0,0,1,1.318.148,1.479,1.479,0,0,0-1.468-.278l-.576-.47a4.716,4.716,0,0,1,1.538.016,1.89,1.89,0,0,0-1.692-.123l-.628-.374a5.69,5.69,0,0,1,1.469-.128,2.255,2.255,0,0,0-1.653.027l-.445-.2s.675-.132.873-.148.208-.076.208-.076a2.339,2.339,0,0,0-1.267.141A6.492,6.492,0,0,1,265.711,172.96Z" transform="translate(-235.016 -152.752)" fill="#3444b3" opacity="0.1"/><path d="M1019.392,138.23s5.418-.326,4.78,3.47a.929.929,0,0,1-.482.977s-.009-.282-.555-.187a2.556,2.556,0,0,1-.594.03,1.224,1.224,0,0,1-.72-.3h0a4.3,4.3,0,0,1-2.115-3.117s-.438-.543-.42-.683l.914.39a1.637,1.637,0,0,0-.067,1.208s.03-1.187.2-1.156c.036,0,.475.229.475.229a2.706,2.706,0,0,0-.132,1.984s-.148-1.416.3-1.9l.644.375a2.845,2.845,0,0,0-.2,2.156,4.046,4.046,0,0,1,.337-2.064l.583.456a2.758,2.758,0,0,0-.23,1.972s.047-1.729.356-1.86a3.563,3.563,0,0,1,.594.635s-.405.849-.148,1.3c0,0,.148-1.153.281-1.158a3.836,3.836,0,0,1,.561,1.287,2.778,2.778,0,0,0-.445-1.359,1.519,1.519,0,0,1,.778.4s-.078-.539-.9-.594a3.543,3.543,0,0,0-.533-.614,3.392,3.392,0,0,1,1.318.148,1.479,1.479,0,0,0-1.468-.278l-.57-.454a4.747,4.747,0,0,1,1.538.015,1.887,1.887,0,0,0-1.692-.122l-.628-.375a5.636,5.636,0,0,1,1.469-.126,2.249,2.249,0,0,0-1.653.025l-.445-.2s.675-.134.873-.148.208-.076.208-.076a2.339,2.339,0,0,0-1.267.141A5.79,5.79,0,0,1,1019.392,138.23Z" transform="translate(-876.846 -123.176)" fill="#3444b3" opacity="0.1"/><path d="M433.133,103.25s4.035,3.632.883,5.84a.935.935,0,0,1-1.039.343s.193-.2-.258-.527a2.544,2.544,0,0,1-.433-.4,1.222,1.222,0,0,1-.3-.721h0a4.287,4.287,0,0,1,.742-3.7s.08-.693.191-.779l.364.926a1.64,1.64,0,0,0-.907.8s.864-.81.966-.665c.022.03.171.5.171.5a2.671,2.671,0,0,0-1.5,1.3s.9-1.1,1.564-1.12l.184.721a2.842,2.842,0,0,0-1.677,1.368s.981-1.119,1.707-1.207l.085.742s-1.247.4-1.567,1.22c0,0,1.266-1.187,1.576-1.051a3.554,3.554,0,0,1-.04.864s-.89.309-1.031.8c0,0,.929-.7,1.021-.613a3.834,3.834,0,0,1-.522,1.3,2.778,2.778,0,0,0,.66-1.266,1.529,1.529,0,0,1,.26.837s.328-.435-.217-1.055a3.569,3.569,0,0,0,.064-.81,3.357,3.357,0,0,1,.816,1.039s.056-.669-.833-1.241L434,105.96a4.757,4.757,0,0,1,1.067,1.107s-.049-.692-1.1-1.293l-.172-.709a5.651,5.651,0,0,1,1.122.959,2.255,2.255,0,0,0-1.18-1.161l-.174-.463s.568.387.721.513.2.095.2.095a2.334,2.334,0,0,0-.99-.8A5.716,5.716,0,0,1,433.133,103.25Z" transform="translate(-376.588 -93.394)" fill="#3444b3" opacity="0.1"/><path d="M813.056,251.33s4.035,3.63.882,5.84a.931.931,0,0,1-1.039.341s.194-.2-.257-.527a2.382,2.382,0,0,1-.433-.4,1.223,1.223,0,0,1-.3-.721h0a4.293,4.293,0,0,1,.742-3.7s.079-.693.19-.779l.364.926a1.64,1.64,0,0,0-.907.8s.864-.809.968-.665c.021.03.171.5.171.5a2.7,2.7,0,0,0-1.5,1.3s.9-1.1,1.564-1.12l.184.723a2.84,2.84,0,0,0-1.677,1.368s.981-1.12,1.707-1.208l.086.735s-1.248.4-1.567,1.22c0,0,1.264-1.18,1.575-1.051a3.55,3.55,0,0,1-.039.865s-.89.307-1.039.8c0,0,.929-.7,1.021-.611a3.876,3.876,0,0,1-.522,1.3,2.78,2.78,0,0,0,.662-1.266,1.526,1.526,0,0,1,.258.837s.329-.435-.217-1.055a3.475,3.475,0,0,0,.064-.81,3.374,3.374,0,0,1,.818,1.039s.055-.669-.833-1.241l-.07-.742a4.739,4.739,0,0,1,1.069,1.106s-.049-.692-1.1-1.291l-.174-.711a5.706,5.706,0,0,1,1.122.959,2.25,2.25,0,0,0-1.178-1.159l-.171-.462s.567.387.721.515.2.095.2.095a2.344,2.344,0,0,0-.99-.8A5.547,5.547,0,0,1,813.056,251.33Z" transform="translate(-700.127 -219.498)" fill="#3444b3" opacity="0.1"/><path d="M1108.264,106.06s4.034,3.63.881,5.84a.931.931,0,0,1-1.039.341s.193-.2-.258-.527a2.487,2.487,0,0,1-.433-.4,1.217,1.217,0,0,1-.3-.721h0a4.287,4.287,0,0,1,.742-3.7s.08-.693.192-.778l.364.925a1.64,1.64,0,0,0-.907.8s.864-.809.968-.665c.021.03.171.5.171.5a2.707,2.707,0,0,0-1.506,1.3s.9-1.1,1.564-1.12l.184.723a2.842,2.842,0,0,0-1.677,1.368s.981-1.12,1.707-1.208l.085.735s-1.247.4-1.566,1.22c0,0,1.265-1.18,1.575-1.051a3.562,3.562,0,0,1-.04.865s-.89.307-1.039.8c0,0,.929-.7,1.021-.613a3.817,3.817,0,0,1-.522,1.3,2.77,2.77,0,0,0,.66-1.266,1.534,1.534,0,0,1,.26.837s.328-.435-.217-1.055a3.564,3.564,0,0,0,.064-.81,3.358,3.358,0,0,1,.816,1.039s.056-.669-.833-1.242l-.068-.742a4.74,4.74,0,0,1,1.067,1.106s-.049-.692-1.1-1.291l-.174-.709a5.68,5.68,0,0,1,1.122.957,2.255,2.255,0,0,0-1.187-1.159l-.171-.462s.568.389.721.515.2.095.2.095a2.344,2.344,0,0,0-.99-.8A5.465,5.465,0,0,1,1108.264,106.06Z" transform="translate(-951.522 -95.787)" fill="#3444b3" opacity="0.1"/><path d="M374.383,213.578s-.389,5.414-4.069,4.282a.925.925,0,0,1-.9-.605s.281.028.258-.525a2.479,2.479,0,0,1,.049-.594,1.222,1.222,0,0,1,.389-.674h0a4.3,4.3,0,0,1,3.37-1.687s.594-.364.732-.328l-.508.855a1.636,1.636,0,0,0-1.187-.224s1.169.184,1.119.355c-.01.036-.3.445-.3.445a2.7,2.7,0,0,0-1.949-.39s1.423.033,1.845.546l-.457.594a2.84,2.84,0,0,0-2.11-.484,4.046,4.046,0,0,1,2,.606l-.528.518a2.764,2.764,0,0,0-1.929-.487s1.708.273,1.8.594a3.575,3.575,0,0,1-.708.5s-.788-.512-1.264-.322c0,0,1.12.3,1.11.429a3.829,3.829,0,0,1-1.349.387,2.765,2.765,0,0,0,1.405-.255,1.53,1.53,0,0,1-.5.718s.545-.007.7-.818a3.69,3.69,0,0,0,.678-.445,3.353,3.353,0,0,1-.324,1.287,1.477,1.477,0,0,0,.468-1.419l.542-.509a4.907,4.907,0,0,1-.217,1.523,1.871,1.871,0,0,0,.343-1.662l.454-.573a5.7,5.7,0,0,1-.067,1.474,2.259,2.259,0,0,0,.191-1.641l.258-.419s.043.686.037.89.048.217.048.217a2.346,2.346,0,0,0,.027-1.275A5.809,5.809,0,0,1,374.383,213.578Z" transform="translate(-323.417 -187.234)" fill="#3444b3" opacity="0.1"/><path d="M794.3,172.611s-.389,5.414-4.068,4.282a.926.926,0,0,1-.9-.606s.279.027.257-.527a2.563,2.563,0,0,1,.049-.594,1.221,1.221,0,0,1,.389-.674h0a4.3,4.3,0,0,1,3.37-1.687s.594-.362.732-.328l-.508.856a1.641,1.641,0,0,0-1.187-.226s1.169.186,1.119.356c-.01.034-.288.445-.288.445a2.7,2.7,0,0,0-1.95-.392s1.423.033,1.845.548l-.457.594a2.839,2.839,0,0,0-2.109-.484,4.055,4.055,0,0,1,2,.606l-.527.519a2.77,2.77,0,0,0-1.929-.488s1.708.275,1.8.594a3.661,3.661,0,0,1-.706.5s-.79-.512-1.266-.324c0,0,1.122.3,1.11.43a3.829,3.829,0,0,1-1.349.387,2.782,2.782,0,0,0,1.405-.255,1.538,1.538,0,0,1-.5.718s.545,0,.7-.819A3.565,3.565,0,0,0,792,175.6a3.342,3.342,0,0,1-.323,1.285,1.477,1.477,0,0,0,.468-1.419l.542-.509a4.907,4.907,0,0,1-.217,1.523,1.871,1.871,0,0,0,.343-1.662l.454-.571a5.693,5.693,0,0,1-.067,1.472,2.249,2.249,0,0,0,.191-1.641l.258-.419s.043.687.037.89.047.217.047.217a2.327,2.327,0,0,0,.027-1.275A5.666,5.666,0,0,1,794.3,172.611Z" transform="translate(-681.017 -152.345)" fill="#3444b3" opacity="0.1"/><path d="M1035.472,36.671s-.387,5.414-4.068,4.282a.927.927,0,0,1-.9-.606s.28.027.257-.527a2.479,2.479,0,0,1,.05-.594,1.221,1.221,0,0,1,.389-.674h0a4.3,4.3,0,0,1,3.369-1.687s.594-.362.732-.328l-.506.856a1.641,1.641,0,0,0-1.187-.226s1.169.186,1.119.356c-.01.034-.3.445-.3.445a2.7,2.7,0,0,0-1.95-.392s1.423.033,1.845.548l-.456.594a2.807,2.807,0,0,0-2.1-.482,4.054,4.054,0,0,1,2,.606l-.527.519a2.77,2.77,0,0,0-1.929-.488s1.707.275,1.8.594a3.656,3.656,0,0,1-.706.5s-.788-.512-1.266-.324c0,0,1.122.3,1.11.43a3.829,3.829,0,0,1-1.349.387,2.783,2.783,0,0,0,1.406-.255,1.525,1.525,0,0,1-.5.718s.546,0,.7-.819a3.565,3.565,0,0,0,.678-.445,3.311,3.311,0,0,1-.323,1.285,1.479,1.479,0,0,0,.469-1.419l.542-.509a4.873,4.873,0,0,1-.218,1.523,1.868,1.868,0,0,0,.344-1.662l.454-.571a5.649,5.649,0,0,1-.068,1.472,2.249,2.249,0,0,0,.191-1.641l.258-.419s.043.687.039.89.047.217.047.217a2.347,2.347,0,0,0,.027-1.275A6.307,6.307,0,0,1,1035.472,36.671Z" transform="translate(-886.395 -36.58)" fill="#3444b3" opacity="0.1"/><line x2="5.328" y2="0.227" transform="translate(114.511 88.599)" fill="none" stroke="#000" stroke-miterlimit="10" stroke-width="1" opacity="0.1"/><line x2="5.328" y2="0.227" transform="translate(113.644 89.55)" fill="none" stroke="#000" stroke-miterlimit="10" stroke-width="1" opacity="0.1"/><line x2="5.328" y2="0.227" transform="translate(112.777 90.5)" fill="none" stroke="#000" stroke-miterlimit="10" stroke-width="1" opacity="0.1"/><line x2="5.328" y2="0.227" transform="translate(111.909 91.452)" fill="none" stroke="#000" stroke-miterlimit="10" stroke-width="1" opacity="0.1"/><line x2="5.328" y2="0.229" transform="translate(111.042 92.401)" fill="none" stroke="#000" stroke-miterlimit="10" stroke-width="1" opacity="0.1"/><line x2="5.328" y2="0.227" transform="translate(110.176 93.353)" fill="none" stroke="#000" stroke-miterlimit="10" stroke-width="1" opacity="0.1"/><line x2="5.328" y2="0.227" transform="translate(109.307 94.304)" fill="none" stroke="#000" stroke-miterlimit="10" stroke-width="1" opacity="0.1"/><line x2="5.328" y2="0.227" transform="translate(108.441 95.254)" fill="none" stroke="#000" stroke-miterlimit="10" stroke-width="1" opacity="0.1"/></g></svg>