<svg xmlns="http://www.w3.org/2000/svg" width="90.5" height="174.763" viewBox="0 0 90.5 174.763"><g transform="translate(-381.38 -376.94)"><circle cx="8.572" cy="8.572" r="8.572" transform="translate(426.153 532.177)" fill="#3f3d56"/><circle cx="8.572" cy="8.572" r="8.572" transform="translate(381.38 532.177)" fill="#3f3d56"/><rect width="3.812" height="55.113" transform="translate(399.478 384.175)" fill="#3f3d56"/><rect width="3.812" height="55.113" transform="translate(419.958 384.175)" fill="#3f3d56"/><path d="M746.364,409.828l-.954-2.857s10.48-12.383,25.247-2.4l-.954,4.292h-3.812s-6.189-5.192-16.669.738Z" transform="translate(-345.956 -23.74)" fill="#3f3d56"/><path d="M732.673,575.365s-12.863.474-14.766,15.24,0,83.363,0,83.363,14.766,10.955,32.87,9.526,47.156-6.669,47.156-6.669V596.392a21.018,21.018,0,0,0-22.005-21.1,7.776,7.776,0,0,0-.858.066Z" transform="translate(-334.624 -142.746)" fill="#3c354c"/><circle cx="8.572" cy="8.572" r="8.572" transform="translate(408.055 534.56)" fill="#3f3d56"/><circle cx="8.572" cy="8.572" r="8.572" transform="translate(454.737 530.748)" fill="#3f3d56"/></g></svg>