<svg xmlns="http://www.w3.org/2000/svg" xmlns:xlink="http://www.w3.org/1999/xlink" width="199" height="131.38" viewBox="0 0 199 131.38"><defs><linearGradient id="a" x1="-0.232" y1="0.5" x2="0.769" y2="0.5" gradientUnits="objectBoundingBox"><stop offset="0" stop-color="gray" stop-opacity="0.251"/><stop offset="0.54" stop-color="gray" stop-opacity="0.122"/><stop offset="1" stop-color="gray" stop-opacity="0.102"/></linearGradient><linearGradient id="b" x1="-3.46" y1="0.929" x2="-3.46" y2="-0.082" xlink:href="#a"/></defs><g transform="translate(0 -0.005)"><circle cx="3.916" cy="3.916" r="3.916" transform="translate(174.514 63.271)" fill="#3444b3" opacity="0.1"/><circle cx="6.563" cy="6.563" r="6.563" transform="translate(185.875 43.164)" fill="#3444b3" opacity="0.1"/><circle cx="3.916" cy="3.916" r="3.916" transform="translate(78.516 1.118)" fill="#3444b3" opacity="0.1"/><circle cx="3.916" cy="3.916" r="3.916" transform="translate(123.434 5.618)" fill="#3444b3" opacity="0.1"/><circle cx="6.563" cy="6.563" r="6.563" transform="translate(0 52.501)" fill="#3444b3" opacity="0.1"/><path d="M178.147,108.778c-11.717-.436-22.876-4.5-33.532-8.945s-21.213-9.369-32.64-11.724c-7.356-1.515-15.767-1.731-21.694,2.506-5.712,4.084-7.555,11.114-8.54,17.642-.746,4.913-1.184,10.084.858,14.682,1.418,3.194,3.936,5.877,5.677,8.934,6.059,10.642,1.776,23.765-4.79,34.155-3.078,4.874-6.651,9.523-9.029,14.711s-3.481,11.134-1.407,16.428c2.06,5.25,6.972,9.186,12.293,11.949,10.806,5.629,23.535,7.242,35.957,8.147,27.486,2.02,55.12,1.146,82.68.27,10.2-.324,20.443-.654,30.476-2.354,5.572-.941,11.324-2.435,15.369-6.039a14.527,14.527,0,0,0,2.967-18.061c-5.772-9.624-21.725-12.016-25.764-22.344-2.22-5.685.06-12.017,3.288-17.289,6.921-11.311,18.526-21.234,19.136-34.164.42-8.871-5.158-17.771-13.783-21.973-9.041-4.4-21.576-3.851-28.242,3.44C200.562,106.285,188.492,109.165,178.147,108.778Z" transform="translate(-68.055 -87.11)" fill="#3444b3" opacity="0.1"/><path d="M872.34,434.349a1.07,1.07,0,0,0,.241.626,3.561,3.561,0,0,0,.963.818v.981a30.31,30.31,0,0,1,3.492,3.335,9.92,9.92,0,0,0,1.977,2.411,1.784,1.784,0,0,0,.737.391h.049a.766.766,0,0,1-.282.181.67.67,0,0,0,.789.567,1.32,1.32,0,0,0,.391-.2l1.148-.742a3.288,3.288,0,0,0,.534-.4c.214-.215.362-.485.572-.706.362-.377.876-.6,1.128-1.054a5.1,5.1,0,0,0,.282-.927c.063-.2.156-.395.217-.6a2.156,2.156,0,0,0,.074-.373c.04.034.081.069.125.1.089-.058.259.094.219.192s-.136.168-.168.27c-.072.232.214.4.333.616a1.636,1.636,0,0,1,.071.724c.013.241.123.53.158.8.083.63-.228,1.294,0,1.89a.6.6,0,0,0-.588.458,1.734,1.734,0,0,0,.024.806,1.108,1.108,0,0,0-.543,1.012.248.248,0,0,1-.025.181.257.257,0,0,1-.1.06,1.021,1.021,0,0,0-.63.949.471.471,0,0,1-.018.2.477.477,0,0,1-.148.152,1.181,1.181,0,0,0-.44.923.67.67,0,0,0,.311.6h.013a3.258,3.258,0,0,0-1.086,2.062,8.464,8.464,0,0,0,.141,2.134h.065v.052a.952.952,0,0,0,.1.308,4.41,4.41,0,0,1,.389,1.586,1.4,1.4,0,0,0,.054.4,2.02,2.02,0,0,0,.2.351,3.734,3.734,0,0,1,.378,1.322,10.453,10.453,0,0,0,.462,1.733,4.9,4.9,0,0,1,.523,2.354,2.353,2.353,0,0,0-.072.581,1.7,1.7,0,0,0,.228.61,5.654,5.654,0,0,1,.253.565.456.456,0,0,0,.112.306c.022.06.04.121.058.181s.031.1.045.145a1.867,1.867,0,0,1,.056.246l-.011.19v.181a.451.451,0,0,1-.087.161.639.639,0,0,1-.047.053l-.043.049a.327.327,0,0,0-.049.071h0a.338.338,0,0,0-.015.208.331.331,0,0,0,.018.081c.045.2.094.391.143.585.014.06.031.118.045.181.04.152.08.306.121.458v.02l.027.1.1.373c.022.074.043.147.063.221l.08.27q.092.315.19.63a65.923,65.923,0,0,1,1.767,6.44.694.694,0,0,0,.259.387,1.492,1.492,0,0,0,.451.243c.042.32.145.712.157.905a4.394,4.394,0,0,1-.161,1.881.152.152,0,0,0-.138.043,5.612,5.612,0,0,0-.415.44l-.849.905a1.4,1.4,0,0,0-.192.234.816.816,0,0,0-.081.668.9.9,0,0,0,.436.518.725.725,0,0,1,.138.078.812.812,0,0,0,.085.072.33.33,0,0,0,.181.034,6.466,6.466,0,0,0,1.425-.243,1.143,1.143,0,0,0,.588-.277,1.1,1.1,0,0,0,.2-.391l.17-.471a5.365,5.365,0,0,0,.259-.878,1.81,1.81,0,0,0-.045-.905.183.183,0,0,0-.043.074c.042-.263.081-.527.123-.791.013-.078.024-.158.034-.239.054.7-.049,1.414-.016,2.12a2.474,2.474,0,0,0-.071.4,2.4,2.4,0,0,0,.84,1.742.86.86,0,0,0,.288.15,1.017,1.017,0,0,0,.3,0,3.783,3.783,0,0,0,1.13-.214,1.388,1.388,0,0,0,.813-.771,1.81,1.81,0,0,0,.081-.558,2.145,2.145,0,0,0-.052-.588,4.484,4.484,0,0,0-.3-.686,6.553,6.553,0,0,1-.337-1.01l-.158-.574c-.043-.163-.089-.326-.145-.485a.814.814,0,0,0-.2-.382c-.065-.051-.109-.054-.138-.025v-.062a6.5,6.5,0,0,0,.042-.672,2.847,2.847,0,0,0-.518-.979,1.911,1.911,0,0,1-.206-.518c-.011-.04-.018-.078-.025-.119a.422.422,0,0,1,.1-.067l.322.181c-.284-2.136-.134-4.376-.963-6.364-.362-.865-1.059-1.767-.981-2.7a.76.76,0,0,1,.085-1.213c.139-.076.311-.112.407-.241a.657.657,0,0,0,.092-.234,37.036,37.036,0,0,1,1.789-5.368c.161-.382.328-.76.5-1.139l.561-1.276.684-1.553a2.154,2.154,0,0,0,.246-1.647,1.394,1.394,0,0,1-.219-.628,3.947,3.947,0,0,1,.134-.415,1.032,1.032,0,0,0-.034-.451c-.045-.2-.1-.391-.148-.585a3.26,3.26,0,0,1,.436.083c.087-.147-.052-.317-.138-.465a1.574,1.574,0,0,1-.158-.646l-.181-1.827a3.244,3.244,0,0,1-.014-.76c.036-.268.139-.523.192-.791a12.16,12.16,0,0,0,.033-1.564,7.014,7.014,0,0,1,.239-1.361c.016-.067.031-.132.047-.2a1.088,1.088,0,0,0,.263.045h.224a.723.723,0,0,0,.1-.025h.022a1.08,1.08,0,0,0,.107-.042c-.043-.092-.083-.181-.121-.279-.016-.038-.031-.076-.045-.114s-.042-.107-.06-.161-.036-.1-.052-.148-.027-.083-.04-.125-.034-.114-.051-.181-.033-.119-.049-.181l.027-.056a1.586,1.586,0,0,0,.3.2c.362.625.69,1.267.992,1.915a.608.608,0,0,0,.092-.234,1.12,1.12,0,0,0,.129.165,1.919,1.919,0,0,0,.422.31,1.086,1.086,0,0,0,.5.181.932.932,0,0,0,.639-.277,4.264,4.264,0,0,0,1.034-1.81,13.625,13.625,0,0,0,.779-2.667,22.606,22.606,0,0,1,.362-2.958c-.252-.5-.411-1.052-.693-1.535a6.857,6.857,0,0,1-.478-.9,3.1,3.1,0,0,1-.085-2.071.284.284,0,0,0-.331.018.693.693,0,0,0-.2.29,2.57,2.57,0,0,0-.2,1.217.485.485,0,0,1-.034.3.373.373,0,0,1-.322.136,2.778,2.778,0,0,1-.746-.136,6.93,6.93,0,0,0-2.078-.2,1.649,1.649,0,0,0-.181-.181l-.078-.063-.08-.062-.04-.033a.9.9,0,0,1-.076-.067.5.5,0,0,1-.181-.317.4.4,0,0,1,0-.047.369.369,0,0,1,0-.043.613.613,0,0,1,.042-.127.856.856,0,0,1,.04-.081l.02-.042c0-.013.013-.027.02-.04a1.188,1.188,0,0,0,.058-.152,1.107,1.107,0,0,0,.038-.158,1.179,1.179,0,0,0,.016-.161V430.5a1.645,1.645,0,0,0-.067-.322,1.793,1.793,0,0,0-.087-.232,2.575,2.575,0,0,0-.154-.286,4.383,4.383,0,0,0-.387-.527L893.6,429l-.109-.123a4.3,4.3,0,0,1-.315-.386,1.5,1.5,0,0,1-.181-.322c-.014-.038-.027-.076-.038-.116a1.181,1.181,0,0,1-.033-.224v-.074a2.794,2.794,0,0,1,.015-.3c.014-.141.034-.284.054-.429.013-.1.027-.192.04-.288a.963.963,0,0,1,.018-.143c.011-.1.022-.192.029-.288a2.759,2.759,0,0,0-.047-.838,1.585,1.585,0,0,0-.085-.268,1.7,1.7,0,0,0-.181-.326,2.354,2.354,0,0,0-1.007-.784,4.634,4.634,0,0,0-.922-.3c-.127-.027-.252-.051-.377-.071a5.273,5.273,0,0,0-5.069,1.81,7.024,7.024,0,0,0-1.37,2.685,3.833,3.833,0,0,0,.433,2.927c.234.362.543.666.748,1.039.17.3.272.646.454.943a2.227,2.227,0,0,0,1,.845l-.08.072a2.442,2.442,0,0,0-.563.011c-.192.033-.378.107-.572.13-.239.031-.483-.016-.724.014a2.285,2.285,0,0,0-1.15.661,2.02,2.02,0,0,0-.853,1.267v.014l-.266.362a1.424,1.424,0,0,0-.167.263,4.417,4.417,0,0,0-.1.811,1.738,1.738,0,0,1-.21.483,10.88,10.88,0,0,1-.905,1.351,2.288,2.288,0,0,1-.563.558,1.013,1.013,0,0,1-.587.167,3.76,3.76,0,0,1-.858-.574,5.538,5.538,0,0,1-.759-.943c-.431-.621.905,1.237.474.614l-3.863-6.438a5.247,5.247,0,0,1-.152-.916c0-.118-.049-.273-.168-.277a.2.2,0,0,0-.136.065.786.786,0,0,0-.252.67.929.929,0,0,0-.592.1.339.339,0,0,0-.074.482v.049a.257.257,0,0,0-.136.272.92.92,0,0,0-.635.031c-.19.107-.262.42-.078.543A.556.556,0,0,0,872.34,434.349Zm24.2.923a2.99,2.99,0,0,0,.339.087,5.406,5.406,0,0,1,1.05.362.576.576,0,0,1,.273.2.608.608,0,0,1-.033.514l-.478,1.291c-.076.2-.15.406-.244.6-.036.078-.078.156-.12.232q-.022-.065-.043-.125a10.6,10.6,0,0,1-.344-1.2c-.08-.351-.147-.706-.2-1.061a5.179,5.179,0,0,0-.2-.9Zm-.5-1.012.036.025a.407.407,0,0,1,.125.087.193.193,0,0,1,0,.181Zm-.864-1.244.572.083a.751.751,0,0,1,.386.132.259.259,0,0,1,.052.362.859.859,0,0,1-.127.085.362.362,0,0,0-.136.375,4.058,4.058,0,0,0-.328-.509,2.514,2.514,0,0,0-.382-.391C895.2,433.109,895.193,433.062,895.178,433.017Zm-5.5,41.156a2.061,2.061,0,0,0,.212,0,2.032,2.032,0,0,0-.034.514Z" transform="translate(-723.535 -362.718)" fill="url(#a)"/><path d="M942.637,425.867a3.018,3.018,0,0,1,2.478,1.474,4.878,4.878,0,0,1,0,2.252,1.709,1.709,0,0,0,.022.6,2.1,2.1,0,0,0,.525.824,4.389,4.389,0,0,1,.757,1.059,1.542,1.542,0,0,1,.051,1.267.922.922,0,0,0-.125.333c-.013.259.257.422.456.587.746.617.713,1.742.724,2.716a13.709,13.709,0,0,0,1.3,5.728,1.751,1.751,0,0,1-1.959-.255,6.591,6.591,0,0,0,.445,1.282,1.407,1.407,0,0,1-1.707-.822,14.068,14.068,0,0,1-.579-2.017c-.217-.663-.632-1.247-.813-1.915a1.84,1.84,0,0,0-.226-.641,1.629,1.629,0,0,0-.4-.339,3.874,3.874,0,0,1-1.4-1.9,7.463,7.463,0,0,1-2.354.272,2.591,2.591,0,0,1-2.006-1.1c-.181-.3-.284-.639-.454-.943-.208-.373-.516-.679-.75-1.037a3.83,3.83,0,0,1-.431-2.924,6.972,6.972,0,0,1,1.37-2.681A5.3,5.3,0,0,1,942.637,425.867Z" transform="translate(-775.732 -364.47)" fill="#3a3768"/><path d="M942.637,425.867a3.018,3.018,0,0,1,2.478,1.474,4.878,4.878,0,0,1,0,2.252,1.709,1.709,0,0,0,.022.6,2.1,2.1,0,0,0,.525.824,4.389,4.389,0,0,1,.757,1.059,1.542,1.542,0,0,1,.051,1.267.922.922,0,0,0-.125.333c-.013.259.257.422.456.587.746.617.713,1.742.724,2.716a13.709,13.709,0,0,0,1.3,5.728,1.751,1.751,0,0,1-1.959-.255,6.591,6.591,0,0,0,.445,1.282,1.407,1.407,0,0,1-1.707-.822,14.068,14.068,0,0,1-.579-2.017c-.217-.663-.632-1.247-.813-1.915a1.84,1.84,0,0,0-.226-.641,1.629,1.629,0,0,0-.4-.339,3.874,3.874,0,0,1-1.4-1.9,7.463,7.463,0,0,1-2.354.272,2.591,2.591,0,0,1-2.006-1.1c-.181-.3-.284-.639-.454-.943-.208-.373-.516-.679-.75-1.037a3.83,3.83,0,0,1-.431-2.924,6.972,6.972,0,0,1,1.37-2.681A5.3,5.3,0,0,1,942.637,425.867Z" transform="translate(-775.732 -364.47)" fill="#3f3d56"/><path d="M993.484,487.379c.056.362.123.71.2,1.063a10.168,10.168,0,0,0,.342,1.2,1.152,1.152,0,0,1,.107.543,1.015,1.015,0,0,1-.132.329,6.132,6.132,0,0,0-1.119,2.507,1.349,1.349,0,0,1-.123.668q-.527-1.13-1.16-2.205a6.789,6.789,0,0,1-1.059-2.368,4.49,4.49,0,0,1,.014-1.217,2.649,2.649,0,0,1,.438-1.28c.3-.391,1.122-.983,1.655-.862C993.276,485.909,993.4,486.874,993.484,487.379Z" transform="translate(-820.312 -413.568)" fill="#f86d70"/><path d="M880.585,478.528a5.394,5.394,0,0,1-1.671-.934,5.451,5.451,0,0,1-.759-.941l-1.4-2.017a3.64,3.64,0,0,1-.742-1.561,5.136,5.136,0,0,1-1.4-3.168c0-.119-.047-.273-.167-.277a.21.21,0,0,0-.138.065.788.788,0,0,0-.25.67.929.929,0,0,0-.592.1c-.167.119-.21.415-.031.514a.255.255,0,0,0-.181.288.905.905,0,0,0-.635.031c-.181.107-.263.418-.078.543a.543.543,0,0,0-.362.53,1.064,1.064,0,0,0,.241.625c.543.724,1.484,1.01,2.105,1.658a4.805,4.805,0,0,1,.543.724l1.8,2.741a9.851,9.851,0,0,0,1.977,2.406,1.789,1.789,0,0,0,.735.391.813.813,0,0,0,.773-.214,1.261,1.261,0,0,0,.226-.771C880.634,479.473,880.555,478.993,880.585,478.528Z" transform="translate(-723.411 -400.374)" fill="#a1616a"/><path d="M950.475,721.957a1.561,1.561,0,0,0-.192.234.816.816,0,0,0-.081.668.905.905,0,0,0,.436.516.848.848,0,0,1,.138.08.822.822,0,0,0,.085.072.329.329,0,0,0,.181.034,6.59,6.59,0,0,0,1.425-.243,1.142,1.142,0,0,0,.588-.277,1.171,1.171,0,0,0,.2-.389l.168-.471a5.526,5.526,0,0,0,.261-.876,1.825,1.825,0,0,0-.047-.905.3.3,0,0,0-.063.181,2,2,0,0,1-.362.878.894.894,0,0,1-.141.181.921.921,0,0,1-.424.181,5.2,5.2,0,0,1-.905.116.281.281,0,0,1-.123-.014.215.215,0,0,1-.1-.129.543.543,0,0,1,0-.362c.081-.228.306-.378.415-.6.08-.161-.031-.339-.2-.2a5.024,5.024,0,0,0-.415.44Z" transform="translate(-787.27 -605.744)" fill="#3f3d56"/><path d="M955.816,703.24a3.589,3.589,0,0,1-.333,2.212c-.148.23-.349.422-.52.637a.748.748,0,0,0-.181.384.587.587,0,0,0,.511.567,1.689,1.689,0,0,0,.82-.118,1.976,1.976,0,0,0,.7-.328,2.007,2.007,0,0,0,.529-1.282l.168-1.086a3.427,3.427,0,0,0,.062-.791,3.529,3.529,0,0,0-.212-.853l-.279-.815a.384.384,0,0,0-.123-.2.362.362,0,0,0-.212-.038c-.266.013-.938.11-1.066.391C955.559,702.172,955.8,702.954,955.816,703.24Z" transform="translate(-791.051 -590.286)" fill="#ee8e9e"/><path d="M955.816,703.24a3.589,3.589,0,0,1-.333,2.212c-.148.23-.349.422-.52.637a.748.748,0,0,0-.181.384.587.587,0,0,0,.511.567,1.689,1.689,0,0,0,.82-.118,1.976,1.976,0,0,0,.7-.328,2.007,2.007,0,0,0,.529-1.282l.168-1.086a3.427,3.427,0,0,0,.062-.791,3.529,3.529,0,0,0-.212-.853l-.279-.815a.384.384,0,0,0-.123-.2.362.362,0,0,0-.212-.038c-.266.013-.938.11-1.066.391C955.559,702.172,955.8,702.954,955.816,703.24Z" transform="translate(-791.051 -590.286)" opacity="0.05"/><path d="M927.547,578.263a.066.066,0,0,0,0,.02.906.906,0,0,0,.1.308,4.449,4.449,0,0,1,.391,1.584,1.341,1.341,0,0,0,.053.4,2.138,2.138,0,0,0,.2.351,3.724,3.724,0,0,1,.378,1.32,10.434,10.434,0,0,0,.462,1.731,4.895,4.895,0,0,1,.523,2.354,2.356,2.356,0,0,0-.072.579,1.673,1.673,0,0,0,.226.61,5.662,5.662,0,0,1,.255.565c.074.192.154.418.215.63a.856.856,0,0,1-.047.777.881.881,0,0,0-.139.17.452.452,0,0,0,0,.293q.147.619.315,1.237c.087.322.181.643.273.963.7,2.343,1.488,4.662,1.957,7.061.067.346.509.594.853.668a1.112,1.112,0,0,0,.979-.263.6.6,0,0,0,.069-.067,2.059,2.059,0,0,0,.386-1.517c-.121-2.469-1.365-4.729-1.957-7.129a13.732,13.732,0,0,1-.384-2.645,27.638,27.638,0,0,1,.648-8.994,2.306,2.306,0,0,0,.067-1.81,1.766,1.766,0,0,0-.931-.681,5.993,5.993,0,0,0-4.651.12,1.445,1.445,0,0,0,0,.181,1.834,1.834,0,0,1-.094.822,1.009,1.009,0,0,0-.081.364Z" transform="translate(-768.747 -487.785)" fill="#3f3d56"/><path d="M972.135,711.193l.157.574a6.415,6.415,0,0,0,.335,1.01,4.4,4.4,0,0,1,.3.684,2.211,2.211,0,0,1,.051.588,1.8,1.8,0,0,1-.081.556,1.389,1.389,0,0,1-.813.771,3.841,3.841,0,0,1-1.128.212.906.906,0,0,1-.3,0,.827.827,0,0,1-.288-.15,2.38,2.38,0,0,1-.84-1.74,2.142,2.142,0,0,1,.089-.444c.04-.054.436.168.266.362-.25.277.483.134.856.11a3.434,3.434,0,0,0,.485-.08l.6-.129c.2-.043.425-.11.494-.3s-.083-.415-.2-.6a3.908,3.908,0,0,1-.471-1.66c-.014-.114-.156-.847.136-.619a.814.814,0,0,1,.2.382C972.046,710.869,972.09,711.03,972.135,711.193Z" transform="translate(-803.13 -597.472)" fill="#3f3d56"/><path d="M941.69,640.445a.827.827,0,0,0,.047-.775c-.029-.1-.058-.194-.091-.29l2.37-.8c0,.212.018.424.027.635a13.771,13.771,0,0,0,.384,2.647c.592,2.4,1.836,4.658,1.957,7.126a1.979,1.979,0,0,1-.453,1.588,1.121,1.121,0,0,1-.981.261c-.342-.074-.786-.322-.853-.668-.469-2.4-1.267-4.718-1.957-7.061q-.326-1.086-.588-2.2a.46.46,0,0,1,0-.291A.881.881,0,0,1,941.69,640.445Z" transform="translate(-780.198 -538.737)" opacity="0.05"/><path d="M970.67,696.389a2.861,2.861,0,0,1,.516.978,5.591,5.591,0,0,1-.042.672,2.106,2.106,0,0,0,.1.543q.344,1.249.8,2.466a.676.676,0,0,1,.063.335.59.59,0,0,1-.393.391,4.15,4.15,0,0,1-1.81.2.947.947,0,0,1-.511-.119.888.888,0,0,1-.288-.711c-.042-.769.089-1.542,0-2.308-.029-.279-.089-.554-.132-.829a2.432,2.432,0,0,1,.036-1.159,2.654,2.654,0,0,1,.433-.724,2.266,2.266,0,0,1,.6-.6c.072-.043.277-.181.349-.092.038.042.022.154.027.206a2.057,2.057,0,0,0,.042.239A1.963,1.963,0,0,0,970.67,696.389Z" transform="translate(-802.628 -585.269)" fill="#ee8e9e"/><path d="M931.957,579.207a.656.656,0,0,1,.045.543c-.08.328-.21.641-.317.961a13.37,13.37,0,0,0-.409,1.747,5.114,5.114,0,0,0-.223,1.666,11.866,11.866,0,0,0-1.267,3.948c-.049.353.737.811.724,1.168-.029.71-.6.766-.181,1.332.02.029-.157.663-.134.69.17.2.386.362.568.559a4.276,4.276,0,0,1,.6.878c1.086,1.952,2.641,4.164,2.16,6.336a.387.387,0,0,0,.206.391,1.066,1.066,0,0,0,.456.1h.076a2.059,2.059,0,0,0,.386-1.517c-.121-2.469-1.365-4.729-1.957-7.129a13.728,13.728,0,0,1-.384-2.645,27.636,27.636,0,0,1,.648-8.994,2.307,2.307,0,0,0,.067-1.81,1.766,1.766,0,0,0-.931-.681,5.993,5.993,0,0,0-4.651.12,1.468,1.468,0,0,0,0,.181,1.834,1.834,0,0,1-.094.822,1.008,1.008,0,0,0-.092.362s-.043-.48-.043-.473c.969.139,1.979.771,2.947.905a6.73,6.73,0,0,1,1.477.326A.641.641,0,0,1,931.957,579.207Z" transform="translate(-768.472 -487.769)" opacity="0.05"/><path d="M937.877,558.989c.13.415.246.833.344,1.255a1.024,1.024,0,0,1,.034.449,3.933,3.933,0,0,0-.134.415,1.387,1.387,0,0,0,.219.626,2.16,2.16,0,0,1-.244,1.647l-.686,1.552-.561,1.267c-.167.378-.333.757-.494,1.139a37.025,37.025,0,0,0-1.789,5.361.657.657,0,0,1-.092.234c-.1.127-.268.163-.407.241a.758.758,0,0,0-.083,1.211c-.08.932.619,1.832.979,2.7.827,1.991.677,4.222.963,6.354l-.322-.181c-.31.141-.3.579-.463.874-.25.445-.86.509-1.369.474a1.068,1.068,0,0,1-.458-.1.386.386,0,0,1-.2-.391c.48-2.172-1.086-4.39-2.162-6.336a4.219,4.219,0,0,0-.6-.876c-.181-.194-.4-.362-.568-.561a3.042,3.042,0,0,1-.505-2.124,11.9,11.9,0,0,1,1.352-5.015,5.145,5.145,0,0,1,.224-1.666,13.082,13.082,0,0,1,.407-1.747c.107-.32.237-.634.317-.961a.655.655,0,0,0-.043-.543.637.637,0,0,0-.306-.2,6.81,6.81,0,0,0-1.477-.326l-3.328-.478a8.464,8.464,0,0,1-.141-2.133,3.279,3.279,0,0,1,2.354-2.745.494.494,0,0,1,.433.027A17.349,17.349,0,0,1,937.877,558.989Z" transform="translate(-767.69 -472.829)" fill="#3f3d56"/><path d="M952.211,456.314a1.629,1.629,0,0,0,.145.952,1.489,1.489,0,0,0,.378.418,2.8,2.8,0,0,0,1.1.543,1.168,1.168,0,0,1,.655.288c.234.282.078.708-.121,1.016a2.6,2.6,0,0,1-1.437,1.189c-.491.134-1.016.053-1.517.139-.362.063-.706.214-1.065.3a3.141,3.141,0,0,1-2.9-.806,4.137,4.137,0,0,0,1.363-1.459,2.075,2.075,0,0,0,.1-1.394,3.1,3.1,0,0,1-.326-1.361,1.427,1.427,0,0,1,1-.94,6.4,6.4,0,0,1,1.255-.253c.234-.033,1.724-.362,1.81-.2.052.092-.257.635-.3.755A2.9,2.9,0,0,0,952.211,456.314Z" transform="translate(-785.047 -388.148)" fill="#a1616a"/><path d="M952.211,456.314a1.629,1.629,0,0,0,.145.952,1.489,1.489,0,0,0,.378.418,2.8,2.8,0,0,0,1.1.543,1.168,1.168,0,0,1,.655.288c.234.282.078.708-.121,1.016a2.6,2.6,0,0,1-1.437,1.189c-.491.134-1.016.053-1.517.139-.362.063-.706.214-1.065.3a3.141,3.141,0,0,1-2.9-.806,4.137,4.137,0,0,0,1.363-1.459,2.075,2.075,0,0,0,.1-1.394,3.1,3.1,0,0,1-.326-1.361,1.427,1.427,0,0,1,1-.94,6.4,6.4,0,0,1,1.255-.253c.234-.033,1.724-.362,1.81-.2.052.092-.257.635-.3.755A2.9,2.9,0,0,0,952.211,456.314Z" transform="translate(-785.047 -388.148)" opacity="0.05"/><circle cx="3.022" cy="3.022" r="3.022" transform="translate(162.269 63.209)" fill="#a1616a"/><path d="M937.269,475.889l-2.048.344a7.67,7.67,0,0,1-1.532.154,4.383,4.383,0,0,0-.844,0c-.194.033-.378.107-.574.13-.239.031-.482-.014-.724.016a2.282,2.282,0,0,0-1.15.659,2,2,0,0,0-.851,1.267.362.362,0,0,0,.023.181.531.531,0,0,0,.152.159,4.848,4.848,0,0,1,.856,1.177,4.545,4.545,0,0,0,1.017,1.1c.091-.058.261.094.221.192s-.136.168-.168.27c-.072.232.214.4.331.616a1.664,1.664,0,0,1,.072.724c.013.243.121.53.157.8.081.628-.228,1.291,0,1.886a.592.592,0,0,0-.588.458,1.729,1.729,0,0,0,.024.8,1.106,1.106,0,0,0-.543,1.01.181.181,0,0,1-.13.241,1.019,1.019,0,0,0-.628.947.466.466,0,0,1-.018.2.442.442,0,0,1-.148.152,1.18,1.18,0,0,0-.44.923.677.677,0,0,0,.311.6,5.634,5.634,0,0,0,1.376.409,12.371,12.371,0,0,0,1.332.235,11.949,11.949,0,0,0,1.247.038l2.741-.011c.769,0,1.541,0,2.31-.058a6.55,6.55,0,0,1,2.145.051c.087-.147-.052-.317-.138-.465a1.558,1.558,0,0,1-.157-.645l-.172-1.827a3.21,3.21,0,0,1-.015-.757c.038-.27.139-.525.192-.791a12.139,12.139,0,0,0,.033-1.562,6.967,6.967,0,0,1,.239-1.36l.543-2.236a8.639,8.639,0,0,1,.268-1.121q.625-1.611,1.313-3.194a.329.329,0,0,0-.024-.282l-.453-.813a5.186,5.186,0,0,0-.415-.661,2.615,2.615,0,0,0-1.53-.94,2.7,2.7,0,0,0-1.778.264c-.212.112-.407.252-.623.362A2.548,2.548,0,0,1,937.269,475.889Z" transform="translate(-770.383 -404.664)" fill="#f86d70"/><path d="M915.556,491.5l-.713.952a1.214,1.214,0,0,0-.167.263,4.247,4.247,0,0,0-.107.807,1.686,1.686,0,0,1-.208.483,11.149,11.149,0,0,1-.905,1.351,2.419,2.419,0,0,1-.563.558.934.934,0,0,1-.76.134.476.476,0,0,1,.25.226,2.763,2.763,0,0,1,.181,1.767,1.811,1.811,0,0,1-.2.579.869.869,0,0,1-.454.393.67.67,0,0,0,.789.567,1.32,1.32,0,0,0,.391-.2l1.146-.742a3.044,3.044,0,0,0,.534-.4c.214-.214.362-.483.572-.7.362-.375.876-.6,1.128-1.052a4.95,4.95,0,0,0,.281-.927c.063-.2.158-.393.217-.6a2.661,2.661,0,0,0-.235-1.908A8.149,8.149,0,0,0,915.556,491.5Z" transform="translate(-755.942 -418.285)" fill="#f86d70"/><path d="M945.431,429.294a3.961,3.961,0,0,1,1.063-1.106,3.627,3.627,0,0,1,1.917-.811,2.039,2.039,0,0,1,.862.141c.014-.855.226-1.421.759-1.336a3.018,3.018,0,0,1,2.478,1.474,4.878,4.878,0,0,1,0,2.252,1.709,1.709,0,0,0,.022.6,2.1,2.1,0,0,0,.525.824,4.389,4.389,0,0,1,.757,1.059,1.542,1.542,0,0,1,.051,1.267.922.922,0,0,0-.125.333c-.013.259.257.422.456.587.746.617.713,1.742.724,2.716a13.709,13.709,0,0,0,1.3,5.728,1.751,1.751,0,0,1-1.959-.255,6.591,6.591,0,0,0,.445,1.282,1.407,1.407,0,0,1-1.707-.822,14.068,14.068,0,0,1-.579-2.017c-.217-.663-.632-1.247-.813-1.915a1.84,1.84,0,0,0-.226-.641,1.629,1.629,0,0,0-.4-.339c-.65-.467.308-4,.054-4.763-.378.081-1.074-1.743-1.47-3.6a1.874,1.874,0,0,1-.86.087,1.035,1.035,0,0,0-.308-.022.819.819,0,0,0-.268.109,6.6,6.6,0,0,1-.914.471,5.257,5.257,0,0,1-2.075.181,2.056,2.056,0,0,1,.293-1.483Z" transform="translate(-783.126 -364.785)" fill="#3a3768"/><path d="M945.431,429.294a3.961,3.961,0,0,1,1.063-1.106,3.627,3.627,0,0,1,1.917-.811,2.039,2.039,0,0,1,.862.141c.014-.855.226-1.421.759-1.336a3.018,3.018,0,0,1,2.478,1.474,4.878,4.878,0,0,1,0,2.252,1.709,1.709,0,0,0,.022.6,2.1,2.1,0,0,0,.525.824,4.389,4.389,0,0,1,.757,1.059,1.542,1.542,0,0,1,.051,1.267.922.922,0,0,0-.125.333c-.013.259.257.422.456.587.746.617.713,1.742.724,2.716a13.709,13.709,0,0,0,1.3,5.728,1.751,1.751,0,0,1-1.959-.255,6.591,6.591,0,0,0,.445,1.282,1.407,1.407,0,0,1-1.707-.822,14.068,14.068,0,0,1-.579-2.017c-.217-.663-.632-1.247-.813-1.915a1.84,1.84,0,0,0-.226-.641,1.629,1.629,0,0,0-.4-.339c-.65-.467.308-4,.054-4.763-.378.081-1.074-1.743-1.47-3.6a1.874,1.874,0,0,1-.86.087,1.035,1.035,0,0,0-.308-.022.819.819,0,0,0-.268.109,6.6,6.6,0,0,1-.914.471,5.257,5.257,0,0,1-2.075.181,2.056,2.056,0,0,1,.293-1.483Z" transform="translate(-783.126 -364.785)" fill="#3f3d56"/><g transform="translate(162.558 61.383)" opacity="0.1"><path d="M976.89,442.989a13.737,13.737,0,0,1-1.3-5.728c0-.969.027-2.093-.724-2.716-.2-.165-.469-.328-.458-.587a.926.926,0,0,1,.127-.333,1.55,1.55,0,0,0-.051-1.267,4.388,4.388,0,0,0-.757-1.059,2.106,2.106,0,0,1-.527-.824,1.8,1.8,0,0,1-.022-.6,4.623,4.623,0,0,0,0-2.252,2.925,2.925,0,0,0-2.382-1.457.543.543,0,0,1,.261-.016,3.018,3.018,0,0,1,2.478,1.474,4.879,4.879,0,0,1,0,2.252,1.709,1.709,0,0,0,.022.6,2.1,2.1,0,0,0,.525.824,4.389,4.389,0,0,1,.757,1.059,1.542,1.542,0,0,1,.051,1.267.923.923,0,0,0-.125.333c-.013.259.257.422.456.587.746.617.713,1.742.724,2.716a13.708,13.708,0,0,0,1.3,5.728,1.693,1.693,0,0,1-.96.181A1.638,1.638,0,0,0,976.89,442.989Z" transform="translate(-966.728 -426.141)"/><path d="M994.075,519.072a6.48,6.48,0,0,1-.445-1.282,1.653,1.653,0,0,0,.429.284,6.743,6.743,0,0,0,.362,1,.949.949,0,0,1-.585.074A.92.92,0,0,0,994.075,519.072Z" transform="translate(-985.425 -501.198)"/><path d="M963.566,432.973a2.086,2.086,0,0,0-.576-.136h.069a2.023,2.023,0,0,1,.511.038C963.568,432.9,963.566,432.937,963.566,432.973Z" transform="translate(-960.332 -431.623)"/><path d="M949.487,447.963a6.628,6.628,0,0,0,.916-.471.8.8,0,0,1,.268-.109.989.989,0,0,1,.282.016,1.133,1.133,0,0,0-.2.092,6.611,6.611,0,0,1-.914.471,4.124,4.124,0,0,1-1.533.2A3.634,3.634,0,0,0,949.487,447.963Z" transform="translate(-948.31 -443.535)"/><path d="M965.843,447l.016.081a1.773,1.773,0,0,1-.449.013A1.991,1.991,0,0,0,965.843,447Z" transform="translate(-962.314 -443.224)"/></g><path d="M993.351,475.272a1.1,1.1,0,0,0,.3.883,1.966,1.966,0,0,0,.42.31,1.14,1.14,0,0,0,.5.181.943.943,0,0,0,.639-.279,4.253,4.253,0,0,0,1.032-1.8,13.516,13.516,0,0,0,.78-2.663,22.58,22.58,0,0,1,.362-2.956c-.25-.5-.409-1.05-.693-1.532a7.215,7.215,0,0,1-.478-.9,3.1,3.1,0,0,1-.085-2.068.279.279,0,0,0-.33.016.694.694,0,0,0-.2.29,2.566,2.566,0,0,0-.2,1.215.483.483,0,0,1-.034.3.373.373,0,0,1-.322.136,2.86,2.86,0,0,1-.746-.134,6.914,6.914,0,0,0-2.3-.19,1.086,1.086,0,0,0-.449.109.416.416,0,0,0-.23.375l1.836.27a.759.759,0,0,1,.387.132.262.262,0,0,1,.052.362.722.722,0,0,1-.127.083.378.378,0,0,0,.014.6.387.387,0,0,1,.125.087c.076.1-.024.234-.056.362a.449.449,0,0,0,.221.458,1.614,1.614,0,0,0,.512.172,5.4,5.4,0,0,1,1.05.362.575.575,0,0,1,.273.2.614.614,0,0,1-.033.514l-.478,1.289c-.076.2-.15.4-.244.6-.121.252-.272.489-.4.74a7.4,7.4,0,0,0-.3.724C993.914,474.182,993.435,474.575,993.351,475.272Z" transform="translate(-820.975 -396.095)" fill="#a1616a"/><path d="M463.46,249.17v60.723a20.114,20.114,0,0,0-6.269-.967c-9.029,0-16.361,6.389-16.361,15.417s7.332,15.347,16.361,15.347S473.6,333.043,473.6,323.4V281.229H521.21v28.664a20.106,20.106,0,0,0-6.269-.967c-9.029,0-16.361,6.389-16.361,15.417s7.332,15.347,16.361,15.347,16.406-6.648,16.406-16.294V249.17Zm57.752,22.63H473.6V259.308h47.614Z" transform="translate(-370.146 -219.826)" fill="#3444b3"/><path d="M195.247,212.17v40.752a15.416,15.416,0,1,0,7.712,13.325V227.613h15.461V212.17Z" transform="translate(-150.09 -189.525)" fill="#3444b3"/><path d="M221.089,719.273a9.836,9.836,0,0,0-2.833-1,12.963,12.963,0,0,0,2.12-.476c1.841-.583,2.77-1.365,2.073-1.747s-2.755-.221-4.6.362a7.094,7.094,0,0,0-1.765.784,3.537,3.537,0,0,0-1.515-1.316c-1.629-.905-3.834-1.352-4.91-1.012s-.621,1.343,1.016,2.243a9.8,9.8,0,0,0,2.535.943,14.9,14.9,0,0,0-1.747.31c-2,.482-3.163,1.208-2.589,1.629s2.667.362,4.671-.116a8.73,8.73,0,0,0,2.1-.742,3.382,3.382,0,0,0,1.542,1.378c1.629.905,3.834,1.352,4.91,1.012S222.718,720.171,221.089,719.273Z" transform="translate(-180.065 -601.118)" fill="#3444b3"/><path d="M313.583,656.746a4.8,4.8,0,0,0-1.374-.487,6.471,6.471,0,0,0,1.028-.23c.894-.284,1.345-.663,1.007-.849a3.841,3.841,0,0,0-2.232.181,3.563,3.563,0,0,0-.856.38,1.725,1.725,0,0,0-.735-.639,3.751,3.751,0,0,0-2.384-.491c-.521.165-.3.654.492,1.086a4.744,4.744,0,0,0,1.235.456,7.414,7.414,0,0,0-.849.152c-.972.232-1.535.585-1.256.787a3.922,3.922,0,0,0,2.267-.056,4.3,4.3,0,0,0,1.021-.362,1.627,1.627,0,0,0,.748.668,3.752,3.752,0,0,0,2.384.492C314.6,657.672,314.377,657.183,313.583,656.746Z" transform="translate(-261.025 -551.822)" fill="#3444b3"/><path d="M152.315,586.353a3.01,3.01,0,0,0-.865-.3,3.769,3.769,0,0,0,.648-.145c.559-.181.842-.415.63-.53a2.423,2.423,0,0,0-1.4.11,2.223,2.223,0,0,0-.543.237,1.059,1.059,0,0,0-.46-.4,2.342,2.342,0,0,0-1.492-.308c-.328.1-.181.407.31.681a2.948,2.948,0,0,0,.773.286,4.446,4.446,0,0,0-.532.1c-.608.145-.961.362-.788.492a2.457,2.457,0,0,0,1.419-.034,2.705,2.705,0,0,0,.639-.226,1.009,1.009,0,0,0,.467.418,2.346,2.346,0,0,0,1.492.308C152.943,586.932,152.811,586.626,152.315,586.353Z" transform="translate(-130.785 -494.841)" fill="#3444b3"/><path d="M231.719,212.17v12.908H216.258v38.634a15.437,15.437,0,0,1-25.018,12.11,15.439,15.439,0,0,0,27.553-9.575V227.613h15.461V212.17Z" transform="translate(-165.742 -189.525)" opacity="0.1"/><path d="M173.87,220.342l.053.395,1.711.243s.139-.1.362-.248a5.317,5.317,0,0,1,1.666-.775c.9-.181,3.746-1.457,2.828-1.541s-.824.107-.824.107a1.511,1.511,0,0,0-2.057-.085,14.288,14.288,0,0,1-3.329,1.749C174.026,220.286,173.87,220.342,173.87,220.342Z" transform="translate(-151.517 -194.344)" fill="#efb7b9"/><path d="M200.184,204.656a2.9,2.9,0,0,1,.82-.21,1,1,0,0,1,.78.261c.11.114.181.261.29.377.521.558,1.533.141,2.162.574a2.147,2.147,0,0,1,.643,1.224c.138.451.387.945.847,1.041a2.513,2.513,0,0,0,.668-.025.657.657,0,0,1,.6.221c.214.324-.081.865.228,1.1.277.2.778-.081.972.2a.424.424,0,0,1-.067.471,3.271,3.271,0,0,0-.315.395.6.6,0,0,0,.588.873c.2-.02.4-.13.574-.034a.406.406,0,0,1,.181.32.842.842,0,0,1-.757.885,1.872,1.872,0,0,1-.936-.311,1.175,1.175,0,0,0-.954-.154,1.474,1.474,0,0,0-.384.27,4.2,4.2,0,0,1-1.18.7,1.454,1.454,0,0,1-1.177.053c-.407-.208-.617-.715-1.048-.869s-.923.134-1.336.378-.965.449-1.338.148c-.4-.324-.279-.974-.523-1.428a1.4,1.4,0,0,0-.393-.433c-.275-.212-.588-.371-.865-.579a1.448,1.448,0,0,1-.59-.829,1.679,1.679,0,0,1,.337-1.177,3.261,3.261,0,0,0,.554-1.113c.054-.308,0-.628.071-.932a1.15,1.15,0,0,1,.746-.788c.2-.069.239-.051.342-.23A.724.724,0,0,1,200.184,204.656Z" transform="translate(-170.997 -183.195)" fill="#3f3d56"/><g transform="translate(26.661 25.048)" opacity="0.1"><path d="M249.457,225.44a1.54,1.54,0,0,1,.033.543A1.468,1.468,0,0,1,249.457,225.44Z" transform="translate(-240.071 -225.44)"/><path d="M253.309,232.9a.592.592,0,0,0-.062.2.612.612,0,0,1,.022-.507,3.22,3.22,0,0,1,.315-.393.668.668,0,0,0,.091-.181l.014.016a.424.424,0,0,1-.065.469A3.237,3.237,0,0,0,253.309,232.9Z" transform="translate(-243.149 -230.829)"/><path d="M198.238,230.869c.277.21.588.362.864.581a1.38,1.38,0,0,1,.393.433c.244.454.121,1.1.523,1.428.373.3.927.1,1.34-.148s.883-.543,1.334-.378.641.661,1.05.869a1.477,1.477,0,0,0,1.177-.052,4.218,4.218,0,0,0,1.179-.7,1.557,1.557,0,0,1,.384-.272,1.172,1.172,0,0,1,.956.156,1.837,1.837,0,0,0,.934.311.851.851,0,0,0,.751-.744.543.543,0,0,1,.04.159.84.84,0,0,1-.751.891,1.881,1.881,0,0,1-.934-.31,1.192,1.192,0,0,0-.956-.156,1.6,1.6,0,0,0-.384.27,4.224,4.224,0,0,1-1.179.7,1.469,1.469,0,0,1-1.177.052c-.409-.208-.617-.715-1.05-.869a1.71,1.71,0,0,0-1.334.378c-.411.246-.967.449-1.34.147-.4-.324-.279-.972-.523-1.428a1.394,1.394,0,0,0-.393-.431c-.273-.212-.587-.371-.864-.581a1.448,1.448,0,0,1-.592-.829.979.979,0,0,1-.018-.217A1.514,1.514,0,0,0,198.238,230.869Z" transform="translate(-197.668 -229.281)"/></g><path d="M202.061,286.045l-.621.132a1.062,1.062,0,0,0,1.555.346C203.938,285.862,202.061,286.045,202.061,286.045Z" transform="translate(-174.096 -250.006)" fill="#4c4981"/><path d="M202.061,286.045l-.621.132a1.062,1.062,0,0,0,1.555.346C203.938,285.862,202.061,286.045,202.061,286.045Z" transform="translate(-174.096 -250.006)" opacity="0.1"/><path d="M279.32,331.389s.862.445,1.664.961a4.485,4.485,0,0,1,1.3,1.075c.427.724,2.5,1.51,2.5,1.51l2.06,1.568A2.943,2.943,0,0,1,288,337.519c.058.08.092.13.092.13l.826-.107.435-.565s.11-1.246-.748-1.231a1.18,1.18,0,0,1-.483-.125,10.208,10.208,0,0,1-2.214-1.693s-2.194-2.741-2.851-2.831a1.089,1.089,0,0,1-.206-.052,6.731,6.731,0,0,1-1.629-1.1Z" transform="translate(-237.876 -285.982)" fill="#efb7b9"/><path d="M232.116,367.215a19.642,19.642,0,0,0,1.537,4.358,6.921,6.921,0,0,1,.606,1.952l.118.905a1.051,1.051,0,0,0,.13.351,1.92,1.92,0,0,0,.116.181l1.653-.509s-.1-.38-.241-.816a3.685,3.685,0,0,0-.568-1.188c-.4-.4-.463-1.8-.463-1.8s-.337-2.69-.44-3.029a4.671,4.671,0,0,1-.181-.992c-.016-.181-.027-.387-.029-.621a12.69,12.69,0,0,0-.261-1.991l-1.928.349-.051,2.156A1.438,1.438,0,0,0,232.116,367.215Z" transform="translate(-199.183 -313.884)" fill="#efb7b9"/><path d="M327.25,363.177c.058.08.092.13.092.13l.826-.107.435-.565s.11-1.246-.748-1.231a1.181,1.181,0,0,1-.483-.125c-.071.373.348.683.348.683s.181.127.132.711C327.824,363.072,327.471,363.157,327.25,363.177Z" transform="translate(-277.129 -311.64)" opacity="0.1"/><path d="M326.75,355.687c.054.2.576.5.938.681.181.091.317.154.344.168.083.042.521-.445.581-.838a7.293,7.293,0,0,1,1.1-1.615,4.381,4.381,0,0,0,.387-1.53c.04-.534-.181-.578-.444-.456a1.754,1.754,0,0,0-.5.389,1.325,1.325,0,0,1-.643.333,3.144,3.144,0,0,0-.925.395c-.253.163-.5.362-.543.543-.1.386.342.711.342.711s.181.127.132.711S326.744,355.669,326.75,355.687Z" transform="translate(-276.719 -304.073)" fill="#444053"/><path d="M331.93,356.367c.181.091.317.154.344.168.083.042.521-.445.581-.838a7.293,7.293,0,0,1,1.1-1.615,4.381,4.381,0,0,0,.387-1.53c.04-.534-.181-.578-.444-.456a6.029,6.029,0,0,1-.362,1.676C333.277,354.284,332.218,355.924,331.93,356.367Z" transform="translate(-280.962 -304.073)" opacity="0.1"/><path d="M245.25,418.155l-.016.031a1.912,1.912,0,0,0,.116.181l1.653-.509s-.1-.38-.241-.816c-.654-.181-1.591.961-1.591.961Z" transform="translate(-209.909 -357.291)" opacity="0.1"/><path d="M244.784,419.741a6.747,6.747,0,0,0,1.991.409c.473-.056.492-.275.46-.724-.011-.145-.025-.311-.034-.5-.031-.8-.351-.958-.351-.958-.525-1.376-2.037.471-2.037.471l.078.152a1.666,1.666,0,0,0-.154.751,2.2,2.2,0,0,0,.047.4Z" transform="translate(-209.553 -357.645)" fill="#444053"/><path d="M244.787,428.262a6.748,6.748,0,0,0,1.991.409c.473-.056.492-.275.46-.724a1.461,1.461,0,0,1-1.124.322,4.423,4.423,0,0,1-1.374-.409A2.195,2.195,0,0,0,244.787,428.262Z" transform="translate(-209.557 -366.166)" opacity="0.1"/><path d="M207.23,234.185l.543,2.354.11.485,1,.127,1.028.13,1.119-.406a3.778,3.778,0,0,0,.054-1.863,1.18,1.18,0,0,0-.518-.683,1.15,1.15,0,0,1-.215-.167.945.945,0,0,1-.181-.259,1.07,1.07,0,0,1-.1-.375,2.676,2.676,0,0,1,.346-1.331s-2.372-.809-2.187-.286c.121.339-.214.929-.463,1.3-.136.2-.246.34-.246.34Z" transform="translate(-178.837 -205.549)" fill="#efb7b9"/><circle cx="2.06" cy="2.06" r="2.06" transform="translate(28.472 23.608)" opacity="0.1"/><circle cx="2.06" cy="2.06" r="2.06" transform="translate(28.463 23.532)" fill="#efb7b9"/><path d="M207.01,251.822a5.042,5.042,0,0,0,.543,1.17l2.877.706,2.055-2.151v-.014c-.063-.2-.847-2.737-.281-3.362.594-.65.362-2.484.362-2.484s-1.027-1.18-1.235-1.466-1.541-.511-1.541-.511c.067.091.129.181.181.259a2.534,2.534,0,0,1,.328.7,1.039,1.039,0,0,1-.027.755.83.83,0,0,0-.071.194c-.224.983-1.249.845-1.657.748-.105-.025-.17-.047-.17-.047l-.979.031-.616.02s.281,4.848.214,5.234A.619.619,0,0,0,207.01,251.822Z" transform="translate(-178.469 -215.355)" fill="#f86d70"/><path d="M206.813,258.481l1.783-.234h-.033c-.105-.025-.168-.047-.168-.047l-.981.031-.614.02S206.8,258.33,206.813,258.481Z" transform="translate(-178.485 -227.221)" fill="#925978"/><path d="M167.52,208.212l.773.188,1.218-.159.317-.331Z" transform="translate(-137.192 -170.265)" fill="#925978"/><path d="M174.63,211.025l.349.085.143-.15Z" transform="translate(-143.015 -172.763)" fill="#925978"/><path d="M207.026,248.686c.46.047.883.071.883.071l2.37-.089v-2.475a3.51,3.51,0,0,0-.956-.63c-.413-.143-.905-.581-.807-1.736a1.656,1.656,0,0,1,.02-.206,2.658,2.658,0,0,0,.022-.389,2.082,2.082,0,0,0-.657-1.524.313.313,0,0,0-.034-.031l-.386-1.8a.385.385,0,0,0-.078.011c-.136.2-.246.34-.246.34l-.284.623.543,2.354-.616.02s.281,4.848.214,5.234A.619.619,0,0,0,207.026,248.686Z" transform="translate(-178.485 -212.218)" opacity="0.1"/><path d="M196.645,248.8l2.37-.087v-2.477a3.532,3.532,0,0,0-.954-.63c-.436-.152-.956-.63-.788-1.943a2.149,2.149,0,0,0-.63-1.924l-.036-.031-.386-1.8a.835.835,0,0,0-.61.349,1.53,1.53,0,0,1-.143.21.362.362,0,0,1-.476.141c-.25-.11-1.325-.565-1.566-.119a16.058,16.058,0,0,0-.286,3.1,2.026,2.026,0,0,1,.7,1.146c.165.759.44.777.44.777l.3,2.173s.27.473.069.733" transform="translate(-167.298 -212.243)" fill="#444053"/><path d="M206,240.51l.4,1.209.771.067-.036-.031-.386-1.8a.835.835,0,0,0-.61.349A1.532,1.532,0,0,1,206,240.51Z" transform="translate(-177.83 -212.284)" fill="#444053"/><path d="M173.87,230l.053.395,1.711.243s.139-.1.362-.248c-.181-.042-1.032-.226-1.477-.362-.165-.051-.273-.094-.277-.123s.011-.034.038-.056C174.026,229.946,173.87,230,173.87,230Z" transform="translate(-151.517 -204.004)" opacity="0.1"/><path d="M160.689,230.093a11.016,11.016,0,0,0,3.141,1.709,8.312,8.312,0,0,1,2.354,1.086l.724-2.792-.444-.306a1.545,1.545,0,0,1-.987.219c-.456-.109-.961-.181-.961-.181a7.433,7.433,0,0,0-1.229-.337c-.326-.027-.194-.451.132-.675a.707.707,0,0,1,.136-.076.42.42,0,0,0,.543.123,1.24,1.24,0,0,0,.319-.3h0a4.133,4.133,0,0,0,.362-.543s-1.012-.217-1.515-.373c-.165-.051-.273-.094-.277-.123-.014-.116.905-.482.905-.482s-.786-.38-1.1-.1c0,0,.206.154.04.306s-2.173,1.7-2.173,1.7S159.664,229.432,160.689,230.093Z" transform="translate(-140.342 -201.54)" fill="#444053"/><path d="M172,232.717l1.074.154a.708.708,0,0,1,.136-.076.42.42,0,0,0,.543.123,1.24,1.24,0,0,0,.319-.3h0a4.245,4.245,0,0,0,.293-.458s-1.012-.217-1.515-.373Z" transform="translate(-149.985 -205.593)" opacity="0.1"/><path d="M172.34,232.229l1.142.165a.42.42,0,0,0,.543.123,2.641,2.641,0,0,0,.681-.844s-1.012-.217-1.515-.373Z" transform="translate(-150.264 -205.191)" fill="#444053"/><path d="M281.223,330l-1.9,1.439s.862.445,1.664.961c.7-.474,1.361-.905,1.863-1.305A6.937,6.937,0,0,1,281.223,330Z" transform="translate(-237.876 -286.023)" opacity="0.1"/><path d="M232.116,367.215a6.448,6.448,0,0,0,1.394-.333s.351-.076.873-.25c-.016-.181-.027-.387-.029-.621a12.69,12.69,0,0,0-.261-1.991l-1.928.349-.051,2.156A1.437,1.437,0,0,0,232.116,367.215Z" transform="translate(-199.183 -313.884)" opacity="0.1"/><path d="M208.131,293.2c.387.574,1.448,3.014,1.448,3.014a10.378,10.378,0,0,0,.807,1.244,11.059,11.059,0,0,1,1.034,2.678c.32.954-.094.775-.049,1.267s1.857-.145,1.857-.145,3.7-.815,4.834-3.078,5.65-4.312,6.565-5.585-.259-.748-.214-1.437a1.951,1.951,0,0,0-.476-1.267,7.408,7.408,0,0,1-1.982-.816,11.911,11.911,0,0,0-1.638-1.173,9.114,9.114,0,0,1-1.448-.75,9.366,9.366,0,0,0-2.151-.905c-.465-.11-.921-.778-.921-.778s-.288.038-.713-.375a7.123,7.123,0,0,0-2.211-.768c-3.047,2.245-5.152,1.932-5.152,1.932l-.049.424C206.051,288.8,207.744,292.631,208.131,293.2Z" transform="translate(-178.634 -248.621)" fill="#444053"/><path d="M210.79,286.731s2.634.867,5.2-2.341c-3.049,2.234-5.154,1.921-5.154,1.921Z" transform="translate(-181.753 -248.67)" opacity="0.1"/><path d="M235.83,305.588s3.538,5.107,3.757,5.294A54.092,54.092,0,0,0,235.83,305.588Z" transform="translate(-202.26 -266.029)" opacity="0.1"/><path d="M226.8,303.43s2.449,3.8,2.4,4.316C229.2,307.746,226.836,304.091,226.8,303.43Z" transform="translate(-194.864 -264.263)" opacity="0.1"/><path d="M217.888,309.2a5.874,5.874,0,0,1-.228,3.333Z" transform="translate(-187.379 -268.988)" opacity="0.1"/><path d="M212.655,309.88a9.9,9.9,0,0,1-.235,2.22Z" transform="translate(-183.088 -269.545)" opacity="0.1"/><path d="M196.46,213.7l3.253,1.275-1.191.156Z" transform="translate(-160.893 -175.007)" opacity="0.1"/><path d="M208.434,216.45c.163.109.3.281.492.306a.775.775,0,0,0,.4-.1,1.472,1.472,0,0,1,1.027-.139c.478.158.74.708,1.217.871a.867.867,0,0,0,.456.025.884.884,0,0,0,.257-.1.827.827,0,0,0,.362-.514,1.065,1.065,0,0,0-.362-1,2.221,2.221,0,0,0-1.012-.46,10.019,10.019,0,0,0-2.926-.067.425.425,0,0,0-.228.06,1.359,1.359,0,0,0-.349.855C207.841,216.425,208.407,216.244,208.434,216.45Z" transform="translate(-179.272 -192)" opacity="0.1"/><path d="M208.385,216.026c.163.107.3.281.492.306a.766.766,0,0,0,.4-.1,1.473,1.473,0,0,1,1.027-.139c.478.159.74.71,1.217.871a.851.851,0,0,0,.456.025.833.833,0,0,0,.257-.1.847.847,0,0,0,.373-.514,1.07,1.07,0,0,0-.371-1,2.228,2.228,0,0,0-1.012-.458,10.019,10.019,0,0,0-2.926-.069.431.431,0,0,0-.228.062,1.365,1.365,0,0,0-.349.855C207.791,216.008,208.357,215.816,208.385,216.026Z" transform="translate(-179.232 -191.652)" fill="#3f3d56"/><path d="M281,219.683l.311,1.258.4-.244,2.194-1.323s1.662-.062,1.79-1.4-1.847-.013-1.952.089-.344.281-.344.281l-2.042,1.141Z" transform="translate(-239.252 -193.794)" fill="#efb7b9"/><path d="M281,229.189l.311,1.258.4-.244a3,3,0,0,0-.362-1.213Z" transform="translate(-239.252 -203.3)" opacity="0.1"/><path d="M221.18,247.841l.447,2.625,2.647-.549c-.063-.2-.847-2.737-.281-3.362.594-.65.362-2.484.362-2.484s-1.026-1.18-1.235-1.466-1.541-.511-1.541-.511a1.07,1.07,0,0,1-.1-.375,1.506,1.506,0,0,0-.1.281,1.058,1.058,0,0,0,.706,1.048c.045.022.092.042.143.062.08.033.168.063.263.092l.043.013a1.489,1.489,0,0,1,1.037.764,1.953,1.953,0,0,1,.387,1.376C223.879,246.161,221.18,247.841,221.18,247.841Z" transform="translate(-190.262 -213.725)" opacity="0.1"/><path d="M222,237.314l.447,2.623,2.993-.623a5.393,5.393,0,0,0-.3-1.392,7.361,7.361,0,0,1-.167-1.972,2.094,2.094,0,0,0,.6-2.475s3.724-.6,3.787-.724a11.014,11.014,0,0,1,1.305-.782,6.988,6.988,0,0,0,1.532-.543,1.63,1.63,0,0,1,.221-.2.579.579,0,0,1,.072-.047l.1.86h.045a1.226,1.226,0,0,0,.587-.232c.308-.235-.081-2.815-.38-2.906a.344.344,0,0,0-.172,0,1.945,1.945,0,0,0-.643.348l-.053.042-.018.016a12.676,12.676,0,0,0-2.022.965,13.9,13.9,0,0,1-2.958.69s-1.175.279-1.327.11-1.946-.444-2.1-.181-.567.215-.567.215c-.3-.34-.5-.208-.625-.013a1.367,1.367,0,0,0-.159.378,1.106,1.106,0,0,0,.849,1.11c.094.036.2.072.306.105a1.483,1.483,0,0,1,1.037.764,1.95,1.95,0,0,1,.389,1.376C224.7,235.633,222,237.314,222,237.314Z" transform="translate(-190.933 -203.217)" fill="#444053"/><path d="M277.872,229a.279.279,0,0,1,.1.011c.3.091.686,2.672.378,2.908a1.213,1.213,0,0,1-.523.226h-.045l-.1-.86a.583.583,0,0,0-.072.047v-.036a2.234,2.234,0,0,0-.425-1.91Z" transform="translate(-236.124 -203.305)" opacity="0.1"/><path d="M277.856,231.189l.1.86a1.2,1.2,0,0,0,.639-.244c.308-.235-.081-2.815-.38-2.906-.235-.072-.65.221-.815.346A2.238,2.238,0,0,1,277.856,231.189Z" transform="translate(-236.304 -203.216)" fill="#444053"/><path d="M224.019,242.518l.429-.4-1.119-1.086a1.367,1.367,0,0,0-.159.378A1.11,1.11,0,0,0,224.019,242.518Z" transform="translate(-191.892 -213.16)" fill="#444053"/><path d="M208.379,219.822c.163.107.3.281.492.306a.766.766,0,0,0,.4-.1,1.473,1.473,0,0,1,1.027-.139c.478.159.74.71,1.217.871a.851.851,0,0,0,.456.025.82.82,0,0,0,.65-.847.858.858,0,0,1,0,.384.84.84,0,0,1-.373.514.815.815,0,0,1-.257.1.844.844,0,0,1-.454-.025c-.478-.161-.74-.711-1.218-.871a1.483,1.483,0,0,0-1.027.139.766.766,0,0,1-.4.1c-.194-.025-.329-.2-.492-.306-.027-.21-.594-.018-.664-.27a.3.3,0,0,1,0-.116C207.847,219.784,208.352,219.624,208.379,219.822Z" transform="translate(-179.246 -195.601)" opacity="0.1"/><path d="M218.928,253.6s-.237.666.065.891c0,0-.331-.882-.523-.862" transform="translate(-188.042 -223.454)" opacity="0.1"/><path d="M298.717,217.76s-1.53,1.323-.424,1.537S298.717,217.76,298.717,217.76Z" transform="translate(-253.086 -194.103)" fill="#efb7b9"/><g transform="translate(78.391 29.344)" opacity="0.1"><path d="M553.724,420.25H506.11v42.172c0,9.642-7.377,16.294-16.406,16.294a18.129,18.129,0,0,1-6.3-1.106,17.659,17.659,0,0,0,8.657,2.192c9.029,0,16.406-6.648,16.406-16.294V421.336h45.26Z" transform="translate(-483.4 -389.278)"/><path d="M558.42,224.534h2.354V213.126h45.264V212.04H558.42Z" transform="translate(-535.714 -202.992)"/><path d="M825.1,249.17v73.14c0,9.642-7.377,16.294-16.406,16.294a18.128,18.128,0,0,1-6.3-1.106,17.659,17.659,0,0,0,8.657,2.192c9.029,0,16.406-6.648,16.406-16.294V249.17Z" transform="translate(-744.64 -249.17)"/></g><path d="M627.807,126.844c1.168,2.413,3.078,5.158,5.238,4.11s3.773-5.495,2.605-7.911a4.383,4.383,0,1,0-7.843,3.8Z" transform="translate(-522.834 -114.187)" fill="#3444b3"/><path d="M650.754,180.941s.422-.071.261-.418a.651.651,0,0,0-.051-.089,1.116,1.116,0,0,1-.161-.449,1.629,1.629,0,0,1,.02-.559l-1.15-.076s.447.38.395.579a.114.114,0,0,1-.052.069.181.181,0,0,1-.076.033l-.087.025c-.3.107-.181.259-.181.259C649.711,180.811,650.754,180.941,650.754,180.941Z" transform="translate(-541.159 -162.646)" fill="#3444b3"/><path d="M651.68,182.619l.811.112a1.01,1.01,0,0,1-.023-.125c-.206-.009-.53-.036-.735-.056A.114.114,0,0,1,651.68,182.619Z" transform="translate(-542.824 -165.267)" fill="#444053"/><path d="M650.754,184.135s.422-.071.261-.418a1.3,1.3,0,0,1-.5.02,1.1,1.1,0,0,1-.664-.487c-.3.107-.181.259-.181.259C649.711,184,650.754,184.135,650.754,184.135Z" transform="translate(-541.159 -165.84)" fill="#3444b3"/><path d="M650.754,184.135s.422-.071.261-.418a1.3,1.3,0,0,1-.5.02,1.1,1.1,0,0,1-.664-.487c-.3.107-.181.259-.181.259C649.711,184,650.754,184.135,650.754,184.135Z" transform="translate(-541.159 -165.84)" opacity="0.1"/><path d="M652.37,123.72s1.285-.156,1.649.7a1.033,1.033,0,0,0-.462.027.656.656,0,0,1-.3.058A1.724,1.724,0,0,0,652.37,123.72Z" transform="translate(-543.389 -117.079)" fill="#fff" opacity="0.1"/><path d="M657.759,212.894a.453.453,0,0,0,.072-.072.98.98,0,0,1,.275-.217.964.964,0,0,1,.114-.058,1.677,1.677,0,0,1,.362-.109,1.444,1.444,0,0,1,.181-.02l-.163-.778v-.011l-.071-.339a2.45,2.45,0,0,1-.163.284c-.083.127-.181.248-.29.25a.129.129,0,0,1-.081-.031.245.245,0,0,1-.051-.065c-.018-.029-.033-.054-.049-.078-.181-.261-.3-.1-.3-.1-.206.074-.292.32-.322.568a.352.352,0,0,1-.011.107,2.841,2.841,0,0,0,.018.527S657.473,213.144,657.759,212.894Z" transform="translate(-547.396 -188.804)" fill="#3444b3"/><path d="M661.541,214.881a.966.966,0,0,1,.114-.058c-.04-.168-.089-.422-.123-.621v-.042a.124.124,0,0,0-.011-.06.128.128,0,0,1-.081-.031l.018.121v.049Z" transform="translate(-550.817 -191.081)" fill="#444053"/><path d="M657.759,213.854a1.305,1.305,0,0,1-.152-.474,1.029,1.029,0,0,1,.034-.3c.009-.029.016-.058.027-.085a.882.882,0,0,1,.228-.384c-.181-.261-.3-.1-.3-.1-.206.074-.292.32-.322.568a.352.352,0,0,1-.011.107,2.841,2.841,0,0,0,.018.527S657.473,214.1,657.759,213.854Z" transform="translate(-547.396 -189.764)" fill="#3444b3"/><path d="M657.759,213.854a1.305,1.305,0,0,1-.152-.474,1.029,1.029,0,0,1,.034-.3c.009-.029.016-.058.027-.085a.882.882,0,0,1,.228-.384c-.181-.261-.3-.1-.3-.1-.206.074-.292.32-.322.568a.352.352,0,0,1-.011.107,2.841,2.841,0,0,0,.018.527S657.473,214.1,657.759,213.854Z" transform="translate(-547.396 -189.764)" opacity="0.1"/><path d="M606.063,142.014a13.264,13.264,0,0,0,3.177,1.559,3.905,3.905,0,0,0,2.274.119,2.084,2.084,0,0,0,.771-.445,2.2,2.2,0,0,0,.389-.463c.766-1.2.751-3.3.145-5.122a5.631,5.631,0,0,0-2.051-2.984,4.383,4.383,0,1,0-4.705,7.336Z" transform="translate(-503.53 -125.374)" fill="#3444b3"/><path d="M606.063,142.014a13.264,13.264,0,0,0,3.177,1.559,3.905,3.905,0,0,0,2.274.119,2.084,2.084,0,0,0,.771-.445,2.2,2.2,0,0,0,.389-.463c.766-1.2.751-3.3.145-5.122a5.631,5.631,0,0,0-2.051-2.984,4.383,4.383,0,1,0-4.705,7.336Z" transform="translate(-503.53 -125.374)" opacity="0.1"/><path d="M645.584,186.276c.288.4,1.242-.029,1.242-.029s.324-.279,0-.491a.769.769,0,0,0-.089-.051,1.01,1.01,0,0,1-.288-.2c-.029-.029-.058-.06-.085-.092a1.694,1.694,0,0,1-.2-.32,1.345,1.345,0,0,1-.071-.168l-1.021.543a2.315,2.315,0,0,1,.32.078c.147.047.292.116.319.21a.114.114,0,0,1,0,.087.215.215,0,0,1-.049.067q-.031.032-.06.067C645.394,186.213,645.584,186.276,645.584,186.276Z" transform="translate(-537.41 -167.208)" fill="#3444b3"/><path d="M648.58,188.092l.748-.329c-.029-.029-.058-.06-.085-.092-.181.1-.469.244-.655.335A.114.114,0,0,1,648.58,188.092Z" transform="translate(-540.285 -169.46)" fill="#444053"/><path d="M647.54,190.06c.288.4,1.242-.029,1.242-.029s.324-.279,0-.491a1.251,1.251,0,0,1-.415.275,1.1,1.1,0,0,1-.818-.067C647.35,190,647.54,190.06,647.54,190.06Z" transform="translate(-539.366 -170.992)" fill="#3444b3"/><path d="M647.54,190.06c.288.4,1.242-.029,1.242-.029s.324-.279,0-.491a1.251,1.251,0,0,1-.415.275,1.1,1.1,0,0,1-.818-.067C647.35,190,647.54,190.06,647.54,190.06Z" transform="translate(-539.366 -170.992)" opacity="0.1"/><path d="M618.28,137.088s1.016-.8,1.772-.263a1.043,1.043,0,0,0-.378.264.657.657,0,0,1-.228.206A1.725,1.725,0,0,0,618.28,137.088Z" transform="translate(-515.471 -127.668)" fill="#fff" opacity="0.1"/><g transform="translate(112.215 16.738)" opacity="0.1"><path d="M676.758,180.668l-.235-1.128a2.176,2.176,0,0,1-.163.284,2.039,2.039,0,0,0,.217.865A1.268,1.268,0,0,1,676.758,180.668Z" transform="translate(-675.251 -179.54)"/><path d="M670.733,181.146a.542.542,0,0,0,.072-.072,1.012,1.012,0,0,1,.275-.219.96.96,0,0,1,.114-.058,1.551,1.551,0,0,1,.362-.107,1.267,1.267,0,0,1,.181-.022l-.235-1.128a2.168,2.168,0,0,1-.163.284c-.083.127-.19.25-.29.252a.132.132,0,0,1-.08-.033.222.222,0,0,1-.056-.058c-.016-.029-.033-.054-.047-.078-.181-.261-.3-.1-.3-.1-.465.168-.315,1.2-.315,1.2S670.442,181.394,670.733,181.146Z" transform="translate(-670.232 -179.54)"/><path d="M674.429,183.115a.964.964,0,0,1,.114-.058c-.047-.2-.1-.518-.143-.724a.132.132,0,0,1-.08-.033Z" transform="translate(-673.58 -181.8)"/><path d="M670.758,182.109a1.326,1.326,0,0,1-.152-.476,1.112,1.112,0,0,1,.292-.769c-.181-.261-.3-.1-.3-.1-.465.168-.315,1.2-.315,1.2S670.466,182.357,670.758,182.109Z" transform="translate(-670.257 -180.503)"/><path d="M670.758,182.109a1.326,1.326,0,0,1-.152-.476,1.112,1.112,0,0,1,.292-.769c-.181-.261-.3-.1-.3-.1-.465.168-.315,1.2-.315,1.2S670.466,182.357,670.758,182.109Z" transform="translate(-670.257 -180.503)" opacity="0.1"/></g><path d="M669.93,179.914a.453.453,0,0,0,.072-.072,1.012,1.012,0,0,1,.275-.217.964.964,0,0,1,.114-.058,1.551,1.551,0,0,1,.362-.107,1.265,1.265,0,0,1,.181-.022l-.235-1.128a2.312,2.312,0,0,1-.163.284c-.083.127-.181.25-.29.25a.119.119,0,0,1-.08-.031.251.251,0,0,1-.052-.065c-.016-.029-.033-.054-.047-.078-.181-.261-.3-.1-.3-.1-.465.17-.315,1.2-.315,1.2S669.638,180.164,669.93,179.914Z" transform="translate(-557.362 -161.795)" fill="#3444b3"/><path d="M673.609,181.893a.969.969,0,0,1,.114-.058c-.047-.2-.1-.518-.143-.724a.119.119,0,0,1-.08-.031Z" transform="translate(-560.693 -164.063)" fill="#444053"/><path d="M669.979,180.874a1.306,1.306,0,0,1-.152-.474,1.111,1.111,0,0,1,.3-.769c-.181-.261-.3-.1-.3-.1-.465.17-.315,1.2-.315,1.2S669.687,181.124,669.979,180.874Z" transform="translate(-557.411 -162.755)" fill="#3444b3"/><path d="M669.979,180.874a1.306,1.306,0,0,1-.152-.474,1.111,1.111,0,0,1,.3-.769c-.181-.261-.3-.1-.3-.1-.465.17-.315,1.2-.315,1.2S669.687,181.124,669.979,180.874Z" transform="translate(-557.411 -162.755)" opacity="0.1"/><g transform="translate(111.165 14.535)" opacity="0.1"><path d="M666.345,167.665a2.066,2.066,0,0,0,.836.31,1.51,1.51,0,0,1,.083-.163l-1.065-.442A2.173,2.173,0,0,1,666.345,167.665Z" transform="translate(-665.88 -167.37)"/><path d="M665.274,169.244s.422.071.382-.311a.585.585,0,0,0-.02-.1,1,1,0,0,1-.025-.349.964.964,0,0,1,.018-.127,1.743,1.743,0,0,1,.2-.523l-1.065-.442a2.174,2.174,0,0,1,.148.291c.058.141.1.3.043.38a.125.125,0,0,1-.072.049.192.192,0,0,1-.081,0h-.092c-.319,0-.246.181-.246.181C664.33,168.786,665.274,169.244,665.274,169.244Z" transform="translate(-664.447 -167.386)"/><path d="M666.8,171.144l.724.362a.964.964,0,0,1,.018-.127c-.192-.074-.489-.206-.677-.29A.125.125,0,0,1,666.8,171.144Z" transform="translate(-666.372 -170.417)"/><path d="M665.26,172.528s.422.071.382-.311a1.3,1.3,0,0,1-.478-.141,1.115,1.115,0,0,1-.473-.675c-.319,0-.246.181-.246.181C664.317,172.07,665.26,172.528,665.26,172.528Z" transform="translate(-664.434 -170.67)"/><path d="M665.26,172.528s.422.071.382-.311a1.3,1.3,0,0,1-.478-.141,1.115,1.115,0,0,1-.473-.675c-.319,0-.246.181-.246.181C664.317,172.07,665.26,172.528,665.26,172.528Z" transform="translate(-664.434 -170.67)" opacity="0.1"/></g><path d="M664.833,168.606s.422.071.382-.31a.557.557,0,0,0-.02-.1,1.011,1.011,0,0,1-.025-.351.947.947,0,0,1,.018-.125,1.48,1.48,0,0,1,.116-.362,1.522,1.522,0,0,1,.083-.163l-1.065-.444a2.173,2.173,0,0,1,.145.3c.058.143.1.3.043.382a.131.131,0,0,1-.072.047.222.222,0,0,1-.081,0h-.092c-.319,0-.246.181-.246.181C663.893,168.149,664.833,168.606,664.833,168.606Z" transform="translate(-552.919 -152.328)" fill="#3444b3"/><path d="M666.39,170.533l.724.362a.938.938,0,0,1,.018-.125c-.192-.074-.489-.206-.677-.29A.13.13,0,0,1,666.39,170.533Z" transform="translate(-554.871 -155.382)" fill="#444053"/><path d="M664.833,171.906s.422.071.382-.31a1.346,1.346,0,0,1-.478-.143,1.111,1.111,0,0,1-.473-.673c-.319,0-.246.181-.246.181C663.893,171.45,664.833,171.906,664.833,171.906Z" transform="translate(-552.919 -155.628)" fill="#3444b3"/><path d="M664.833,171.906s.422.071.382-.31a1.346,1.346,0,0,1-.478-.143,1.111,1.111,0,0,1-.473-.673c-.319,0-.246.181-.246.181C663.893,171.45,664.833,171.906,664.833,171.906Z" transform="translate(-552.919 -155.628)" opacity="0.1"/><path d="M644.491,196.789a2.252,2.252,0,0,1,.165-.282c.087-.127.194-.248.292-.248a.114.114,0,0,1,.081.033.234.234,0,0,1,.051.063c.016.031.033.056.047.08.181.264.3.1.3.1.467-.163.326-1.2.326-1.2s-.181-.389-.471-.143a.669.669,0,0,0-.074.071,1.156,1.156,0,0,1-.391.273,1.629,1.629,0,0,1-.362.1,1.153,1.153,0,0,1-.181.02Z" transform="translate(-536.755 -175.553)" fill="#3444b3"/><path d="M647.394,197.93a.114.114,0,0,1,.081.033l-.1-.813a.952.952,0,0,1-.114.056C647.307,197.405,647.361,197.726,647.394,197.93Z" transform="translate(-539.204 -177.224)" fill="#444053"/><path d="M649,196.434c.181.264.3.1.3.1.467-.163.326-1.2.326-1.2s-.181-.389-.471-.143a1.268,1.268,0,0,1,.145.476A1.1,1.1,0,0,1,649,196.434Z" transform="translate(-540.629 -175.553)" fill="#3444b3"/><path d="M649,196.434c.181.264.3.1.3.1.467-.163.326-1.2.326-1.2s-.181-.389-.471-.143a1.268,1.268,0,0,1,.145.476A1.1,1.1,0,0,1,649,196.434Z" transform="translate(-540.629 -175.553)" opacity="0.1"/><path d="M636.088,193.605a3.539,3.539,0,0,0,.543-1.81c.087-.127.194-.248.291-.248a.114.114,0,0,1,.081.033.236.236,0,0,1,.051.063c.016.031.033.056.047.08.181.264.3.1.3.1.467-.163.326-1.2.326-1.2s-.181-.389-.471-.143a.657.657,0,0,0-.074.071,1.158,1.158,0,0,1-.391.273,1.631,1.631,0,0,1-.362.1,2.432,2.432,0,0,0-.335-.5,4.13,4.13,0,0,0-1.611-1.063A8.495,8.495,0,0,0,636.088,193.605Z" transform="translate(-528.738 -170.844)" opacity="0.1"/><path d="M657.39,166.333a3.138,3.138,0,0,0,.389-.087,3.406,3.406,0,0,0,.346-.119l.074-.031c.1-.042.194-.087.292-.138s.147-.076.221-.118a8.214,8.214,0,0,0,3.313-4.015,5.27,5.27,0,0,0,.324-1.38,3.715,3.715,0,0,0-.011-.751,5.3,5.3,0,0,0-.673-2.029c-.04-.067-.078-.13-.119-.192A4.325,4.325,0,0,0,657.5,155.4a4.405,4.405,0,0,0,1.555,2.332c.058.143.1.3.043.382a.13.13,0,0,1-.072.047.223.223,0,0,1-.081,0h-.092c-.319,0-.246.181-.246.181-.125.48.815.938.815.938s.422.071.382-.31a.556.556,0,0,0-.02-.1,1.011,1.011,0,0,1-.025-.351.947.947,0,0,1,.018-.125,1.48,1.48,0,0,1,.116-.362,2.327,2.327,0,0,0,.6,0,3.211,3.211,0,0,0,.826-.224c-.038.06-.072.119-.1.181a3.552,3.552,0,0,0-.543,1.81c-.083.127-.181.25-.29.25a.119.119,0,0,1-.08-.031.25.25,0,0,1-.053-.065c-.016-.029-.033-.054-.047-.078-.181-.261-.3-.1-.3-.1-.465.17-.315,1.2-.315,1.2s.181.387.473.138a.456.456,0,0,0,.072-.072,1.012,1.012,0,0,1,.275-.217.964.964,0,0,1,.114-.058,1.552,1.552,0,0,1,.362-.107,2.307,2.307,0,0,0,.339.5l.072.078-.025.024a14.3,14.3,0,0,0-1.606,1.709,6.4,6.4,0,0,0-.413.576q-.134.2-.25.407a3.561,3.561,0,0,0-.532,1.81c-.083.127-.181.248-.29.25a.129.129,0,0,1-.081-.031.246.246,0,0,1-.051-.065c-.018-.029-.033-.054-.049-.078-.181-.261-.3-.1-.3-.1A.683.683,0,0,0,657.39,166.333Z" transform="translate(-547.5 -143.016)" opacity="0.1"/><g transform="translate(105.589 12.295)" opacity="0.1"><path d="M666.127,161.2a.652.652,0,0,0,.3.042,1.055,1.055,0,0,1,.445.123c-.069-.927-1.336-1.195-1.336-1.195A1.72,1.72,0,0,1,666.127,161.2Z" transform="translate(-659.764 -159.234)"/><path d="M633.675,160.341c.023.181.049.378.08.57a3.905,3.905,0,0,0,2.274.119c.147.047.291.116.319.21a.114.114,0,0,1,0,.087.217.217,0,0,1-.049.067.878.878,0,0,0-.06.067c-.2.248-.013.311-.013.311.288.4,1.242-.029,1.242-.029s.324-.279,0-.491a.772.772,0,0,0-.089-.051,1.011,1.011,0,0,1-.288-.2c-.029-.029-.058-.06-.085-.092a1.7,1.7,0,0,1-.2-.32,2.2,2.2,0,0,0,.389-.463c.766-1.2.751-3.3.145-5.122A4.641,4.641,0,0,0,633.675,160.341Z" transform="translate(-633.634 -155)"/><path d="M645.328,212.284a2.064,2.064,0,0,0,.835.313,1.32,1.32,0,0,1,.085-.163L645.18,212a2.5,2.5,0,0,1,.148.284Z" transform="translate(-643.09 -201.681)"/><path d="M644.256,213.845s.424.072.382-.31a.544.544,0,0,0-.018-.1,1.014,1.014,0,0,1-.025-.351.906.906,0,0,1,.016-.125,1.63,1.63,0,0,1,.116-.362,1.321,1.321,0,0,1,.085-.163L643.746,212a2.519,2.519,0,0,1,.145.293c.056.143.1.3.042.382a.119.119,0,0,1-.071.049.239.239,0,0,1-.083,0,.819.819,0,0,0-.091,0c-.32,0-.248.181-.248.181C643.317,213.389,644.256,213.845,644.256,213.845Z" transform="translate(-641.655 -201.681)"/><path d="M645.82,215.762l.724.362a.473.473,0,0,1,.016-.125c-.19-.074-.489-.206-.677-.29A.121.121,0,0,1,645.82,215.762Z" transform="translate(-643.614 -204.719)"/><path d="M644.255,217.1s.422.071.382-.311a1.286,1.286,0,0,1-.478-.141,1.1,1.1,0,0,1-.473-.673c-.32,0-.248.181-.248.181C643.313,216.64,644.255,217.1,644.255,217.1Z" transform="translate(-641.654 -204.932)"/><path d="M644.255,217.1s.422.071.382-.311a1.286,1.286,0,0,1-.478-.141,1.1,1.1,0,0,1-.473-.673c-.32,0-.248.181-.248.181C643.313,216.64,644.255,217.1,644.255,217.1Z" transform="translate(-641.654 -204.932)" opacity="0.1"/><path d="M666.127,161.2a.652.652,0,0,0,.3.042,1.055,1.055,0,0,1,.445.123c-.069-.927-1.336-1.195-1.336-1.195A1.72,1.72,0,0,1,666.127,161.2Z" transform="translate(-659.764 -159.234)" opacity="0.1"/></g><path d="M635.113,160.984c.328,2.661,1.246,5.873,3.633,5.578s5.344-3.983,5.017-6.646a4.383,4.383,0,1,0-8.65,1.068Z" transform="translate(-529.222 -143.2)" fill="#3444b3"/><path d="M645.673,214.614s.422.072.382-.31a.816.816,0,0,0-.018-.1.971.971,0,0,1-.027-.351.72.72,0,0,1,.018-.125,1.628,1.628,0,0,1,.2-.523l-1.065-.444s.3.505.181.677a.125.125,0,0,1-.072.049.279.279,0,0,1-.082,0h-.09c-.32,0-.248.181-.248.181C644.733,214.159,645.673,214.614,645.673,214.614Z" transform="translate(-537.224 -190.008)" fill="#3444b3"/><path d="M647.25,216.542l.724.362a.715.715,0,0,1,.018-.125c-.192-.074-.489-.206-.677-.29A.125.125,0,0,1,647.25,216.542Z" transform="translate(-539.196 -193.063)" fill="#444053"/><path d="M645.693,217.906s.422.072.382-.31a1.267,1.267,0,0,1-.478-.143,1.1,1.1,0,0,1-.471-.673c-.32,0-.248.181-.248.181C644.753,217.452,645.693,217.906,645.693,217.906Z" transform="translate(-537.244 -193.3)" fill="#3444b3"/><path d="M645.693,217.906s.422.072.382-.31a1.267,1.267,0,0,1-.478-.143,1.1,1.1,0,0,1-.471-.673c-.32,0-.248.181-.248.181C644.753,217.452,645.693,217.906,645.693,217.906Z" transform="translate(-537.244 -193.3)" opacity="0.1"/><path d="M667,161s1.267.268,1.336,1.195a1.039,1.039,0,0,0-.447-.121.659.659,0,0,1-.3-.043A1.732,1.732,0,0,0,667,161Z" transform="translate(-555.37 -147.619)" fill="#fff" opacity="0.1"/><path d="M644.12,218.1a.771.771,0,0,1,.686.949c-.159.534-.815.7-1.242,1.059a2.177,2.177,0,0,0-.684,1.483,3.636,3.636,0,0,0,1.045,2.875c.384.378.847.668,1.226,1.052a6.259,6.259,0,0,1,1.059,1.615,3.781,3.781,0,0,1,.469,1.358,3.2,3.2,0,0,1-.779,2.1,14.4,14.4,0,0,0-1.361,1.843,3.872,3.872,0,0,0-.223,3.036.393.393,0,0,0,.129.2.143.143,0,0,0,.21-.045" transform="translate(-535.606 -194.381)" fill="none" stroke="#444053" stroke-miterlimit="10" stroke-width="1"/><path d="M645.457,217.36a.362.362,0,0,1,.016.46.559.559,0,0,1-.442.2c-.2,0-.433-.063-.6.056a.52.52,0,0,0-.181.393,2,2,0,0,1-.045.444.883.883,0,0,1-.2.319.979.979,0,0,1-.362.264c-.3.118-.652.011-.961.109a1.35,1.35,0,0,0-.75.978,2.815,2.815,0,0,0-.089,1.517,5.246,5.246,0,0,0,.411.931,2.106,2.106,0,0,1,.268.97.891.891,0,0,1-.511.815" transform="translate(-534.718 -193.775)" fill="none" stroke="#444053" stroke-miterlimit="10" stroke-width="1"/><path d="M552.8,276.931c-.487.648-.672,1.684-1.468,1.841a1.825,1.825,0,0,1-1.186-.333,8.456,8.456,0,0,0-2.716-1.117,2.934,2.934,0,0,0-2.7.813c-.436.511-.616,1.195-1,1.745a3.581,3.581,0,0,1-2.028,1.332,8.3,8.3,0,0,1-2.459.21,1.337,1.337,0,0,1-.867-.235,2.112,2.112,0,0,1-.362-.552,2.416,2.416,0,0,0-1.935-1.07,5.088,5.088,0,0,0-2.23.473,2.377,2.377,0,0,1-1.112.281,2.038,2.038,0,0,1-1.278-.914,18.1,18.1,0,0,1-2.2-3.574" transform="translate(-442.575 -241.66)" fill="none" stroke="#444053" stroke-miterlimit="10" stroke-width="1"/><path d="M497.871,332.282c.194-.7.32-1.323.32-1.323a2.77,2.77,0,0,1,.362-1.342l.009-.194h0l.054-1.428a4.807,4.807,0,0,0-.331-.762,5.574,5.574,0,0,1,.081-2.095,9.248,9.248,0,0,0,.867-3.762c-.176-1.479,2.209-6.46,2.209-6.46a6.4,6.4,0,0,0-.15-1.448,1.234,1.234,0,0,1-.016-.3v-.025a11.308,11.308,0,0,1,.905-2.759l.031-3.469a10.2,10.2,0,0,1,.494-4.778c.315-.947.523-1.705.659-2.292.016-.067.031-.13.043-.192-1.629-.315-2.882-.572-2.882-.572s1.106-3.952,1.778-4.626a9.169,9.169,0,0,0,1.267-2.85s.444-2.8-.067-3.648a5.441,5.441,0,0,1-.525-2.276s-1.2-.945-1.341-1.351a6.613,6.613,0,0,1-.344-1.787c.018-.474.181-.893.147-1.142s.407-1.184.217-1.64a1.267,1.267,0,0,1-.065-.436s0,0,0-.013a6.065,6.065,0,0,1,.154-1.166,3.3,3.3,0,0,1,1.249-.606l.031-.107.08-.277c.043-.027.085-.049.125-.069v-.1l.027-.406-.159-.918c-.319-1.6,1.81-1.752,1.81-1.752a1.112,1.112,0,0,1,.619-.5c.431-.134-.022,2.384-.226,2.535a9.837,9.837,0,0,0-.883,1.267h0l-.04.063a.883.883,0,0,1,.094.105l-.1.543-.016.083a2.286,2.286,0,0,1,.315.588,1.226,1.226,0,0,0-.344.887,2.8,2.8,0,0,1-.17,1.086c.024-.024.308-.308.576-.226s1.019.339,1.019.339.563.123.507.244.362.688.362.688l1.586-1.361c.016-.043.034-.085.049-.13a3.567,3.567,0,0,0,.158-.626,3.473,3.473,0,0,1-.482-.181,1.046,1.046,0,0,1-.411-.286,1.629,1.629,0,0,1-.219-.666,9.4,9.4,0,0,0-.518-1.282,4.108,4.108,0,0,1-.217-2.276,1.5,1.5,0,0,1,.261-.654c.261-.333.724-.454,1.055-.713s.567-.67.956-.86a1.826,1.826,0,0,1,1.16-.054,6.21,6.21,0,0,1,2.129.867,1.1,1.1,0,0,0,.711.264.958.958,0,0,0,.543-.362v-.02l.016-.02a2.688,2.688,0,0,1,.194,1.15.765.765,0,0,1-.014.181v.063a.26.26,0,0,0,0,.052h0a.314.314,0,0,0,0,.081.584.584,0,0,0,.134.212,1.083,1.083,0,0,1,.118.181.208.208,0,0,0-.018-.063.905.905,0,0,1,.139.487.485.485,0,0,1-.127.339,1.573,1.573,0,0,1-.257.19,2.9,2.9,0,0,1-1.506,2.967c-.018.042-.038.085-.056.129a3.64,3.64,0,0,0-.34,1.651.353.353,0,0,0,.014.121.8.8,0,0,1,.051.065h0s2.513.121,3.127-.393,1.448,1.369,1.448,1.369.9.208,1.086.042,1.238.022,1.238.022a2.268,2.268,0,0,1,1.593-.512,4.655,4.655,0,0,1,1.179-.6h.029a1.3,1.3,0,0,1,.568-.051,11.6,11.6,0,0,0,1.658-1.508c.382-.534,2.172-2.506,2.187-2.513l.009-.1.031-.3a1.1,1.1,0,0,0,.154.02c.011-.029.024-.063.04-.1a5.392,5.392,0,0,1,.4-.824s.015-.375-.092-.473a6.341,6.341,0,0,1,.1-1.465s1.213-2.562,2.138-.579c0,0,1.838,1.332.2,2.737,0,0-.643.281-.742.52-.065.156-.3.588-.451.874-.027.047-.051.091-.071.129l.018.016-.033.243-.015.094c.293.181.489.362.435.483a2.784,2.784,0,0,0-.206.666s-2.3,2.658-2.625,3.82c0,0-6.009,3.259-7.949,3.44l.268,1.758s.062,1.052.022,1.425.152,2.08.152,2.08a13.828,13.828,0,0,0,.509,2.866,4.79,4.79,0,0,1,.161,1.854,12.516,12.516,0,0,0,.306,2.134,5.462,5.462,0,0,1,0,2.124s.893,2.283-1.392.67c0,0-1.15-.116-2.473-.212v.134c0,.17,0,.362-.014.543-.031,1.287-.092,3.06-.2,4.4-.2,2.364-1.1,7.024-1.1,7.024l-.091,2.354a3.071,3.071,0,0,1,.042.675,4.374,4.374,0,0,1-.724,2.334l-.277,1.555a6.157,6.157,0,0,0-.5,1.629.773.773,0,0,0,.013.15,1.1,1.1,0,0,1,.011.243,13.29,13.29,0,0,1-.5,2.4s-.092,1.72-.362,1.81c-.223.078.257,1,.4,1.267a.471.471,0,0,0,.011-.049l.031.054a1.219,1.219,0,0,1,.063.438.626.626,0,0,1-.31.594c-.5.279-.773.52-.362.634.158.045.326.062.451.114,0-.02.016-.04.024-.058a.275.275,0,0,1,.157.31,1.267,1.267,0,0,1-.181.578,6.179,6.179,0,0,1-.746,1.244l-.2-.029a.966.966,0,0,0,.107.217.838.838,0,0,0,.281.27.9.9,0,0,0,.348.134.994.994,0,0,1,.724.384.76.76,0,0,1-.136,1.179l-1.867.565s-3.186.29-2.991-.415.322-1.323.322-1.323a2.813,2.813,0,0,1,.315-1.238,1.3,1.3,0,0,1,.119-.181l-.112-.018a5.8,5.8,0,0,0-.469-1.89c-.069-.072-.083-.127-.063-.167-.029-.087.052-.134.157-.158a.271.271,0,0,0,.02.062,1.648,1.648,0,0,1,.31-.022s.136-.818-.181-1.132a.317.317,0,0,1-.056-.246,1.343,1.343,0,0,1,.049-.335l.011.02a12.128,12.128,0,0,1,.813-1.9,2.35,2.35,0,0,0-.139-1.054,26.366,26.366,0,0,1,.181-4.064,12.865,12.865,0,0,1,.257-2.663,3.044,3.044,0,0,0-.214-1.856v-.054a.04.04,0,0,0,0-.013l.042-.286V315c.071-.48.2-1.349.29-1.751.125-.568.1-3.317.1-3.317l-.42-1.191-.905,1.991-.974,2.649a2.3,2.3,0,0,0-.489,1.128v.085a1.493,1.493,0,0,1,0,.181,1.6,1.6,0,0,1-.3.95,4.157,4.157,0,0,1-.654,1.573,1.429,1.429,0,0,0-.4.932,16.677,16.677,0,0,1-.724,2.145,3.289,3.289,0,0,0-.23,1.247h0v.067s-.087.657-.1,1.213v.183a2.009,2.009,0,0,0,.036.451v-.067a4.684,4.684,0,0,1,.089,1.155,2.952,2.952,0,0,1-.565,1.89c-.724.771-1.16.655-1.16.655s.3,1.01.7,1.226a.182.182,0,0,1,.043.029.1.1,0,0,1,.013-.058.487.487,0,0,1,.107.377,2.657,2.657,0,0,1-.568,1.459.817.817,0,0,1-.362.19l.063.043c.051.029.1.052.139.072a.663.663,0,0,0,.208.062.983.983,0,0,1,.724.384.758.758,0,0,1-.134,1.179l-1.868.565S497.675,332.987,497.871,332.282Z" transform="translate(-416.853 -238.805)" fill="url(#b)"/><path d="M551.4,596.448l1.81-.567a.78.78,0,0,0,.132-1.18.945.945,0,0,0-.692-.382.857.857,0,0,1-.337-.134.806.806,0,0,1-.272-.27,1.316,1.316,0,0,1-.181-.7s-1.937-.648-2.495-.1a1.476,1.476,0,0,0-.25.339,2.9,2.9,0,0,0-.3,1.253s-.123.617-.311,1.323S551.4,596.448,551.4,596.448Z" transform="translate(-458.319 -501.327)" fill="#2d293d"/><path d="M503.333,589.779l1.81-.567a.778.778,0,0,0,.132-1.179.938.938,0,0,0-.693-.382.709.709,0,0,1-.2-.063.907.907,0,0,1-.134-.072,1.131,1.131,0,0,1-.46-.958s-1.935-.648-2.493-.1a1.428,1.428,0,0,0-.2.248,2.83,2.83,0,0,0-.351,1.343s-.125.619-.313,1.323S503.333,589.779,503.333,589.779Z" transform="translate(-418.952 -495.872)" fill="#2d293d"/><path d="M552.16,593.12a1.474,1.474,0,0,0-.25.339h0l2.922.453a1.316,1.316,0,0,1-.181-.7S552.717,592.568,552.16,593.12Z" transform="translate(-461.116 -501.325)" opacity="0.1"/><path d="M504.082,586.7l-.022.543c.427.771,2.641.692,3.3.339a.907.907,0,0,1-.134-.072,1.12,1.12,0,0,1-.458-.952s-1.935-.648-2.493-.1A1.431,1.431,0,0,0,504.082,586.7Z" transform="translate(-421.929 -495.872)" opacity="0.1"/><path d="M502.371,444.457a4.82,4.82,0,0,1,.32.762l-.076,1.97c.467.842,3.078.668,3.44.232s.786-1.593.395-1.81-.677-1.226-.677-1.226.42.116,1.124-.655.572-2.551.463-2.98a8.819,8.819,0,0,1,.072-1.845,3.692,3.692,0,0,1,.224-1.314,16.391,16.391,0,0,0,.708-2.147,1.469,1.469,0,0,1,.386-.934,4.258,4.258,0,0,0,.634-1.573,1.629,1.629,0,0,0,.291-1.063,2.173,2.173,0,0,1,.474-1.28l.95-2.661.876-1.991.4,1.2s.018,2.748-.1,3.318-.33,2.086-.33,2.086a3.077,3.077,0,0,1,.2,1.856,12.722,12.722,0,0,0-.252,2.661,28.323,28.323,0,0,0-.181,4.064,2.555,2.555,0,0,1,.134,1.054s-1.108,2.156-.795,2.468.181,1.132.181,1.132-.7-.027-.409.284a6.029,6.029,0,0,1,.465,1.881l3,.465a6.3,6.3,0,0,0,.724-1.246c.435-.905-.042-.827-.44-.941s-.134-.362.351-.635.237-.965.237-.965-.677-1.251-.424-1.342.346-1.81.346-1.81a11.174,11.174,0,0,0,.473-2.58,5.011,5.011,0,0,1,.471-1.856l.235-1.564a4.318,4.318,0,0,0,.663-2.946l.094-2.419s.878-4.662,1.07-7.028c.121-1.513.181-3.586.212-4.879.016-.724.022-1.206.022-1.206l-10.73-1.537a8.789,8.789,0,0,1-.257,1.593c-.132.588-.335,1.347-.641,2.294a10.508,10.508,0,0,0-.483,4.778l-.034,3.469s-1.037,2.283-.869,3.089a6.584,6.584,0,0,1,.145,1.448s-2.316,4.98-2.147,6.46a9.513,9.513,0,0,1-.844,3.764A5.784,5.784,0,0,0,502.371,444.457Z" transform="translate(-420.477 -356.011)" fill="#3f3d56"/><path d="M524.8,502.633l-3.259-.563S523.321,504.036,524.8,502.633Z" transform="translate(-436.244 -426.941)" opacity="0.05"/><path d="M523.8,484.47s-.157,1.155.543,1.619C524.334,486.089,523.071,485.833,523.8,484.47Z" transform="translate(-437.909 -412.527)" opacity="0.1"/><path d="M526.71,464.12s2.656,2.363,3.659,2.214S526.71,464.12,526.71,464.12Z" transform="translate(-440.478 -395.861)" opacity="0.1"/><path d="M561.77,511.89s2.064.554,2.093,1.392S561.77,511.89,561.77,511.89Z" transform="translate(-469.191 -434.983)" opacity="0.1"/><path d="M554.578,569.24s2.92.661,2.071,1a14.2,14.2,0,0,1-2.227.583S553.471,570.846,554.578,569.24Z" transform="translate(-462.862 -481.95)" opacity="0.05"/><g transform="translate(81.806 60.908)" opacity="0.05"><path d="M569.174,576.306a.579.579,0,0,0,.284-.416l.029.054s.248.682-.237.963l-.158.1c-.087-.02-.181-.036-.27-.062C568.424,576.826,568.7,576.587,569.174,576.306Z" transform="translate(-556.616 -548.305)"/><path d="M550.479,573.954c-.078-.078-.067-.27-.009-.514a1.385,1.385,0,0,1,.139.724A.588.588,0,0,0,550.479,573.954Z" transform="translate(-541.705 -546.298)"/><path d="M555.69,507.85a3.343,3.343,0,0,1,.163.923,3.745,3.745,0,0,0-.2-.639S555.664,508.024,555.69,507.85Z" transform="translate(-545.985 -492.583)"/><path d="M518.847,497.943a1.166,1.166,0,0,1-.016-.273c.029.181.049.362.062.514C518.88,498.1,518.86,498.025,518.847,497.943Z" transform="translate(-515.831 -484.246)"/><path d="M554.112,554.308a1.61,1.61,0,0,1-.054-.558,1.873,1.873,0,0,1,.118.706A.7.7,0,0,0,554.112,554.308Z" transform="translate(-544.678 -530.173)"/><path d="M549.255,582.68a9.705,9.705,0,0,1,.286,1.544l3,.465a6.3,6.3,0,0,0,.724-1.246c.038-.08.069-.152.094-.217.181.091.241.281-.018.818a6.287,6.287,0,0,1-.724,1.247l-3-.465a6,6,0,0,0-.453-1.892C549.016,582.783,549.114,582.713,549.255,582.68Z" transform="translate(-540.614 -553.866)"/><path d="M570.785,448.009s-.091,1.72-.344,1.81h0c-.114-.29-.181-.563-.074-.6.253-.091.344-1.81.344-1.81a11.157,11.157,0,0,0,.474-2.58,5,5,0,0,1,.471-1.854l.235-1.564a4.323,4.323,0,0,0,.663-2.947l.092-2.419s.88-4.662,1.07-7.026c.123-1.515.181-3.586.214-4.879,0-.234.009-.442.011-.617l.087.013s0,.482-.022,1.206c-.029,1.293-.091,3.366-.212,4.879-.192,2.366-1.07,7.028-1.07,7.028l-.094,2.419a4.318,4.318,0,0,1-.663,2.946l-.235,1.564a5.011,5.011,0,0,0-.471,1.856A11.137,11.137,0,0,1,570.785,448.009Z" transform="translate(-557.994 -423.52)"/><path d="M507.464,583.028a2.927,2.927,0,0,0,.523-1.168c.3.29-.1,1.356-.447,1.769s-2.971.61-3.44-.232l.018-.474C504.77,583.616,507.116,583.439,507.464,583.028Z" transform="translate(-503.768 -553.194)"/><path d="M502.28,571.848a5.047,5.047,0,0,1,.32.762l-.014.349c-.051-.129-.125-.3-.23-.509a1.49,1.49,0,0,1-.085-.621Z" transform="translate(-502.266 -544.98)"/><path d="M521.343,558.435a4.718,4.718,0,0,1-.223-.6s.42.116,1.122-.655a3.551,3.551,0,0,0,.543-2.377c.109.429.241,2.207-.464,2.98A1.793,1.793,0,0,1,521.343,558.435Z" transform="translate(-517.707 -531.033)"/><path d="M529.873,483.237a13.081,13.081,0,0,0-.107,1.475,2.342,2.342,0,0,0-.043-.234,8.825,8.825,0,0,1,.072-1.845,3.711,3.711,0,0,1,.226-1.314,16.419,16.419,0,0,0,.706-2.145,1.466,1.466,0,0,1,.386-.934,4.264,4.264,0,0,0,.635-1.575,1.642,1.642,0,0,0,.29-1.063,2.172,2.172,0,0,1,.474-1.28l.952-2.661.874-1.991.4,1.189v.38l-.326-.967-.871,1.991-.95,2.661a2.173,2.173,0,0,0-.474,1.28,1.629,1.629,0,0,1-.292,1.063,4.255,4.255,0,0,1-.634,1.573,1.47,1.47,0,0,0-.386.934,16.385,16.385,0,0,1-.708,2.145A3.737,3.737,0,0,0,529.873,483.237Z" transform="translate(-524.724 -461.315)"/></g><path d="M528.748,280.55l.152.918-.025.406-.02.3,1.036.147.125-.212h0a8.957,8.957,0,0,1,.858-1.267c.2-.156.639-2.674.221-2.535a1.086,1.086,0,0,0-.6.5S528.44,278.953,528.748,280.55Z" transform="translate(-442.122 -243.682)" fill="#ffcdd3"/><path d="M529.48,297.855l1.036.147.125-.212h0a.914.914,0,0,0-1.141-.234Z" transform="translate(-442.747 -259.365)" opacity="0.1"/><path d="M527.92,298.775l1.36.362.038-.2.1-.543a.945.945,0,0,0-1.322-.234l-.078.279Z" transform="translate(-441.469 -259.803)" fill="#dce6f2"/><path d="M651.12,276.489l1.436.842.143-.272c.15-.286.375-.724.438-.874.1-.239.724-.521.724-.521,1.59-1.407-.181-2.736-.181-2.736-.893-1.982-2.071.581-2.071.581a6.671,6.671,0,0,0-.1,1.465c.1.1.089.471.089.471a5.464,5.464,0,0,0-.386.826A1.7,1.7,0,0,0,651.12,276.489Z" transform="translate(-542.365 -238.667)" fill="#ffcdd3"/><path d="M651.12,295.024l1.436.842.143-.272c-.2-.181-.905-.8-1.151-.786a1.718,1.718,0,0,1-.348,0C651.147,294.937,651.12,295.024,651.12,295.024Z" transform="translate(-542.365 -257.202)" opacity="0.1"/><path d="M650.2,295.763l1.615.874.047-.362.033-.243s-.923-.855-1.206-.835a1.487,1.487,0,0,1-.429-.018l-.031.3Z" transform="translate(-541.612 -257.507)" fill="#dce6f2"/><path d="M549.65,300.1s7.146,1.086,5.82.6a1.805,1.805,0,0,1-1.323-1.609,3.753,3.753,0,0,1,.331-1.649,7.106,7.106,0,0,1,.692-1.267s-5.37-3.23-4.378-.444a4.411,4.411,0,0,1,.261,1.313,3.67,3.67,0,0,1-.192,1.309A3.934,3.934,0,0,1,549.65,300.1Z" transform="translate(-459.265 -257.025)" fill="#ffcdd3"/><path d="M555.44,295.69A4.41,4.41,0,0,1,555.7,297a2.53,2.53,0,0,0,1.794.474,3.238,3.238,0,0,0,1.629-.071,7.105,7.105,0,0,1,.692-1.267S554.44,292.9,555.44,295.69Z" transform="translate(-463.905 -256.998)" opacity="0.1"/><circle cx="2.969" cy="2.969" r="2.969" transform="translate(90.817 34.735)" fill="#ffcdd3"/><path d="M549.65,315.838s7.146,1.086,5.82.6a1.805,1.805,0,0,1-1.323-1.609,3.955,3.955,0,0,0-1.5-.874,2.156,2.156,0,0,0-1.3-.071,1.831,1.831,0,0,0-.482.2A3.935,3.935,0,0,1,549.65,315.838Z" transform="translate(-459.265 -272.766)" opacity="0.1"/><path d="M527.92,300.638l1.36.362.038-.2a1.213,1.213,0,0,0-1.3-.5Z" transform="translate(-441.469 -261.667)" opacity="0.1"/><path d="M650.2,297.106l1.615.874.047-.362a12.152,12.152,0,0,0-1.629-.8Z" transform="translate(-541.612 -258.85)" opacity="0.1"/><path d="M530.12,417.063c2.763.543,6.7,1.267,7.33,1.1a18.315,18.315,0,0,1,3.635.047c.016-.724.022-1.206.022-1.206l-10.73-1.537a8.788,8.788,0,0,1-.257,1.593Z" transform="translate(-443.271 -356.019)" opacity="0.1"/><path d="M515,319.659s9.092,1.923,10.086,1.662,6.023.257,6.023.257c2.211,1.608,1.351-.673,1.351-.673a5.494,5.494,0,0,0,0-2.122,13.013,13.013,0,0,1-.292-2.134,4.942,4.942,0,0,0-.154-1.854,14.232,14.232,0,0,1-.489-2.866s-.181-1.705-.145-2.078-.02-1.425-.02-1.425l-.257-1.758c1.879-.181,7.7-3.451,7.7-3.451.32-1.16,2.545-3.824,2.545-3.824a2.825,2.825,0,0,1,.2-.666c.167-.393-2.048-1.267-2.048-1.267s-1.751,1.981-2.12,2.515a11.4,11.4,0,0,1-1.608,1.512,1.222,1.222,0,0,0-.543.051H535.2a4.444,4.444,0,0,0-1.142.6,2.172,2.172,0,0,0-1.542.514s-1.017-.181-1.2-.022-1.046-.04-1.046-.04-.8-1.879-1.4-1.365-3.029.4-3.029.4a3.589,3.589,0,0,0-1.571-.961,2.156,2.156,0,0,0-1.3-.072,1.658,1.658,0,0,0-.523.23l-1.532,1.389s-.4-.565-.349-.688-.489-.244-.489-.244-.724-.252-.987-.337-.534.2-.558.226a2.912,2.912,0,0,0,.167-1.086,1.251,1.251,0,0,1,.333-.885c-.789-2.173-2.83-.46-2.83-.46a4.1,4.1,0,0,0-.087,1.62c.183.456-.253,1.389-.214,1.64s-.125.67-.143,1.144a6.793,6.793,0,0,0,.331,1.785c.134.4,1.3,1.349,1.3,1.349a5.636,5.636,0,0,0,.512,2.268c.492.844.06,3.648.06,3.648a9.4,9.4,0,0,1-1.235,2.85C516.077,315.713,515,319.659,515,319.659Z" transform="translate(-430.888 -259.374)" fill="#3f3d56"/><path d="M591.927,325.548s.306-.813.558-.878a5.77,5.77,0,0,0,.737-.3l-.148-.313s-.947.221-1.108.491A2.14,2.14,0,0,0,591.927,325.548Z" transform="translate(-493.851 -281.158)" opacity="0.1"/><path d="M620.2,320.538c.042.25,2.252.561,2.252.561l-1.086-1.17h-.027A4.444,4.444,0,0,0,620.2,320.538Z" transform="translate(-517.043 -277.776)" opacity="0.1"/><path d="M545.037,369.6c.025-.027-5.869,6.854-10.077,2.585C534.967,372.185,541.82,373.385,545.037,369.6Z" transform="translate(-447.235 -318.453)" opacity="0.1"/><path d="M583.21,349.94a10.846,10.846,0,0,1-1.39,2.183,8.769,8.769,0,0,1-2.12,1.894S583.136,350.4,583.21,349.94Z" transform="translate(-483.875 -302.353)" opacity="0.1"/><path d="M596.353,328.58s-.655,2.4-2.133,3.168Z" transform="translate(-495.766 -284.86)" opacity="0.1"/><path d="M601.741,330.117c.016-.045.425,1.935-1.981,2.929C599.76,333.046,600.777,332.743,601.741,330.117Z" transform="translate(-500.303 -286.117)" opacity="0.1"/><path d="M522.957,317.984a17.361,17.361,0,0,0-1.537,1.065S522.249,317.91,522.957,317.984Z" transform="translate(-436.146 -276.179)" opacity="0.1"/><path d="M551.554,279.757a.621.621,0,0,1-.246.391.6.6,0,0,1-.282.052,5.907,5.907,0,0,1-2.674-.362,1.011,1.011,0,0,1-.4-.286,1.658,1.658,0,0,1-.212-.664,9.782,9.782,0,0,0-.5-1.282,4.236,4.236,0,0,1-.206-2.265,1.534,1.534,0,0,1,.252-.655c.253-.333.7-.454,1.023-.715s.543-.67.927-.86a1.656,1.656,0,0,1,1.122-.056,5.864,5.864,0,0,1,2.06.865,1.053,1.053,0,0,0,.69.264.96.96,0,0,0,.527-.375,2.729,2.729,0,0,1,.181,1.3.591.591,0,0,0,0,.2.609.609,0,0,0,.13.21.755.755,0,0,1,.107.936c-.1.112-.25.168-.348.281-.181.2-.132.5-.138.771a.4.4,0,0,1-.076.261.386.386,0,0,1-.362.072,1.028,1.028,0,0,0-.389-.053.661.661,0,0,0-.349.248A4.413,4.413,0,0,0,551.554,279.757Z" transform="translate(-457.069 -239.33)" fill="#3f3d56"/><g transform="translate(90.767 34.442)" opacity="0.1"><path d="M551.787,291.285a1,1,0,0,0,.4.286,6.108,6.108,0,0,0,2.674.362.648.648,0,0,0,.282-.052.621.621,0,0,0,.246-.393,4.666,4.666,0,0,1,.824-1.725.654.654,0,0,1,.349-.248,1.028,1.028,0,0,1,.389.052.382.382,0,0,0,.362-.074.4.4,0,0,0,.076-.261,1.148,1.148,0,0,1,.136-.769c.1-.114.248-.17.349-.281a.581.581,0,0,0,.08-.592.68.68,0,0,1,.013.795c-.1.11-.252.168-.349.281-.181.2-.13.5-.136.771a.4.4,0,0,1-.076.261.386.386,0,0,1-.362.072,1.037,1.037,0,0,0-.389-.053.654.654,0,0,0-.349.248,4.58,4.58,0,0,0-.824,1.727.621.621,0,0,1-.246.391.6.6,0,0,1-.282.052,5.907,5.907,0,0,1-2.674-.362,1,1,0,0,1-.4-.286.806.806,0,0,1-.12-.244Z" transform="translate(-551.76 -285.733)"/><path d="M583.9,278.782a.428.428,0,0,1-.085-.154.541.541,0,0,1,0-.194,2.762,2.762,0,0,0-.1-1.086l.016-.018a2.751,2.751,0,0,1,.172,1.3A.958.958,0,0,0,583.9,278.782Z" transform="translate(-577.934 -277.33)"/></g><path d="M556.579,319.433s-3.728.348-4.039-.223" transform="translate(-461.632 -277.186)" opacity="0.1"/><path d="M523.895,310.42s-2.06-.076-2.535.679" transform="translate(-436.097 -269.986)" opacity="0.1"/></g></svg>