<svg xmlns="http://www.w3.org/2000/svg" xmlns:xlink="http://www.w3.org/1999/xlink" width="190.347" height="145.832" viewBox="0 0 190.347 145.832"><defs><linearGradient id="a" x1="0.5" y1="1" x2="0.5" gradientUnits="objectBoundingBox"><stop offset="0" stop-color="gray" stop-opacity="0.251"/><stop offset="0.54" stop-color="gray" stop-opacity="0.122"/><stop offset="1" stop-color="gray" stop-opacity="0.102"/></linearGradient><linearGradient id="b" x1="3.193" x2="3.193" y2="0" xlink:href="#a"/></defs><g transform="translate(0.003 0.004)"><ellipse cx="19.283" cy="4.821" rx="19.283" ry="4.821" transform="translate(122.198 133.25)" fill="#3444b3" opacity="0.1"/><path d="M34.317,112.793c-2.181.748-4.829,2.273-4.383,4.7A5.291,5.291,0,0,0,32.1,120.4a61.328,61.328,0,0,0,13.215,8.184c2.26,1.026,4.662,1.967,6.369,3.858s2.5,4.536,3.052,7.085a57.591,57.591,0,0,1,.952,18.385c6.812.13,14.355-.023,19.176-4.931,2.886-2.939,4.433-7.3,7.826-9.573,2.263-1.517,5.052-1.893,7.746-2.21q19.128-2.236,38.454-2.708c5.4-.132,10.915-.178,15.956-2.06s9.616-5.995,10.64-11.571a4.5,4.5,0,0,1,.849-2.406,3.341,3.341,0,0,1,2.045-.761l44.275-5.995c2.424-.333,4.934-.688,6.975-2.058,1.975-1.332,3.307-3.46,4.581-5.535,2.919-4.749,5.948-10.491,3.926-15.921-1.617-4.339-5.963-6.839-10.116-8.391s-8.624-2.643-12-5.685C190.887,73.48,189.748,65.8,188.3,58.9a112.469,112.469,0,0,0-5.5-18.3c-2.071-5.219-4.594-10.362-8.354-14.424s-8.934-6.94-14.2-6.734c-6.877.273-12.927,5.633-19.815,4.967-5.818-.558-10.552-5.22-15.791-8.121-9.3-5.154-20.277-4.7-30.452-3.094C83.4,14.9,72.547,17.872,63.805,24.564a17.108,17.108,0,0,0-5.084,5.6c-1.8,3.535-1.644,7.843-2.544,11.771-3.63,15.819-23.092,22.418-27.094,38.122a24.317,24.317,0,0,0,2.24,16.773c2.806,5.547,8.442,7.911,11.331,12.672C40.723,111.271,36.875,111.915,34.317,112.793Z" transform="translate(-28.45 -12.11)" fill="#3444b3" opacity="0.1"/><path d="M897.2,665.042s-1.745-12.022,3.5-19.935a18.4,18.4,0,0,0,3.11-11.22,30.862,30.862,0,0,0-.849-5.6" transform="translate(-752.314 -525.689)" fill="none" stroke="#535461" stroke-miterlimit="10" stroke-width="2"/><path d="M927.23,583.416c-.2,1.414-3.349,5.147-3.349,5.147s-1.967-4.468-1.77-5.881a2.586,2.586,0,1,1,5.119.734Z" transform="translate(-773.294 -485.826)" fill="#3444b3"/><path d="M943.52,627.409c-.939,1.076-5.61,2.5-5.61,2.5s.773-4.829,1.71-5.9a2.586,2.586,0,1,1,3.9,3.4Z" transform="translate(-786.473 -521.382)" fill="#3444b3"/><path d="M928.445,704.1c-1.354.456-6.1-.666-6.1-.666s3.1-3.773,4.454-4.228a2.586,2.586,0,0,1,1.65,4.894Z" transform="translate(-773.496 -584.714)" fill="#3444b3"/><path d="M905.079,763.27c-1.257.678-6.129.366-6.129.366s2.418-4.241,3.675-4.919a2.586,2.586,0,0,1,2.454,4.553Z" transform="translate(-754.001 -634.139)" fill="#3444b3"/><path d="M902.7,640.034c.872,1.131,5.452,2.831,5.452,2.831s-.486-4.859-1.359-5.995a2.587,2.587,0,1,0-4.093,3.164Z" transform="translate(-756.673 -532.003)" fill="#3444b3"/><path d="M873.58,706.141c1.166.818,6.046,1.067,6.046,1.067s-1.915-4.5-3.087-5.309a2.586,2.586,0,1,0-2.959,4.241Z" transform="translate(-731.933 -586.654)" fill="#3444b3"/><path d="M858.9,777.943c1.016,1,5.78,2.073,5.78,2.073s-1.129-4.751-2.146-5.75a2.586,2.586,0,1,0-3.634,3.68Z" transform="translate(-719.978 -646.736)" fill="#3444b3"/><path d="M927.23,583.416c-.2,1.414-3.349,5.147-3.349,5.147s-1.967-4.468-1.77-5.881a2.586,2.586,0,1,1,5.119.734Z" transform="translate(-773.294 -485.826)" opacity="0.25"/><path d="M943.52,627.409c-.939,1.076-5.61,2.5-5.61,2.5s.773-4.829,1.71-5.9a2.586,2.586,0,1,1,3.9,3.4Z" transform="translate(-786.473 -521.382)" opacity="0.25"/><path d="M928.445,704.1c-1.354.456-6.1-.666-6.1-.666s3.1-3.773,4.454-4.228a2.586,2.586,0,0,1,1.65,4.894Z" transform="translate(-773.496 -584.714)" opacity="0.25"/><path d="M905.079,763.27c-1.257.678-6.129.366-6.129.366s2.418-4.241,3.675-4.919a2.586,2.586,0,0,1,2.454,4.553Z" transform="translate(-754.001 -634.139)" opacity="0.25"/><path d="M902.7,640.034c.872,1.131,5.452,2.831,5.452,2.831s-.486-4.859-1.359-5.995a2.587,2.587,0,1,0-4.093,3.164Z" transform="translate(-756.673 -532.003)" opacity="0.25"/><path d="M873.58,706.141c1.166.818,6.046,1.067,6.046,1.067s-1.915-4.5-3.087-5.309a2.586,2.586,0,1,0-2.959,4.241Z" transform="translate(-731.933 -586.654)" opacity="0.25"/><path d="M858.9,777.943c1.016,1,5.78,2.073,5.78,2.073s-1.129-4.751-2.146-5.75a2.586,2.586,0,1,0-3.634,3.68Z" transform="translate(-719.978 -646.736)" opacity="0.25"/><path d="M851.326,666.836s-6.467-10.284-4.874-19.649a18.4,18.4,0,0,0-1.7-11.515,30.892,30.892,0,0,0-3.046-4.772" transform="translate(-706.292 -527.865)" fill="none" stroke="#535461" stroke-miterlimit="10" stroke-width="2"/><path d="M822.124,585.972c.386,1.375-.977,6.063-.977,6.063s-3.613-3.284-4-4.662a2.587,2.587,0,0,1,4.979-1.406Z" transform="translate(-685.74 -488.842)" fill="#3444b3"/><path d="M859.922,617.419c-.421,1.364-4.115,4.557-4.115,4.557s-1.249-4.719-.833-6.084a2.586,2.586,0,1,1,4.942,1.527Z" transform="translate(-717.277 -513.836)" fill="#3444b3"/><path d="M876.773,690.18c-1.052.964-5.853,1.857-5.853,1.857s1.305-4.7,2.358-5.662a2.587,2.587,0,0,1,3.5,3.813Z" transform="translate(-730.638 -573.535)" fill="#3444b3"/><path d="M881.265,754.389c-.874,1.129-5.455,2.819-5.455,2.819s.5-4.857,1.365-5.995a2.586,2.586,0,1,1,4.09,3.164Z" transform="translate(-734.714 -627.267)" fill="#3444b3"/><path d="M822.69,647.671c1.256.681,6.128.376,6.128.376s-2.411-4.245-3.663-4.924a2.586,2.586,0,1,0-2.464,4.548Z" transform="translate(-689.31 -537.792)" fill="#3444b3"/><path d="M822.55,719.856c1.4.273,5.961-1.474,5.961-1.474s-3.572-3.33-4.974-3.6a2.586,2.586,0,1,0-.987,5.075Z" transform="translate(-688.529 -597.727)" fill="#3444b3"/><path d="M839.151,791.71c1.332.5,6.124-.448,6.124-.448s-2.957-3.883-4.293-4.389a2.586,2.586,0,0,0-1.832,4.829Z" transform="translate(-702.874 -657.763)" fill="#3444b3"/><path d="M285.63,57.83V175.3h84.49V57.83Z" transform="translate(-238.071 -48.203)" fill="url(#a)"/><rect width="83.008" height="4.478" transform="translate(48.3 10.657)" fill="#f6f7f9"/><g transform="translate(48.3 10.657)" opacity="0.2"><rect width="83.008" height="4.478" fill="#3444b3"/></g><rect width="83.008" height="110.931" transform="translate(48.3 15.135)" fill="#f6f7f9"/><circle cx="0.759" cy="0.759" r="0.759" transform="translate(49.724 12.138)" fill="#f6f7f9"/><circle cx="0.759" cy="0.759" r="0.759" transform="translate(51.782 12.138)" fill="#f6f7f9"/><circle cx="0.759" cy="0.759" r="0.759" transform="translate(53.84 12.138)" fill="#f6f7f9"/><g transform="translate(63.115 21.974)" opacity="0.2"><rect width="53.377" height="2.09" fill="#3444b3"/></g><rect width="7.092" height="2.09" transform="translate(109.4 21.974)" fill="#3444b3"/><g transform="translate(56.215 33.878)" opacity="0.2"><rect width="67.179" height="24.06" fill="#3444b3"/></g><rect width="38.75" height="2.09" transform="translate(75.068 42.647)" fill="#f6f7f9"/><rect width="20.103" height="2.09" transform="translate(75.068 47.079)" fill="#f6f7f9"/><rect width="7.092" height="2.09" transform="translate(109.4 53.41)" fill="#3444b3"/><circle cx="3.798" cy="3.798" r="3.798" transform="translate(60.521 42.109)" fill="#f6f7f9"/><g transform="translate(56.215 64.682)" opacity="0.2"><rect width="67.179" height="24.06" fill="#3444b3"/></g><rect width="38.75" height="2.09" transform="translate(75.068 73.451)" fill="#f6f7f9"/><rect width="20.103" height="2.09" transform="translate(75.068 77.883)" fill="#f6f7f9"/><rect width="7.092" height="2.09" transform="translate(109.4 84.214)" fill="#3444b3"/><circle cx="3.798" cy="3.798" r="3.798" transform="translate(60.521 72.913)" fill="#f6f7f9"/><g transform="translate(56.215 95.486)" opacity="0.2"><rect width="67.179" height="24.06" fill="#3444b3"/></g><rect width="38.75" height="2.09" transform="translate(75.068 104.254)" fill="#f6f7f9"/><rect width="20.103" height="2.09" transform="translate(75.068 108.687)" fill="#f6f7f9"/><rect width="7.092" height="2.09" transform="translate(109.4 115.018)" fill="#3444b3"/><circle cx="3.798" cy="3.798" r="3.798" transform="translate(60.521 103.716)" fill="#f6f7f9"/><path d="M180.794,242.543c-.644,2.932-1.807,6.546-1.807,6.546,1.149,1.34,6.161,1.58,6.161,1.58l.008-.01h.078c.035.185.075.363.123.533q-.013.251-.025.51a1.39,1.39,0,0,0-.072.626,1.423,1.423,0,0,0,.037.14c-.12,2.654-.2,5.485-.132,7.12a6.851,6.851,0,0,0,.142,1.379,4.965,4.965,0,0,1,.147,1.057,47.7,47.7,0,0,1-.5,6.413s.015.055.023.083c-.01.068-.017.108-.017.108a1.9,1.9,0,0,1,.085.5,34.519,34.519,0,0,1-1.114,6.409,79.256,79.256,0,0,0-.8,9.325,5.931,5.931,0,0,0,.045.614c.286,2.14.666,8.114.666,8.114a2.684,2.684,0,0,0,.218.281c-.033.133-.073.268-.117.4a11.256,11.256,0,0,0-.558,4.183c.012.167.025.348.042.531.191,2.2,5.525.833,5.876.576a4.78,4.78,0,0,0-.13-1.9l5.5,1.357s3.9.576,5.75,0,1.788-2.165-.863-2.426c-1.857-.18-3.33-1.908-4.058-2.929.281-.768,2.391-6.594,2.779-10.2a51.061,51.061,0,0,1,1.231-6.914l.415-5.367.736-3.164.878-4.183a42.165,42.165,0,0,0,1.294-8.194l.766-5.03a9.738,9.738,0,0,0,.178-1.659,18.6,18.6,0,0,1,2.123.568c1.2-.932-.5-9.918-.5-9.918s-.818-5.675-1.51-10.849a10.6,10.6,0,0,1,3.307.135l10.063.221a5.115,5.115,0,0,0,.54-.879h.431a.924.924,0,0,0,.125-.243l.178.033a14.884,14.884,0,0,1,1.925.584,2.343,2.343,0,0,0,2.694-2.946c-.356-2.481-3.18-1.58-4.592-.964l-.178.082c-.013-.093-.022-.147-.022-.147l-.455.083a2.2,2.2,0,0,0-.095-.2s-4.936-.191-8.937-.791a12,12,0,0,1-6.006-2.956c-.7-3.558-2.738-4.639-2.738-4.639a6.094,6.094,0,0,1-2.776-.939,5.864,5.864,0,0,1-.649-.45l-.11.063-.013-.012c.678-.629,1.38-1.207,2-1.692l.278-.215a6.173,6.173,0,0,0,5.042-8.644c-.027-.06-.058-.12-.087-.178a1.385,1.385,0,0,0,1.222-1.2c.062-.7-.42-1.44-.1-2.066a2.008,2.008,0,0,0,.15-.291.787.787,0,0,0,.023-.293,2.063,2.063,0,0,0-.833-1.5c-.714-.518-1.349-.255-2.13-.3a25.714,25.714,0,0,1-2.686-.416,9.288,9.288,0,0,0-3.086-.1,3.976,3.976,0,0,0-2.608,1.527c-.253.363-.425.778-.666,1.152-.271.433-.623.808-.934,1.211a3.672,3.672,0,0,0-.908,2.346c.023.485.195.951.228,1.435a8.739,8.739,0,0,1-.1,1.349,5.9,5.9,0,0,0,.1,1.72,1.065,1.065,0,0,0,.2.49,1.044,1.044,0,0,0,.433.278,3.871,3.871,0,0,0,.531.167,7.609,7.609,0,0,1-.744,1.34l-.27-.28-.729,1.139-.028-.077c-.035.072-.075.14-.117.208l-.075-.208a4.378,4.378,0,0,1-1.634,1.635,15.328,15.328,0,0,1-4.571,1.7c-4.289.623-3.5,5.054-3.5,5.054s-1.82,7.906-2.331,12.793a13.649,13.649,0,0,0,1.389,8Zm20.456-14.45c.167.545.313,1.061.438,1.512l-.08.032c-.092-.418-.216-.954-.353-1.544Zm-4.719-13.266-.023.015.022-.022Zm-7.4,82.614c-.21-1.254-.523-2.767-.716-3.672.137-.445.318-1.124.531-2.135.48-2.266.766-10.286.766-10.286l1.119-6.737a22.221,22.221,0,0,0,1.246-5.662c.411-1.086,1.362-7.731,1.514-8.8-.043.738-.147,2.606-.2,4.681v.057c-.042,1.567-.053,3.247,0,4.641h0c.015.391.035.763.062,1.106.008.088.013.18.017.27a26.907,26.907,0,0,1-1.5,8.159,26.8,26.8,0,0,0-.614,5.254,3.467,3.467,0,0,0,.143,1,1.767,1.767,0,0,1,.082.463,31.282,31.282,0,0,1-1.305,6.511A24.085,24.085,0,0,0,189.133,297.44Z" transform="translate(-153.563 -166.881)" fill="url(#b)"/><path d="M248.416,761.234s1.868,3.387,4.5,3.64,2.691,1.832.854,2.406-5.7,0-5.7,0l-5.508-1.36s.666-5.445,1.55-5.73S248.416,761.234,248.416,761.234Z" transform="translate(-206.91 -635.592)" fill="#4c4c78"/><path d="M213.192,765.044s1.394,6.268,1.046,6.522S208.6,773.18,208.41,771c-.017-.181-.03-.358-.04-.526a11.1,11.1,0,0,1,.553-4.146,3.435,3.435,0,0,0,.215-1.279C209.046,764.165,213.192,765.044,213.192,765.044Z" transform="translate(-178.398 -639.346)" fill="#4c4c78"/><path d="M247.79,252.4s4.273,10.49,3.513,7.127c-.5-2.235,2.749-5.2,5-6.944,1.144-.889,2.03-1.46,2.03-1.46s-8.026-9.355-7.457-5.319a6.078,6.078,0,0,1-.438,3.257A8.539,8.539,0,0,1,247.79,252.4Z" transform="translate(-211.269 -206.048)" fill="#ffb9b9"/><path d="M411.77,360.435a2.456,2.456,0,0,1,.977.062,14.417,14.417,0,0,1,1.907.579,2.317,2.317,0,0,0,2.664-2.919c-.353-2.461-3.15-1.569-4.551-.956-.476.208-.793.385-.793.385Z" transform="translate(-347.944 -299.179)" fill="#ffb9b9"/><path d="M411.77,363.814a2.456,2.456,0,0,1,.977.062,9.19,9.19,0,0,0,.027-3.3c-.476.208-.793.385-.793.385Z" transform="translate(-347.944 -302.557)" opacity="0.1"/><path d="M410.4,360.372l.823-.152s.423,2.831-.128,3.57h-.947Z" transform="translate(-346.594 -302.257)" fill="#cbcdda"/><path d="M309.153,389.3s2.518-1.5,2.817.395.7,5.145.7,5.145l.7,4.131.9,8.279-.127,1.409s-2.676-.9-3.309-.586-1.141-3.474-1.141-3.474l-1.044-3.926-.167-8.326Z" transform="translate(-261.853 -326.028)" fill="#4c4c78"/><path d="M309.153,389.3s2.518-1.5,2.817.395.7,5.145.7,5.145l.7,4.131.9,8.279-.127,1.409s-2.676-.9-3.309-.586-1.141-3.474-1.141-3.474l-1.044-3.926-.167-8.326Z" transform="translate(-261.853 -326.028)" opacity="0.1"/><path d="M320.65,333.56a12.091,12.091,0,0,0,6.577,3.538c3.965.594,8.857.783,8.857.783a4.293,4.293,0,0,1-.546,4.559l-9.973-.22a9.639,9.639,0,0,0-3.918,0Z" transform="translate(-271.997 -280.036)" fill="#4c4c78"/><path d="M320.65,333.56a12.091,12.091,0,0,0,6.577,3.538c3.965.594,8.857.783,8.857.783a4.293,4.293,0,0,1-.546,4.559l-9.973-.22a9.639,9.639,0,0,0-3.918,0Z" transform="translate(-271.997 -280.036)" opacity="0.05"/><path d="M450.84,406.14" transform="translate(-380.508 -340.531)" fill="none" stroke="blue" stroke-miterlimit="10" stroke-width="1"/><path d="M266.16,249a5.607,5.607,0,0,0,5.122,3.62h.32c1.144-.889,2.03-1.46,2.03-1.46s-8.026-9.355-7.457-5.319A5.939,5.939,0,0,1,266.16,249Z" transform="translate(-226.569 -206.081)" opacity="0.1"/><path d="M260.25,223.116a6.1,6.1,0,1,0,1.789-4.329A6.118,6.118,0,0,0,260.25,223.116Z" transform="translate(-221.654 -182.885)" fill="#ffb9b9"/><path d="M237.8,321.778s13.644,1.2,14.154-.538-1.392-6.457-1.392-6.457l.609-6.586.023-.253s-1.705-7.124-1.649-7.686c.058-.511-2.753-6.494-3.33-7.711l-.1-.22-.108.063-.047.028-.666.39-2.643-.623-3.18-1.665-.3,18.217Z" transform="translate(-202.943 -244.163)" fill="#cbcdda"/><path d="M277.464,302.5a1.087,1.087,0,0,1,1.3.681,9.6,9.6,0,0,0,.5,1.166l.365,2.165.666,3.419.49,15.153-.22,2.7-1.219-2.165-.221-14.154V309.7a12.773,12.773,0,0,0-1.016-4.423l-.167-.4-1.061-1.36Z" transform="translate(-235.515 -254.125)" opacity="0.1"/><path d="M278.588,301.363a1.087,1.087,0,0,1,1.3.681,9.6,9.6,0,0,0,.5,1.166l.365,2.165.666,3.419.491,15.153-.223,2.691-1.219-2.165-.221-14.154v-1.765a12.771,12.771,0,0,0-1.014-4.423l-.167-.4L278,302.378Z" transform="translate(-236.449 -253.175)" fill="#4c4c78"/><path d="M251.237,278s3.229,3.42,4.368,3.83c0,0-.569,2.6-1.139,3.1a47.037,47.037,0,0,0-4-3.735l-.5-1.231Z" transform="translate(-213.086 -233.728)" opacity="0.1"/><path d="M251.237,276.9s3.229,3.42,4.368,3.83c0,0-.569,2.6-1.139,3.1a47.032,47.032,0,0,0-4-3.735l-.5-1.231Z" transform="translate(-213.086 -232.811)" fill="#cbcdda"/><path d="M286.58,301.35l.033.088,1.036,2.774,1.848,5.239s.018.053.05.153c.306.952,1.955,6.123,2.28,7.626l.023-.253s-1.7-7.13-1.647-7.693c.058-.511-2.753-6.494-3.33-7.711-.092-.063-.167-.117-.213-.157Z" transform="translate(-243.6 -253.19)" opacity="0.1"/><path d="M287.71,301.33l1.069,2.866,1.85,5.239s.018.053.05.153c.325,1.016,2.175,6.81,2.331,7.871.167,1.166,2.5,7.457,2.5,7.457l1.332,10.9c1.187-.926-.5-9.824-.5-9.824s-1.9-13.2-2.35-17.592-2.886-5.69-2.886-5.69a6.045,6.045,0,0,1-2.751-.931A5.883,5.883,0,0,1,287.71,301.33Z" transform="translate(-244.542 -253.173)" fill="#4c4c78"/><path d="M206.953,506.054c.285,2.121.666,8.043.666,8.043,1.332,2,4.274.917,4.274.917a13.6,13.6,0,0,0,.789-2.851c.475-2.248.761-10.194.761-10.194l1.109-6.679a22.023,22.023,0,0,0,1.234-5.6c.443-1.166,1.52-8.865,1.52-8.865a103.125,103.125,0,0,0-.167,10.542c.278,3.64-1.455,8.549-1.455,8.549s-.982,4.591-.475,6.015-1.267,7.313-1.267,7.313c.158,1.71,5.192,1.012,5.192,1.012s2.375-6.363,2.786-10.194a50.593,50.593,0,0,1,1.221-6.854l.41-5.318.729-3.134.871-4.146a41.889,41.889,0,0,0,1.282-8.121l.759-4.985a15.787,15.787,0,0,0-.578-6.875c-.186-.654-.333-1.056-.333-1.056a30.85,30.85,0,0,1-4.226.967,7.353,7.353,0,0,1-2.165.167,48.1,48.1,0,0,1-9.641-1.763l-.333-.1-.067.569-.157,1.359-.276,2.409s-.856,12.853-.35,14.6-.348,7.591-.348,7.591c.475,1.389-1.012,7.034-1.012,7.034S206.668,503.934,206.953,506.054Z" transform="translate(-177.191 -387.789)" opacity="0.1"/><path d="M206.954,504.914c.285,2.121.666,8.043.666,8.043,1.332,2,4.274.918,4.274.918a13.606,13.606,0,0,0,.789-2.851c.475-2.248.761-10.194.761-10.194l1.109-6.679a22.023,22.023,0,0,0,1.234-5.6c.443-1.166,1.52-8.865,1.52-8.865a103.119,103.119,0,0,0-.167,10.542c.278,3.64-1.455,8.549-1.455,8.549s-.982,4.591-.475,6.015-1.267,7.313-1.267,7.313c.158,1.71,5.192,1.012,5.192,1.012s2.375-6.363,2.786-10.194a50.6,50.6,0,0,1,1.221-6.854l.41-5.318.729-3.134.871-4.146a41.889,41.889,0,0,0,1.282-8.121l.759-4.987a15.782,15.782,0,0,0-.578-6.874c-.186-.654-.333-1.056-.333-1.056a30.867,30.867,0,0,1-4.226.967,7.355,7.355,0,0,1-2.165.167,48.1,48.1,0,0,1-9.641-1.763l-.333-.1-.067.569-.157,1.359-.276,2.409s-.856,12.853-.35,14.6-.343,7.593-.343,7.593c.475,1.389-1.012,7.034-1.012,7.034S206.669,502.794,206.954,504.914Z" transform="translate(-177.192 -386.839)" fill="#474463"/><path d="M260.25,223.075a6.1,6.1,0,0,0,.811,3.042,3.226,3.226,0,0,0,2.688-.648,13.178,13.178,0,0,0,1.222-1.515,8.908,8.908,0,0,1,.874-.863,2.708,2.708,0,0,1,.689-.5.936.936,0,0,1,.833-.01c.333.188.453.606.643.941a1.255,1.255,0,0,0,.7.611.743.743,0,0,0,.833-.285c.207-.356.055-.913.4-1.129a2.1,2.1,0,0,1,.283-.115c.448-.2.5-.8.536-1.294a.81.81,0,0,1,.275-.644,1.238,1.238,0,0,1,.709-.058,1,1,0,0,0,.213-.018,6.118,6.118,0,0,0-11.711,2.479Z" transform="translate(-221.654 -182.844)" opacity="0.1"/><path d="M268.231,201.429a2.031,2.031,0,0,1,.824,1.479.778.778,0,0,1-.022.291,2.159,2.159,0,0,1-.148.29c-.313.619.167,1.355.1,2.048a1.362,1.362,0,0,1-1.332,1.2,1.3,1.3,0,0,0-.709.058.789.789,0,0,0-.275.644c-.038.491-.088,1.092-.536,1.294a2.346,2.346,0,0,0-.283.117c-.348.216-.195.774-.4,1.127a.741.741,0,0,1-.833.286,1.262,1.262,0,0,1-.7-.611c-.192-.333-.306-.753-.643-.941a.941.941,0,0,0-.833.008,2.714,2.714,0,0,0-.689.5,9.1,9.1,0,0,0-.874.863,12.876,12.876,0,0,1-1.224,1.515,3.4,3.4,0,0,1-3.464.428,1.059,1.059,0,0,1-.43-.275,1.076,1.076,0,0,1-.2-.493,5.918,5.918,0,0,1-.1-1.705,8.6,8.6,0,0,0,.1-1.332c-.032-.48-.2-.942-.226-1.422a3.668,3.668,0,0,1,.9-2.331c.31-.4.658-.771.926-1.2.233-.371.4-.783.654-1.142a4,4,0,0,1,2.584-1.514,9.044,9.044,0,0,1,3.059.1,25.17,25.17,0,0,0,2.664.413C266.894,201.168,267.523,200.907,268.231,201.429Z" transform="translate(-217.556 -169.147)" fill="#472727"/><path d="M287.71,301.33l1.069,2.866,1.85,5.239s.018.053.05.153h0l-2.331-7.811A5.881,5.881,0,0,1,287.71,301.33Z" transform="translate(-244.542 -253.173)" opacity="0.1"/><path d="M218.3,491.367s-.112,3.465.823,4.329l2.484-4.686L219.518,490Z" transform="translate(-186.686 -410.427)" fill="#ffb9b9"/><path d="M183.48,320.31c1.141,1.332,6.1,1.567,6.1,1.567l4.917-7.74s1.166-.808,3.345-4.441a13.543,13.543,0,0,0,2-8.524,81.6,81.6,0,0,0-1.5-8.1c-.211-1.352-3.274-9.824-3.274-9.824a4.34,4.34,0,0,1-1.62,1.62,15.13,15.13,0,0,1-4.533,1.669c-4.251.618-3.467,5.01-3.467,5.01s-.052,17.08.215,19.121S183.48,320.31,183.48,320.31Z" transform="translate(-157.668 -238.104)" opacity="0.1"/><path d="M189.49,479.946l.142,1.266,1.727-.633,1.266-1.915-.949-.744Z" transform="translate(-157.94 -398.342)" fill="#cbcdda"/><path d="M218.3,464.037l.9.092,8.705.869a14.1,14.1,0,0,0,4.183-.2l4.035-.808c-.186-.654-.333-1.056-.333-1.056a30.857,30.857,0,0,1-4.226.967,7.353,7.353,0,0,1-2.165.167,48.1,48.1,0,0,1-9.653-1.763l-.393.47Z" transform="translate(-186.69 -387.339)" opacity="0.1"/><g transform="translate(29.696 74.861)" opacity="0.1"><path d="M322.75,466.128a.924.924,0,0,0,.085-.048l.008.023Z" transform="translate(-303.443 -465.351)"/><path d="M207.621,495.258s1.489-5.645,1.012-7.034c0,0,.856-5.85.348-7.591s.35-14.6.35-14.6l.281-2.409.167-1.359.067-.569s.113.037.333.1l.2.06-.047.223-.158,1.359-.281,2.409s-.854,12.852-.35,14.6-.346,7.591-.346,7.591c.475,1.389-1.012,7.034-1.012,7.034s-1.046,7.537-.761,9.658.666,8.041.666,8.041c.971,1.459,2.8,1.276,3.72,1.071-.01.025-.017.038-.017.038s-2.944,1.076-4.274-.917c0,0-.38-5.921-.666-8.043S207.621,495.258,207.621,495.258Z" transform="translate(-206.804 -461.7)"/><path d="M250.4,593.845c-.5-1.424.476-6.015.476-6.015s1.738-4.907,1.454-8.549c-.118-1.517-.11-3.6-.06-5.512.4-2.464.789-5.22.789-5.22a101.465,101.465,0,0,0-.158,10.542c.286,3.642-1.455,8.549-1.455,8.549s-.982,4.591-.475,6.015-1.267,7.313-1.267,7.313c.127,1.37,3.38,1.2,4.662,1.071l-.048.132s-5.034.7-5.19-1.012C249.137,601.159,250.908,595.267,250.4,593.845Z" transform="translate(-242.082 -550.758)"/></g><path d="M182.34,320.31c1.141,1.332,6.1,1.567,6.1,1.567l4.916-7.74s1.166-.808,3.347-4.441a13.532,13.532,0,0,0,2-8.524,81.6,81.6,0,0,0-1.5-8.1c-.211-1.352-3.274-9.824-3.274-9.824a4.34,4.34,0,0,1-1.62,1.62,15.144,15.144,0,0,1-4.531,1.669c-4.251.618-3.467,5.01-3.467,5.01s-.047,17.073.215,19.114S182.34,320.31,182.34,320.31Z" transform="translate(-156.718 -238.104)" fill="#4c4c78"/><path d="M242.891,287.448l1.069.4-.713.5,5.315,12.822c-.123-2.09-1.5-8.1-1.5-8.1-.211-1.352-3.274-9.824-3.274-9.824a4.341,4.341,0,0,1-1.62,1.62Z" transform="translate(-206.585 -238.104)" opacity="0.1"/><path d="M179.571,426.51l-5.438-1.4-.713,2.208,5.557,1.354Z" transform="translate(-144.546 -354.325)" opacity="0.1"/><path d="M187.535,312.3s2.469,2.331,1.544,7.5-2.421,10.8-2.421,10.8l4.021,11.137s-2.8,2.921-4.18,3.275l-4.013-8.9a13.609,13.609,0,0,1-1.377-7.929c.5-4.842,2.3-12.68,2.3-12.68S183.4,310.732,187.535,312.3Z" transform="translate(-155.622 -262.052)" opacity="0.1"/><path d="M186.356,312.3s2.469,2.331,1.544,7.5-2.421,10.8-2.421,10.8l4.008,11.137s-2.8,2.921-4.178,3.275l-4.013-8.9a13.609,13.609,0,0,1-1.377-7.929c.5-4.842,2.3-12.68,2.3-12.68S182.222,310.732,186.356,312.3Z" transform="translate(-154.63 -262.052)" fill="#4c4c78"/><path d="M222.441,492.032s-3.134,4.329-2.9,5.5,1.156.538,1.156.538l1.241-1.7,1.109-3.164S222.941,491.846,222.441,492.032Z" transform="translate(-187.717 -412.106)" opacity="0.1"/><path d="M224.763,492.032s-3.135,4.329-2.9,5.495,1.156.538,1.156.538l1.234-1.693,1.109-3.164S225.256,491.846,224.763,492.032Z" transform="translate(-189.651 -412.106)" opacity="0.1"/><path d="M223.621,492.032s-3.134,4.329-2.9,5.495,1.156.538,1.156.538l1.234-1.693,1.109-3.164S224.116,491.846,223.621,492.032Z" transform="translate(-188.701 -412.106)" fill="#474463"/></g></svg>