<svg xmlns="http://www.w3.org/2000/svg" xmlns:xlink="http://www.w3.org/1999/xlink" width="165.109" height="139.313" viewBox="0 0 165.109 139.313"><defs><linearGradient id="a" x1="0.5" y1="1" x2="0.5" gradientUnits="objectBoundingBox"><stop offset="0" stop-color="gray" stop-opacity="0.251"/><stop offset="0.54" stop-color="gray" stop-opacity="0.122"/><stop offset="1" stop-color="gray" stop-opacity="0.102"/></linearGradient></defs><g transform="translate(0.006 -0.004)"><path d="M194.766,30.345c5.261-4.686,13.515-5.641,21.03-5.268,23.6,1.172,44.908,12.566,63.33,25.453,6.672,4.665,13.24,9.693,17.57,16.118,8.814,13.079,6.2,31.2-6.064,41.973a62.745,62.745,0,0,1-14.423,8.967c-9.229,4.425-19.186,7.985-29.666,9a97.734,97.734,0,0,1-22.454-.872c-20.746-2.814-41.111-9.036-58.184-19.679-7.487-4.669-14.543-10.473-17.627-18.029s-1.085-17.111,6.559-21.59c3.162-1.849,6.941-2.685,10.642-3.468,5.446-1.147,10.981-2.295,15.9-4.638,5.081-2.422,11.089-7.11,10.085-12.474C190.382,40.082,189.521,35.025,194.766,30.345Z" transform="translate(-138.362 -25)" fill="#3444b3" opacity="0.1"/><ellipse cx="77.909" cy="11.973" rx="77.909" ry="11.973" transform="translate(9.285 115.371)" fill="#3444b3"/><path d="M464.046,325.356s-1-.3-2.329-.685a4.648,4.648,0,0,0-1.875-.528c-1.569-.431-3.18-.841-4.052-.969a49.929,49.929,0,0,1-5.707-1.454,5.083,5.083,0,0,1-2.853-.91,14.951,14.951,0,0,0-2.381-3.327.659.659,0,0,0-.11-.067,2.072,2.072,0,0,1-.344-.251c-.9-2.934-2.865-3.114-2.967-3.124h0c-.38-.431-.724-.828-.983-1.136,1.013-5.477,4.043-11.593,11.007-16.762,0,0,4.137-4.842,1.732-10.444s-3.078-5.7-7.212-4.651l-9.344,4.463a49.317,49.317,0,0,1-7.752.915,3.149,3.149,0,0,0-2-1.78c-1.918-.462-3.589,1.546-5.43.993-1.4-.421-3.1-2.078-4.481-.474-.2.226-.328.5-.511.736a2.067,2.067,0,0,1-.452.411c-3.137-.207-6.62-.551-10.44-1.087l-8.27-4.937s-5.1-2.373-5.289,3.893-.674,9.208,1.537,10.917c1.6,1.237,6.838,9.7,8.8,16.975-.288.413-.467.674-.467.674s-5.587,7.577-6.012,7.759c-.028.011-.039.052-.038.115-.082.177-.328.516-1.116.734-1.093.3-5.949,1.757-6.618,1.757s-3.7.182-4.007,1.395a4.2,4.2,0,0,1,.575.011l-.146.185c-.829,1.065-2.226,3.05-2.311,4.409-.123,1.939.424,7.939,3.583,7.879s1.7-8.969,1.7-8.969l.37-1.088.01-.026.256,1.791c.056-.031.11-.062.164-.089.287.872,1.328,1.726,4.271,1.785,0,0,4.553.425,7.954,7.212,3.086,6.163,13.33,11.874,20.825,11.832v9.986l-1.031.3-13.386.229a.875.875,0,0,0-.862.834l-.082,1.724,3.881.365-12.079,2.909s-2.131-.182-1.762,2.849h2.976l.061-.606,24.165-1.7,1.4.347c-.2,1.021-.392,1.854-.443,2.072l-.015.056a.475.475,0,0,1-.02.111c-.143-.049-.223-.082-.223-.082-.328.374-.516,4.273-.546,4.668s1.518.87,1.518.87a14.877,14.877,0,0,0,3.424,0h0a20.519,20.519,0,0,0,3.314-.9l-.213-4.273c-.1.034-.21.066-.315.1q.01-.09.02-.187c.021-.251.039-.52.056-.8L441.977,371h.3v.546h3.34s.3-2.3-.911-3.03-7.59-3.212-7.59-3.212l1.528-.144h0l6.089-.579v.164h.91l-.02-.254,1.69-.164,2,.061s-.061-2.545-1.578-2.727c-.262-.033-1.124-.12-2.367-.244l-.4-4.8c.969-1.639,3.462,3.332,3.462,3.332s.01.038.025.1c.12.51.679,2.786,1.057,3.047h.011a5.253,5.253,0,0,0,.656.3,13.134,13.134,0,0,0,3.042.729c1.944.244,6.194-1.029,6.994-1.454a1.006,1.006,0,0,0,.341-.282.71.71,0,0,0-.048-.8l-.854-.087c.751-.339.895-1.6-.506-1.839-.054-.01-.11-.016-.164-.023a2.227,2.227,0,0,1,.252-.349,7.6,7.6,0,0,1-2.673-.742,4.49,4.49,0,0,0-.872-.275l-.021-.038c-.029-.054-.057-.11-.084-.164a11.024,11.024,0,0,1-.723-2.786c-.3-1.759-3.855-8.546-3.855-8.546s-1.237-2.826-2.295-5.825a9.858,9.858,0,0,0,2.786-3.606h0l1.042-1.6a19.5,19.5,0,0,0,1.844-2.834l1.06-1.629h0c1.977-.144,5.227-.37,6.9-.424.479,2.595,1.059,5.6,1.321,6.417.492,1.516,2.976-.243,3.947-4.12S464.046,325.356,464.046,325.356Zm-37.433,31.975v-8.523c.52-.082,1.092-.179,1.706-.288-.367,2.175-.82,4.165-.82,4.165A22.389,22.389,0,0,1,426.613,357.331Zm19.45-2.683.315.1a3.442,3.442,0,0,1,1.337.86A10.784,10.784,0,0,0,446.063,354.648Zm-1.932-7.836s.729,1.395-.728,3.7c-1.093,1.727-.444,2.74,1.129,3.522a12.5,12.5,0,0,0-1.583-.431l.077.044c-1.282-.28-.656.864-.656.864,1.273,1.236,1.863,4.358,2.131,6.835-3.344-.328-8.6-.841-12.845-1.251a11.21,11.21,0,0,0,.144-1.28,27.914,27.914,0,0,1,.79-3.576s2.27-5.286,3.522-8.469a51.715,51.715,0,0,0,6.941-2.436c.585,1.283,1.077,2.48,1.077,2.48Z" transform="translate(-335.093 -238.077)" fill="url(#a)"/><rect width="5.22" height="14.943" transform="translate(86.381 109.263)" fill="#3444b3"/><rect width="5.22" height="14.943" transform="translate(86.381 109.263)" opacity="0.3"/><path d="M478.93,765.482l-.082,1.708,3.842.361-11.943,2.881s-2.1-.18-1.739,2.821h2.94l.059-.6,23.885-1.682,18.543,4.622h.3v.539h3.3s.3-2.28-.9-3-7.5-3.181-7.5-3.181l10.081-.96,1.98.061s-.059-2.521-1.56-2.7-22.693-2.221-22.693-2.221h-3.411l-1.021.306-13.222.218A.869.869,0,0,0,478.93,765.482Z" transform="translate(-407.651 -642.985)" fill="#3444b3"/><path d="M627.12,691.63v1.732c-1.88.3-3.06.428-3.06.428a12.089,12.089,0,0,1-2.16.2V691.63Z" transform="translate(-535.519 -582.367)" opacity="0.1"/><path d="M869.561,564.751c-.96,3.84-3.421,5.581-3.9,4.079-.436-1.369-1.777-8.941-2-10.249-.021-.125-.034-.193-.034-.193l-.239-1.559,2.032.184.606.056S870.519,560.909,869.561,564.751Z" transform="translate(-737.421 -469.661)" fill="#c37098"/><path d="M422.386,560.281s-2.1,3.54,3.961,3.66c0,0,4.5.42,7.867,7.141s15.3,12.9,22.744,11.522c0,0,24.913-2.688,27.891-12.42L486.9,564.9s8.523-.656,9.421-.541.3-2.458.3-2.458l-2.221-1.619-5.281.9-6,5.52-18.73,8.821-18.063-2.581s-14.282-9.178-14.4-9.6-5.761-4.261-5.761-4.261Z" transform="translate(-368.411 -471.542)" fill="#3444b3"/><path d="M391.906,550.529v.9l-.477,1.383-.367,1.077s1.439,8.823-1.68,8.882-3.658-5.882-3.539-7.8c.085-1.346,1.465-3.311,2.285-4.365.349-.452.6-.738.6-.738Z" transform="translate(-338.139 -463.842)" fill="#c37098"/><path d="M478.93,765.482l-.082,1.708,3.842.361-11.943,2.881s-2.1-.18-1.739,2.821h2.94l.059-.6,23.885-1.682,18.543,4.622h.3v.539h3.3s.3-2.28-.9-3-7.5-3.181-7.5-3.181l10.081-.96,1.98.061s-.059-2.521-1.56-2.7-22.693-2.221-22.693-2.221h-3.411l-1.021.306-13.222.218A.869.869,0,0,0,478.93,765.482Z" transform="translate(-407.651 -642.985)" opacity="0.3"/><path d="M422.386,560.281s-2.1,3.54,3.961,3.66c0,0,4.5.42,7.867,7.141s15.3,12.9,22.744,11.522c0,0,24.913-2.688,27.891-12.42L486.9,564.9s8.523-.656,9.421-.541.3-2.458.3-2.458l-2.221-1.619-5.281.9-6,5.52-18.73,8.821-18.063-2.581s-14.282-9.178-14.4-9.6-5.761-4.261-5.761-4.261Z" transform="translate(-368.411 -471.542)" opacity="0.4"/><path d="M509.274,328.8l-5.133,5.736c-12.263,14.194-35.361,8.929-43.433,7.8s-12.2-13.44-12.2-13.44a3.1,3.1,0,0,0,.918-.038c1.359-.233,3.906-1.357,5.389-6.354,2.091-7.048-6.939-22.372-9.126-24.064s-1.711-4.606-1.521-10.817,5.222-3.858,5.222-3.858l8.175,4.887c20.056,2.821,30.7.282,30.7.282l9.219-4.417c4.088-1.034,4.753-.941,7.13,4.606s-1.711,10.34-1.711,10.34c-13.782,10.245-11.976,24.257-9.791,29.421,1.475,3.483,8.29,2.232,12.586,1.044C507.783,329.363,509.274,328.8,509.274,328.8Z" transform="translate(-386.767 -240.988)" fill="#3444b3"/><path d="M509.274,328.8l-5.133,5.736c-12.263,14.194-35.361,8.929-43.433,7.8s-12.2-13.44-12.2-13.44a3.1,3.1,0,0,0,.918-.038c1.359-.233,3.906-1.357,5.389-6.354,2.091-7.048-6.939-22.372-9.126-24.064s-1.711-4.606-1.521-10.817,5.222-3.858,5.222-3.858l8.175,4.887c20.056,2.821,30.7.282,30.7.282l9.219-4.417c4.088-1.034,4.753-.941,7.13,4.606s-1.711,10.34-1.711,10.34c-13.782,10.245-11.976,24.257-9.791,29.421,1.475,3.483,8.29,2.232,12.586,1.044C507.783,329.363,509.274,328.8,509.274,328.8Z" transform="translate(-386.767 -240.988)" opacity="0.1"/><path d="M515.909,336.469l-4.86,5.486c-11.612,13.592-33.486,8.551-41.138,7.471s-11.552-12.873-11.552-12.873a2.924,2.924,0,0,0,.867-.036c1.288-.223,3.7-1.3,5.1-6.084,1.98-6.753-6.571-21.425-8.641-23.044s-1.624-4.406-1.441-10.342,4.951-3.691,4.951-3.691l7.741,4.674c18.993,2.7,29.076.27,29.076.27l8.731-4.232c3.871-.983,4.5-.9,6.751,4.41s-1.619,9.9-1.619,9.9c-13.053,9.808-11.343,23.228-9.267,28.177,1.393,3.335,7.849,2.131,11.917,1C514.5,337.008,515.909,336.469,515.909,336.469Z" transform="translate(-395.203 -249.021)" fill="#3444b3"/><path d="M748.17,489.1s-2.16-.18-2.4,1.319l-14.943,1.255-3.716.3-3.934-13.808-.749-2.634,1.86.6s.688.82,1.549,1.79a24.934,24.934,0,0,0,3.252,3.311.717.717,0,0,1,.108.067,14.81,14.81,0,0,1,2.352,3.294,5.015,5.015,0,0,0,2.822.9,49.8,49.8,0,0,0,5.64,1.441C742.047,487.244,748.17,489.1,748.17,489.1Z" transform="translate(-619.573 -401.694)" fill="#3f3d56"/><path d="M537.75,558.53l-4.86,5.486c-11.612,13.592-33.486,8.551-41.138,7.471S480.2,558.614,480.2,558.614a2.924,2.924,0,0,0,.867-.036,22.294,22.294,0,0,1,2.912,2.917c8.462,10.022,21.307,9.362,21.307,9.362s18.6,2.219,25.444-8.223a29.487,29.487,0,0,1,3.637-3.021C536.338,559.069,537.75,558.53,537.75,558.53Z" transform="translate(-417.044 -471.082)" opacity="0.1"/><path d="M748.17,489.1s-2.16-.18-2.4,1.319l-14.943,1.255-3.716.3-3.934-13.808-.749-2.634,1.86.6s.688.82,1.549,1.79a24.934,24.934,0,0,0,3.252,3.311.717.717,0,0,1,.108.067,14.81,14.81,0,0,1,2.352,3.294,5.015,5.015,0,0,0,2.822.9,49.8,49.8,0,0,0,5.64,1.441C742.047,487.244,748.17,489.1,748.17,489.1Z" transform="translate(-619.573 -401.694)" opacity="0.1"/><path d="M866.2,557.25s-2.16-.18-2.4,1.319l-.146.013c-.021-.125-.034-.193-.034-.193l-.239-1.559,2.032.184Z" transform="translate(-737.421 -469.661)" opacity="0.1"/><path d="M482.424,561.765c-3.606,3.976-10.473,8.572-22.874,8.157,0,0-22.323,2.822-30.546-14.161,0,0-3.183-5.835-9.08-2.609l-.164.089-.361-2.521s5.281-7.082,13.741,2.94,21.307,9.362,21.307,9.362,18.6,2.219,25.445-8.223c0,0,9.67-9.78,14.223-3.779l.247,1.821.054.4a7.721,7.721,0,0,0-8.093,2.519Z" transform="translate(-366.209 -462.521)" opacity="0.1"/><path d="M419.42,548.523s5.281-7.08,13.743,2.94a24.829,24.829,0,0,0,3.183,3.148,28.925,28.925,0,0,0,18.121,6.218s18.6,2.221,25.444-8.221c0,0,9.67-9.781,14.223-3.781l.3,2.221a7.7,7.7,0,0,0-8.46,3s-4.861,14.4-26.406,13.682c0,0-22.323,2.821-30.546-14.162,0,0-3.24-5.941-9.241-2.521Z" transform="translate(-366.225 -460.686)" fill="#3444b3"/><path d="M497.608,330.3l-.433.034c-.461-.908-.577-4.917-.41-8.7l-.359-.015c-.079,1.782-.247,7.077.421,8.746-4.238.315-23.064,1.595-29.78-.01a11.94,11.94,0,0,0,.629-9.068l-.328.139a11.547,11.547,0,0,1-.575,8.687c-1.093-1.711-6.871-10.294-12.014-9.178l.077.352c4.753-1.036,10.334,7.03,11.56,8.9l-.22-.056.475.459.164.257.031-.062a17.781,17.781,0,0,1,4.512,12.227c-.059,1.909,1.2,3.622,3.65,4.956a21.6,21.6,0,0,0,9.847,2.278,12.285,12.285,0,0,0,6.654-1.537,3.329,3.329,0,0,0,1.572-3.325c-.995-7.325,4.668-14.674,4.763-14.8,7.752-9.278,14.146-8.613,14.21-8.606l.044-.357C511.824,321.592,505.478,320.915,497.608,330.3Zm-4.891,15.129a2.956,2.956,0,0,1-1.418,2.981c-3.226,2.221-11.363,1.837-16.126-.759-1.618-.883-3.53-2.4-3.462-4.63a18.191,18.191,0,0,0-4.389-12.238c7.156,1.511,25.863.211,29.7-.077a.462.462,0,0,0,.18.143C495.946,332.632,491.84,339.027,492.717,345.431Z" transform="translate(-395.773 -272.342)" opacity="0.1"/><path d="M582.81,760.36l7.57,2.2-1.51.144Z" transform="translate(-486.887 -635.735)" opacity="0.1"/><path d="M447.715,753.259l5.461-1.319-6.966,1.178Z" transform="translate(-372.676 -628.695)" opacity="0.1"/><path d="M403.621,550.521v.9l-.477,1.383a3.642,3.642,0,0,0-3.3-2.208c.349-.452.6-.737.6-.737Z" transform="translate(-349.855 -463.833)" opacity="0.1"/><path d="M410.2,529.3l-1.319-.3s-.061.539-1.147.839-5.881,1.741-6.541,1.741-3.662.18-3.961,1.38c0,0,3.542-.239,4.081,2.881l10.262-.48Z" transform="translate(-347.672 -446.392)" fill="#3f3d56"/><path d="M410.2,529.3l-1.319-.3s-.061.539-1.147.839-5.881,1.741-6.541,1.741-3.662.18-3.961,1.38c0,0,3.542-.239,4.081,2.881l10.262-.48Z" transform="translate(-347.672 -446.392)" opacity="0.1"/><path d="M752.26,728.91a15.81,15.81,0,0,1,4.163,3.386,31.9,31.9,0,0,1,2.131,3.742s2.25.983.608-2.593S752.26,728.91,752.26,728.91Z" transform="translate(-644.513 -613.537)" fill="#3f3d56"/><path d="M752.26,728.91a15.81,15.81,0,0,1,4.163,3.386,31.9,31.9,0,0,1,2.131,3.742s2.25.983.608-2.593S752.26,728.91,752.26,728.91Z" transform="translate(-644.513 -613.537)" fill="#3f3d56"/><path d="M752.26,728.91a15.81,15.81,0,0,1,4.163,3.386,31.9,31.9,0,0,1,2.131,3.742s2.25.983.608-2.593S752.26,728.91,752.26,728.91Z" transform="translate(-644.513 -613.537)" opacity="0.1"/><path d="M565.062,312.033c-.192.225-.328.492-.5.728-.764.949-2.2.908-3.3,1.441a4.483,4.483,0,0,0-2.18,4.2,14.141,14.141,0,0,0,1.323,4.794,11.585,11.585,0,0,1,1.128,4.828,12.1,12.1,0,0,1-.634,2.883,2.654,2.654,0,0,1-.964,1.6,30.783,30.783,0,0,0,4.966.479c4.779.074,9.56-.959,14.316-.484a4.442,4.442,0,0,1-1.365-4.193,16.471,16.471,0,0,1,.585-1.736,9.428,9.428,0,0,0,.018-6c-.193-.575-.443-1.133-.606-1.716-.377-1.357-.277-2.8-.546-4.183s-1.075-2.827-2.444-3.158c-1.895-.457-3.547,1.529-5.368.983C568.1,312.086,566.427,310.443,565.062,312.033Z" transform="translate(-482.995 -264.417)" fill="#3f3d56"/><g transform="translate(76.135 53.681)" opacity="0.1"><path d="M674,388a9.425,9.425,0,0,0,.492-3.2,9.436,9.436,0,0,1-.492,2.844,16.746,16.746,0,0,0-.585,1.736,4.177,4.177,0,0,0-.09,1.087,4.164,4.164,0,0,1,.09-.726A16.131,16.131,0,0,1,674,388Z" transform="translate(-654.647 -379.508)"/><path d="M561.844,361.933a11.93,11.93,0,0,0-1.134-4.669,14.269,14.269,0,0,1-1.319-4.753v.328a14.168,14.168,0,0,0,1.321,4.792A12.826,12.826,0,0,1,561.844,361.933Z" transform="translate(-559.39 -352.51)"/><path d="M583.477,437.668c-4.63-.385-9.281.587-13.931.516a31.092,31.092,0,0,1-4.614-.42,1.449,1.449,0,0,1-.352.3,30.769,30.769,0,0,0,4.966.479c4.779.074,9.558-.96,14.315-.492A4.128,4.128,0,0,1,583.477,437.668Z" transform="translate(-563.729 -423.635)"/></g><path d="M640.953,847.12l3.957.729-.272.472a14.631,14.631,0,0,1-3.384,0C640.56,848.066,640.953,847.12,640.953,847.12Z" transform="translate(-551.357 -712.373)" fill="#3f3d56"/><path d="M664.944,580.861s16.406-5.173,15.806-8.474-15.169-4.1-15.806-3.25S664.944,580.861,664.944,580.861Z" transform="translate(-571.272 -479.688)" fill="#3f3d56"/><path d="M664.944,580.861s16.406-5.173,15.806-8.474-15.169-4.1-15.806-3.25S664.944,580.861,664.944,580.861Z" transform="translate(-571.272 -479.688)" opacity="0.2"/><path d="M573.357,400.8l-3.114,2.762-3.961.72-7.141-.9-4.02-2.762s.71-.156,2.7-.6l1.619-.359c3.242-.721,1.921-6.064,1.921-6.064s8.882-4.74,7.743,1.26c-.621,3.27.7,4.74,2.029,5.409A5.436,5.436,0,0,0,573.357,400.8Z" transform="translate(-479.684 -331.691)" fill="#c37098"/><circle cx="6.903" cy="6.903" r="6.903" transform="translate(79.141 51.731)" opacity="0.1"/><circle cx="6.903" cy="6.903" r="6.903" transform="translate(79.141 51.551)" fill="#c37098"/><path d="M573.357,442.63l-3.114,2.762-3.961.72-7.141-.9-4.02-2.762s.71-.156,2.7-.6l.42.241h12.892A5.437,5.437,0,0,0,573.357,442.63Z" transform="translate(-479.684 -373.526)" opacity="0.1"/><path d="M522.194,441.7h7.064s2.418-.9,3.2-.361a5.139,5.139,0,0,0,3.3.361c.3-.239,4.74,2.226,6.361,5.7l-5.761,4.556-25.024,9.967s-1.147-1.982-.721-2.64-.78-1.918-.78-1.918-.42-2.221,0-2.88l-5.281-6.6s3.662-5.341,4.5-5.881c0,0,.3-.885.6-.833s5.651.164,5.651.164l.656.37Z" transform="translate(-437.403 -372.954)" fill="#3f3d56"/><path d="M522.194,441.7h7.064s2.418-.9,3.2-.361a5.139,5.139,0,0,0,3.3.361c.3-.239,4.74,2.226,6.361,5.7l-.6.474-5.163,4.083-25.024,9.967s-1.147-1.982-.721-2.64-.78-1.918-.78-1.918-.42-2.221,0-2.88l-5.281-6.6s3.662-5.341,4.5-5.881c0,0,.3-.885.6-.833s5.651.164,5.651.164l.656.37Z" transform="translate(-437.403 -372.954)" opacity="0.1"/><path d="M476.272,478.1l-2.221.656s-5.52,7.507-5.94,7.687,2.7,6.361,2.7,6.361,1.08-.841,1.621-1.38,6.9-6.064,6.9-6.064Z" transform="translate(-406.904 -403.835)" fill="#3f3d56"/><path d="M476.272,478.1l-2.221.656s-5.52,7.507-5.94,7.687,2.7,6.361,2.7,6.361,1.08-.841,1.621-1.38,6.9-6.064,6.9-6.064Z" transform="translate(-406.904 -403.835)" opacity="0.1"/><path d="M734.649,503.868l-3.716.3L727,490.364l2.66-.244a24.934,24.934,0,0,0,3.252,3.311.715.715,0,0,1,.108.067,10.856,10.856,0,0,1,.31,2.011c.361,5.245.839,6.272.839,6.272S734.375,502.627,734.649,503.868Z" transform="translate(-623.393 -413.884)" opacity="0.1"/><path d="M729.813,537.02c-.1-.015-.243-.029-.415-.046l-.164-.015c-2.185-.19-8.174-.48-8.174-.48a15.2,15.2,0,0,0-.431-1.567c-.023-.074-.049-.151-.075-.228-.564-1.639-1.627-3.888-3.335-4.445-2.76-.9-4.379-1.921-2.939-4.2s.719-3.66.719-3.66-1.995-4.86-2.676-5.459a19.229,19.229,0,0,1-2.165-4.214c-.074-.18-.147-.362-.215-.541a10.535,10.535,0,0,1-.764-2.568c-.056-1.264-2.322-11.77-2.708-13.546-.034-.164-.054-.256-.054-.256a.355.355,0,0,0-.015-.084c-.1-.643-.678-4.883,2.236-5.44l3.684-.339h0c.123.01,2.981.274,3.334,5.409.361,5.245.839,6.272.839,6.272a63.555,63.555,0,0,1,1.621,9.3c.12,3.237,3.689,11.4,3.689,11.4s3.511,6.72,3.812,8.462a10.9,10.9,0,0,0,.713,2.767c.026.056.054.11.082.164a2.436,2.436,0,0,0,2.567,1.39,3.877,3.877,0,0,1,.613,0,2.425,2.425,0,0,1,.261.031C731.525,535.412,730.968,537.178,729.813,537.02Z" transform="translate(-606.076 -413.726)" fill="#c37098"/><path d="M711.678,530.127c-.061,5.048-.3,9.431-.3,9.431s-.3,1.123-.7,2.622a13.178,13.178,0,0,1-.983-3.114c-.064-1.37-2.768-13.792-2.768-13.792a.355.355,0,0,0-.015-.084l.374.084S711.73,525.079,711.678,530.127Z" transform="translate(-606.596 -443.207)" opacity="0.1"/><path d="M653.273,528.3c-.061,5.048-.3,9.431-.3,9.431s-.231.862-.556,2.086c-.711,2.676-1.878,7.087-2.085,7.995-.3,1.311-4.261,10.56-4.261,10.56a27.709,27.709,0,0,0-.782,3.542c0,.719-.541,3.606-.541,3.606v2.58s0,2.411-.141,4.02c-.013.129-.026.254-.038.37a2.53,2.53,0,0,1-.241,1.01c-.418.482-2.219,3.362-2.219,3.362s-.233,0-.59-.008h0a9.706,9.706,0,0,1-3.171-.516,1.2,1.2,0,0,1-.613-.492c-.439-.877-.164-2.98-.046-3.739.026-.177.046-.282.046-.282a.167.167,0,0,1,.015-.056c.139-.585,1.329-5.654.706-6.785-.656-1.2,1.5-3.779,1.5-3.779a27.855,27.855,0,0,0,1.08-5.341s1.621-7.082,1.2-9.062a19.011,19.011,0,0,1,.179-4.05c.264-2.411.692-5.359,1.024-7.523.27-1.765.479-3.009.479-3.009s-.1-.031-.259-.067a2.355,2.355,0,0,0-1.723.126c-.656.48-.421-5.1-.421-5.1L646.852,523l2.036.443a3.23,3.23,0,0,1,.413.015C650.407,523.556,653.323,524.2,653.273,528.3Z" transform="translate(-548.559 -441.375)" fill="#c37098"/><path d="M765.989,737.665a.969.969,0,0,1-.338.279c-.79.421-4.991,1.682-6.912,1.441a12.971,12.971,0,0,1-3-.723,5.149,5.149,0,0,1-.656-.3h-.01c-.375-.251-.928-2.513-1.047-3.016-.013-.064-.023-.1-.023-.1s-2.458-4.917-3.421-3.3l.656,8.042h-.9s-.12-7.984-2.34-10.144c0,0-.643-1.177.719-.839s4.622,2.521,4.982,3.781a11.909,11.909,0,0,0,.983,2.214c.256.465.452.785.452.785l8.824.892,1.978.2A.692.692,0,0,1,765.989,737.665Z" transform="translate(-640.823 -613.569)" fill="#3f3d56"/><path d="M802.856,780.667a.969.969,0,0,1-.338.279c-.79.421-4.991,1.682-6.912,1.441a12.972,12.972,0,0,1-3-.723,5.16,5.16,0,0,1-.656-.3h-.01a55.189,55.189,0,0,1,8.931-.983A5.687,5.687,0,0,1,802.856,780.667Z" transform="translate(-677.69 -656.572)" opacity="0.1"/><path d="M801.95,758.651c0,.1,0,.2.01.308-2.185-.19-8.174-.48-8.174-.48a15.637,15.637,0,0,0-.506-1.8,10.382,10.382,0,0,1,5.781-1.138,2.466,2.466,0,0,0,2.649,1.554,3.878,3.878,0,0,1,.613,0A3.4,3.4,0,0,0,801.95,758.651Z" transform="translate(-678.81 -635.724)" opacity="0.1"/><path d="M802.549,759.783v.143l-.164-.015c-2.185-.19-8.174-.48-8.174-.48a15.161,15.161,0,0,0-.431-1.567,10.643,10.643,0,0,1,5.787-1.2,2.436,2.436,0,0,0,2.567,1.39,3.878,3.878,0,0,1,.613,0,2.416,2.416,0,0,1,.261.031A3.373,3.373,0,0,0,802.549,759.783Z" transform="translate(-679.228 -636.678)" opacity="0.1"/><path d="M795.487,759.814a4.066,4.066,0,0,0,.057.695h-.02l-8.262,1.292a5.135,5.135,0,0,1-.656-.3h-.01c-.375-.251-.928-2.513-1.047-3.016.19-.1.413-.22.664-.344,1.793-.9,4.987-2.168,7.354-1.134a7.5,7.5,0,0,0,2.64.736A3.066,3.066,0,0,0,795.487,759.814Z" transform="translate(-672.347 -636.708)" fill="#3f3d56"/><path d="M644.538,822.944a2.53,2.53,0,0,1-.241,1.01c-.418.482-2.219,3.362-2.219,3.362s-.236,0-.6-.008c-.047-.775-.343-2.054-1.742-2.082-1.106-.021-1.395.811-1.429,1.565a1.2,1.2,0,0,1-.613-.492c-.439-.877-.164-2.98-.046-3.739A12.344,12.344,0,0,0,644.538,822.944Z" transform="translate(-548.525 -691.838)" opacity="0.1"/><path d="M644.576,820.851c-.013.129-.026.254-.038.37a2.528,2.528,0,0,1-.241,1.01c-.418.482-2.219,3.362-2.219,3.362s-.233,0-.59-.008c.011-.633-.1-2.408-1.75-2.442-1.288-.025-1.475,1.11-1.429,1.926a1.2,1.2,0,0,1-.613-.492c-.439-.877-.164-2.98-.046-3.739.026-.177.046-.282.046-.282a.166.166,0,0,1,.015-.056A12.309,12.309,0,0,0,644.576,820.851Z" transform="translate(-548.526 -690.116)" opacity="0.1"/><path d="M634.707,821a12.24,12.24,0,0,0,7.411.359l.216,4.23s-3.458,1.213-3.606.819c0,0,.269-2.622-1.741-2.66s-1.321,2.742-1.321,2.742-1.529-.472-1.5-.862S634.388,821.369,634.707,821Z" transform="translate(-545.776 -690.534)" fill="#3f3d56"/><path d="M675.428,490.105c-3.412-1.019-5.5,4.648-5.851,5.7-.036.1-.054.164-.054.164-.1.023-.207.048-.3.075-5.881,1.542-5.527,6.884-5.292,8.439a2.355,2.355,0,0,0-1.723.126c-.656.48-.421-5.1-.421-5.1l5.341-4.156,2.036.443a.356.356,0,0,0-.015-.084c-.1-.642-.679-4.883,2.236-5.44l3.684-.339h0Z" transform="translate(-568.831 -413.726)" opacity="0.1"/><path d="M535.175,481.293l-1.2,2.94s-4.981,6.9-.42,9.962,20.16,2.242,20.16,2.242l1.147-10.162s-1.744-7.256,5.512-8.944c0,0,2.145-6.984,5.9-5.861l-7.164-3.621-9.834,3.661-8.342,4.5Z" transform="translate(-460.046 -395.265)" fill="#3f3d56"/><path d="M535.175,481.293l-1.2,2.94s-4.981,6.9-.42,9.962,20.16,2.242,20.16,2.242l1.147-10.162s-1.744-7.256,5.512-8.944c0,0,2.145-6.984,5.9-5.861l-7.164-3.621-9.834,3.661-8.342,4.5Z" transform="translate(-460.046 -395.265)" opacity="0.1"/><path d="M555.08,559.251s1.5-3.555,3.362-4.57S555.08,559.251,555.08,559.251Z" transform="translate(-479.651 -467.761)" opacity="0.1"/><path d="M594.26,500.509s13.382-8.7,18.244-8.523Z" transform="translate(-512.409 -415.443)" opacity="0.1"/><path d="M581.512,332.979c2.485.246,4.283,2.688,6.746,3.086a1.111,1.111,0,0,0,.626-.034c.629-.277.421-1.213.111-1.826q-.7-1.38-1.4-2.758a5.743,5.743,0,0,0-1.287-1.868,4.862,4.862,0,0,0-1.693-.844,9.993,9.993,0,0,0-7.292.1c-1.265.6-4.674,3.684-2.89,5.168C576.037,335.337,579.636,332.792,581.512,332.979Z" transform="translate(-495.412 -278.417)" opacity="0.1"/><path d="M581.512,331.882c2.485.246,4.283,2.69,6.746,3.086a1.111,1.111,0,0,0,.626-.034c.629-.277.421-1.213.111-1.826q-.7-1.38-1.4-2.758a5.743,5.743,0,0,0-1.287-1.868,4.862,4.862,0,0,0-1.693-.844,10,10,0,0,0-7.292.1c-1.265.6-4.674,3.684-2.89,5.168C576.037,334.24,579.636,331.7,581.512,331.882Z" transform="translate(-495.412 -277.501)" fill="#3f3d56"/><path d="M549.38,542.492a10.351,10.351,0,0,0,4.5-.492" transform="translate(-474.885 -457.261)" opacity="0.1"/><path d="M462.59,538.21s1.147.164,1.147.951S462.59,538.21,462.59,538.21Z" transform="translate(-402.32 -454.093)" opacity="0.1"/><path d="M466.07,556.329s.21-.366.57.328S466.07,556.329,466.07,556.329Z" transform="translate(-405.23 -469.161)" opacity="0.1"/><path d="M588.879,357.581a1.128,1.128,0,0,1-.626.036c-2.458-.4-4.261-2.84-6.746-3.088-1.878-.187-5.476,2.358-7.077,1.028a1.311,1.311,0,0,1-.492-.875,1.329,1.329,0,0,0,.492,1.236c1.6,1.331,5.2-1.215,7.077-1.028,2.483.246,4.283,2.69,6.746,3.086a1.113,1.113,0,0,0,.626-.034.816.816,0,0,0,.4-.928.675.675,0,0,1-.4.567Z" transform="translate(-495.407 -300.509)" opacity="0.1"/><path d="M650.17,526.884s7.333-1.918,9.319-1.495Z" transform="translate(-559.156 -443.322)" opacity="0.1"/><path d="M399.209,773.156l.351-4.353,3.463-4a17.556,17.556,0,0,1-8.4-.252l3.637,4.261.139,4.345c-1.106.123-1.945.716-1.945,1.431,0,.8,1.062,1.455,2.37,1.455s2.372-.656,2.372-1.455C401.192,773.868,400.333,773.269,399.209,773.156Z" transform="translate(-345.49 -643.336)" fill="#d4dfec" opacity="0.5"/><path d="M397.2,765.38l2.917,3.227a1.311,1.311,0,0,0,.983.434h0a1.311,1.311,0,0,0,.983-.443l2.77-3.114A15.478,15.478,0,0,1,397.2,765.38Z" transform="translate(-347.647 -644.03)" fill="#3444b3" opacity="0.5"/><ellipse cx="4.799" cy="1.842" rx="4.799" ry="1.842" transform="translate(48.661 118.651)" fill="#d4dfec" opacity="0.5"/><ellipse cx="4.26" cy="1.464" rx="4.26" ry="1.464" transform="translate(49.13 119.167)" fill="#3444b3"/><path d="M327.028,746.07l-.728,1.909.669-1.9" transform="translate(-272.419 -623.787)" fill="#3444b3" opacity="0.5"/><path d="M428.24,741.525l1.9-5.418a.108.108,0,0,1,.141-.064h0a.107.107,0,0,1,.059.136l-2.037,5.34" transform="translate(-373.6 -619.495)" fill="#3f3d56" opacity="0.5"/><path d="M433.16,739.232l1.1-3.125a.108.108,0,0,1,.141-.064h0a.107.107,0,0,1,.059.136l-1.172,3.073" transform="translate(-377.713 -619.495)" fill="#3f3d56"/><line y1="2.293" x2="0.806" transform="translate(54.64 119.737)" fill="#3f3d56" opacity="0.5"/><circle cx="0.933" cy="0.933" r="0.933" transform="translate(54.835 118.167)" fill="#3444b3"/><circle cx="0.933" cy="0.933" r="0.933" transform="translate(54.835 118.167)" fill="#fff" opacity="0.5"/><circle cx="0.393" cy="0.393" r="0.393" transform="translate(55.476 118.587)" fill="#3444b3"/><circle cx="0.393" cy="0.393" r="0.393" transform="translate(55.476 118.587)" opacity="0.25"/><path d="M429.56,752.78a.933.933,0,0,0,1.68.387A7.6,7.6,0,0,0,429.56,752.78Z" transform="translate(-374.703 -633.495)" fill="#3444b3" opacity="0.3"/><rect width="0.931" height="20.963" transform="translate(19.653 85.435)" fill="#535461"/><path d="M191.682,666.561l-.059.944-.082,1.332-.034.556-.082,1.334-.036.556-.082,1.333-.941,15.157a2.567,2.567,0,0,1-2.562,2.408h-4.879a2.567,2.567,0,0,1-2.562-2.408l-.941-15.157-.082-1.333-.034-.556-.084-1.334-.034-.556-.082-1.332-.059-.944a1.329,1.329,0,0,1,1.328-1.411h9.981a1.329,1.329,0,0,1,1.326,1.411Z" transform="translate(-165.247 -560.227)" fill="#3f3d56"/><path d="M94.627,654.52l-.082,1.333H82.192l-.082-1.333Z" transform="translate(-68.251 -547.242)" fill="#9d9cb5"/><path d="M95.1,666.04l-.082,1.334H82.9l-.084-1.334Z" transform="translate(-68.845 -556.874)" fill="#9d9cb5"/><path d="M95.588,677.57l-.082,1.333H83.624l-.084-1.333Z" transform="translate(-69.447 -566.514)" fill="#9d9cb5"/><path d="M109.746,573.037a24.16,24.16,0,0,1,7.68,10.058A21.95,21.95,0,0,1,97.79,568.89,24.164,24.164,0,0,1,109.746,573.037Z" transform="translate(-97.31 -479.744)" fill="#3444b3"/><path d="M97.79,568.89s6.782,3.77,8.959,6.884,10.678,7.323,10.678,7.323" transform="translate(-97.31 -479.744)" fill="none" stroke="#535461" stroke-miterlimit="10" stroke-width="2"/><path d="M158.9,534.487a13.131,13.131,0,0,1,4.179,5.474,11.95,11.95,0,0,1-10.688-7.731A13.2,13.2,0,0,1,158.9,534.487Z" transform="translate(-142.961 -449.093)" fill="#3444b3"/><path d="M152.39,532.2s3.691,2.049,4.876,3.745,5.812,3.986,5.812,3.986" transform="translate(-142.961 -449.068)" fill="none" stroke="#535461" stroke-miterlimit="10" stroke-width="2"/><path d="M222.817,553.349a18.192,18.192,0,0,0-4.107,8.595,16.522,16.522,0,0,0,12.278-13.494A18.183,18.183,0,0,0,222.817,553.349Z" transform="translate(-198.411 -462.654)" fill="#3444b3"/><path d="M230.988,548.45s-4.417,3.819-5.538,6.451-6.739,7.048-6.739,7.048" transform="translate(-198.411 -462.654)" fill="none" stroke="#535461" stroke-miterlimit="10" stroke-width="2"/><path d="M950.018,667.11s.947,1.237-.438,3.114-2.526,3.442-2.063,4.614c0,0,2.088-3.471,3.788-3.521S951.888,669.2,950.018,667.11Z" transform="translate(-807.681 -561.866)" opacity="0.1"/><path d="M950.292,667.11a1.5,1.5,0,0,1,.193.388c1.659,1.949,2.542,3.77.947,3.812-1.485.043-3.267,2.7-3.693,3.368a1.174,1.174,0,0,0,.051.152s2.088-3.471,3.788-3.521S952.162,669.2,950.292,667.11Z" transform="translate(-807.955 -561.866)" opacity="0.1"/><path d="M972.938,675.316c0,.436-.049.788-.11.788s-.108-.352-.108-.788.061-.231.121-.231S972.938,674.88,972.938,675.316Z" transform="translate(-828.84 -568.494)" fill="#3f3d56"/><path d="M973.925,678.39c-.383.21-.716.336-.746.282s.257-.266.641-.474.231-.056.261,0S974.307,678.182,973.925,678.39Z" transform="translate(-829.223 -571.048)" fill="#3f3d56"/><path d="M921.94,667.11s-.947,1.237.436,3.114,2.526,3.442,2.065,4.614c0,0-2.088-3.471-3.789-3.521S920.07,669.2,921.94,667.11Z" transform="translate(-784.605 -561.866)" fill="#3f3d56"/><path d="M950.018,667.11s.947,1.237-.438,3.114-2.526,3.442-2.063,4.614c0,0,2.088-3.471,3.788-3.521S951.888,669.2,950.018,667.11Z" transform="translate(-807.681 -561.866)" fill="#d4dfec"/><path d="M921.94,667.11s-.947,1.237.436,3.114,2.526,3.442,2.065,4.614c0,0-2.088-3.471-3.789-3.521S920.07,669.2,921.94,667.11Z" transform="translate(-784.605 -561.866)" opacity="0.1"/><path d="M921.94,667.11a1.5,1.5,0,0,0-.193.388c-1.659,1.949-2.542,3.77-.949,3.812,1.485.043,3.266,2.7,3.694,3.368a1.522,1.522,0,0,1-.051.152s-2.088-3.478-3.789-3.521S920.07,669.2,921.94,667.11Z" transform="translate(-784.605 -561.866)" opacity="0.1"/><path d="M922,675.316c0,.436.049.788.11.788s.11-.352.11-.788-.061-.231-.121-.231S922,674.88,922,675.316Z" transform="translate(-786.433 -568.494)" fill="#d4dfec"/><path d="M917.167,678.39c.382.21.716.336.746.282s-.259-.266-.641-.474-.233-.056-.261,0S916.78,678.182,917.167,678.39Z" transform="translate(-782.197 -571.048)" fill="#d4dfec"/><path d="M927.174,701.049l-.048.387-.066.546-.028.228-.067.547-.028.228-.067.546-.757,6.212c-.067.554-.974.983-2.067.983H920.1c-1.095,0-2-.433-2.067-.983l-.759-6.212-.066-.546-.028-.228-.069-.547-.026-.228-.067-.546-.033-.387c-.038-.313.452-.579,1.072-.579h8.052C926.722,700.477,927.214,700.742,927.174,701.049Z" transform="translate(-782.242 -589.758)" fill="#3f3d56"/><path d="M830.029,681.4l-.067.546H820l-.067-.546Z" transform="translate(-685.143 -569.717)" fill="#9d9cb5"/><path d="M830.419,686.12l-.066.547h-9.777l-.067-.547Z" transform="translate(-685.628 -573.663)" fill="#9d9cb5"/><path d="M830.809,690.85l-.066.546h-9.588l-.066-.546Z" transform="translate(-686.113 -577.618)" fill="#9d9cb5"/></g></svg>