<svg xmlns="http://www.w3.org/2000/svg" width="158.468" height="139.159" viewBox="0 0 158.468 139.159"><g transform="translate(0)"><ellipse cx="50.599" cy="50.6" rx="50.599" ry="50.6" transform="translate(27.23 22.846)" opacity="0.4" stroke="#3ad29f" stroke-miterlimit="10" stroke-width="5" stroke-dasharray="12" fill="none"/><ellipse cx="38.583" cy="38.583" rx="38.583" ry="38.583" transform="translate(39.25 34.682)" opacity="0.4" stroke="#3ad29f" stroke-miterlimit="10" stroke-width="5" stroke-dasharray="12" fill="none"/><path d="M946.4,502.563a.282.282,0,1,0-.272-.282A.282.282,0,0,0,946.4,502.563Z" transform="translate(-801.676 -422.627)" fill="#f5f5f5"/><g transform="translate(143.412 123.218)" opacity="0.5"><path d="M943.8,734.987a2.045,2.045,0,0,0-2.667.248,2.089,2.089,0,0,0,.083,2.912l2.55,2.536a.426.426,0,0,0,.6,0l2.535-2.55a2.089,2.089,0,0,0,.067-2.912,2.045,2.045,0,0,0-2.668-.233A.429.429,0,0,1,943.8,734.987Z" transform="translate(-940.582 -734.597)" fill="#3444b3"/></g><g transform="translate(8.14 115.521)" opacity="0.5"><path d="M225.8,693.987a2.045,2.045,0,0,0-2.667.248,2.089,2.089,0,0,0,.083,2.912l2.55,2.535a.426.426,0,0,0,.6,0l2.535-2.55a2.089,2.089,0,0,0,.067-2.912,2.045,2.045,0,0,0-2.668-.233A.429.429,0,0,1,225.8,693.987Z" transform="translate(-222.582 -693.597)" fill="#3444b3"/></g><g transform="translate(14.899 12.785)" opacity="0.5"><path d="M261.8,148.987a2.045,2.045,0,0,0-2.667.248,2.089,2.089,0,0,0,.083,2.912l2.55,2.535a.426.426,0,0,0,.6,0l2.535-2.55a2.089,2.089,0,0,0,.067-2.912,2.045,2.045,0,0,0-2.668-.233A.429.429,0,0,1,261.8,148.987Z" transform="translate(-258.582 -148.597)" fill="#3444b3"/></g><g transform="translate(119.658 4.524)" opacity="0.5"><path d="M817.8,104.987a2.045,2.045,0,0,0-2.667.248,2.089,2.089,0,0,0,.083,2.912l2.55,2.535a.426.426,0,0,0,.6,0l2.535-2.55a2.089,2.089,0,0,0,.067-2.912,2.045,2.045,0,0,0-2.668-.233A.429.429,0,0,1,817.8,104.987Z" transform="translate(-814.582 -104.597)" fill="#3444b3"/></g><g transform="translate(87.069)" opacity="0.5"><rect width="0.563" height="3.192" transform="translate(1.314)" fill="#3ad29f"/><rect width="0.563" height="3.192" transform="translate(3.192 1.314) rotate(90)" fill="#3ad29f"/></g><g transform="translate(4.948 41.054)" opacity="0.5"><rect width="0.563" height="3.192" transform="translate(1.314)" fill="#3ad29f"/><rect width="0.563" height="3.192" transform="translate(3.192 1.314) rotate(90)" fill="#3ad29f"/></g><g transform="translate(110.609 135.967)" opacity="0.5"><rect width="0.563" height="3.192" transform="translate(1.314)" fill="#3ad29f"/><rect width="0.563" height="3.192" transform="translate(3.192 1.314) rotate(90)" fill="#3ad29f"/></g><g transform="translate(6.825 93.595)" opacity="0.5"><rect width="0.563" height="3.192" transform="translate(1.314)" fill="#3ad29f"/><rect width="0.563" height="3.192" transform="translate(3.192 1.314) rotate(90)" fill="#3ad29f"/></g><g transform="translate(41.873 98.303)" opacity="0.5"><rect width="0.563" height="3.192" transform="translate(1.314)" fill="#3ad29f"/><rect width="0.563" height="3.192" transform="translate(3.192 1.314) rotate(90)" fill="#3ad29f"/></g><path d="M342.7,745.862a.69.69,0,0,1-.384-.834.334.334,0,0,0,.015-.076h0a.346.346,0,0,0-.622-.229h0a.332.332,0,0,0-.038.068.69.69,0,0,1-.834.384.327.327,0,0,0-.077-.015h0a.346.346,0,0,0-.229.622h0a.338.338,0,0,0,.068.038.69.69,0,0,1,.384.834.33.33,0,0,0-.015.076h0a.346.346,0,0,0,.622.229h0a.329.329,0,0,0,.038-.068.69.69,0,0,1,.834-.384.33.33,0,0,0,.076.015h0a.346.346,0,0,0,.229-.622h0A.333.333,0,0,0,342.7,745.862Z" transform="translate(-310.04 -619.491)" fill="#f55f44" opacity="0.5"/><path d="M590.7,711.862a.69.69,0,0,1-.384-.834.333.333,0,0,0,.015-.077h0a.346.346,0,0,0-.621-.229h0a.324.324,0,0,0-.038.068.69.69,0,0,1-.834.384.334.334,0,0,0-.077-.015h0a.346.346,0,0,0-.229.622h0a.335.335,0,0,0,.068.038.69.69,0,0,1,.384.834.331.331,0,0,0-.015.077h0a.346.346,0,0,0,.622.229h0a.332.332,0,0,0,.038-.068.69.69,0,0,1,.834-.384.334.334,0,0,0,.077.015h0a.346.346,0,0,0,.229-.622h0A.335.335,0,0,0,590.7,711.862Z" transform="translate(-511.337 -591.875)" fill="#3ad29f" opacity="0.5"/><path d="M686.7,243.862a.69.69,0,0,1-.384-.834.337.337,0,0,0,.015-.077h0a.346.346,0,0,0-.622-.229h0a.334.334,0,0,0-.038.068.69.69,0,0,1-.834.384.333.333,0,0,0-.077-.015h0a.346.346,0,0,0-.229.622h0a.331.331,0,0,0,.068.038.69.69,0,0,1,.384.834.334.334,0,0,0-.015.077h0a.346.346,0,0,0,.622.229h0a.332.332,0,0,0,.038-.068.69.69,0,0,1,.834-.384.334.334,0,0,0,.077.015h0a.346.346,0,0,0,.229-.622h0A.334.334,0,0,0,686.7,243.862Z" transform="translate(-589.259 -212.061)" fill="#f55f44" opacity="0.5"/><path d="M943.7,249.862a.69.69,0,0,1-.384-.834.334.334,0,0,0,.015-.077h0a.346.346,0,0,0-.622-.229h0a.33.33,0,0,0-.038.068.69.69,0,0,1-.834.384.331.331,0,0,0-.077-.015h0a.346.346,0,0,0-.229.622h0a.329.329,0,0,0,.068.038.69.69,0,0,1,.384.834.34.34,0,0,0-.015.077h0a.346.346,0,0,0,.622.229h0a.336.336,0,0,0,.038-.068.69.69,0,0,1,.834-.384.332.332,0,0,0,.077.015h0a.346.346,0,0,0,.229-.622h0A.329.329,0,0,0,943.7,249.862Z" transform="translate(-797.825 -216.931)" fill="#f55f44" opacity="0.5"/><path d="M573.7,524.862a.69.69,0,0,1-.384-.834.327.327,0,0,0,.015-.077h0a.346.346,0,0,0-.622-.229h0a.335.335,0,0,0-.038.068.69.69,0,0,1-.834.384.333.333,0,0,0-.077-.015h0a.346.346,0,0,0-.229.622h0a.333.333,0,0,0,.068.038.69.69,0,0,1,.384.834.336.336,0,0,0-.015.076h0a.346.346,0,0,0,.622.229h0a.332.332,0,0,0,.038-.068.69.69,0,0,1,.834-.384.331.331,0,0,0,.077.015h0a.346.346,0,0,0,.229-.622h0A.333.333,0,0,0,573.7,524.862Z" transform="translate(-497.539 -440.144)" fill="#f55f44" opacity="0.5"/><path d="M1009.7,98.862a.69.69,0,0,1-.385-.834.334.334,0,0,0,.015-.077h0a.346.346,0,0,0-.622-.229h0a.33.33,0,0,0-.038.068.69.69,0,0,1-.834.384.329.329,0,0,0-.076-.015h0a.346.346,0,0,0-.229.622h0a.335.335,0,0,0,.068.038.69.69,0,0,1,.385.834.321.321,0,0,0-.015.077h0a.346.346,0,0,0,.621.229h0a.336.336,0,0,0,.038-.068.69.69,0,0,1,.834-.384.332.332,0,0,0,.077.015h0a.346.346,0,0,0,.229-.622h0A.329.329,0,0,0,1009.7,98.862Z" transform="translate(-851.433 -94.377)" fill="#f55f44" opacity="0.5"/><path d="M646.542,314.832l-2.577-14.607L590.9,309.586l10.116,57.348a10.485,10.485,0,0,0,12.146,8.5l32.415-5.718a10.485,10.485,0,0,0,8.5-12.147l-1.212-6.87a18.212,18.212,0,0,0-6.327-35.87Zm5.577,31.618-4.827-27.365a13.894,13.894,0,0,1,4.827,27.365Z" transform="translate(-513.141 -258.704)" fill="#dbe8fc"/><rect width="41.493" height="25.91" transform="matrix(0.985, -0.174, 0.174, 0.985, 83.292, 51.503)" fill="#fff"/><path d="M644.6,280.971c-1.2-4.128-14.728-3.815-30.207.7s-27.052,11.518-25.849,15.646c.734,2.518,6.053,3.383,13.6,2.651a4.865,4.865,0,0,0,8.8,3.8c1.812,3.685,4.79,5.9,7.34,5.153,2.79-.814,4.113-4.887,3.245-9.461a4.989,4.989,0,0,0,4.463,1.131c1.794-.523,3.021-2.254,3.473-4.519a4.555,4.555,0,0,0,3.456.471,4.955,4.955,0,0,0,3.126-3.267c1.194,3.249,3.944,5.261,6.372,4.553,2.58-.752,3.818-4.29,2.764-7.9a8.224,8.224,0,0,0-2.94-4.393C644.1,283.838,644.973,282.263,644.6,280.971Z" transform="translate(-511.266 -240.833)" opacity="0.03"/><path d="M641.694,271.018c-1.2-4.128-14.728-3.815-30.207.7s-27.052,11.518-25.849,15.646c.734,2.518,6.052,3.382,13.6,2.651a4.865,4.865,0,0,0,8.8,3.8c1.812,3.685,4.79,5.9,7.34,5.153,2.79-.814,4.113-4.887,3.245-9.461a4.989,4.989,0,0,0,4.463,1.131c1.794-.523,3.021-2.254,3.473-4.519a4.555,4.555,0,0,0,3.456.471,4.955,4.955,0,0,0,3.126-3.268c1.194,3.249,3.944,5.261,6.372,4.553,2.58-.752,3.818-4.29,2.764-7.9a8.223,8.223,0,0,0-2.94-4.393C641.194,273.886,642.071,272.311,641.694,271.018Z" transform="translate(-508.911 -232.757)" fill="#fafafa"/><path d="M633.356,392.644s9.006-4.067,18.49-.02,22.373-7.188,22.373-7.188l2.184,12.379-28.527,9.045-8.342-.816Z" transform="translate(-547.746 -327.984)" fill="#3444b3"/><path d="M633.356,392.644s9.006-4.067,18.49-.02,22.373-7.188,22.373-7.188l2.184,12.379-28.527,9.045-8.342-.816Z" transform="translate(-547.746 -327.984)" opacity="0.05"/><path d="M682.209,430.736l-40.862,7.208-7.991-45.3q20.538,11.019,40.862-7.208Z" transform="translate(-547.728 -327.912)" fill="#3444b3"/><path d="M670.9,476.963a.658.658,0,0,0,.368,1.262A.658.658,0,0,0,670.9,476.963Z" transform="translate(-577.939 -402.28)" fill="#fafafa"/><path d="M769.017,612.986a.657.657,0,0,0,.368,1.262A.657.657,0,0,0,769.017,612.986Z" transform="translate(-657.583 -512.688)" fill="#fafafa"/><path d="M720.187,560.673a.658.658,0,0,0,.368,1.262A.658.658,0,0,0,720.187,560.673Z" transform="translate(-617.948 -470.226)" fill="#fafafa"/><path d="M756.628,502.457a.658.658,0,0,0,.368,1.262A.658.658,0,0,0,756.628,502.457Z" transform="translate(-647.527 -422.973)" fill="#fafafa"/><path d="M843.755,466.779a.658.658,0,0,0,.368,1.262A.658.658,0,0,0,843.755,466.779Z" transform="translate(-718.247 -394.014)" fill="#fafafa"/><path d="M179.506,230.6a18.212,18.212,0,0,0,14.771,21.1l-1.212,6.87a10.485,10.485,0,0,0,8.5,12.147l32.415,5.718a10.485,10.485,0,0,0,12.146-8.5l10.116-57.348-53.066-9.361L200.6,215.832A18.212,18.212,0,0,0,179.506,230.6Zm4.253.75a13.894,13.894,0,0,1,16.1-11.269l-4.827,27.365A13.894,13.894,0,0,1,183.759,231.354Z" transform="translate(-179.226 -178.412)" fill="#dbe8fc"/><rect width="41.493" height="25.91" transform="matrix(-0.985, -0.174, 0.174, -0.985, 66.972, 58.36)" fill="#fff"/><path d="M288.73,181.971c1.2-4.128,14.728-3.815,30.207.7s27.052,11.518,25.849,15.646c-.734,2.518-6.052,3.382-13.6,2.651a4.865,4.865,0,0,1-8.8,3.8c-1.812,3.685-4.79,5.9-7.34,5.153-2.79-.814-4.113-4.887-3.245-9.461a4.989,4.989,0,0,1-4.463,1.131c-1.794-.523-3.021-2.254-3.473-4.519a4.555,4.555,0,0,1-3.456.472,4.955,4.955,0,0,1-3.126-3.268c-1.194,3.249-3.944,5.261-6.372,4.553-2.58-.752-3.818-4.29-2.764-7.9a8.224,8.224,0,0,1,2.94-4.393C289.23,184.838,288.353,183.263,288.73,181.971Z" transform="translate(-267.392 -160.562)" opacity="0.03"/><path d="M291.631,172.018c1.2-4.128,14.728-3.815,30.207.7s27.052,11.518,25.849,15.646c-.734,2.518-6.052,3.382-13.6,2.651a4.865,4.865,0,0,1-8.8,3.8c-1.812,3.685-4.79,5.9-7.34,5.153-2.79-.814-4.113-4.887-3.245-9.461a4.989,4.989,0,0,1-4.463,1.131c-1.794-.523-3.021-2.254-3.473-4.519a4.555,4.555,0,0,1-3.456.472,4.955,4.955,0,0,1-3.126-3.268c-1.194,3.249-3.944,5.261-6.372,4.553-2.58-.752-3.818-4.29-2.765-7.9a8.224,8.224,0,0,1,2.94-4.393C292.131,174.886,291.254,173.311,291.631,172.018Z" transform="translate(-269.748 -152.478)" fill="#fafafa"/><path d="M360.772,293.644s-9.006-4.067-18.49-.02-22.373-7.188-22.373-7.188l-2.184,12.379,28.527,9.045,8.342-.816Z" transform="translate(-291.617 -247.636)" fill="#3444b3"/><path d="M360.772,293.644s-9.006-4.067-18.49-.02-22.373-7.188-22.373-7.188l-2.184,12.379,28.527,9.045,8.342-.816Z" transform="translate(-291.617 -247.636)" opacity="0.05"/><path d="M286.8,331.736l40.862,7.208,7.991-45.3q-20.538,11.019-40.862-7.208Z" transform="translate(-266.6 -247.587)" fill="#3444b3"/><path d="M503.924,377.963a.658.658,0,0,1-.368,1.262A.658.658,0,0,1,503.924,377.963Z" transform="translate(-442.111 -321.923)" fill="#fafafa"/><path d="M405.8,513.986a.658.658,0,0,1-.368,1.262A.658.658,0,0,1,405.8,513.986Z" transform="translate(-362.467 -432.331)" fill="#fafafa"/><path d="M454.633,461.673a.658.658,0,0,1-.368,1.262A.658.658,0,0,1,454.633,461.673Z" transform="translate(-402.102 -389.869)" fill="#fafafa"/><path d="M418.191,403.457a.658.658,0,0,1-.368,1.262A.658.658,0,0,1,418.191,403.457Z" transform="translate(-372.523 -342.616)" fill="#fafafa"/><path d="M331.065,367.779a.658.658,0,0,1-.368,1.262A.658.658,0,0,1,331.065,367.779Z" transform="translate(-301.888 -313.657)" fill="#fafafa"/></g></svg>