<svg xmlns="http://www.w3.org/2000/svg" xmlns:xlink="http://www.w3.org/1999/xlink" width="182.763" height="131.38" viewBox="0 0 182.763 131.38"><defs><clipPath id="a"><path d="M51.274-95C34.051-95,21.549-83.532,21.549-67.732v31.863H10.774V-48.733H7.056v12.864h-5.2A1.854,1.854,0,0,0,0-34.02v18.492a1.855,1.855,0,0,0,1.859,1.85H21.549V-3.7H13.392V0H45.717V-3.7H37.661V-67.732c0-5.092,6.072-11.242,13.613-11.242a13.592,13.592,0,0,1,13.613,13.54v5.745a1.855,1.855,0,0,0,1.859,1.85H79.141A1.854,1.854,0,0,0,81-59.689v-5.745C81-83.118,69.053-95,51.274-95ZM3.719-32.171h9.915v14.793H3.719ZM77.281-61.538H68.605v-3.9A17.3,17.3,0,0,0,51.274-82.672c-9.919,0-17.331,7.888-17.331,14.94V-3.7H25.267v-11.83a1.855,1.855,0,0,0-1.859-1.85H17.352V-32.171h6.055a1.854,1.854,0,0,0,1.859-1.85V-67.732c0-13.877,10.695-23.57,26.007-23.57,15.8,0,26.007,10.154,26.007,25.868ZM72.473-52.2v6.781a1.855,1.855,0,0,1-1.859,1.85,1.854,1.854,0,0,1-1.859-1.85V-52.2a1.855,1.855,0,0,1,1.859-1.85A1.854,1.854,0,0,1,72.473-52.2Zm6.2,0v6.781a1.855,1.855,0,0,1-1.859,1.85,1.854,1.854,0,0,1-1.859-1.85V-52.2a1.855,1.855,0,0,1,1.859-1.85A1.854,1.854,0,0,1,78.67-52.2Zm-6.2,14.793v6.781a1.855,1.855,0,0,1-1.859,1.85,1.854,1.854,0,0,1-1.859-1.85V-37.41a1.855,1.855,0,0,1,1.859-1.85A1.854,1.854,0,0,1,72.473-37.41Zm6.2,0v6.781a1.855,1.855,0,0,1-1.859,1.85,1.854,1.854,0,0,1-1.859-1.85V-37.41a1.855,1.855,0,0,1,1.859-1.85A1.854,1.854,0,0,1,78.67-37.41Zm0,14.793v6.781a1.855,1.855,0,0,1-1.859,1.85,1.854,1.854,0,0,1-1.859-1.85v-6.781a1.855,1.855,0,0,1,1.859-1.85A1.854,1.854,0,0,1,78.67-22.617Zm-6.2,0v6.781a1.855,1.855,0,0,1-1.859,1.85,1.854,1.854,0,0,1-1.859-1.85v-6.781a1.855,1.855,0,0,1,1.859-1.85A1.854,1.854,0,0,1,72.473-22.617Z" fill="none"/></clipPath><clipPath id="b"><path d="M-257,26H475V-341H-257Z" fill="none"/></clipPath></defs><g transform="translate(-1167.237 -2634)"><g transform="translate(1211.334 2729)"><g clip-path="url(#a)"><g clip-path="url(#b)"><path d="M-5-100H86V5H-5Z" fill="#3447ad"/></g></g></g><path d="M178.147,108.778c-11.717-.436-22.876-4.5-33.532-8.945s-21.213-9.369-32.64-11.724c-7.356-1.515-15.767-1.731-21.694,2.506-5.712,4.084-7.555,11.114-8.54,17.642-.746,4.913-1.184,10.084.858,14.682,1.418,3.194,3.936,5.877,5.677,8.934,6.059,10.642,1.776,23.765-4.79,34.155-3.078,4.874-6.651,9.523-9.029,14.711s-3.481,11.134-1.407,16.428c2.06,5.25,6.972,9.186,12.293,11.949,10.806,5.629,23.535,7.242,35.957,8.147,27.486,2.02,55.12,1.146,82.68.27,10.2-.324,20.443-.654,30.476-2.354,5.572-.941,11.324-2.435,15.369-6.039a14.527,14.527,0,0,0,2.967-18.061c-5.772-9.624-21.725-12.016-25.764-22.344-2.22-5.685.06-12.017,3.288-17.289,6.921-11.311,18.526-21.234,19.136-34.164.42-8.871-5.158-17.771-13.783-21.973-9.041-4.4-21.576-3.851-28.242,3.44C200.562,106.285,188.492,109.165,178.147,108.778Z" transform="translate(1095.28 2546.885)" fill="#3444b3" opacity="0.1"/></g></svg>