<svg xmlns="http://www.w3.org/2000/svg" xmlns:xlink="http://www.w3.org/1999/xlink" width="130" height="135.669" viewBox="0 0 130 135.669"><defs><linearGradient id="a" x1="0.5" y1="1" x2="0.5" gradientUnits="objectBoundingBox"><stop offset="0" stop-color="gray" stop-opacity="0.251"/><stop offset="0.54" stop-color="gray" stop-opacity="0.122"/><stop offset="1" stop-color="gray" stop-opacity="0.102"/></linearGradient></defs><g transform="translate(0 0.01)"><path d="M796.95,115.6a18.325,18.325,0,0,1,6.82,12.505,1.439,1.439,0,0,0,1.473,1.3l2.212-.065a1.443,1.443,0,0,0,1.4-1.579A23.47,23.47,0,0,0,784.4,106.527a1.445,1.445,0,0,0-1.37,1.6l.246,2.2a1.437,1.437,0,0,0,1.48,1.279A18.316,18.316,0,0,1,796.95,115.6Z" transform="translate(-678.857 -98.465)" fill="#3444b3"/><path d="M790.841,144.3a18.314,18.314,0,0,0-11.967-4.009,1.441,1.441,0,0,0-1.387,1.6l.184,1.64a1.439,1.439,0,0,0,1.456,1.279,13.858,13.858,0,0,1,14,12.144,1.443,1.443,0,0,0,1.471,1.272l1.648-.048a1.439,1.439,0,0,0,1.393-1.592,18.322,18.322,0,0,0-6.794-12.289Z" transform="translate(-674.513 -124.951)" fill="#3444b3"/><path d="M779.393,177.374a10.153,10.153,0,0,1,3.7,6.377A1.454,1.454,0,0,0,784.569,185l.8-.024a1.445,1.445,0,0,0,1.385-1.661,13.858,13.858,0,0,0-13.678-11.842,1.434,1.434,0,0,0-1.408,1.6l.089.795a1.454,1.454,0,0,0,1.441,1.281,10.14,10.14,0,0,1,6.2,2.225Z" transform="translate(-669.947 -149.399)" fill="#3444b3"/><path d="M309.277,115.6a18.325,18.325,0,0,0-6.82,12.505,1.439,1.439,0,0,1-1.473,1.3l-2.212-.065a1.443,1.443,0,0,1-1.4-1.579,23.47,23.47,0,0,1,24.453-21.234,1.445,1.445,0,0,1,1.37,1.6l-.246,2.195a1.437,1.437,0,0,1-1.48,1.279,18.316,18.316,0,0,0-12.2,4Z" transform="translate(-297.37 -98.465)" fill="#3444b3"/><path d="M335.974,144.3a18.314,18.314,0,0,1,11.967-4.009,1.441,1.441,0,0,1,1.387,1.6l-.184,1.64a1.439,1.439,0,0,1-1.456,1.279,13.858,13.858,0,0,0-14,12.144,1.443,1.443,0,0,1-1.471,1.272l-1.648-.048a1.439,1.439,0,0,1-1.393-1.592A18.322,18.322,0,0,1,335.974,144.3Z" transform="translate(-322.302 -124.951)" fill="#3444b3"/><path d="M365.758,177.374a10.153,10.153,0,0,0-3.7,6.377A1.454,1.454,0,0,1,360.582,185l-.8-.024a1.445,1.445,0,0,1-1.385-1.661,13.858,13.858,0,0,1,13.678-11.842,1.434,1.434,0,0,1,1.408,1.6l-.089.795a1.454,1.454,0,0,1-1.441,1.281,10.14,10.14,0,0,0-6.2,2.225Z" transform="translate(-345.204 -149.399)" fill="#3444b3"/><path d="M577.93,203.524V72.635c0-1.87,1.838-3.385,4.1-3.385h2.432c2.267,0,4.1,1.516,4.1,3.385V203.524C588.567,205.384,577.93,205.384,577.93,203.524Z" transform="translate(-517.701 -69.26)" fill="#535461"/><rect width="78.473" height="65.79" rx="32.895" transform="translate(26.13 31.707)" fill="url(#a)"/><rect width="76.654" height="63.856" rx="31.928" transform="translate(27.097 32.672)" fill="#fff"/><path d="M584.218,343.042a1.028,1.028,0,0,1,1.026,1.026v8.82a1.028,1.028,0,0,1-1.026,1.026h-7.98a1.028,1.028,0,0,1-1.026-1.026v-8.82a1.028,1.028,0,0,1,1.026-1.026h7.982m0-.432h-7.982a1.458,1.458,0,0,0-1.458,1.458v8.82a1.458,1.458,0,0,0,1.458,1.458h7.982a1.458,1.458,0,0,0,1.458-1.458v-8.82A1.458,1.458,0,0,0,584.22,342.61Z" transform="translate(-515.228 -283.934)" fill="#e0e0e0"/><line y2="2.476" transform="translate(65 61.934)" fill="none" stroke="#3444b3" stroke-linecap="round" stroke-miterlimit="10" stroke-width="2"/><path d="M593.05,362.629a2.2,2.2,0,1,1-2.035-.019" transform="translate(-527.013 -299.622)" fill="none" stroke="#3444b3" stroke-linecap="round" stroke-miterlimit="10" stroke-width="2"/></g></svg>